<?xml version="1.0" encoding="UTF-8" standalone="no"?>
<!-- Created with Inkscape (http://www.inkscape.org/) -->

<svg
   xmlns:dc="http://purl.org/dc/elements/1.1/"
   xmlns:cc="http://creativecommons.org/ns#"
   xmlns:rdf="http://www.w3.org/1999/02/22-rdf-syntax-ns#"
   xmlns:svg="http://www.w3.org/2000/svg"
   xmlns="http://www.w3.org/2000/svg"
   xmlns:sodipodi="http://sodipodi.sourceforge.net/DTD/sodipodi-0.dtd"
   xmlns:inkscape="http://www.inkscape.org/namespaces/inkscape"
   width="250"
   height="250"
   id="svg2397"
   sodipodi:version="0.32"
   inkscape:version="0.92.2 (5c3e80d, 2017-08-06)"
   version="1.0"
   sodipodi:docname="Flame-icon.svg"
   inkscape:output_extension="org.inkscape.output.svg.inkscape">
  <defs
     id="defs2399">
    <inkscape:perspective
       sodipodi:type="inkscape:persp3d"
       inkscape:vp_x="0 : 526.18109 : 1"
       inkscape:vp_y="0 : 1000 : 0"
       inkscape:vp_z="744.09448 : 526.18109 : 1"
       inkscape:persp3d-origin="372.04724 : 350.78739 : 1"
       id="perspective2405" />
    <inkscape:perspective
       id="perspective2471"
       inkscape:persp3d-origin="372.04724 : 350.78739 : 1"
       inkscape:vp_z="744.09448 : 526.18109 : 1"
       inkscape:vp_y="0 : 1000 : 0"
       inkscape:vp_x="0 : 526.18109 : 1"
       sodipodi:type="inkscape:persp3d" />
    <inkscape:perspective
       id="perspective3222"
       inkscape:persp3d-origin="372.04724 : 350.78739 : 1"
       inkscape:vp_z="744.09448 : 526.18109 : 1"
       inkscape:vp_y="0 : 1000 : 0"
       inkscape:vp_x="0 : 526.18109 : 1"
       sodipodi:type="inkscape:persp3d" />
  </defs>
  <sodipodi:namedview
     id="base"
     pagecolor="#ffffff"
     bordercolor="#666666"
     borderopacity="1.0"
     gridtolerance="10000"
     guidetolerance="10"
     objecttolerance="10"
     inkscape:pageopacity="0.0"
     inkscape:pageshadow="2"
     inkscape:zoom="2.024"
     inkscape:cx="125"
     inkscape:cy="125"
     inkscape:document-units="px"
     inkscape:current-layer="layer1"
     showgrid="false"
     inkscape:window-width="1366"
     inkscape:window-height="705"
     inkscape:window-x="-8"
     inkscape:window-y="-8"
     inkscape:window-maximized="1" />
  <metadata
     id="metadata2402">
    <rdf:RDF>
      <cc:Work
         rdf:about="">
        <dc:format>image/svg+xml</dc:format>
        <dc:type
           rdf:resource="http://purl.org/dc/dcmitype/StillImage" />
      </cc:Work>
    </rdf:RDF>
  </metadata>
  <g
     inkscape:label="Layer 1"
     inkscape:groupmode="layer"
     id="layer1">
    <path
       inkscape:connector-curvature="0"
       id="path21"
       d="M 22,22.000009 22.000003,228 H 227.99999 V 22.000011 Z"
       style="fill:#ffffff;fill-opacity:1;stroke:none;stroke-width:4.76193762;stroke-linecap:round;stroke-linejoin:miter;stroke-miterlimit:4;stroke-dasharray:none;stroke-opacity:1"
       sodipodi:nodetypes="ccccc" />
    <g
       id="g3395"
       transform="translate(-0.76985,0.30027)">
      <rect
         y="32.033756"
         x="33.249855"
         height="185.31128"
         width="185"
         id="rect3318"
         style="fill:#ffffff;fill-opacity:1;stroke:none;stroke-width:3;stroke-linecap:round;stroke-linejoin:round;stroke-miterlimit:4;stroke-dasharray:none;stroke-opacity:1" />
      <path
         id="path3206"
         d="m 25.74985,24.689398 3e-6,200.000012 H 225.74986 V 24.6894 Z m 10.000001,10 180.000009,3e-6 V 214.68941 H 35.749857 Z"
         style="fill:#000000;fill-opacity:1;stroke:none;stroke-width:4.76193762;stroke-linecap:round;stroke-linejoin:miter;stroke-miterlimit:4;stroke-dasharray:none;stroke-opacity:1"
         inkscape:connector-curvature="0" />
      <path
         id="path3200"
         d="m 38.249851,37.189398 175.000009,3e-6 V 212.18941 H 38.249854 Z"
         style="fill:#000000;fill-opacity:1;stroke:none;stroke-width:4.76193762;stroke-linecap:round;stroke-linejoin:miter;stroke-miterlimit:4;stroke-dasharray:none;stroke-opacity:1"
         inkscape:connector-curvature="0" />
      <path
         id="path3284"
         d="M 153.80342,14.971183 C 95.781713,16.460042 49.141327,64.540035 49.14134,123.59837 c -2.4e-5,59.99578 48.132289,108.68836 107.43315,108.68836 29.65029,0 53.71658,-24.34642 53.7166,-54.34417 0,-29.99778 -24.06626,-54.34417 -53.71659,-54.34417 -29.65042,-10e-6 -53.71659,-24.346403 -53.71658,-54.344179 -2e-5,-29.060333 22.57738,-52.826638 50.9455,-54.283028 z"
         style="fill:#ffffff;fill-opacity:1;stroke:#000000;stroke-width:3;stroke-linecap:round;stroke-linejoin:round;stroke-miterlimit:4;stroke-dasharray:none;stroke-opacity:1"
         inkscape:connector-curvature="0" />
      <path
         id="path3384"
         d="m 43.46875,117.59375 c -0.620693,0.0694 -1.20741,0.31927 -1.6875,0.71875 -2.831856,2.29994 -5.231322,5.82603 -5.5,10.125 -0.145359,2.32577 0.586922,4.18838 1.125,5.5625 0.538078,1.37412 0.883437,2.29933 0.90625,3.15625 0.01954,0.73401 -0.41671,2.5673 -0.96875,4.625 -0.55204,2.0577 -1.206075,4.39233 -1.0625,6.96875 0.142783,2.56223 1.007454,4.86805 1.71875,7.03125 0.711296,2.1632 1.240071,4.16138 1.21875,5.03125 -0.02876,1.17323 -0.534862,3.7113 -1.125,6.15625 -0.590138,2.44495 -1.244953,4.84493 -1.5625,6.6875 -0.0235,0.16559 -0.03395,0.33277 -0.03125,0.5 l -0.21875,36.3125 c -0.155858,0.93254 0.109629,1.88621 0.724939,2.60407 0.61531,0.71786 1.51715,1.12608 2.462561,1.11468 l 37.125,-0.53125 c 0,0 2.438263,0.0412 5.5,-0.15625 3.061737,-0.19746 6.564299,-0.48246 9.5,-1.75 2.586412,-1.11673 4.773135,-2.77328 6.65625,-4.21875 1.88311,-1.44547 3.56636,-2.69094 4.3125,-3 0.73045,-0.30256 2.50577,-0.52138 4.53125,-0.65625 2.02548,-0.13487 4.3026,-0.20251 6.59375,-0.90625 2.40301,-0.7381 4.10471,-2.10055 5.3125,-3.09375 1.20779,-0.9932 1.9526,-1.4967 2.09375,-1.53125 1.43448,-0.35115 4.22171,-0.0416 7.25,-0.0312 1.3521,-0.01 2.55134,-0.87048 2.99364,-2.14824 0.4423,-1.27775 0.0317,-2.69556 -1.02489,-3.53926 -2.86325,-2.24183 -6.80645,-3.82056 -11.0625,-3.125 -2.31557,0.37842 -3.9975,1.53256 -5.21875,2.375 -1.22125,0.84244 -2.02819,1.38461 -2.84375,1.59375 -0.69669,0.17865 -2.59129,0.18613 -4.71875,0.0937 -2.12746,-0.0924 -4.53919,-0.24808 -7.03125,0.46875 -1.916093,0.55115 -3.562011,1.48816 -5.125,2.4375 0.576408,-0.65203 1.173751,-1.31993 1.6875,-1.9375 1.523615,-1.83151 2.901044,-3.40568 3.5625,-3.875 0.6498,-0.46105 2.31196,-1.07309 4.25,-1.65625 1.93804,-0.58316 4.14592,-1.1503 6.21875,-2.34375 2.18209,-1.25636 3.51034,-2.97645 4.46875,-4.21875 0.95841,-1.2423 1.62591,-1.90658 1.75,-1.96875 1.29834,-0.6505 4.05449,-0.92504 7.03125,-1.59375 1.33177,-0.29316 2.33033,-1.3998 2.48557,-2.75458 0.15523,-1.35479 -0.56713,-2.65862 -1.79807,-3.24542 -2.05304,-0.96622 -4.46006,-1.56395 -6.96875,-1.5 -1.49286,0.0381 -3.02004,0.29142 -4.53125,0.90625 -2.17057,0.88308 -3.55879,2.3778 -4.5625,3.46875 -1.00371,1.09095 -1.68638,1.80082 -2.4375,2.1875 -0.64679,0.33297 -2.47464,0.73827 -4.5625,1.125 -2.087865,0.38673 -4.454968,0.81259 -6.71875,2.0625 -1.777475,0.9814 -3.198962,2.29656 -4.53125,3.59375 0.436324,-0.79363 0.87217,-1.60055 1.25,-2.34375 1.077797,-2.12005 2.081949,-3.95484 2.625,-4.5625 0.528941,-0.59187 2.018245,-1.56237 3.78125,-2.5625 1.763005,-1.00013 3.7742,-2.06111 5.53125,-3.6875 1.8526,-1.71484 2.78248,-3.69519 3.4375,-5.125 0.65502,-1.42981 1.15039,-2.19923 1.25,-2.28125 1.12798,-0.92882 3.75255,-1.84472 6.5,-3.15625 1.23094,-0.5868 1.9533,-1.89063 1.79807,-3.24542 -0.15524,-1.35478 -1.1538,-2.46142 -2.48557,-2.75458 -1.31708,-0.28827 -2.7266,-0.41982 -4.1875,-0.34375 -2.40689,0.12532 -4.95217,0.80068 -7.15625,2.34375 -1.91786,1.34269 -2.890902,3.09111 -3.625,4.375 -0.734098,1.28389 -1.258666,2.14225 -1.90625,2.6875 -0.559026,0.47069 -2.267487,1.27853 -4.21875,2.125 -1.951263,0.84647 -4.166858,1.77948 -6.09375,3.5 -1.510671,1.34887 -2.583387,2.94391 -3.59375,4.5 0.247803,-0.86834 0.485419,-1.75645 0.6875,-2.5625 0.577436,-2.30324 1.136819,-4.3176 1.53125,-5.03125 0.386033,-0.69845 1.631061,-1.97398 3.125,-3.34375 1.493939,-1.36977 3.213624,-2.83914 4.5625,-4.8125 1.418933,-2.07585 1.89438,-4.22034 2.21875,-5.75 0.32437,-1.52966 0.630497,-2.38571 0.71875,-2.5 0.900723,-1.16649 3.250727,-2.65111 5.625,-4.53125 1.06104,-0.8473 1.47008,-2.27301 1.01964,-3.55395 -0.45044,-1.28095 -1.66181,-2.13685 -3.01964,-2.13355 -3.643494,0.0325 -7.705516,1.27759 -10.59375,4.46875 -1.568332,1.73284 -2.161955,3.68107 -2.59375,5.09375 -0.431795,1.41268 -0.737675,2.32126 -1.25,3 -0.437865,0.58009 -1.904581,1.76814 -3.625,3.03125 -1.720419,1.26311 -3.689653,2.67213 -5.1875,4.78125 -1.182923,1.66568 -1.89265,3.46373 -2.53125,5.21875 0.04832,-0.91658 0.108989,-1.84449 0.125,-2.6875 0.04504,-2.37167 0.150871,-4.47208 0.375,-5.25 0.219843,-0.76305 1.12663,-2.2702 2.28125,-3.9375 1.15462,-1.6673 2.529016,-3.52271 3.40625,-5.75 0.921402,-2.33943 0.898595,-4.49807 0.875,-6.0625 -0.0236,-1.56443 0.09562,-2.46263 0.15625,-2.59375 0.616283,-1.33272 2.601047,-3.32297 4.5,-5.6875 0.851674,-1.06716 0.930487,-2.55778 0.196094,-3.7088 -0.734392,-1.15102 -2.119429,-1.70765 -3.446094,-1.38495 -3.544671,0.8424 -7.205974,2.96349 -9.3125,6.71875 -1.144117,2.03961 -1.299574,4.05576 -1.40625,5.53125 -0.106676,1.47549 -0.183277,2.44408 -0.53125,3.21875 -0.29718,0.66159 -1.478649,2.13831 -2.875,3.75 -1.396351,1.61169 -3.008556,3.42182 -4,5.8125 -0.765783,1.84653 -1.050204,3.71341 -1.28125,5.53125 -0.152435,-0.8702 -0.30331,-1.73488 -0.46875,-2.53125 -0.482132,-2.32083 -0.858038,-4.37691 -0.8125,-5.1875 0.04475,-0.79665 0.592047,-2.49399 1.34375,-4.375 0.751703,-1.88101 1.672108,-3.9803 2.03125,-6.34375 0.378,-2.48756 -0.127697,-4.60267 -0.5,-6.125 -0.372303,-1.52233 -0.466849,-2.42395 -0.4375,-2.5625 0.30387,-1.43451 1.799491,-3.80281 3.125,-6.53125 0.611898,-1.22848 0.370229,-2.71056 -0.600229,-3.68102 -0.970459,-0.97046 -2.452543,-1.21213 -3.681021,-0.60023 -3.27624,1.61391 -6.377445,4.53244 -7.59375,8.65625 -0.661569,2.24302 -0.349495,4.22593 -0.125,5.6875 0.224495,1.46157 0.354362,2.44861 0.1875,3.28125 -0.142633,0.71173 -0.966705,2.40029 -1.96875,4.28125 -1.002045,1.88096 -2.190479,4.01171 -2.625,6.5625 -0.335891,1.97178 -0.176719,3.86127 0,5.6875 -0.343209,-0.8146 -0.691733,-1.63479 -1.03125,-2.375 -0.991106,-2.16079 -1.802331,-4.07935 -1.9375,-4.875 -0.131665,-0.77502 0.02123,-2.55663 0.34375,-4.5625 0.322519,-2.00587 0.770273,-4.26197 0.59375,-6.65625 -0.18538,-2.51441 -1.168619,-4.44519 -1.875,-5.84375 -0.706381,-1.39856 -0.997897,-2.27192 -1,-2.40625 -0.02272,-1.45125 0.936579,-4.09341 1.625,-7.0625 0.236469,-1.00591 -0.02852,-2.06406 -0.71117,-2.8398 -0.682646,-0.77573 -1.69852,-1.17311 -2.72633,-1.06645 z"
         style="fill:#ffffff;fill-rule:evenodd;stroke:none;stroke-width:2.38049054;stroke-linecap:round;stroke-linejoin:round;stroke-miterlimit:4;stroke-opacity:1"
         inkscape:connector-curvature="0" />
      <path
         id="path3389"
         d="m 212.03125,35.1875 -37.125,0.53125 c 0,0 -2.43826,-0.0412 -5.5,0.15625 -3.06174,0.197455 -6.5643,0.482461 -9.5,1.75 -2.58641,1.116731 -4.77313,2.773277 -6.65625,4.21875 -1.88312,1.445473 -3.56636,2.690943 -4.3125,3 -0.73045,0.302555 -2.50576,0.521383 -4.53125,0.65625 -2.02549,0.134867 -4.3026,0.202508 -6.59375,0.90625 -2.40301,0.7381 -4.1047,2.10055 -5.3125,3.09375 -1.2078,0.9932 -1.9526,1.496699 -2.09375,1.53125 -1.43448,0.351152 -4.2217,0.04162 -7.25,0.03125 -1.3521,0.0099 -2.55134,0.870483 -2.99364,2.148237 -0.4423,1.277753 -0.0317,2.695561 1.02489,3.539263 2.86324,2.241829 6.80645,3.820558 11.0625,3.125 2.31557,-0.378419 3.9975,-1.532556 5.21875,-2.375 1.22125,-0.842444 2.02818,-1.384605 2.84375,-1.59375 0.69669,-0.178655 2.59129,-0.186133 4.71875,-0.09375 2.12746,0.09238 4.53919,0.248075 7.03125,-0.46875 1.91609,-0.551153 3.56201,-1.488157 5.125,-2.4375 -0.57641,0.652029 -1.17375,1.319932 -1.6875,1.9375 -1.52362,1.831512 -2.90105,3.405679 -3.5625,3.875 -0.6498,0.46105 -2.31196,1.073089 -4.25,1.65625 -1.93804,0.583161 -4.14592,1.15029 -6.21875,2.34375 -2.18209,1.256362 -3.51034,2.976453 -4.46875,4.21875 -0.95841,1.242297 -1.62591,1.906579 -1.75,1.96875 -1.29833,0.650501 -4.05449,0.925031 -7.03125,1.59375 -1.33177,0.293157 -2.33033,1.399795 -2.48557,2.754583 -0.15523,1.354788 0.56713,2.658617 1.79807,3.245417 2.05304,0.966214 4.46006,1.56395 6.96875,1.5 1.49286,-0.03807 3.02005,-0.29144 4.53125,-0.90625 2.17058,-0.883083 3.55879,-2.377797 4.5625,-3.46875 1.00371,-1.090953 1.68638,-1.800817 2.4375,-2.1875 0.64679,-0.332974 2.47464,-0.738272 4.5625,-1.125 2.08786,-0.386728 4.45497,-0.812595 6.71875,-2.0625 1.77748,-0.981399 3.19896,-2.296562 4.53125,-3.59375 -0.43632,0.793629 -0.87217,1.600551 -1.25,2.34375 -1.0778,2.120047 -2.08195,3.954834 -2.625,4.5625 -0.52894,0.591866 -2.01824,1.562374 -3.78125,2.5625 -1.76301,1.000126 -3.77421,2.061097 -5.53125,3.6875 -1.8526,1.714841 -2.78248,3.695194 -3.4375,5.125 -0.65502,1.429806 -1.15039,2.199225 -1.25,2.28125 -1.12798,0.928812 -3.75255,1.844713 -6.5,3.15625 -1.23094,0.5868 -1.9533,1.890629 -1.79807,3.245417 0.15524,1.354788 1.1538,2.461426 2.48557,2.754583 1.31708,0.288272 2.72661,0.419813 4.1875,0.34375 2.40689,-0.125324 4.95218,-0.800701 7.15625,-2.34375 1.91786,-1.342694 2.8909,-3.091115 3.625,-4.375 0.7341,-1.283885 1.25867,-2.142248 1.90625,-2.6875 0.55903,-0.470695 2.26749,-1.278527 4.21875,-2.125 1.95126,-0.846473 4.16686,-1.779489 6.09375,-3.5 1.51067,-1.348871 2.58339,-2.943907 3.59375,-4.5 -0.2478,0.868343 -0.48542,1.756452 -0.6875,2.5625 -0.57744,2.303239 -1.13682,4.317593 -1.53125,5.03125 -0.38603,0.698444 -1.63106,1.97398 -3.125,3.34375 -1.49394,1.36977 -3.21363,2.839136 -4.5625,4.8125 -1.41893,2.075848 -1.89438,4.220343 -2.21875,5.75 -0.32437,1.529657 -0.6305,2.38571 -0.71875,2.5 -0.90071,1.16648 -3.25073,2.6511 -5.625,4.53125 -1.06104,0.8473 -1.47008,2.27301 -1.01964,3.55395 0.45044,1.28095 1.66181,2.13685 3.01964,2.13355 3.64349,-0.0325 7.70551,-1.27759 10.59375,-4.46875 1.56834,-1.73285 2.16196,-3.68107 2.59375,-5.09375 0.43179,-1.41268 0.73767,-2.321262 1.25,-3 0.43787,-0.580098 1.90458,-1.768145 3.625,-3.03125 1.72042,-1.263105 3.68965,-2.672138 5.1875,-4.78125 1.18292,-1.665677 1.89265,-3.463725 2.53125,-5.21875 -0.0483,0.916581 -0.10899,1.844493 -0.125,2.6875 -0.045,2.371674 -0.15087,4.472069 -0.375,5.25 -0.21984,0.763043 -1.12663,2.270197 -2.28125,3.9375 -1.15462,1.667303 -2.52902,3.522705 -3.40625,5.75 -0.9214,2.33943 -0.89859,4.49807 -0.875,6.0625 0.0236,1.56443 -0.0956,2.46263 -0.15625,2.59375 -0.61628,1.33272 -2.60105,3.32296 -4.5,5.6875 -0.85167,1.06716 -0.93049,2.55778 -0.19609,3.7088 0.73439,1.15102 2.11942,1.70765 3.44609,1.38495 3.54467,-0.8424 7.20597,-2.96349 9.3125,-6.71875 1.14412,-2.03962 1.29958,-4.05576 1.40625,-5.53125 0.10667,-1.47549 0.18328,-2.44408 0.53125,-3.21875 0.29718,-0.6616 1.47865,-2.13831 2.875,-3.75 1.39635,-1.61169 3.00855,-3.421832 4,-5.8125 0.76578,-1.846531 1.0502,-3.713405 1.28125,-5.53125 0.15243,0.870201 0.30331,1.734876 0.46875,2.53125 0.48213,2.320825 0.85804,4.376902 0.8125,5.1875 -0.0447,0.796643 -0.59205,2.49399 -1.34375,4.375 -0.7517,1.88101 -1.67211,3.98029 -2.03125,6.34375 -0.37799,2.48755 0.1277,4.60267 0.5,6.125 0.3723,1.52233 0.46685,2.42394 0.4375,2.5625 -0.30386,1.43449 -1.79949,3.80279 -3.125,6.53125 -0.6119,1.22848 -0.37023,2.71056 0.60023,3.68102 0.97046,0.97046 2.45254,1.21213 3.68102,0.60023 3.27625,-1.61391 6.37744,-4.53245 7.59375,-8.65625 0.66157,-2.24302 0.3495,-4.22593 0.125,-5.6875 -0.2245,-1.46157 -0.35436,-2.44862 -0.1875,-3.28125 0.14264,-0.71174 0.96671,-2.40029 1.96875,-4.28125 1.00204,-1.88096 2.19047,-4.01172 2.625,-6.5625 0.3359,-1.971789 0.17672,-3.861267 0,-5.6875 0.34321,0.814603 0.69173,1.634792 1.03125,2.375 0.9911,2.160787 1.80233,4.07934 1.9375,4.875 0.13166,0.77501 -0.0212,2.55663 -0.34375,4.5625 -0.32252,2.00587 -0.77028,4.26196 -0.59375,6.65625 0.18538,2.51441 1.16862,4.44519 1.875,5.84375 0.70638,1.39856 0.9979,2.27191 1,2.40625 0.0227,1.45124 -0.93659,4.09339 -1.625,7.0625 -0.30213,1.32751 0.2708,2.70057 1.4269,3.41961 1.1561,0.71904 2.64098,0.62584 3.6981,-0.23211 2.83186,-2.29994 5.23131,-5.82604 5.5,-10.125 0.14536,-2.32578 -0.58692,-4.18838 -1.125,-5.5625 -0.53808,-1.37412 -0.88344,-2.29933 -0.90625,-3.15625 -0.0195,-0.73401 0.41671,-2.5673 0.96875,-4.625 0.55204,-2.0577 1.20607,-4.39234 1.0625,-6.96875 -0.14278,-2.562237 -1.00745,-4.868052 -1.71875,-7.03125 -0.7113,-2.163198 -1.24007,-4.161385 -1.21875,-5.03125 0.0288,-1.173226 0.53486,-3.711299 1.125,-6.15625 0.59014,-2.444951 1.24495,-4.844936 1.5625,-6.6875 0.0235,-0.165591 0.034,-0.332772 0.0312,-0.5 l 0.21875,-36.3125 c 0.15586,-0.932545 -0.10963,-1.886208 -0.72494,-2.60407 -0.61531,-0.717861 -1.51715,-1.12608 -2.46256,-1.11468 z"
         style="fill:#ffffff;fill-rule:evenodd;stroke:none;stroke-width:2.38049054;stroke-linecap:round;stroke-linejoin:round;stroke-miterlimit:4;stroke-opacity:1"
         inkscape:connector-curvature="0" />
      <path
         id="path3393"
         d="m 39.471346,210.93666 v -0.0625 l 0.21875,-36.6875 c 0.525766,-3.05075 2.632478,-9.76148 2.71875,-13.28125 0.08627,-3.51977 -2.73364,-8.6855 -2.9375,-12.34375 -0.203859,-3.65825 2.114538,-8.37133 2.03125,-11.5 -0.08329,-3.12867 -2.224438,-5.34646 -2.03125,-8.4375 0.197406,-3.15855 2.0793,-6.03002 4.3125,-7.84375 -0.604941,2.60906 -1.725998,5.38492 -1.6875,7.84375 0.03849,2.45896 2.606702,4.79843 2.875,8.4375 0.263332,3.57169 -1.444668,8.3307 -0.90625,11.5 0.536632,3.1588 3.764554,7.86768 4.59375,12.34375 0.829193,4.47608 -1.09375,14.03125 -1.09375,14.03125 1.191433,-2.85727 5.038926,-8.71268 5.90625,-12.125 0.867323,-3.41233 -0.740283,-9.0756 -0.125,-12.6875 0.61528,-3.6119 3.947512,-7.68124 4.5625,-10.75 0.614986,-3.06876 -1.001155,-5.71694 -0.125,-8.6875 0.895293,-3.03543 3.356702,-5.41617 5.9375,-6.6875 -1.170338,2.40904 -2.865395,4.87551 -3.375,7.28125 -0.509637,2.40587 1.454437,5.26747 0.90625,8.875 -0.538037,3.54074 -3.225945,7.79036 -3.40625,11 -0.179713,3.19901 1.906352,8.4829 1.71875,13.03125 -0.187607,4.54837 -4.187501,13.43749 -4.1875,13.4375 1.797357,-2.52052 6.863866,-7.33497 8.46875,-10.46875 1.604884,-3.13378 1.28393,-9.02183 2.6875,-12.40625 1.403568,-3.38444 5.561323,-6.61377 6.84375,-9.46875 1.282424,-2.85498 0.297307,-5.79887 1.8125,-8.5 1.548286,-2.7601 4.482261,-4.52231 7.28125,-5.1875 -1.677052,2.08822 -3.874102,4.11171 -4.90625,6.34375 -1.032211,2.23214 0.243435,5.44865 -1.09375,8.84375 -1.312428,3.33224 -4.891263,6.87971 -5.78125,9.96875 -0.887046,3.07882 -0.02376,8.70116 -1.21875,13.09375 -1.195,4.39259 -7.281249,11.81251 -7.078125,12.15625 2.516282,-1.71363 8.347407,-5.6144 10.609375,-8.3125 2.261971,-2.69809 3.25352,-8.51274 5.375,-11.5 2.121479,-2.98726 6.895692,-5.22072 8.78125,-7.71875 1.885558,-2.49804 1.577992,-5.57874 3.65625,-7.875 2.123642,-2.34638 5.37317,-3.41183 8.25,-3.4375 -2.099672,1.66269 -4.684554,3.14734 -6.1875,5.09375 -1.503024,1.94649 -0.972115,5.36256 -3.03125,8.375 -2.021009,2.95666 -6.288707,5.62396 -7.84375,8.4375 -1.549901,2.80425 -1.982534,8.48346 -4.125,12.5 -2.142472,4.01655 -9.734373,9.85938 -9.625,10.25 2.822343,-1.10045 9.41312,-3.62288 12.21875,-5.75 2.805635,-2.12711 5.07949,-7.55971 7.8125,-10 2.733011,-2.4403 7.855859,-3.54666 10.25,-5.5625 2.394154,-2.01584 2.775394,-5.09877 5.312504,-6.875 1.62032,-1.13438 3.55686,-1.6817 5.46875,-1.78125 1.14713,-0.0597 2.28985,0.0506 3.34375,0.28125 -2.41701,1.15379 -5.25788,1.99932 -7.15625,3.5625 -1.89847,1.56323 -2.13466,5.05253 -4.8125,7.53125 -2.628253,2.43282 -7.389131,4.07177 -9.531254,6.46875 -2.135041,2.38906 -3.83,7.84215 -6.8125,11.28125 -2.982514,3.43911 -11.671875,7.46876 -11.65625,7.875 2.992366,-0.44375 9.978884,-1.45678 13.1875,-2.90625 3.208615,-1.44948 6.636251,-6.26029 9.84375,-8.03125 3.207502,-1.77097 8.436074,-1.69245 11.218754,-3.125 2.78269,-1.43256 3.85,-4.36412 6.71875,-5.53125 1.09927,-0.44723 2.27506,-0.65786 3.4375,-0.6875 1.9374,-0.0494 3.87308,0.42183 5.5,1.1875 -2.61315,0.58703 -5.58263,0.77343 -7.78125,1.875 -2.19872,1.10159 -3.21273,4.42929 -6.375,6.25 -3.1037,1.78699 -8.09696,2.32727 -10.718754,4.1875 -2.613122,1.85408 -5.483259,6.81079 -9.15625,9.5 -3.673004,2.68923 -13.031251,4.65625 -13.09375,5.0625 3.02875,0.23994 10.018047,0.79291 13.46875,0.0937 3.450706,-0.69916 7.853847,-4.61216 11.375004,-5.625 3.52116,-1.01284 8.62457,0.24618 11.65625,-0.53125 3.0317,-0.77745 4.72472,-3.40674 7.78125,-3.90625 3.12327,-0.51043 6.32855,0.69517 8.59375,2.46875 -2.67826,-0.009 -5.61138,-0.45972 -8,0.125 -2.38872,0.58472 -4.10562,3.58485 -7.59375,4.65625 -3.42353,1.05156 -8.43626,0.45732 -11.40625,1.6875 -2.960186,1.22613 -6.820706,5.41426 -11.000004,7.21875 -4.17932,1.80449 -13.781251,1.65625 -13.78125,1.65625 l -37.125,0.53125"
         style="fill:#ffffff;fill-rule:evenodd;stroke:#000000;stroke-width:2.38049054;stroke-linecap:round;stroke-linejoin:round;stroke-miterlimit:4;stroke-opacity:1"
         inkscape:connector-curvature="0" />
      <path
         id="path3264"
         d="m 212.02836,38.442143 v 0.0625 l -0.21875,36.6875 c -0.52576,3.05075 -2.63248,9.76148 -2.71875,13.28125 -0.0863,3.51977 2.73364,8.6855 2.9375,12.343747 0.20386,3.65825 -2.11454,8.37133 -2.03125,11.5 0.0833,3.12867 2.22444,5.34646 2.03125,8.4375 -0.1974,3.15855 -2.0793,6.03002 -4.3125,7.84375 0.60494,-2.60906 1.726,-5.38492 1.6875,-7.84375 -0.0385,-2.45896 -2.6067,-4.79843 -2.875,-8.4375 -0.26333,-3.57169 1.44467,-8.3307 0.90625,-11.5 -0.53663,-3.158797 -3.76455,-7.867677 -4.59375,-12.343747 -0.82919,-4.47608 1.09375,-14.03125 1.09375,-14.03125 -1.19143,2.85727 -5.03892,8.71268 -5.90625,12.125 -0.86732,3.41233 0.74029,9.0756 0.125,12.6875 -0.61528,3.611897 -3.94751,7.681237 -4.5625,10.749997 -0.61498,3.06876 1.00116,5.71694 0.125,8.6875 -0.89529,3.03543 -3.3567,5.41617 -5.9375,6.6875 1.17034,-2.40904 2.8654,-4.87551 3.375,-7.28125 0.50964,-2.40587 -1.45443,-5.26747 -0.90625,-8.875 0.53804,-3.54074 3.22595,-7.79036 3.40625,-10.999997 0.17972,-3.19901 -1.90635,-8.4829 -1.71875,-13.03125 0.18761,-4.54837 4.1875,-13.43749 4.1875,-13.4375 -1.79735,2.52052 -6.86386,7.33497 -8.46875,10.46875 -1.60488,3.13378 -1.28393,9.02183 -2.6875,12.40625 -1.40357,3.38444 -5.56132,6.613767 -6.84375,9.468747 -1.28242,2.85498 -0.2973,5.79887 -1.8125,8.5 -1.54828,2.7601 -4.48226,4.52231 -7.28125,5.1875 1.67705,-2.08822 3.8741,-4.11171 4.90625,-6.34375 1.03221,-2.23214 -0.24343,-5.44865 1.09375,-8.84375 1.31243,-3.332237 4.89127,-6.879707 5.78125,-9.968747 0.88705,-3.07882 0.0238,-8.70116 1.21875,-13.09375 1.195,-4.39259 7.28125,-11.81251 7.07813,-12.15625 -2.51628,1.71363 -8.34741,5.6144 -10.60938,8.3125 -2.26197,2.69809 -3.25352,8.51274 -5.375,11.5 -2.12148,2.98726 -6.89569,5.22072 -8.78125,7.71875 -1.88556,2.49804 -1.57799,5.578737 -3.65625,7.874997 -2.12364,2.34638 -5.37317,3.41183 -8.25,3.4375 2.09967,-1.66269 4.68456,-3.14734 6.1875,-5.09375 1.50303,-1.946487 0.97212,-5.362557 3.03125,-8.374997 2.02101,-2.95666 6.28871,-5.62396 7.84375,-8.4375 1.5499,-2.80425 1.98254,-8.48346 4.125,-12.5 2.14247,-4.01655 9.73438,-9.85938 9.625,-10.25 -2.82234,1.10045 -9.41312,3.62288 -12.21875,5.75 -2.80563,2.12711 -5.07949,7.55971 -7.8125,10 -2.73301,2.4403 -7.85586,3.54666 -10.25,5.5625 -2.39415,2.01584 -2.77539,5.09877 -5.3125,6.875 -1.62032,1.13438 -3.55686,1.6817 -5.46875,1.78125 -1.14713,0.05973 -2.28985,-0.05058 -3.34375,-0.28125 2.41701,-1.15379 5.25788,-1.99932 7.15625,-3.5625 1.89847,-1.56323 2.13466,-5.05253 4.8125,-7.53125 2.62825,-2.43282 7.38913,-4.07177 9.53125,-6.46875 2.13504,-2.38906 3.83,-7.84215 6.8125,-11.28125 2.98252,-3.43911 11.67188,-7.46876 11.65625,-7.875 -2.99236,0.44375 -9.97888,1.45678 -13.1875,2.90625 -3.20861,1.44948 -6.63625,6.26029 -9.84375,8.03125 -3.2075,1.77097 -8.43607,1.69245 -11.21875,3.125 -2.78269,1.43256 -3.85,4.36412 -6.71875,5.53125 -1.09927,0.44723 -2.27506,0.65786 -3.4375,0.6875 -1.9374,0.04939 -3.87308,-0.42183 -5.5,-1.1875 2.61315,-0.58703 5.58263,-0.77343 7.78125,-1.875 2.19872,-1.10159 3.21273,-4.42929 6.375,-6.25 3.1037,-1.78699 8.09696,-2.32727 10.71875,-4.1875 2.61312,-1.85408 5.48326,-6.81079 9.15625,-9.5 3.67301,-2.68923 13.03125,-4.65625 13.09375,-5.0625 -3.02875,-0.23994 -10.01804,-0.79291 -13.46875,-0.09375 -3.4507,0.69916 -7.85384,4.61216 -11.375,5.625 -3.52116,1.01284 -8.62457,-0.24618 -11.65625,0.53125 -3.0317,0.77745 -4.72472,3.40674 -7.78125,3.90625 -3.12327,0.51043 -6.32855,-0.69517 -8.59375,-2.46875 2.67826,0.0092 5.61138,0.45972 8,-0.125 2.38872,-0.58472 4.10562,-3.58485 7.59375,-4.65625 3.42353,-1.05156 8.43626,-0.45732 11.40625,-1.6875 2.96018,-1.22613 6.8207,-5.41426 11,-7.21875 4.17932,-1.80449 13.78125,-1.65625 13.78125,-1.65625 l 37.125,-0.53125"
         style="fill:#ffffff;fill-rule:evenodd;stroke:#000000;stroke-width:2.38049054;stroke-linecap:round;stroke-linejoin:round;stroke-miterlimit:4;stroke-opacity:1"
         inkscape:connector-curvature="0" />
    </g>
  </g>
</svg>
