<?xml version="1.0" encoding="UTF-8" standalone="no"?>
<!-- Created with Inkscape (http://www.inkscape.org/) -->

<svg
   xmlns:dc="http://purl.org/dc/elements/1.1/"
   xmlns:cc="http://creativecommons.org/ns#"
   xmlns:rdf="http://www.w3.org/1999/02/22-rdf-syntax-ns#"
   xmlns:svg="http://www.w3.org/2000/svg"
   xmlns="http://www.w3.org/2000/svg"
   xmlns:sodipodi="http://sodipodi.sourceforge.net/DTD/sodipodi-0.dtd"
   xmlns:inkscape="http://www.inkscape.org/namespaces/inkscape"
   width="350"
   height="250"
   id="svg2"
   sodipodi:version="0.32"
   inkscape:version="0.92.2 (5c3e80d, 2017-08-06)"
   version="1.0"
   sodipodi:docname="Cairhien-icon.svg"
   inkscape:output_extension="org.inkscape.output.svg.inkscape">
  <defs
     id="defs4">
    <inkscape:perspective
       sodipodi:type="inkscape:persp3d"
       inkscape:vp_x="0 : 526.18109 : 1"
       inkscape:vp_y="0 : 1000 : 0"
       inkscape:vp_z="744.09448 : 526.18109 : 1"
       inkscape:persp3d-origin="372.04724 : 350.78739 : 1"
       id="perspective10" />
    <inkscape:perspective
       id="perspective2447"
       inkscape:persp3d-origin="372.04724 : 350.78739 : 1"
       inkscape:vp_z="744.09448 : 526.18109 : 1"
       inkscape:vp_y="0 : 1000 : 0"
       inkscape:vp_x="0 : 526.18109 : 1"
       sodipodi:type="inkscape:persp3d" />
    <inkscape:perspective
       id="perspective3252"
       inkscape:persp3d-origin="372.04724 : 350.78739 : 1"
       inkscape:vp_z="744.09448 : 526.18109 : 1"
       inkscape:vp_y="0 : 1000 : 0"
       inkscape:vp_x="0 : 526.18109 : 1"
       sodipodi:type="inkscape:persp3d" />
    <inkscape:perspective
       id="perspective2839"
       inkscape:persp3d-origin="0.5 : 0.33333333 : 1"
       inkscape:vp_z="1 : 0.5 : 1"
       inkscape:vp_y="0 : 1000 : 0"
       inkscape:vp_x="0 : 0.5 : 1"
       sodipodi:type="inkscape:persp3d" />
    <inkscape:perspective
       id="perspective2850"
       inkscape:persp3d-origin="0.5 : 0.33333333 : 1"
       inkscape:vp_z="1 : 0.5 : 1"
       inkscape:vp_y="0 : 1000 : 0"
       inkscape:vp_x="0 : 0.5 : 1"
       sodipodi:type="inkscape:persp3d" />
  </defs>
  <sodipodi:namedview
     id="base"
     pagecolor="#ffffff"
     bordercolor="#666666"
     borderopacity="1.0"
     gridtolerance="10000"
     guidetolerance="10"
     objecttolerance="10"
     inkscape:pageopacity="0.0"
     inkscape:pageshadow="2"
     inkscape:zoom="2.024"
     inkscape:cx="175"
     inkscape:cy="125"
     inkscape:document-units="px"
     inkscape:current-layer="layer1"
     showgrid="false"
     inkscape:window-width="1366"
     inkscape:window-height="705"
     inkscape:window-x="-8"
     inkscape:window-y="-8"
     inkscape:window-maximized="1" />
  <metadata
     id="metadata7">
    <rdf:RDF>
      <cc:Work
         rdf:about="">
        <dc:format>image/svg+xml</dc:format>
        <dc:type
           rdf:resource="http://purl.org/dc/dcmitype/StillImage" />
      </cc:Work>
    </rdf:RDF>
  </metadata>
  <g
     inkscape:label="Layer 1"
     inkscape:groupmode="layer"
     id="layer1">
    <path
       style="color:#000000;font-style:normal;font-variant:normal;font-weight:normal;font-stretch:normal;font-size:medium;line-height:normal;font-family:sans-serif;font-variant-ligatures:normal;font-variant-position:normal;font-variant-caps:normal;font-variant-numeric:normal;font-variant-alternates:normal;font-feature-settings:normal;text-indent:0;text-align:start;text-decoration:none;text-decoration-line:none;text-decoration-style:solid;text-decoration-color:#000000;letter-spacing:normal;word-spacing:normal;text-transform:none;writing-mode:lr-tb;direction:ltr;text-orientation:mixed;dominant-baseline:auto;baseline-shift:baseline;text-anchor:start;white-space:normal;shape-padding:0;clip-rule:nonzero;display:inline;overflow:visible;visibility:visible;opacity:1;isolation:auto;mix-blend-mode:normal;color-interpolation:sRGB;color-interpolation-filters:linearRGB;solid-color:#000000;solid-opacity:1;vector-effect:none;fill:#ffffff;fill-opacity:1;fill-rule:evenodd;stroke:none;stroke-width:9;stroke-linecap:round;stroke-linejoin:round;stroke-miterlimit:4;stroke-dasharray:none;stroke-dashoffset:0;stroke-opacity:1;color-rendering:auto;image-rendering:auto;shape-rendering:auto;text-rendering:auto;enable-background:accumulate"
       d="M 72 22 L 72 98.179688 L 71.705078 97.945312 A 4.50045 4.50045 0 0 0 65.263672 104.11133 L 72 113.39258 L 72 157.08594 L 62.279297 153.96484 A 4.50045 4.50045 0 0 0 58.509766 162.06055 L 72 170.53516 L 72 192.125 L 20.75 192.125 A 4.50045 4.50045 0 0 0 19.730469 201.00781 L 72 213.16016 L 72 228 L 278 228 L 278 213.16016 L 330.26953 201.00781 A 4.50045 4.50045 0 0 0 329.25 192.125 L 278 192.125 L 278 170.53516 L 291.49023 162.06055 A 4.50045 4.50045 0 0 0 287.7207 153.96484 L 278 157.08594 L 278 113.39258 L 284.73633 104.11133 A 4.50045 4.50045 0 0 0 278.29492 97.945312 L 278 98.179688 L 278 22 L 72 22 z M 59.976562 201.125 L 72 201.125 L 72 203.91992 L 59.976562 201.125 z M 278 201.125 L 290.02344 201.125 L 278 203.91992 L 278 201.125 z "
       id="path57" />
    <g
       id="g2895">
      <rect
         y="32.255508"
         x="81.768234"
         height="185.48898"
         width="186.46353"
         id="rect3277"
         style="fill:#ffffff;fill-opacity:1;stroke:none" />
      <path
         id="path2399"
         d="m 75,25 0,200 200,0 0,-200 -200,0 z m 11.5,11.5 177,0 0,177 -177,0 0,-177 z"
         style="fill:#000000;fill-opacity:1;stroke:none" />
      <rect
         y="40"
         x="90"
         height="170"
         width="170"
         id="rect3228"
         style="fill:#000000;fill-opacity:1;stroke:none" />
      <path
         sodipodi:nodetypes="cccc"
         id="path3265"
         d="m 144.40433,152.01084 -13.19402,-47.68618 26.31279,40.93102 -13.11877,6.75516 z"
         style="fill:#ffffff;fill-rule:evenodd;stroke:#000000;stroke-width:3;stroke-linecap:butt;stroke-linejoin:round;stroke-miterlimit:4;stroke-opacity:1;stroke-dasharray:none" />
      <path
         sodipodi:nodetypes="cccc"
         id="path3256"
         d="m 111.58043,190.08489 -50.6765,-31.83524 55.67404,17.87528 -4.99754,13.95996 z"
         style="fill:#ffffff;fill-rule:evenodd;stroke:#000000;stroke-width:3;stroke-linecap:round;stroke-linejoin:round;stroke-miterlimit:4;stroke-opacity:1;stroke-dasharray:none" />
      <path
         style="fill:#ffffff;stroke:#000000;stroke-width:3;stroke-linecap:butt;stroke-linejoin:round;stroke-miterlimit:4;stroke-opacity:1;stroke-dasharray:none"
         d="m 205.59567,152.01084 13.19402,-47.68618 -26.31279,40.93102 13.11877,6.75516 z"
         id="path3646"
         sodipodi:nodetypes="cccc" />
      <path
         style="fill:#ffffff;stroke:#000000;stroke-width:3;stroke-linecap:round;stroke-linejoin:round;stroke-miterlimit:4;stroke-opacity:1;stroke-dasharray:none"
         d="m 238.41957,190.08489 50.6765,-31.83524 -55.67404,17.87528 4.99754,13.95996 z"
         id="path3664"
         sodipodi:nodetypes="cccc" />
      <path
         sodipodi:nodetypes="cccccccccccccccc"
         id="path3632"
         d="m 89.03125,212.5 171.9375,0 68.28125,-15.875 -69.96875,0 c -2.97374,-14.64499 -9.67588,-27.93201 -19.0625,-38.84375 l 40.875,-56.3125 -54.65625,43.40625 c -12.48631,-9.32814 -27.60921,-15.34918 -44.03125,-16.75 L 175,48.15625 167.59375,128.125 c -16.42204,1.40082 -31.54494,7.42186 -44.03125,16.75 l -54.65625,-43.40625 40.875,56.3125 c -9.38662,10.91174 -16.088757,24.19876 -19.0625,38.84375 l -69.96875,0 68.28125,15.875 z"
         style="fill:#ffffff;stroke:#000000;stroke-width:3;stroke-linejoin:round;stroke-miterlimit:4;stroke-opacity:1;stroke-dasharray:none" />
    </g>
  </g>
</svg>
