<?xml version="1.0" encoding="UTF-8" standalone="no"?>
<!-- Created with Inkscape (http://www.inkscape.org/) -->

<svg
   xmlns:dc="http://purl.org/dc/elements/1.1/"
   xmlns:cc="http://creativecommons.org/ns#"
   xmlns:rdf="http://www.w3.org/1999/02/22-rdf-syntax-ns#"
   xmlns:svg="http://www.w3.org/2000/svg"
   xmlns="http://www.w3.org/2000/svg"
   xmlns:xlink="http://www.w3.org/1999/xlink"
   xmlns:sodipodi="http://sodipodi.sourceforge.net/DTD/sodipodi-0.dtd"
   xmlns:inkscape="http://www.inkscape.org/namespaces/inkscape"
   width="500"
   height="250"
   id="svg2"
   sodipodi:version="0.32"
   inkscape:version="0.92.2 (5c3e80d, 2017-08-06)"
   version="1.0"
   sodipodi:docname="Dragon-icon.svg"
   inkscape:output_extension="org.inkscape.output.svg.inkscape">
  <defs
     id="defs4">
    <inkscape:perspective
       sodipodi:type="inkscape:persp3d"
       inkscape:vp_x="0 : 526.18109 : 1"
       inkscape:vp_y="0 : 1000 : 0"
       inkscape:vp_z="744.09448 : 526.18109 : 1"
       inkscape:persp3d-origin="372.04724 : 350.78739 : 1"
       id="perspective10" />
    <inkscape:perspective
       id="perspective3217"
       inkscape:persp3d-origin="372.04724 : 350.78739 : 1"
       inkscape:vp_z="744.09448 : 526.18109 : 1"
       inkscape:vp_y="0 : 1000 : 0"
       inkscape:vp_x="0 : 526.18109 : 1"
       sodipodi:type="inkscape:persp3d" />
  </defs>
  <sodipodi:namedview
     id="base"
     pagecolor="#ffffff"
     bordercolor="#666666"
     borderopacity="1.0"
     gridtolerance="10000"
     guidetolerance="10"
     objecttolerance="10"
     inkscape:pageopacity="0.0"
     inkscape:pageshadow="2"
     inkscape:zoom="2.024"
     inkscape:cx="250"
     inkscape:cy="125"
     inkscape:document-units="px"
     inkscape:current-layer="layer1"
     showgrid="false"
     inkscape:window-width="1366"
     inkscape:window-height="705"
     inkscape:window-x="-8"
     inkscape:window-y="-8"
     showguides="true"
     inkscape:guide-bbox="true"
     inkscape:window-maximized="1"
     inkscape:snap-global="false" />
  <metadata
     id="metadata7">
    <rdf:RDF>
      <cc:Work
         rdf:about="">
        <dc:format>image/svg+xml</dc:format>
        <dc:type
           rdf:resource="http://purl.org/dc/dcmitype/StillImage" />
      </cc:Work>
    </rdf:RDF>
  </metadata>
  <g
     inkscape:label="Layer 1"
     inkscape:groupmode="layer"
     id="layer1">
    <path
       style="color:#000000;font-style:normal;font-variant:normal;font-weight:normal;font-stretch:normal;font-size:medium;line-height:normal;font-family:sans-serif;font-variant-ligatures:normal;font-variant-position:normal;font-variant-caps:normal;font-variant-numeric:normal;font-variant-alternates:normal;font-feature-settings:normal;text-indent:0;text-align:start;text-decoration:none;text-decoration-line:none;text-decoration-style:solid;text-decoration-color:#000000;letter-spacing:normal;word-spacing:normal;text-transform:none;writing-mode:lr-tb;direction:ltr;text-orientation:mixed;dominant-baseline:auto;baseline-shift:baseline;text-anchor:start;white-space:normal;shape-padding:0;clip-rule:nonzero;display:inline;overflow:visible;visibility:visible;opacity:1;isolation:auto;mix-blend-mode:normal;color-interpolation:sRGB;color-interpolation-filters:linearRGB;solid-color:#000000;solid-opacity:1;vector-effect:none;fill:#ffffff;fill-opacity:1;fill-rule:evenodd;stroke:none;stroke-width:6;stroke-linecap:butt;stroke-linejoin:miter;stroke-miterlimit:4;stroke-dasharray:none;stroke-dashoffset:0;stroke-opacity:1;color-rendering:auto;image-rendering:auto;shape-rendering:auto;text-rendering:auto;enable-background:accumulate"
       d="M 145 18.203125 L 145 224.20312 L 351 224.20312 L 351 106.04102 C 353.71095 105.9317 356.39839 105.4089 358.68555 103.82617 C 361.86326 103.66788 365.40774 103.10111 369.32031 101.51367 C 375.79978 98.884775 384.89187 92.839254 392.29297 84.652344 C 393.29254 83.546644 394.40561 82.034838 395.49023 80.623047 C 395.94825 81.053431 396.35071 81.378837 397.03125 82.220703 C 397.54345 82.854326 398.24052 83.660014 399.38086 84.238281 C 400.5212 84.816549 402.00115 84.976052 403.36133 84.710938 C 405.47425 84.299104 406.69982 82.968765 407.73438 81.595703 C 408.76891 80.222642 409.58292 78.621732 410.20312 76.939453 C 410.82337 75.257174 411.24644 73.51103 411.33008 71.777344 C 411.41368 70.043658 411.26898 68.147821 409.80078 66.511719 C 408.8185 65.418481 407.1889 65.197728 405.95117 65.990234 C 408.62627 62.171968 411.17099 58.922232 413.7207 55.787109 C 413.7994 56.200748 413.7658 56.377118 413.9082 56.861328 C 414.46816 58.76615 416.6906 59.61159 418.375 58.560547 C 420.5752 57.186629 421.56048 54.926593 422.14844 52.728516 C 422.7364 50.530439 422.98714 48.153946 423.26758 45.699219 C 423.47639 43.871474 423.65706 43.957072 424.41602 43.066406 C 425.17497 42.17574 426.56584 40.069178 426.56836 37.298828 C 426.57136 34.343405 425.11789 31.700257 423.03125 30.054688 C 420.94461 28.409118 418.33453 27.58815 415.58789 27.369141 C 412.41934 27.116489 410.11674 28.558531 408.86133 29.296875 C 407.60592 30.035219 407.18805 30.413472 404.79883 30.076172 C 402.11976 29.697952 400.89096 28.868683 399.58398 27.830078 C 398.27701 26.791473 396.86834 25.134031 394.20312 24.527344 C 394.00754 24.482754 393.80797 24.457885 393.60742 24.453125 C 391.8092 24.411065 390.37834 25.949804 390.55078 27.740234 C 390.58568 28.104246 390.63518 28.420285 390.68164 28.748047 C 390.10396 28.671047 389.48281 28.572629 388.72266 28.414062 C 388.73726 28.417063 387.62858 28.024608 386.37695 27.404297 C 385.12532 26.783986 383.56932 25.946299 381.91211 25.041016 C 378.55742 23.20846 374.33002 20.903927 369.11523 20.300781 C 367.89991 20.160216 366.68028 20.103637 365.4668 20.109375 C 364.25331 20.115075 363.04596 20.183205 361.84961 20.291016 C 359.4569 20.506673 357.11543 20.882141 354.88672 21.238281 C 353.51334 21.457743 352.28549 21.643305 351 21.841797 L 351 18.203125 L 145 18.203125 z M 398.35742 52.90625 C 398.26042 53.063344 398.18682 53.201618 398.08789 53.359375 C 396.72154 55.538182 394.99437 58.44934 393.38477 61.148438 C 393.23292 59.430461 392.86787 57.540009 391.31641 55.837891 C 391.11871 55.621533 390.89037 55.43531 390.63867 55.285156 C 390.66477 55.241346 390.75651 54.988763 390.79297 54.931641 C 390.89077 54.896691 391.34119 54.664267 391.95898 54.480469 C 392.76438 54.240858 393.85555 53.990682 395.04297 53.71875 C 396.09683 53.477405 397.228 53.21766 398.35742 52.90625 z M 381.55469 56.087891 C 381.55491 56.090991 381.56055 56.094456 381.56055 56.097656 C 381.58475 56.400859 381.45084 57.343936 381.44336 58.84375 C 381.44244 59.033082 381.45944 59.222076 381.49414 59.408203 C 379.75213 58.934568 377.62875 58.291024 375.68555 57.550781 C 374.78284 57.206905 374.1484 56.844408 373.33984 56.480469 C 373.86335 56.487069 374.19553 56.548423 374.73242 56.507812 C 377.67071 56.285581 380.29149 56.008925 381.55469 56.087891 z M 403.27344 69.818359 C 403.10137 70.117397 402.71431 70.774815 402.58984 70.945312 C 402.33111 71.299734 402.26713 71.406069 402.13086 71.453125 C 402.5084 70.908582 402.89197 70.368829 403.27344 69.818359 z M 380.75 76.421875 C 381.41969 76.415875 382.42841 76.69267 383.24805 76.783203 C 383.09698 76.971294 382.91315 77.259713 382.76758 77.433594 C 382.30581 77.985165 381.7793 78.558757 381.22461 79.138672 C 378.62813 78.437025 376.06821 77.943466 373.57422 77.658203 C 376.28386 77.006453 378.97522 76.437687 380.75 76.421875 z "
       id="path205" />
    <g
       id="g143">
      <path
         transform="translate(-26.994565,-3.796875)"
         d="m 460.21875,45.75 c -2.51086,0.213751 -5.13943,1.915784 -5.09375,4.28125 0.0663,3.436771 6.87139,6.12008 7.03125,8.96875 0.16605,2.95886 -1.75732,4.985151 -4.625,5.15625 -2.86323,0.17083 -4.15339,-2.38455 -6.5625,-2.34375 -2.29859,0.03893 -3.50064,3.17425 -3.4375,5.4375 0.0631,2.263247 1.21881,4.646727 3.875,4.71875 2.6569,0.07204 5.82149,-4.285628 9.5,-2.59375 3.67852,1.691878 3.10888,10.416833 2.90625,16.4375 -0.20266,6.020668 -4.14609,19.9237 -7.1875,20.34375 -3.14991,0.43503 -4.5126,-4.08531 -10.625,-2.96875 -3.01174,0.55016 -5.9627,3.15971 -8.6875,6.90625 -11.43124,-13.455535 -29.39969,-21.371801 -41.34375,-21.5 L 367.65625,82 c -27.12364,23.6967 33.17576,22.95614 37.5,47.59375 3.49134,19.89217 -11.46243,29.2865 -28.65625,26.875 v 6.0625 c -4.49429,0.45975 -11.10156,2.55915 -14.875,9.09375 4.39799,-3.33075 10.27209,-4.81163 14.875,-3.875 v 7.09375 c -2.03861,1.37887 -3.95165,3.16822 -5.09375,5.25 1.16404,-0.88268 3.0626,-1.46244 5.09375,-1.71875 v 24.375 c 9.1272,-0.25189 17.67334,-2.23536 25.46875,-5.4375 3.17942,1.64023 6.34948,3.14509 9.125,4.15625 9.62479,3.50644 25.44361,6.01198 26.875,9.40625 1.46461,3.47303 -4.78861,3.7947 -4.75,7.6875 0.0386,3.89077 4.1358,5.38811 7.15625,3.65625 3.02044,-1.73186 1.43553,-7.555 2.875,-9.03125 1.48548,-1.52346 4.28985,-1.41158 6.3125,1.03125 2.02264,2.44283 -0.76419,10.08196 2.25,11.25 2.9332,1.13667 6.29275,-0.83431 6.78125,-4 0.48851,-3.16569 -3.79424,-4.2517 -4.1875,-6.34375 -0.41355,-2.19994 0.83872,-3.51888 3.34375,-3.71875 2.50504,-0.19988 4.65665,4.61458 8,3.53125 3.31504,-1.07415 4.40324,-5.61282 1.96875,-7.875 -2.4345,-2.26218 -8.1346,1.86814 -10.15625,0.375 -2.02166,-1.49314 -2.07265,-3.02295 -0.5625,-5.40625 1.51016,-2.38331 6.29187,-2.12417 9.59375,-3.25 3.27453,-1.1165 0.32391,-8.12851 -3.15625,-8 -3.48017,0.12851 -4.02696,4.92712 -7.0625,6.6875 -2.996,1.73745 -4.45635,-0.033 -5.3125,-2.03125 -0.85615,-1.99826 2.21634,-5.83747 1.03125,-8.28125 -1.2217,-2.51929 -7.6561,-3.35412 -8.5625,-0.0937 -0.93035,3.34657 3.19915,8.27259 1.40625,10.875 -1.86631,2.70895 -11.15375,1.89873 -16.5625,0.28125 -3.60965,-1.07946 -9.62794,-5.00858 -12.96875,-8.09375 2.5421,-1.695 4.99235,-3.50687 7.28125,-5.4375 2.07351,-0.35009 4.22011,-0.88143 6.15625,-1.8125 6.25993,-3.01035 13.90868,-12.04372 13.65625,-18.875 -0.0444,-1.20029 -0.24234,-2.28592 -0.5625,-3.28125 3.7886,-7.39861 5.9706,-14.92271 6.1875,-21.78125 4.75062,0.18962 10.20756,4.74076 10.59375,8.28125 3.00817,-3.04454 2.63585,-9.60287 2.5,-14.15625 2.73825,2.30026 4.46106,4.0734 5.78125,8.28125 1.43074,-3.75123 0.73828,-12.95579 -0.3125,-17.90625 3.14986,1.46102 6.18193,4.16632 7.5,7.0625 2.2024,-4.8418 1.69802,-17.2451 1.34375,-24.5625 -0.35426,-7.317405 -2.25703,-14.288396 -2.25,-19.4375 0.007,-5.038562 1.73191,-8.110916 3.875,-8.0625 2.14844,0.04854 3.57699,4.598347 6.84375,4.59375 3.23608,-0.0046 4.57819,-4.094641 3.09375,-6.75 -1.48445,-2.655361 -4.95202,-0.154095 -7.15625,-2.21875 -2.26016,-2.117038 -2.19067,-5.485813 0.75,-6.53125 2.94067,-1.045435 6.32509,2.705007 8.4375,0.53125 2.1124,-2.173755 0.99459,-7.488895 -2,-8.65625 -2.9946,-1.167358 -5.19864,4.650431 -7.9375,4.65625 -2.74084,0.0058 -4.24428,-2.547117 -3.84375,-5.125 0.40054,-2.577883 5.18161,-3.733883 5.125,-6.8125 -0.0566,-3.078616 -4.32628,-7.054264 -7.375,-5.875 -3.04873,1.179262 0.22985,8.637966 -1.75,10.4375 -1.97985,1.799532 -4.0409,1.365106 -6.03125,-0.25 -1.99036,-1.615105 0.71668,-8.056415 -2,-9.96875 -0.83302,-0.586384 -1.95245,-0.81591 -3.09375,-0.71875 z"
         inkscape:href="#path3287"
         id="path3335"
         style="fill:#00ff00;fill-rule:evenodd;stroke:none;stroke-width:3;stroke-linecap:round;stroke-linejoin:round;stroke-miterlimit:4;stroke-dasharray:none;stroke-opacity:1"
         xlink:href="#path3287"
         inkscape:original="M 460.21875 45.75 C 457.70789 45.963751 455.07932 47.665784 455.125 50.03125 C 455.19135 53.468021 461.99639 56.15133 462.15625 59 C 462.3223 61.95886 460.39893 63.985151 457.53125 64.15625 C 454.66802 64.32708 453.37786 61.7717 450.96875 61.8125 C 448.67016 61.851429 447.46811 64.98675 447.53125 67.25 C 447.59439 69.513247 448.75006 71.896727 451.40625 71.96875 C 454.06315 72.040791 457.22774 67.683122 460.90625 69.375 C 464.58477 71.066878 464.01513 79.791833 463.8125 85.8125 C 463.60984 91.833168 459.66641 105.7362 456.625 106.15625 C 453.47509 106.59128 452.1124 102.07094 446 103.1875 C 442.98826 103.73766 440.0373 106.34721 437.3125 110.09375 C 425.88126 96.638215 407.91281 88.721949 395.96875 88.59375 L 367.65625 82 C 340.53261 105.6967 400.83201 104.95614 405.15625 129.59375 C 408.64759 149.48592 393.69382 158.88025 376.5 156.46875 L 376.5 162.53125 C 372.00571 162.991 365.39844 165.0904 361.625 171.625 C 366.02299 168.29425 371.89709 166.81337 376.5 167.75 L 376.5 174.84375 C 374.46139 176.22262 372.54835 178.01197 371.40625 180.09375 C 372.57029 179.21107 374.46885 178.63131 376.5 178.375 L 376.5 202.75 C 385.6272 202.49811 394.17334 200.51464 401.96875 197.3125 C 405.14817 198.95273 408.31823 200.45759 411.09375 201.46875 C 420.71854 204.97519 436.53736 207.48073 437.96875 210.875 C 439.43336 214.34803 433.18014 214.6697 433.21875 218.5625 C 433.25734 222.45327 437.35455 223.95061 440.375 222.21875 C 443.39544 220.48689 441.81053 214.66375 443.25 213.1875 C 444.73548 211.66404 447.53985 211.77592 449.5625 214.21875 C 451.58514 216.66158 448.79831 224.30071 451.8125 225.46875 C 454.7457 226.60542 458.10525 224.63444 458.59375 221.46875 C 459.08226 218.30306 454.79951 217.21705 454.40625 215.125 C 453.9927 212.92506 455.24497 211.60612 457.75 211.40625 C 460.25504 211.20637 462.40665 216.02083 465.75 214.9375 C 469.06504 213.86335 470.15324 209.32468 467.71875 207.0625 C 465.28425 204.80032 459.58415 208.93064 457.5625 207.4375 C 455.54084 205.94436 455.48985 204.41455 457 202.03125 C 458.51016 199.64794 463.29187 199.90708 466.59375 198.78125 C 469.86828 197.66475 466.91766 190.65274 463.4375 190.78125 C 459.95733 190.90976 459.41054 195.70837 456.375 197.46875 C 453.379 199.2062 451.91865 197.43576 451.0625 195.4375 C 450.20635 193.43924 453.27884 189.60003 452.09375 187.15625 C 450.87205 184.63696 444.43765 183.80213 443.53125 187.0625 C 442.6009 190.40907 446.7304 195.33509 444.9375 197.9375 C 443.07119 200.64645 433.78375 199.83623 428.375 198.21875 C 424.76535 197.13929 418.74706 193.21017 415.40625 190.125 C 417.94835 188.43 420.3986 186.61813 422.6875 184.6875 C 424.76101 184.33741 426.90761 183.80607 428.84375 182.875 C 435.10368 179.86465 442.75243 170.83128 442.5 164 C 442.45564 162.79971 442.25766 161.71408 441.9375 160.71875 C 445.7261 153.32014 447.9081 145.79604 448.125 138.9375 C 452.87562 139.12712 458.33256 143.67826 458.71875 147.21875 C 461.72692 144.17421 461.3546 137.61588 461.21875 133.0625 C 463.957 135.36276 465.67981 137.1359 467 141.34375 C 468.43074 137.59252 467.73828 128.38796 466.6875 123.4375 C 469.83736 124.89852 472.86943 127.60382 474.1875 130.5 C 476.3899 125.6582 475.88552 113.2549 475.53125 105.9375 C 475.17699 98.620095 473.27422 91.649104 473.28125 86.5 C 473.28812 81.461438 475.01316 78.389084 477.15625 78.4375 C 479.30469 78.486036 480.73324 83.035847 484 83.03125 C 487.23608 83.026694 488.57819 78.936609 487.09375 76.28125 C 485.6093 73.625889 482.14173 76.127155 479.9375 74.0625 C 477.67734 71.945462 477.74683 68.576687 480.6875 67.53125 C 483.62817 66.485815 487.01259 70.236257 489.125 68.0625 C 491.2374 65.888745 490.11959 60.573605 487.125 59.40625 C 484.1304 58.238892 481.92636 64.056681 479.1875 64.0625 C 476.44666 64.068322 474.94322 61.515383 475.34375 58.9375 C 475.74429 56.359617 480.52536 55.203617 480.46875 52.125 C 480.41215 49.046384 476.14247 45.070736 473.09375 46.25 C 470.04502 47.429262 473.3236 54.887966 471.34375 56.6875 C 469.3639 58.487032 467.30285 58.052606 465.3125 56.4375 C 463.32214 54.822395 466.02918 48.381085 463.3125 46.46875 C 462.47948 45.882366 461.36005 45.65284 460.21875 45.75 z "
         inkscape:radius="0"
         sodipodi:type="inkscape:offset" />
      <path
         style="fill:none;fill-opacity:1;fill-rule:evenodd;stroke:#000000;stroke-width:5;stroke-linecap:butt;stroke-linejoin:miter;stroke-miterlimit:4;stroke-dasharray:none;stroke-opacity:1"
         d="m 441.50543,204.29688 c 0.96705,1.78282 0.56842,4.18412 -0.875,5.6875 3.25713,0.2593 10.07781,-1.07938 10.71875,-4.09376 -3.37275,0.60688 -5.96042,0.69283 -9.84375,-1.59374 z"
         id="path3314"
         inkscape:connector-curvature="0" />
      <path
         sodipodi:nodetypes="csssscsssssssssszzcsscccssssssssscccsccccsccsscsscsssscssscsscssssscssssscssccsssccsssscsccssssscssscssscssscsc"
         id="path3337"
         d="m 434.84918,37.453125 c -2.13434,0.181698 -4.14313,0.883929 -5.90625,2.25 -1.76312,1.366071 -3.39936,3.745279 -3.34375,6.625 0.0452,2.341065 1.1563,4.050671 2.15625,5.25 0.99995,1.199329 2.04018,2.056835 2.9375,2.8125 0.71908,0.605561 1.19245,1.057175 1.59375,1.4375 -0.0294,0.0028 0.004,-0.0021 -0.0312,0 -0.0516,0.0031 0.10331,0.114358 -0.78125,-0.4375 -0.88456,-0.551858 -2.74421,-1.95398 -5.5625,-1.90625 -3.19351,0.05409 -5.48917,2.324494 -6.53125,4.25 -1.04207,1.925506 -1.43052,3.853289 -1.375,5.84375 0.0518,1.85703 0.50565,3.842498 1.8125,5.6875 1.30686,1.845002 3.80576,3.365293 6.46875,3.4375 3.84955,0.104379 5.42327,-1.791982 6.65625,-2.46875 0.97188,-0.533452 0.83339,-0.422284 0.84375,-0.40625 0.19574,0.527521 0.41414,1.488877 0.53125,2.75 0.24498,2.638122 0.72188,6.00595 0.19051,9.392128 -0.52896,3.370935 -2.28603,8.324882 -3.53444,10.920747 -1.26997,2.640708 -2.15652,3.090611 -2.68732,4.155875 -0.19935,-0.12876 -0.22395,-0.12832 -0.46875,-0.28125 -1.88739,-1.179114 -5.44787,-2.606792 -9.625,-1.84375 -3.22085,0.588358 -5.80332,2.36014 -8.0625,4.625 -11.96974,-11.965617 -27.9157,-18.861795 -40.4375,-19.21875 l -28,-6.53125 c -1.41656,-0.328305 -2.90459,0.04371 -4,1 -3.69901,3.231662 -6.21063,6.224574 -7.5625,9.53125 -1.35187,3.306676 -1.18472,7.072532 0.3125,9.9375 2.99445,5.72994 8.94641,8.463835 15.21875,11.468755 6.27234,3.00491 13.22194,5.92996 18.5625,9.375 5.34056,3.44503 8.69807,7.07773 9.46875,11.46874 1.53444,8.74258 -0.79143,14.0311 -5,17.53126 -4.20857,3.50015 -10.94517,5.16211 -18.5625,4.09374 -1.29517,-0.18153 -2.60556,0.20582 -3.59387,1.06237 -0.98831,0.85653 -1.55799,2.09857 -1.56238,3.40639 v 2.3125 c -4.92638,1.28969 -10.60407,4.27996 -14.25,10.59374 -1.01714,1.85676 -0.61186,4.17046 0.97584,5.57094 1.58769,1.40046 3.9339,1.51376 5.64916,0.27282 2.21071,-1.67424 5.07129,-2.6162 7.625,-2.96876 v 0.46876 c -1.71382,1.41843 -3.3499,3.03417 -4.53125,5.1875 -0.82758,1.49226 -0.7459,3.32307 0.21127,4.73571 0.95716,1.41265 2.62725,2.1672 4.31998,1.95179 v 18.15624 c -10e-4,1.22405 0.49279,2.39651 1.37001,3.25017 0.87722,0.85367 2.0627,1.31581 3.28624,1.28109 8.97633,-0.24773 17.39846,-2.13484 25.15625,-5.09376 2.63264,1.31267 5.25995,2.62409 7.75,3.53126 5.23606,1.90756 11.64436,3.39309 16.84375,4.84374 2.19561,0.6126 3.9468,1.2316 5.40625,1.78126 -0.36926,0.31557 -0.63225,0.42312 -1.03125,0.875 -1.053,1.19252 -2.08418,3.18926 -2.0625,5.375 0.035,3.52858 2.27842,6.74195 5.09375,8.03124 2.81533,1.2893 6.07878,1.11663 8.84375,-0.46874 1.66691,-0.95578 2.68816,-2.47664 3.28125,-3.84376 0.0229,0.71934 -0.0539,1.34115 0.125,2.1875 0.35278,1.66862 1.6332,4.20979 4.15625,5.1875 5.66341,2.19469 11.95257,-1.5535 12.875,-7.53124 0.15291,-0.99092 0.0664,-1.9766 -0.15625,-2.90626 1.30025,0.31389 2.79532,0.47136 4.25,0 6.59623,-2.13732 8.79562,-10.72438 3.65625,-15.5 -0.60426,-0.56148 -1.31995,-0.80279 -2,-1.09374 1.96233,-1.03999 3.34557,-3.1531 3.625,-4.90626 0.3156,-1.98006 -0.0698,-3.63785 -0.6875,-5.15624 -0.61768,-1.5184 -1.49949,-2.88747 -2.8125,-4.09376 -1.31301,-1.20628 -3.24542,-2.33902 -5.65625,-2.25 -1.90397,0.0703 -3.73387,0.91857 -4.90625,1.90626 -0.74674,0.6291 -1.0881,1.21342 -1.53125,1.8125 0.24236,-1.3642 0.21184,-2.92672 -0.6875,-4.78126 -1.88678,-3.89077 -5.16026,-4.56255 -8.1875,-4.75 -1.51362,-0.0937 -3.09201,0.0275 -4.75,0.78126 -1.65799,0.75374 -3.4523,2.43008 -4.0625,4.625 -1.0817,3.89099 0.46689,6.55901 1.125,8.4375 0.12253,0.34973 0.13237,0.43658 0.21875,0.71874 -0.68114,0.0939 -1.41193,0.2085 -2.4375,0.1875 -2.73487,-0.056 -6.15332,-0.64811 -8.375,-1.3125 -1.25538,-0.37541 -4.00075,-1.99288 -6.6875,-3.78124 0.52383,-0.40569 1.08113,-0.76948 1.59375,-1.1875 1.99887,-0.39268 4.11104,-0.92393 6.21875,-1.9375 4.0749,-1.95959 7.85218,-5.34309 10.90625,-9.34376 3.05408,-4.00066 5.50374,-8.60577 5.3125,-13.78124 -0.032,-0.86559 -0.28667,-1.62712 -0.4375,-2.4375 2.61553,-5.37735 4.49536,-10.82802 5.40625,-16.1875 0.0684,0.0513 0.15246,0.072 0.21875,0.125 1.39344,1.11404 2.03348,2.68196 2,2.375 0.19171,1.73471 1.36336,3.20481 3.01158,3.77869 1.64823,0.57387 3.47955,0.14935 4.70717,-1.09119 1.53431,-1.55287 2.33813,-3.32571 2.875,-5.125 1.1418,0.63096 2.50027,0.73881 3.72731,0.29587 1.22704,-0.44294 2.20342,-1.39359 2.67894,-2.60837 1.01372,-2.65785 1.14264,-5.43737 1.09375,-8.34376 1.0939,0.4982 2.341,0.54099 3.46648,0.11895 1.12547,-0.42206 2.03694,-1.27432 2.53352,-2.36895 1.75842,-3.86573 2.48125,-8.32134 3.03107,-13.12511 0.55327,-4.8339 0.89702,-9.85269 0.71893,-13.53113 -0.38541,-7.960782 -2.2555,-15.190565 -2.25,-19.218755 0.001,-0.800498 0.15601,-0.970285 0.25,-1.5625 1.3155,1.255245 3.09988,2.628993 5.9375,2.625 3.52452,-0.005 6.42116,-2.551098 7.5,-5.1875 1.07884,-2.636402 1.04016,-5.61337 -0.46875,-8.3125 -0.28195,-0.504342 -0.73875,-0.887353 -1.15625,-1.3125 0.9112,-0.342789 1.81868,-0.830147 2.5,-1.53125 2.61963,-2.695719 2.72243,-6.026525 2.09375,-8.84375 -0.62867,-2.817225 -2.20139,-5.828541 -5.6875,-7.1875 -1.54006,-0.600349 -3.15544,-0.36095 -4.53125,0.0625 0.43422,-0.950555 0.77187,-2.029603 0.75,-3.21875 -0.0661,-3.595401 -1.94884,-6.012486 -4.1875,-7.90625 -2.23866,-1.893764 -5.55962,-3.557477 -9.34375,-2.09375 -1.68391,0.651344 -2.65462,2.035242 -3.3125,3.40625 -0.4826,-0.976987 -1.19224,-1.911665 -2.25,-2.65625 -1.93942,-1.365206 -4.07144,-1.700751 -6.0625,-1.53125 z"
         style="fill:#000000;fill-opacity:1;fill-rule:evenodd;stroke:none;stroke-width:3;stroke-linecap:round;stroke-linejoin:round;stroke-miterlimit:4;stroke-opacity:1"
         inkscape:connector-curvature="0" />
      <path
         style="fill:none;fill-rule:evenodd;stroke:#000000;stroke-width:5;stroke-linecap:butt;stroke-linejoin:miter;stroke-miterlimit:4;stroke-dasharray:none;stroke-opacity:1"
         d="m 422.97418,60.859375 c -2.23968,1.17275 -4.8451,2.14097 -8.9375,2.65625 2.71984,2.362334 6.80014,3.799758 9.78125,3.46875 -0.83076,-0.92051 -1.24507,-2.234671 -1.28125,-3.53125 -0.0226,-0.810364 0.14639,-1.741339 0.4375,-2.59375 z"
         id="path3295"
         inkscape:connector-curvature="0" />
      <rect
         y="25.247242"
         x="152.78485"
         height="191.17647"
         width="190.80882"
         id="rect3501"
         style="fill:#ffffff;fill-opacity:1;stroke:none;stroke-width:2.5;stroke-linecap:square;stroke-linejoin:miter;stroke-miterlimit:4;stroke-dasharray:none;stroke-opacity:1" />
      <path
         style="fill:none;fill-rule:evenodd;stroke:#000000;stroke-width:5;stroke-linecap:butt;stroke-linejoin:miter;stroke-miterlimit:4;stroke-dasharray:none;stroke-opacity:1"
         d="m 432.19293,33.078125 c -2.24913,3.431604 -2.50289,7.970004 -1.28125,11 1.33215,-1.661974 4.1078,-2.52156 6.1875,-1.96875 -2.42658,-2.447657 -4.58368,-4.530705 -4.90625,-9.03125 z"
         id="path3297"
         inkscape:connector-curvature="0" />
      <path
         sodipodi:nodetypes="csssssscsscsscsccscsssscccscscsssccssszccssccccsc"
         id="path2432"
         d="m 393.53668,27.453125 c 0.33313,3.47217 2.54142,7.256725 -3.625,12.125 -6.22197,4.912134 -44.60304,9.477809 -56.96875,11.03125 -12.36572,1.55344 -19.21261,-3.733478 -25,1.46875 -5.7874,5.202226 -6.4311,18.814509 -4.4375,26.46875 1.9936,7.654239 10.54836,16.833097 16.1875,20.21875 5.63914,3.385645 11.68152,3.161375 17.65625,3.312495 5.31462,0.13443 16.01137,2.76323 20.375,-1.15624 3.0946,-0.0783 6.56935,-0.60541 10.46875,-2.187505 5.8623,-2.3785 14.81546,-8.28466 21.875,-16.09375 1.4393,-1.592113 3.0602,-3.666969 4.78125,-6.03125 0.43876,0.187563 0.86248,0.350491 1.21875,0.53125 3.2991,1.673851 3.25108,5.300895 6.71875,4.625 3.46767,-0.675891 7.20973,-10.543802 4.78125,-13.25 -2.31504,3.418786 -2.54072,5.77573 -5.875,6 -1.32285,0.08898 -2.91268,-0.446586 -4.46875,-1.28125 5.55735,-7.919499 11.91843,-17.629532 17.5625,-23.59375 0.17672,0.214565 0.38397,0.414655 0.5,0.59375 1.35422,2.090233 0.77025,3.299758 1.5,5.78125 2.46325,-1.538181 2.93889,-5.744818 3.5,-10.65625 0.54996,-4.813876 3.27738,-3.802798 3.28125,-8.0625 0.004,-4.146278 -3.65186,-6.573349 -8.21875,-6.9375 -4.66752,-0.372176 -4.92214,3.541136 -10.96875,2.6875 -6.49112,-0.91639 -7.66068,-4.869175 -10.84375,-5.59375 z m 12.875,16.3125 c 0.15391,0.01332 0.69153,0.09675 1.09375,0.25 -2.11985,2.535404 -4.12819,6.557399 -6.875,10.9375 -2.42868,3.872813 -5.484,9.173861 -8.53125,14.125 -0.23445,-0.288581 -0.4772,-0.564733 -0.65625,-0.84375 -1.85108,-2.884656 0.29778,-7.476961 -2.34375,-10.375 -2.07441,3.567219 -1.63193,5.557381 -4.5625,5.3125 -3.27899,-0.273997 -17.19443,-4.658058 -17.9375,-7.75 -0.73734,-3.068046 4.85628,-1.675571 7.90625,-1.90625 2.98262,-0.225585 6.48069,-0.990336 8.71875,-0.375 1.89885,2.085203 1.23103,3.256886 1.21875,5.71875 3.53242,-2.307262 2.61023,-4.768321 4.46875,-6.28125 1.85852,-1.512931 8.66621,-1.942468 12.125,-3.90625 3.45879,-1.963779 3.06802,-4.006463 4.9375,-4.875 0.12267,-0.05699 0.2831,-0.04461 0.4375,-0.03125 z m -25.6875,29.65625 c 2.33758,-0.02083 5.19863,0.445376 7.90625,1.125 -1.22885,1.820348 -2.44358,3.475976 -3.5625,4.8125 -4.82604,5.764567 -13.72598,12.788947 -19.15625,15.09375 -2.22589,0.944755 -4.45509,1.538008 -6.5625,1.90625 -0.5319,-3.107055 19.57926,-12.072992 16.90591,-15.298213 -5.1313,-1.16804 -18.59963,-3.456867 -26.02649,-5.102128 1.77478,-1.828149 4.12488,-2.432177 6.58933,-2.474659 2.25138,0.138417 4.20935,2.779977 7.96875,2.78125 3.84519,0.0013 11.04897,-2.800195 15.9375,-2.84375 z"
         style="fill:#000000;fill-rule:evenodd;stroke:none;stroke-width:1px;stroke-linecap:butt;stroke-linejoin:miter;stroke-opacity:1"
         inkscape:connector-curvature="0" />
      <path
         style="fill:none;fill-rule:evenodd;stroke:#000000;stroke-width:5;stroke-linecap:butt;stroke-linejoin:miter;stroke-miterlimit:4;stroke-dasharray:none;stroke-opacity:1"
         d="m 453.94293,33.953125 c -0.1629,3.269147 -2.41941,6.224148 -4.65625,8.3125 1.95528,0.0054 4.12976,1.553204 5.3125,3.40625 1.46625,-3.216451 1.39389,-8.208416 -0.65625,-11.71875 z"
         id="path3299"
         inkscape:connector-curvature="0" />
      <path
         id="rect3223"
         d="M 148.00544,21.203125 V 221.20312 H 348.00543 V 21.203125 Z m 19,19 H 329.00543 V 202.20312 H 167.00544 Z"
         style="fill:#000000;fill-opacity:1;stroke:none;stroke-width:3;stroke-linecap:square;stroke-linejoin:miter;stroke-miterlimit:4;stroke-dasharray:none;stroke-opacity:1"
         inkscape:connector-curvature="0" />
      <path
         style="fill:none;fill-rule:evenodd;stroke:#000000;stroke-width:5;stroke-linecap:butt;stroke-linejoin:miter;stroke-miterlimit:4;stroke-dasharray:none;stroke-opacity:1"
         d="m 472.50543,54.609375 c -2.07976,1.733672 -5.23151,2.3099 -8.75,2.21875 1.52151,1.844577 1.93282,5.013389 0.78125,6.875 3.11558,-1.073048 8.07581,-5.382208 7.96875,-9.09375 z"
         id="path3301"
         inkscape:connector-curvature="0" />
      <rect
         y="43.703125"
         x="170.50543"
         height="155"
         width="155"
         id="rect3228"
         style="fill:#000000;fill-opacity:1;stroke:none;stroke-width:3;stroke-linecap:square;stroke-linejoin:miter;stroke-miterlimit:4;stroke-dasharray:none;stroke-opacity:1" />
      <path
         sodipodi:nodetypes="csccscscscsc"
         id="path3400"
         d="m 340.66168,78.203125 c -27.12364,23.696705 33.17577,22.956145 37.5,47.593755 3.49134,19.89216 -11.46243,29.28649 -28.65625,26.875 v 6.0625 c 0.37792,-0.0387 0.78035,-0.077 1.125,-0.0938 4.44675,-0.21565 8.4107,-0.0219 11.8125,2.03126 1.82141,-2.22319 6.46914,-4.03021 10.21875,-4.375 3.74962,-0.34481 8.48007,1.04355 12.8125,3.34374 3.03093,-4.76508 9.00331,-9.60332 16.9375,-9.75 6.49394,-0.12003 11.01357,2.2972 12.53125,7.0625 4.03284,-7.86185 6.24077,-15.86348 6.21875,-23.0625 -0.0908,-29.70959 -33.51974,-48.893378 -52.1875,-49.093745"
         style="fill:#000000;fill-rule:evenodd;stroke:#ffffff;stroke-width:3;stroke-linecap:round;stroke-linejoin:round;stroke-miterlimit:4;stroke-dasharray:none;stroke-opacity:1"
         inkscape:connector-curvature="0" />
      <path
         style="fill:none;fill-rule:evenodd;stroke:#000000;stroke-width:5;stroke-linecap:butt;stroke-linejoin:miter;stroke-miterlimit:4;stroke-dasharray:none;stroke-opacity:1"
         d="m 462.38043,73.078125 c 0.8256,2.183053 0.0172,4.957348 -2,5.84375 2.10613,1.482313 7.06043,1.904814 9.53125,0.46875 -1.76402,-1.264153 -4.90916,-3.265386 -7.53125,-6.3125 z"
         id="path3303"
         inkscape:connector-curvature="0" />
      <path
         sodipodi:nodetypes="ccccc"
         id="path3485"
         d="m 351.10957,148.78095 c -1.67262,-0.21988 -4.44381,-0.77798 -6.42037,-1.11659 0.0473,6.29111 -0.0974,46.81775 -0.13957,55.82932 1.56288,-0.20026 2.63686,-0.19898 8.58375,-0.83743 -0.47348,-6.84948 -1.8865,-46.53719 -2.02381,-53.8753 z"
         style="fill:#000000;fill-rule:evenodd;stroke:#000000;stroke-width:1px;stroke-linecap:butt;stroke-linejoin:miter;stroke-opacity:1"
         inkscape:connector-curvature="0" />
      <path
         id="path3406"
         d="m 340.66168,78.203125 c -27.12364,23.696705 33.17577,22.956145 37.5,47.593755 3.49134,19.89216 -11.46243,29.28649 -28.65625,26.875 v 6.0625 c 0.37792,-0.0387 0.78035,-0.077 1.125,-0.0938 4.44675,-0.21565 8.4107,-0.0219 11.8125,2.03126 1.82141,-2.22319 6.46914,-4.03021 10.21875,-4.375 3.74962,-0.34481 8.48007,1.04355 12.8125,3.34374 1.57862,-2.4818 3.96864,-4.96125 7,-6.8125 6.98773,-8.4375 11.4366,-18.20083 11.40625,-28.125 C 403.7896,94.993529 351.2412,94.94761 340.66168,78.203125 Z"
         style="fill:#000000;fill-rule:evenodd;stroke:#ffffff;stroke-width:3;stroke-linecap:butt;stroke-linejoin:round;stroke-miterlimit:4;stroke-dasharray:none;stroke-opacity:1"
         inkscape:connector-curvature="0" />
      <path
         style="fill:none;fill-opacity:1;fill-rule:evenodd;stroke:#000000;stroke-width:5;stroke-linecap:butt;stroke-linejoin:miter;stroke-miterlimit:4;stroke-dasharray:none;stroke-opacity:1"
         d="m 422.13043,174.42188 c -2.20616,0.71665 -4.29477,3.98156 -4.65625,7.5 1.49682,-1.13115 4.28164,-0.96648 6.09375,0 -1.13882,-2.68367 -1.54112,-5.15523 -1.4375,-7.5 z"
         id="path3309"
         inkscape:connector-curvature="0" />
      <path
         sodipodi:nodetypes="cccccszscccssssccssssccscsc"
         id="path3467"
         d="m 111.25544,24.421875 c -1.9165,0.05124 -7.49865,1.018214 -8.76037,2.911012 3.06251,1.116657 4.70515,3.370427 5.51037,5.276488 -2.62751,1.330291 -9.121855,3.255291 -18.906255,5.15625 -0.0627,0.0092 -0.12521,0.01959 -0.1875,0.03125 -8.94585,2.11791 -17.868113,6.992113 -25.75,11.15625 -7.881887,4.164137 -14.268671,7.0622 -17.40625,7.25 -3.248068,0.194414 -6.689824,-0.577106 -8.09375,-1.09375 -1.403926,-0.516644 -1.88211,-0.991751 -3.21875,-1.875 -1.643328,-1.095993 -4.566969,-3.621362 -6.517163,-6.701036 -1.617562,1.133675 -1.264848,9.907368 -0.795337,11.826036 1.703102,7.009955 6.205902,13.101786 11.71875,17.6875 5.512848,4.585714 12.106402,7.766552 18.875,8.125 11.392716,0.603332 17.57501,-1.102161 21.3125,-0.125 2.20208,0.575731 4.74038,4.049536 1.84375,7.875 -1.09942,1.448955 -2.50328,2.841096 -5.24326,4.69232 1.80601,1.85122 7.23691,2.9935 9.05576,2.99518 6.74531,-0.0066 17.088635,1.854925 30.625005,-5.65625 7.69792,-4.271487 12.2907,-12.013569 17.03125,-18.03125 4.74054,-6.017681 8.73275,-9.838612 14.0625,-9.75 1.28343,0.02242 3.95887,0.89893 4.87531,1.25e-4 0.91643,-0.898805 -0.003,-3.497753 -3.1e-4,-4.781375 v -24.21875 c -0.002,-1.283499 0.82775,-3.919669 3.1e-4,-4.780875 -0.82744,-0.861206 -3.31165,0.05255 -4.59406,-3.75e-4 -4.06869,-0.15355 -7.35976,-1.847014 -12.6875,-3.9375 -5.32775,-2.090486 -12.41183,-4.212501 -22.75,-4.03125 z"
         style="fill:#000000;fill-rule:evenodd;stroke:none;stroke-width:3;stroke-linecap:butt;stroke-linejoin:miter;stroke-miterlimit:4;stroke-opacity:1"
         inkscape:connector-curvature="0" />
      <path
         sodipodi:nodetypes="ccscsscsccc"
         id="path3313"
         d="m 111.34894,29.203072 c 6.88017,5.845126 -0.45513,9.191661 -21.343755,13.25 -15.9799,3.783208 -34.845812,18.630203 -44.3125,18.53125 -9.366111,-0.0979 -11.809796,-2.364668 -13.90625,-3.75 2.766001,11.384848 15.481861,21.589306 26.1875,22.15625 10.705641,0.566946 16.69834,-1.428394 22.28125,0.03125 5.66037,1.479893 9.16418,9.16392 4.4375,15.40625 7.52866,-0.0074 15.889515,1.830863 28.312505,-5.0625 12.14069,-6.736721 18.2394,-28.628721 33.5,-28.375 v -24.21875 c -10.48215,-0.395591 -15.8003,-8.308103 -35.15625,-7.96875 z"
         style="fill:#000000;fill-rule:evenodd;stroke:#ffffff;stroke-width:3;stroke-linecap:butt;stroke-linejoin:round;stroke-miterlimit:4;stroke-dasharray:none;stroke-opacity:1"
         inkscape:connector-curvature="0" />
      <path
         id="path3384"
         d="m 143.38019,39.953072 c -35.5161,0.104206 -71.845135,24.388778 -83.093755,27.21875 -10.396002,2.615471 -20.971882,1.104123 -28.5,-9.9375 2.766001,11.384848 13.73387,19.5636 29.59375,17.65625 15.96783,-1.920329 47.460515,-18.583117 78.312505,-18.75 2.37037,-0.01282 4.63773,0.03072 6.8125,0.125 v -16.28125 c -1.03547,-0.02972 -2.06885,-0.03435 -3.125,-0.03125 z"
         style="fill:#000000;fill-rule:evenodd;stroke:#ffffff;stroke-width:3;stroke-linecap:butt;stroke-linejoin:round;stroke-miterlimit:4;stroke-dasharray:none;stroke-opacity:1"
         inkscape:connector-curvature="0" />
      <path
         id="path3481"
         d="m 174.85938,106.02148 a 4.7934929,4.7934929 0 0 0 -0.30274,0.0176 c -4.0717,0.37792 -8.56745,0.57133 -13.52734,0.57422 -20.39755,0.0119 -36.8073,5.53071 -48.17578,14.85352 -11.36849,9.3228 -17.506741,22.52945 -17.271489,36.70703 0.447866,26.99151 28.408879,52.78336 78.126949,50.61523 A 4.7934929,4.7934929 0 0 0 178.29297,204 v -9.09375 -14.9375 -0.0312 a 4.7934929,4.7934929 0 0 0 -6.07617,-4.61914 c -2.2222,0.61708 -4.04187,1.0828 -5.9043,1.39062 -1.86241,0.30782 -3.83953,0.4763 -6.41602,0.49805 a 4.7934929,4.7934929 0 0 0 -0.0488,0 c -13.87569,0.26263 -20.60955,-2.90447 -24.16797,-6.66406 -3.55843,-3.75959 -4.57865,-8.93851 -4.79688,-14.48242 -0.15157,-3.85064 1.90161,-8.5565 8.77735,-13.2168 6.87574,-4.6603 18.49562,-8.86621 35.83593,-10.66992 a 4.7934929,4.7934929 0 0 0 4.29688,-4.76758 V 110.8125 a 4.7934929,4.7934929 0 0 0 -4.93359,-4.79102 z"
         style="fill:#000000;fill-rule:evenodd;stroke:none;stroke-width:3;stroke-linecap:butt;stroke-linejoin:miter;stroke-miterlimit:4;stroke-dasharray:none;stroke-opacity:1"
         transform="translate(-26.994565,-3.796875)" />
      <path
         sodipodi:nodetypes="ccccc"
         id="path3483"
         d="m 142.48956,172.77975 c 2.15651,-0.49687 3.30433,-0.69114 8.4742,-3.55561 0.0142,5.96533 0.15858,27.41501 0.11854,35.37833 -3.77345,0.0817 -6.1981,0.095 -9.42238,0 0.035,-7.79883 0.80651,-28.00728 0.82964,-31.82272 z"
         style="fill:#000000;fill-rule:evenodd;stroke:#000000;stroke-width:1px;stroke-linecap:butt;stroke-linejoin:miter;stroke-opacity:1"
         inkscape:connector-curvature="0" />
      <path
         sodipodi:nodetypes="ccccs"
         id="path3429"
         d="m 73.380435,154.29688 c 0.39359,23.72048 25.08889,48.00102 73.125005,45.90624 v -24.0625 c -4.54383,1.26178 -8.022,2.01572 -13.5625,2.0625 -29.31649,0.55488 -33.370825,-13.73563 -33.843755,-25.75"
         style="fill:#000000;fill-rule:evenodd;stroke:#ffffff;stroke-width:3;stroke-linecap:butt;stroke-linejoin:miter;stroke-miterlimit:4;stroke-dasharray:none;stroke-opacity:1"
         inkscape:connector-curvature="0" />
      <path
         sodipodi:nodetypes="ccssscccsssc"
         id="path3422"
         d="m 168.50544,42.578125 v 16.46875 c 13.08969,3.822462 17.84066,11.28861 18.09375,21.71875 0.34787,14.337245 -13.12467,26.820805 -52.5625,26.843755 -39.070185,0.0227 -61.080396,21.1264 -60.656255,46.6875 0.39007,23.50798 31.025705,43.71726 73.125005,36.8125 v -14.9375 c -4.54298,1.26147 -8.02328,1.98447 -13.5625,2.03124 -29.31649,0.55488 -33.370825,-13.73563 -33.843755,-25.75 -0.45848,-11.64727 13.278875,-25.26428 49.406255,-28.90624 35.76344,-3.60528 54.60366,-24.978895 55,-45.000005 0.31159,-15.73999 -12.35055,-30.219815 -35,-35.96875 z"
         style="fill:#000000;fill-rule:evenodd;stroke:#ffffff;stroke-width:3;stroke-linecap:butt;stroke-linejoin:miter;stroke-miterlimit:4;stroke-dasharray:none;stroke-opacity:1"
         inkscape:connector-curvature="0" />
      <path
         sodipodi:nodetypes="cccsccsc"
         id="path3454"
         d="m 248.75544,86.578125 c -46.90601,-0.0543 -50.32791,54.637385 -80.25,79.531255 v 31.65624 c 46.24818,-11.60751 61.01294,-65.46085 91.99999,-64.8125 31.50293,0.65916 23.75091,53.00747 67,64 v -55.65624 c -13.42014,-17.59355 -25.7798,-52.256857 -75.81249,-54.656255 -0.99676,-0.0478 -1.97657,-0.06139 -2.9375,-0.0625 z"
         style="fill:#000000;fill-rule:evenodd;stroke:#ffffff;stroke-width:3;stroke-linecap:butt;stroke-linejoin:round;stroke-miterlimit:4;stroke-dasharray:none;stroke-opacity:1"
         inkscape:connector-curvature="0" />
      <path
         sodipodi:nodetypes="cccsccsc"
         id="path3441"
         d="m 248.75544,86.578125 c -46.90601,-0.0543 -50.32791,54.637385 -80.25,79.531255 v 19.625 c 37.68847,-17.46403 44.18441,-72.1703 89.06249,-71.875 44.55585,0.29318 47.07642,51.76016 69.9375,62.5625 v -35.125 c -13.42014,-17.59355 -25.7798,-52.256857 -75.81249,-54.656255 -0.99676,-0.0478 -1.97657,-0.06139 -2.9375,-0.0625 z"
         style="fill:#000000;fill-rule:evenodd;stroke:#ffffff;stroke-width:3;stroke-linecap:butt;stroke-linejoin:round;stroke-miterlimit:4;stroke-dasharray:none;stroke-opacity:1"
         inkscape:connector-curvature="0" />
      <path
         id="path3266"
         d="m 223.13044,30.109375 -4.0625,7.125 c 2.41759,1.408625 3.89859,7.39358 6.8125,7.53125 2.54082,0.120043 3.13128,-2.045015 3.1875,-4.375 0.0562,-2.33024 -1.55922,-2.411627 -1.59375,-4.78125 -0.0363,-2.491818 2.16624,-3.23503 4.28125,-3.0625 2.115,0.17253 3.67257,1.970936 3.65625,3.8125 -0.0163,1.841564 -2.4278,4.365704 -2.3125,6.59375 0.12159,2.349931 2.1001,3.064013 3.90625,3.0625 1.73912,-0.0015 2.71794,-1.320038 4.03125,-2.8125 1.31331,-1.492461 1.0256,-5.864049 3.3125,-5.875 0.0406,-1.95e-4 0.0837,-0.0022 0.125,0 l -0.21875,-6.125 z"
         style="fill:#000000;fill-rule:evenodd;stroke:#000000;stroke-width:1px;stroke-linecap:butt;stroke-linejoin:miter;stroke-opacity:1"
         inkscape:connector-curvature="0" />
      <path
         id="path3230"
         d="m 230.94294,32.546875 c -1.83731,0.05941 -3.50053,0.882159 -3.46875,3.0625 0.0345,2.369623 1.64998,2.45101 1.59375,4.78125 -0.0562,2.329985 -0.64668,4.495043 -3.1875,4.375 -3.02852,-0.143085 -4.49951,-6.616491 -7.09375,-7.6875 -2.63941,-1.08966 -5.3789,1.219586 -5.5,4.28125 -0.12111,3.061663 7.34091,4.698486 7.59375,7.34375 0.25283,2.645265 -1.35394,4.052628 -3.3125,3.90625 -1.95326,-0.145985 -3.81227,-4.222413 -6,-4.15625 -2.19483,0.06638 -3.78597,1.749085 -4.125,4.03125 -0.33905,2.282164 0.78387,5.509456 3.15625,5.625 2.36329,0.1151 4.63919,-2.334349 6.46875,-1.71875 1.82956,0.615599 2.87773,0.604667 2.71875,4.40625 -0.15898,3.801582 -10.75867,12.577147 -10.65625,16.125 0.10238,3.546378 9.85569,4.993616 9.65625,10.28125 -0.19484,5.16558 -5.72696,7.026671 -6.09375,10.5 -0.10648,1.00834 0.53527,2.02739 1.6875,2.937495 9.16338,-8.990548 20.71886,-14.795769 37.3125,-13.999995 0.84174,0.04037 1.64731,0.09784 2.46875,0.15625 4.69532,-3.637043 8.20517,-7.053863 8.37499,-9.375 -3.23971,1.712517 -6.87225,3.162394 -10.24999,2.5625 2.05327,-1.616348 3.86136,-2.92473 4.53124,-6.71875 -1.7871,0.713881 -5.61439,2.576231 -8.56249,2.8125 -1.11478,-1.352622 -1.70534,-2.376023 -4.53125,-3.1875 -2.86055,-0.821427 -17.3152,1.631357 -17.84375,-0.25 -0.55619,-1.979725 4.88204,-11.107489 7.09375,-14.0625 2.15352,-2.877271 5.18689,-2.682733 7.46875,-1.5625 2.28187,1.120234 4.56553,6.205956 7.4375,6.84375 2.87196,0.637791 4.45128,-3.654211 4.28125,-6 -0.17003,-2.345789 0.32224,-3.117066 -1.21875,-3.65625 -1.54098,-0.539183 -4.04546,0.413342 -6,0.34375 -1.95405,-0.06957 -4.04042,-1.9461 -4.03125,-3.78125 0.009,-1.71293 0.15699,-3.045144 1.59375,-3.78125 1.43675,-0.736107 4.31369,-0.229873 5.625,-0.96875 1.3113,-0.738876 2.45983,-0.793407 2.1875,-2.8125 -0.27236,-2.019092 -3.68185,-5.885952 -5.96875,-5.875 -2.2869,0.01095 -1.99919,4.382539 -3.3125,5.875 -1.31331,1.492462 -2.29213,2.811044 -4.03125,2.8125 -1.80615,0.0015 -3.78466,-0.712569 -3.90625,-3.0625 -0.1153,-2.228046 2.29615,-4.752186 2.3125,-6.59375 0.0163,-1.841564 -1.54125,-3.63997 -3.65625,-3.8125 -0.26439,-0.02157 -0.55003,-0.0085 -0.8125,0 z"
         style="fill:#000000;fill-rule:evenodd;stroke:#ffffff;stroke-width:2.5;stroke-linecap:butt;stroke-linejoin:round;stroke-miterlimit:4;stroke-dasharray:none;stroke-opacity:1"
         inkscape:connector-curvature="0" />
      <path
         id="path3232"
         d="m 201.56794,45.765625 c -0.047,2.557461 2.80116,7.683396 5.125,8.3125 0.25993,-0.135251 0.50317,-0.307712 0.71875,-0.46875 -0.0198,-0.392842 -0.0225,-0.763363 0.0312,-1.125 0.20312,-1.367331 0.8411,-2.531138 1.8125,-3.25 -0.003,-0.103957 0.006,-0.207723 0,-0.3125 -0.86145,-0.265565 -5.44047,-1.19149 -7.6875,-3.15625 z"
         style="fill:#ffffff;fill-rule:evenodd;stroke:none;stroke-width:1px;stroke-linecap:butt;stroke-linejoin:round;stroke-opacity:1"
         inkscape:connector-curvature="0" />
      <path
         id="path3234"
         d="m 210.47419,30.109375 c -1.20887,3.03941 0.70674,8.718707 2.5625,10.15625 0.16408,-0.04047 0.31931,-0.102939 0.46875,-0.15625 0.45168,-1.541942 1.58376,-2.753258 2.9375,-3.15625 0.0882,-0.201572 0.19887,-0.385818 0.28125,-0.59375 -1.85835,-1.298892 -4.18558,-3.667186 -6.25,-6.25 z"
         style="fill:#ffffff;fill-rule:evenodd;stroke:none;stroke-width:1px;stroke-linecap:butt;stroke-linejoin:round;stroke-opacity:1"
         inkscape:connector-curvature="0" />
      <path
         id="path3236"
         d="m 235.91169,23.390625 c -2.50428,1.006452 -6.61609,6.555719 -6.46875,9.15625 0.0803,0.07502 0.16888,0.12066 0.25,0.1875 0.63778,-0.175806 1.3575,-0.24501 2.0625,-0.1875 0.90062,0.07347 1.69033,0.464022 2.3125,1 0.40042,-0.07793 0.79953,-0.143636 1.21875,-0.25 -0.56161,-2.600211 0.048,-6.744289 0.625,-9.90625 z"
         style="fill:#ffffff;fill-rule:evenodd;stroke:none;stroke-width:1px;stroke-linecap:butt;stroke-linejoin:round;stroke-opacity:1"
         inkscape:connector-curvature="0" />
      <path
         id="path3238"
         d="m 252.66169,56.640625 c -0.17224,0.327486 -0.34662,0.723204 -0.5,1.15625 0.002,0.02409 -0.002,0.03807 0,0.0625 0.0761,1.049714 -0.22968,2.476946 -0.8125,3.6875 -0.044,0.495506 -0.0483,0.978606 -0.0312,1.4375 3.01314,-0.179357 6.95244,-1.538254 8.31249,-3.65625 -1.71764,0.125501 -4.75139,-0.442555 -6.96874,-2.6875 z"
         style="fill:#ffffff;fill-rule:evenodd;stroke:none;stroke-width:1px;stroke-linecap:butt;stroke-linejoin:round;stroke-opacity:1"
         inkscape:connector-curvature="0" />
      <path
         id="path3240"
         d="m 253.66169,35.859375 c -2.11379,-0.108039 -5.79449,1.025317 -7.3125,2.1875 1.44182,0.922953 2.87101,2.553359 3.5625,3.9375 1.90773,-1.409413 3.99964,-3.68756 4.5625,-6 -0.23143,-0.07537 -0.49935,-0.108994 -0.8125,-0.125 z"
         style="fill:#ffffff;fill-rule:evenodd;stroke:none;stroke-width:1px;stroke-linecap:butt;stroke-linejoin:round;stroke-opacity:1"
         inkscape:connector-curvature="0" />
      <path
         sodipodi:nodetypes="ccccccccc"
         id="path3408"
         d="m 424.09202,140.8004 c 3.8338,0.48731 4.70613,7.32675 4.9126,11.68108 4.35488,-2.90539 8.4924,-9.32394 8.4606,-11.35358 1.11446,2.66463 1.1952,3.92961 1.85588,6.60473 3.82658,-4.03878 6.05501,-13.59813 6.11346,-17.08496 0.87721,1.6987 1.55335,3.16336 2.01963,4.9126 1.12129,-1.41665 4.796,-8.6331 4.85802,-13.4278 -2.06677,-4.24884 -10.32426,-8.49934 -16.10244,-6.05888 -5.77818,2.44048 -12.13065,18.94478 -12.11775,24.72681 z"
         style="fill:#000000;fill-rule:evenodd;stroke:#000000;stroke-width:1px;stroke-linecap:butt;stroke-linejoin:miter;stroke-opacity:1"
         inkscape:connector-curvature="0" />
      <path
         sodipodi:nodetypes="csssssssssscsccccccssssssssssssssssc"
         id="path3334"
         d="m 435.22418,41.953125 c -2.51086,0.213751 -5.13943,1.915784 -5.09375,4.28125 0.0663,3.436771 6.87139,6.12008 7.03125,8.96875 0.16605,2.95886 -1.75732,4.985151 -4.625,5.15625 -2.86323,0.17083 -4.15339,-2.38455 -6.5625,-2.34375 -2.29859,0.03893 -3.50063,3.17425 -3.4375,5.4375 0.0631,2.263247 1.21881,4.646727 3.875,4.71875 2.6569,0.07204 5.82149,-4.285628 9.5,-2.59375 3.67852,1.691878 3.55239,10.527711 2.90625,16.4375 -0.65473,5.988392 -6.14609,19.923695 -9.1875,20.343755 -3.1499,0.43502 -4.5126,-4.085315 -10.625,-2.968755 -3.01173,0.55016 -5.9627,3.159715 -8.6875,6.906255 6.43807,7.5724 10.81103,16.89302 10.84375,27.59374 0.001,0.41681 -0.0171,0.82797 -0.0312,1.25 4.75063,0.18962 10.20756,4.74076 10.59375,8.28126 3.00817,-3.04455 2.63585,-9.60287 2.5,-14.15626 2.73825,2.30027 4.46106,4.0734 5.78125,8.28126 1.43074,-3.75123 0.73828,-12.9558 -0.3125,-17.90626 3.14986,1.46103 6.18193,4.16632 7.5,7.0625 2.2024,-4.8418 3.69802,-17.24509 3.34375,-24.5625 -0.35426,-7.3174 -2.25703,-14.288391 -2.25,-19.437495 0.007,-5.038562 1.73192,-8.110916 3.875,-8.0625 2.14844,0.04854 3.577,4.598347 6.84375,4.59375 3.23608,-0.0046 4.57819,-4.094641 3.09375,-6.75 -1.48445,-2.655361 -4.95202,-0.154095 -7.15625,-2.21875 -2.26016,-2.117038 -2.19067,-5.485813 0.75,-6.53125 2.94067,-1.045435 6.32509,2.705007 8.4375,0.53125 2.1124,-2.173755 0.99459,-7.488895 -2,-8.65625 -2.9946,-1.167358 -5.19864,4.650431 -7.9375,4.65625 -2.74084,0.0058 -4.24428,-2.547117 -3.84375,-5.125 0.40054,-2.577883 5.18161,-3.733883 5.125,-6.8125 -0.0566,-3.078616 -4.32628,-7.054264 -7.375,-5.875 -3.04873,1.179262 0.22985,8.637966 -1.75,10.4375 -1.97985,1.799532 -4.0409,1.365106 -6.03125,-0.25 -1.99036,-1.615105 0.71668,-8.056415 -2,-9.96875 -0.83301,-0.586384 -1.95245,-0.81591 -3.09375,-0.71875 z"
         style="fill:#000000;fill-rule:evenodd;stroke:#ffffff;stroke-width:2.5;stroke-linecap:butt;stroke-linejoin:round;stroke-miterlimit:4;stroke-dasharray:none;stroke-opacity:1"
         inkscape:connector-curvature="0" />
      <path
         id="path3336"
         d="m 422.97418,60.859375 c -2.23968,1.17275 -4.8451,2.14097 -8.9375,2.65625 2.71984,2.362334 6.80014,3.799758 9.78125,3.46875 -0.83076,-0.92051 -1.24507,-2.234671 -1.28125,-3.53125 -0.0226,-0.810364 0.14639,-1.741339 0.4375,-2.59375 z"
         style="fill:#ffffff;fill-rule:evenodd;stroke:none;stroke-width:1px;stroke-linecap:butt;stroke-linejoin:round;stroke-opacity:1"
         inkscape:connector-curvature="0" />
      <path
         id="path3338"
         d="m 432.19293,33.078125 c -2.24913,3.431604 -2.50289,7.970004 -1.28125,11 1.33215,-1.661974 4.1078,-2.52156 6.1875,-1.96875 -2.42658,-2.447657 -4.58368,-4.530705 -4.90625,-9.03125 z"
         style="fill:#ffffff;fill-rule:evenodd;stroke:none;stroke-width:1px;stroke-linecap:butt;stroke-linejoin:round;stroke-opacity:1"
         inkscape:connector-curvature="0" />
      <path
         id="path3340"
         d="m 453.94293,33.953125 c -0.1629,3.269147 -2.41941,6.224148 -4.65625,8.3125 1.95528,0.0054 4.12976,1.553204 5.3125,3.40625 1.46625,-3.216451 1.39389,-8.208416 -0.65625,-11.71875 z"
         style="fill:#ffffff;fill-rule:evenodd;stroke:none;stroke-width:1px;stroke-linecap:butt;stroke-linejoin:round;stroke-opacity:1"
         inkscape:connector-curvature="0" />
      <path
         id="path3342"
         d="m 472.50543,54.609375 c -2.07976,1.733672 -5.23151,2.3099 -8.75,2.21875 1.52151,1.844577 1.93282,5.013389 0.78125,6.875 3.11558,-1.073048 8.07581,-5.382208 7.96875,-9.09375 z"
         style="fill:#ffffff;fill-rule:evenodd;stroke:none;stroke-width:1px;stroke-linecap:butt;stroke-linejoin:round;stroke-opacity:1"
         inkscape:connector-curvature="0" />
      <path
         id="path3344"
         d="m 462.38043,73.078125 c 0.8256,2.183053 0.0172,4.957348 -2,5.84375 2.10613,1.482313 7.06043,1.904814 9.53125,0.46875 -1.76402,-1.264153 -4.90916,-3.265386 -7.53125,-6.3125 z"
         style="fill:#ffffff;fill-rule:evenodd;stroke:none;stroke-width:1px;stroke-linecap:butt;stroke-linejoin:round;stroke-opacity:1"
         inkscape:connector-curvature="0" />
      <path
         style="fill:none;fill-opacity:1;fill-rule:evenodd;stroke:#000000;stroke-width:5;stroke-linecap:butt;stroke-linejoin:miter;stroke-miterlimit:4;stroke-dasharray:none;stroke-opacity:1"
         d="m 445.22418,182.85938 c -2.97768,0.0204 -5.6221,2.4444 -7.96875,4.25 1.43235,0.40412 2.68365,1.89575 3.3125,3.5 2.14094,-2.09917 4.58864,-5.41635 4.65625,-7.75 z"
         id="path3311"
         inkscape:connector-curvature="0" />
      <path
         id="path3280"
         d="m 250.47419,123.29688 c -8.61978,0.0687 -14.60423,6.79668 -17.90625,7.125 -2.49492,0.24807 -3.76313,-2.69692 -4.6875,-6.53126 -10.27224,7.8463 -18.29268,20.1658 -26.8125,31.36851 -0.80246,4.70338 0.0437,8.0948 4.21875,9.31899 7.69058,2.25503 12.02027,-4.5723 15.46875,-4.28124 3.31958,0.28019 3.71271,3.52136 2.71875,6.96874 -0.9389,3.25638 -7.87636,8.2893 -6.84375,11.46876 1.03261,3.17943 7.82122,2.03762 15,2.6875 7.17876,0.64986 13.97831,1.93823 15.375,4.15624 1.39666,2.21805 -3.26912,4.2313 -3.3125,7.34376 -0.0417,2.99432 5.11345,4.93298 7.3125,3.3125 2.19905,-1.6205 -0.5911,-6.898 1.3125,-8.28126 1.90359,-1.38326 4.41876,-1.61367 5.90624,0.25 1.48748,1.86368 -1.09638,7.0544 1.28125,8.71876 2.37764,1.66435 7.88927,0.90407 8.75,-1.875 0.86072,-2.77907 -4.66713,-4.92976 -4.125,-7.4375 0.54214,-2.50775 2.67922,-3.90567 5.4375,-3.65626 2.75828,0.24942 4.49395,6.55655 7.65625,5.3125 3.1623,-1.24404 4.97533,-7.30485 2.625,-9.34374 -2.35034,-2.03891 -7.10751,1.08012 -9.125,0.25 -2.0175,-0.83012 -2.79942,-2.84095 -2.34375,-5.21876 0.45568,-2.3778 6.31861,-2.75609 6.25,-6.03124 -0.0686,-3.27516 -3.59432,-6.48037 -6.59375,-5.1875 -2.99944,1.29286 -0.40319,6.48694 -2.5,8.28124 -2.09682,1.79431 -5.37629,2.21769 -7.09375,0 -1.71745,-2.21766 3.09729,-6.6254 1.0625,-9 -2.03478,-2.37459 -7.29324,-2.17256 -8.37499,0.59376 -1.00714,2.57547 2.64627,3.73993 2.59375,6.625 -0.0504,2.76694 -2.62678,3.8302 -5.4375,3.53124 -2.81072,-0.29896 -8.37183,-2.61172 -8.375,-7.0625 -0.003,-4.56891 10.69954,-12.62318 10.875,-18.09374 0.17167,-5.35255 -3.27821,-5.4329 -3.21875,-9.09376 0.0575,-3.54274 8.52921,-7.65949 13.84374,-7.09374 -2.36509,-2.97872 -8.71647,-3.49961 -12.87499,-2.125 2.45776,-3.35132 6.05184,-4.40654 9.78124,-5.1875 -2.82832,-1.30801 -5.4302,-1.83173 -7.84374,-1.8125 z"
         style="fill:#000000;fill-rule:evenodd;stroke:#ffffff;stroke-width:2.5;stroke-linecap:butt;stroke-linejoin:round;stroke-miterlimit:4;stroke-dasharray:none;stroke-opacity:1"
         sodipodi:nodetypes="csccssssssssssssssssssssssssssssscccc"
         inkscape:connector-curvature="0" />
      <path
         id="path3282"
         d="m 256.69293,152.64062 c -2.80252,1.11045 -5.2058,6.56004 -4.74999,9.6875 0.0463,0.0171 0.10827,0.0145 0.15625,0.0313 1.71298,-1.32539 4.8863,-1.28077 6.74999,0.0937 0.0211,-0.009 0.0415,-0.0223 0.0625,-0.0312 -1.29691,-2.26095 -2.13363,-6.75651 -2.21875,-9.78126 z"
         style="fill:#ffffff;fill-rule:evenodd;stroke:none;stroke-width:1px;stroke-linecap:butt;stroke-linejoin:round;stroke-opacity:1"
         inkscape:connector-curvature="0" />
      <path
         id="path3284"
         d="m 276.06793,158.17188 c -1.82193,2.13982 -3.40123,4.29556 -6.375,5.28124 2.16648,0.13641 4.2156,2.11001 4.78125,4.375 0.13419,0.0474 0.27181,0.11355 0.40625,0.15626 1.82385,-2.6968 1.7817,-7.21331 1.1875,-9.8125 z"
         style="fill:#ffffff;fill-rule:evenodd;stroke:none;stroke-width:1px;stroke-linecap:butt;stroke-linejoin:round;stroke-opacity:1"
         inkscape:connector-curvature="0" />
      <path
         id="path3286"
         d="m 280.75543,181.48438 c 0.50806,1.93868 -0.25898,4.68987 -1.71875,6.40624 3.03953,1.06613 8.12136,0.47444 9.78125,-2.1875 -2.13176,-0.96363 -5.85617,-1.7341 -8.0625,-4.21874 z"
         style="fill:#ffffff;fill-rule:evenodd;stroke:none;stroke-width:1px;stroke-linecap:butt;stroke-linejoin:round;stroke-opacity:1"
         inkscape:connector-curvature="0" />
      <path
         id="path3288"
         d="m 267.41168,196.32812 c -1.5498,1.40573 -4.63313,1.83972 -6.75,1.15626 -0.11254,0.0878 -0.21352,0.18243 -0.3125,0.28124 1.48819,2.88075 4.88253,5.12395 8.84375,5.78126 -1.94619,-3.12343 -1.44437,-5.0008 -1.53125,-7.1875 -0.0806,-0.0102 -0.16696,-0.0221 -0.25,-0.0313 z"
         style="fill:#ffffff;fill-rule:evenodd;stroke:none;stroke-width:1px;stroke-linecap:butt;stroke-linejoin:round;stroke-opacity:1"
         inkscape:connector-curvature="0" />
      <path
         id="path3290"
         d="m 244.75544,195.29688 c -0.21947,3.15812 0.68024,6.30852 2.125,8.84374 1.44477,-2.89958 3.04601,-5.91301 4.25,-7.6875 -0.0667,-0.0573 -0.14658,-0.10355 -0.21875,-0.15624 -1.54684,1.03236 -4.41004,0.4285 -6.03125,-1 -0.0382,0.004 -0.0877,-0.004 -0.125,0 z"
         style="fill:#ffffff;fill-rule:evenodd;stroke:none;stroke-width:1px;stroke-linecap:butt;stroke-linejoin:round;stroke-opacity:1"
         inkscape:connector-curvature="0" />
      <path
         style="fill:none;fill-opacity:1;fill-rule:evenodd;stroke:#000000;stroke-width:5;stroke-linecap:butt;stroke-linejoin:miter;stroke-miterlimit:4;stroke-dasharray:none;stroke-opacity:1"
         d="m 431.38043,218.48438 c -0.63078,1.88275 -2.30834,3.18854 -4.1875,3.4375 2.59074,2.23601 5.59492,3.82622 8.8125,3.75 -1.68844,-1.71407 -3.34294,-4.49532 -4.625,-7.1875 z"
         id="path3316"
         inkscape:connector-curvature="0" />
      <path
         style="fill:none;fill-opacity:1;fill-rule:evenodd;stroke:#000000;stroke-width:5;stroke-linecap:butt;stroke-linejoin:miter;stroke-miterlimit:4;stroke-dasharray:none;stroke-opacity:1"
         d="m 406.38043,216.01562 c -0.96321,3.00449 -0.47586,8.1973 1.25,10.28126 0.88347,-2.85012 2.42736,-5.53906 3.75,-7.21876 -2.19625,0.28335 -4.3977,-0.80785 -5,-3.0625 z"
         id="path3318"
         inkscape:connector-curvature="0" />
      <path
         sodipodi:nodetypes="ccczczzzzzzzzzzzzzzzzzzzzzzzzzzczczc"
         id="path2411"
         d="m 334.6366,167.83422 c 6.97201,-5.28016 17.63528,-5.93608 21.1029,0.37185 -3.22582,0.63711 -8.96087,3.74827 -11.34165,8.08789 3.10412,-2.3538 11.42932,-2.64344 13.57279,0 2.14347,2.64345 1.42722,4.98477 -0.92965,6.60047 3.15811,2.24818 17.45809,11.28591 27.05262,14.78133 9.62478,3.50644 25.4353,5.99512 26.8667,9.3894 1.46459,3.47302 -4.77981,3.82324 -4.7412,7.71603 0.0386,3.89076 4.13781,5.35746 7.15826,3.6256 3.02045,-1.73185 1.44242,-7.54128 2.88189,-9.01754 1.4855,-1.52346 4.29892,-1.42022 6.32157,1.02262 2.02265,2.44282 -0.78305,10.08063 2.23114,11.24868 2.93321,1.13665 6.2979,-0.83178 6.7864,-3.99748 0.4885,-3.16568 -3.79013,-4.22951 -4.18338,-6.32156 -0.41356,-2.19993 0.84168,-3.51871 3.34671,-3.71857 2.50503,-0.19987 4.65158,4.61596 7.99493,3.53263 3.31503,-1.07415 4.38674,-5.63978 1.95225,-7.90196 -2.43449,-2.26218 -8.11147,1.86501 -10.13312,0.37186 -2.02165,-1.49313 -2.06792,-3.00862 -0.55778,-5.39193 1.51015,-2.38329 6.27345,-2.12792 9.57533,-3.25376 3.27454,-1.1165 0.31936,-8.12342 -3.1608,-7.99491 -3.48016,0.1285 -4.02974,4.93304 -7.06528,6.69342 -2.99601,1.73745 -4.44281,-0.047 -5.29896,-2.04522 -0.85615,-1.99825 2.20768,-5.83005 1.02259,-8.27383 -1.22171,-2.51929 -7.64631,-3.35333 -8.55271,-0.093 -0.93036,3.34656 3.18736,8.2744 1.39446,10.87681 -1.8663,2.70897 -11.13889,1.89639 -16.54764,0.27891 -5.40875,-1.61748 -16.28357,-9.62873 -15.33911,-11.62054 0.87187,-1.83872 9.4686,-0.67198 15.80393,-3.71857 6.25993,-3.01035 13.91819,-12.04048 13.66576,-18.87176 -0.25587,-6.92412 -5.2679,-10.46397 -13.10797,-10.31904 -7.93419,0.14666 -13.88858,4.99617 -16.91951,9.76126 -4.33243,-2.30021 -9.07945,-3.69153 -12.82907,-3.34673 -3.74962,0.34481 -8.40465,2.14615 -10.22607,4.36932 -3.40181,-2.05317 -7.35973,-2.26085 -11.80648,-2.04521 -4.44321,0.21548 -11.8991,2.11938 -15.98985,9.20348 z"
         style="fill:#000000;fill-rule:evenodd;stroke:#ffffff;stroke-width:2.5;stroke-linecap:butt;stroke-linejoin:round;stroke-miterlimit:4;stroke-dasharray:none;stroke-opacity:1"
         inkscape:connector-curvature="0" />
      <path
         id="path2413"
         d="m 422.13043,174.42188 c -2.20616,0.71665 -4.29477,3.98156 -4.65625,7.5 1.49682,-1.13115 4.28164,-0.96648 6.09375,0 -1.13882,-2.68367 -1.54112,-5.15523 -1.4375,-7.5 z"
         style="fill:#ffffff;fill-opacity:1;fill-rule:evenodd;stroke:none;stroke-width:1px;stroke-linecap:butt;stroke-linejoin:round;stroke-opacity:1"
         inkscape:connector-curvature="0" />
      <path
         id="path2415"
         d="m 445.22418,182.85938 c -2.97768,0.0204 -5.6221,2.4444 -7.96875,4.25 1.43235,0.40412 2.68365,1.89575 3.3125,3.5 2.14094,-2.09917 4.58864,-5.41635 4.65625,-7.75 z"
         style="fill:#ffffff;fill-opacity:1;fill-rule:evenodd;stroke:none;stroke-width:1px;stroke-linecap:butt;stroke-linejoin:round;stroke-opacity:1"
         inkscape:connector-curvature="0" />
      <path
         id="path2417"
         d="m 441.50543,204.29688 c 0.96705,1.78282 0.56842,4.18412 -0.875,5.6875 3.25713,0.2593 10.07781,-1.07938 10.71875,-4.09376 -3.37275,0.60688 -5.96042,0.69283 -9.84375,-1.59374 z"
         style="fill:#ffffff;fill-opacity:1;fill-rule:evenodd;stroke:none;stroke-width:1px;stroke-linecap:butt;stroke-linejoin:round;stroke-opacity:1"
         inkscape:connector-curvature="0" />
      <path
         id="path2419"
         d="m 431.38043,218.48438 c -0.63078,1.88275 -2.30834,3.18854 -4.1875,3.4375 2.59074,2.23601 5.59492,3.82622 8.8125,3.75 -1.68844,-1.71407 -3.34294,-4.49532 -4.625,-7.1875 z"
         style="fill:#ffffff;fill-opacity:1;fill-rule:evenodd;stroke:none;stroke-width:1px;stroke-linecap:butt;stroke-linejoin:round;stroke-opacity:1"
         inkscape:connector-curvature="0" />
      <path
         id="path2421"
         d="m 406.38043,216.01562 c -0.96321,3.00449 -0.47586,8.1973 1.25,10.28126 0.88347,-2.85012 2.42736,-5.53906 3.75,-7.21876 -2.19625,0.28335 -4.3977,-0.80785 -5,-3.0625 z"
         style="fill:#ffffff;fill-opacity:1;fill-rule:evenodd;stroke:none;stroke-width:1px;stroke-linecap:butt;stroke-linejoin:round;stroke-opacity:1"
         inkscape:connector-curvature="0" />
      <path
         transform="translate(-0.01029103,-0.04429795)"
         d="m 368.78125,23.326172 c -4.29096,-0.496295 -8.97261,0.210506 -13.41211,0.919922 -4.4395,0.709416 -8.70637,1.453476 -10.72461,1.472656 -1.70929,0.01624 -5.71845,-0.95227 -9.56445,-1.216797 -1.923,-0.132263 -3.98622,-0.212945 -6.2461,1.003906 -2.25987,1.216852 -3.79274,4.343062 -3.65039,7.027344 0.31301,5.902224 4.77012,9.699488 9.26758,12.953125 4.49746,3.253637 9.53538,5.743798 13.51563,6.966797 8.54487,2.625555 15.94119,-1.042225 19.83203,-0.988281 4.59305,0.06368 10.59432,2.252883 17.57617,1.357422 3.48856,-0.447427 7.84385,-1.750963 11.75391,-3.357422 1.95502,-0.80323 3.7532,-1.663539 5.30273,-2.677735 0.77477,-0.507097 1.49299,-1.040375 2.18945,-1.794921 0.69647,-0.754547 1.55102,-1.823828 1.64844,-3.640626 0.15357,-2.863869 -1.61692,-5.32801 -3.34961,-6.585937 -1.73269,-1.257927 -3.54897,-1.855623 -5.24414,-2.244141 -3.57002,-0.818216 -4.96409,-0.167004 -9.55664,-1.125 -1.32749,-0.276911 -4.30223,-1.857275 -7.63476,-3.677734 -3.33254,-1.820459 -7.18422,-3.869918 -11.70313,-4.392578 z"
         inkscape:href="#path3503"
         id="path3533"
         style="fill:#000000;fill-rule:evenodd;stroke:none;stroke-width:2.5;stroke-linecap:butt;stroke-linejoin:miter;stroke-miterlimit:4;stroke-dasharray:none;stroke-opacity:1"
         xlink:href="#path3503"
         inkscape:original="M 368.30273 27.457031 C 361.50093 26.67033 350.23978 29.82415 344.68359 29.876953 C 339.12762 29.929753 328.98744 25.741166 329.33594 32.3125 C 329.68833 38.957396 342.5059 46.425482 349.1875 48.478516 C 355.80173 50.510848 362.28895 47.229438 367.85742 47.306641 C 373.4259 47.383841 379.19438 49.424032 384.8457 48.699219 C 390.49702 47.974406 401.97761 43.731836 402.11719 41.128906 C 402.25282 38.599531 399.39756 37.181912 396.74609 36.574219 C 394.11161 35.97042 392.33609 36.523673 387.26953 35.466797 C 382.20298 34.409924 375.2501 28.260568 368.30273 27.457031 z "
         inkscape:radius="4.1576319"
         sodipodi:type="inkscape:offset" />
      <path
         sodipodi:nodetypes="czzzzzzzzz"
         id="path3503"
         d="m 329.33522,32.312324 c 0.35239,6.644896 13.17013,14.112606 19.85173,16.16564 6.61423,2.032332 13.10295,-1.249101 18.67142,-1.171898 5.56848,0.0772 11.33542,2.118021 16.98674,1.393208 5.65132,-0.724813 17.13261,-4.967711 17.27219,-7.570641 0.13563,-2.529375 -2.7193,-3.946798 -5.37077,-4.554491 -2.63448,-0.603799 -4.41007,-0.05088 -9.47663,-1.107756 -5.06655,-1.056873 -12.01913,-7.206113 -18.9665,-8.00965 -6.8018,-0.786701 -18.06264,2.367169 -23.61883,2.419972 -5.55597,0.0528 -15.69785,-4.135718 -15.34935,2.435616 z"
         style="fill:#000000;fill-rule:evenodd;stroke:#ffffff;stroke-width:2.5;stroke-linecap:butt;stroke-linejoin:miter;stroke-miterlimit:4;stroke-dasharray:none;stroke-opacity:1"
         inkscape:connector-curvature="0" />
      <path
         sodipodi:nodetypes="csssssccscsccc"
         id="path3511"
         d="m 272.88043,22.453125 c 7.869,9.93911 13.04258,11.658248 18.25,12.875 5.24859,1.226371 22.28104,0.4838 27.34485,2.016996 0.7695,0.232986 -2.04152,-0.115539 -1.28235,0.07675 0.01,0.0025 0.0215,-0.0025 0.0312,0 1.00847,-0.109329 2.03233,-0.172634 3.03125,-0.15625 3.95425,0.06486 7.28222,0.642278 10.25,1.625 0.79831,-0.02872 1.59216,-0.08257 2.375,-0.1875 -2.04373,-2.083707 -3.41888,-4.287671 -3.53125,-6.40625 -0.0724,-1.365251 0.30199,-2.241593 1,-2.8125 -6.90816,-1.151446 -15.71023,-1.509452 -18.46875,-1.84375 -4.6044,-0.557997 -11.00581,-2.553075 -14.5625,-5.1875 3.25081,4.35092 5.46762,5.42735 10.65625,8.5625 -19.77697,2.10446 -28.54892,-4.288816 -35.09375,-8.5625 z"
         style="fill:#000000;fill-rule:evenodd;stroke:#ffffff;stroke-width:2.5;stroke-linecap:butt;stroke-linejoin:round;stroke-miterlimit:4;stroke-dasharray:none;stroke-opacity:1"
         inkscape:connector-curvature="0" />
      <path
         id="path3525"
         d="m 366.78668,32.671875 c -4.13356,0.435073 -7.20647,2.162365 -12.15625,1.53125 1.6775,3.779502 7.57339,6.468142 11.90625,6.8125 -0.98229,-1.068526 -1.59375,-2.466515 -1.59375,-4.03125 0,-1.696183 0.71097,-3.220883 1.84375,-4.3125 z"
         style="fill:#ffffff;fill-rule:evenodd;stroke:none;stroke-width:1px;stroke-linecap:butt;stroke-linejoin:miter;stroke-opacity:1"
         inkscape:connector-curvature="0" />
      <path
         id="path3505"
         d="m 376.25543,34.171875 c 0.44171,0.83563 0.6875,1.802129 0.6875,2.8125 0,1.226882 -0.36721,2.361789 -1,3.3125 2.09427,-0.479077 3.98062,-1.176234 5.21875,-2.1875 -1.20534,-1.720301 -2.90719,-3.023908 -4.90625,-3.9375 z"
         style="fill:#ffffff;fill-rule:evenodd;stroke:none;stroke-width:1px;stroke-linecap:butt;stroke-linejoin:miter;stroke-opacity:1"
         inkscape:connector-curvature="0" />
      <path
         sodipodi:nodetypes="czzz"
         id="path3204"
         d="m 410.14751,36.932983 c -0.37101,1.750127 4.68911,2.459533 5.7847,1.361107 1.03755,-1.040241 0.75831,-2.148771 -0.11343,-2.835639 -0.92951,-0.732393 -5.27728,-0.383991 -5.67127,1.474532 z"
         style="fill:#ffffff;fill-opacity:1;fill-rule:evenodd;stroke:none;stroke-width:1px;stroke-linecap:butt;stroke-linejoin:miter;stroke-opacity:1"
         inkscape:connector-curvature="0" />
      <path
         style="fill:#000000;fill-rule:evenodd;stroke:none;stroke-width:2.5;stroke-linecap:round;stroke-linejoin:miter;stroke-miterlimit:4;stroke-dasharray:none;stroke-opacity:1"
         d="m 386.20025,86.501295 c -1.50106,1.601643 -10.73052,10.4229 -18.52916,12.75492 -7.70289,2.303385 -18.58987,1.590515 -27.0414,-3.802767 -8.45153,-5.39328 1.07158,-12.503892 -0.35571,-9.2454 -1.42729,3.258492 0.95072,5.840407 5.00962,7.514445 4.09665,1.689612 14.37599,1.474543 20.10625,-0.521776 5.82323,-2.028711 11.17542,-6.042449 14.72791,-8.728866"
         id="path3221"
         sodipodi:nodetypes="czcczzc"
         inkscape:connector-curvature="0" />
      <path
         sodipodi:nodetypes="czcczzz"
         id="path3211"
         d="m 339.12593,96.853505 c 8.45153,5.393285 20.75155,4.957495 28.54516,2.40271 7.74679,-2.53944 14.90208,-7.730916 18.06247,-10.473346 m -9.14187,-3.273938 c -3.55249,2.686417 -4.63398,4.314872 -10.04237,6.862123 -5.38858,2.537915 -15.78259,2.917861 -22.36221,-0.293298 -6.80013,-3.318775 -5.0663,-10.012532 -3.63901,-13.271024"
         style="fill:none;fill-rule:evenodd;stroke:#ffffff;stroke-width:2.5;stroke-linecap:round;stroke-linejoin:miter;stroke-miterlimit:4;stroke-dasharray:none;stroke-opacity:1"
         inkscape:connector-curvature="0" />
      <path
         sodipodi:nodetypes="cc"
         id="path3460"
         d="M 146.50544,61.390625 V 37.171875"
         style="fill:#000000;fill-rule:evenodd;stroke:#ffffff;stroke-width:3;stroke-linecap:square;stroke-linejoin:miter;stroke-miterlimit:4;stroke-dasharray:none;stroke-opacity:1"
         inkscape:connector-curvature="0" />
      <path
         sodipodi:nodetypes="ccc"
         style="fill:none;fill-rule:evenodd;stroke:#ffffff;stroke-width:3;stroke-linecap:butt;stroke-linejoin:miter;stroke-miterlimit:4;stroke-dasharray:none;stroke-opacity:1"
         d="m 378.16168,125.79688 c 3.49134,19.89216 -11.46243,29.28649 -28.65625,26.875 v 6.0625"
         id="path3487"
         inkscape:connector-curvature="0" />
      <path
         sodipodi:nodetypes="ccczzc"
         id="path3507"
         d="m 349.13043,180.22813 c 0.009,6.77144 0.0127,12.14116 0,18.91249 6.48611,-0.0635 14.6447,-1.85919 18.6875,-3.28124 -4.09467,-2.39452 -14.31491,-7.87896 -16.09452,-10.95063 -1.77961,-3.07169 1.72031,-4.44511 1.36721,-5.2413 -0.33334,-0.75162 -2.87567,0.13189 -3.96019,0.56068 z"
         style="fill:none;fill-rule:evenodd;stroke:#ffffff;stroke-width:2.5;stroke-linecap:butt;stroke-linejoin:miter;stroke-miterlimit:4;stroke-dasharray:none;stroke-opacity:1"
         inkscape:connector-curvature="0" />
      <path
         id="path3430"
         style="fill:#000000;fill-rule:evenodd;stroke:#ffffff;stroke-width:2.5;stroke-linecap:round;stroke-linejoin:round;stroke-miterlimit:4;stroke-dasharray:none;stroke-opacity:1"
         d="M 338.75783,44.173661 C 333.65724,40.701 328.23848,37.400587 320.24821,37.26953 c -15.98273,-0.262149 -33.62564,16.552958 -38.89696,18.896754 -4.96258,2.206525 -9.63811,1.493475 -13.78689,-0.588032 3.02199,5.530546 11.51741,4.699634 11.76444,8.565948 0.22958,3.593266 -4.65148,6.984403 -8.23498,7.426572 5.09918,3.637643 15.78241,2.407764 17.20738,5.914654 1.52004,3.740864 -4.09007,4.823927 -6.47224,4.600103 7.14294,6.318856 21.70639,4.528558 24.72562,7.817441 3.15318,3.434805 -1.77803,5.585428 -4.32108,5.969196 2.64197,3.803679 16.20114,7.862084 22.20481,8.308624 5.99452,0.44586 13.32829,0.14498 27.35393,-0.55135 -8.47958,-1.35824 -23.26875,-5.937335 -31.1025,-12.278976 -7.76728,-6.287839 -10.5714,-11.012293 -11.1033,-25.533318"
         sodipodi:nodetypes="cssczczczcscsc"
         inkscape:connector-curvature="0" />
      <path
         sodipodi:nodetypes="cccccczzzccssc"
         d="m 340.78217,77.934778 c -5.53771,0.591589 -18.74043,-0.174342 -21.9156,-3.2431 2.95748,-1.041436 6.84038,-2.538035 9.47773,-4.764207 -2.68436,0.561396 -17.93786,2.257161 -18.74738,-4.040485 3.49854,-0.21568 13.81656,-1.519664 16.82143,-8.174129 -12.55481,1.404139 -17.40464,0.385889 -21.28688,-2.939618 0,0 8.45354,-1.107089 12.30274,-2.415783 3.84921,-1.308693 7.71879,-6.967318 11.36734,-8.730997 3.64856,-1.76368 7.65842,-2.12929 11.35587,0.80138 3.69745,2.930671 7.38691,7.411638 15.20095,12.069404 -2.96439,0.494618 -5.92879,0.44099 -9.71555,-0.983252 0,0 6.05591,5.671076 10.39704,7.26873 4.34114,1.597654 13.54029,1.775719 17.06771,2.898291 3.52743,1.122572 7.08473,2.852286 7.08473,2.852286"
         style="fill:#000000;fill-rule:evenodd;stroke:#ffffff;stroke-width:2.5;stroke-linecap:round;stroke-linejoin:round;stroke-miterlimit:4;stroke-dasharray:none;stroke-opacity:1"
         id="path3516"
         inkscape:connector-curvature="0" />
    </g>
    <path
       inkscape:connector-curvature="0"
       style="color:#000000;font-style:normal;font-variant:normal;font-weight:normal;font-stretch:normal;font-size:medium;line-height:normal;font-family:sans-serif;font-variant-ligatures:normal;font-variant-position:normal;font-variant-caps:normal;font-variant-numeric:normal;font-variant-alternates:normal;font-feature-settings:normal;text-indent:0;text-align:start;text-decoration:none;text-decoration-line:none;text-decoration-style:solid;text-decoration-color:#000000;letter-spacing:normal;word-spacing:normal;text-transform:none;writing-mode:lr-tb;direction:ltr;text-orientation:mixed;dominant-baseline:auto;baseline-shift:baseline;text-anchor:start;white-space:normal;shape-padding:0;clip-rule:nonzero;display:inline;overflow:visible;visibility:visible;opacity:1;isolation:auto;mix-blend-mode:normal;color-interpolation:sRGB;color-interpolation-filters:linearRGB;solid-color:#000000;solid-opacity:1;vector-effect:none;fill:#000000;fill-opacity:1;fill-rule:evenodd;stroke:none;stroke-width:6;stroke-linecap:butt;stroke-linejoin:round;stroke-miterlimit:4;stroke-dasharray:none;stroke-dashoffset:0;stroke-opacity:1;color-rendering:auto;image-rendering:auto;shape-rendering:auto;text-rendering:auto;enable-background:accumulate"
       d="m 433.15625,52.99414 c 0.003,10e-4 0.0185,-0.001 0.0215,0 0.0419,0.01413 0.0276,0.01324 0.0605,0.02539 -0.0395,-0.01242 -0.0411,-0.01255 -0.082,-0.02539 z"
       id="path2758" />
    <path
       inkscape:connector-curvature="0"
       style="color:#000000;font-style:normal;font-variant:normal;font-weight:normal;font-stretch:normal;font-size:medium;line-height:normal;font-family:sans-serif;font-variant-ligatures:normal;font-variant-position:normal;font-variant-caps:normal;font-variant-numeric:normal;font-variant-alternates:normal;font-feature-settings:normal;text-indent:0;text-align:start;text-decoration:none;text-decoration-line:none;text-decoration-style:solid;text-decoration-color:#000000;letter-spacing:normal;word-spacing:normal;text-transform:none;writing-mode:lr-tb;direction:ltr;text-orientation:mixed;dominant-baseline:auto;baseline-shift:baseline;text-anchor:start;white-space:normal;shape-padding:0;clip-rule:nonzero;display:inline;overflow:visible;visibility:visible;opacity:1;isolation:auto;mix-blend-mode:normal;color-interpolation:sRGB;color-interpolation-filters:linearRGB;solid-color:#000000;solid-opacity:1;vector-effect:none;fill:#000000;fill-opacity:1;fill-rule:evenodd;stroke:none;stroke-width:6;stroke-linecap:butt;stroke-linejoin:round;stroke-miterlimit:4;stroke-dasharray:none;stroke-dashoffset:0;stroke-opacity:1;color-rendering:auto;image-rendering:auto;shape-rendering:auto;text-rendering:auto;enable-background:accumulate"
       d="m 433.39844,53.05469 c 0.008,0.0025 0.0527,0.01564 0.0527,0.01562 0,0 0.0362,0.02726 0.0391,0.0293 -0.008,-0.0024 -0.0304,-0.01034 -0.041,-0.01367 1.2e-4,-3.83e-4 -0.0432,-0.02656 -0.0508,-0.03125 z"
       id="path2756" />
    <path
       inkscape:connector-curvature="0"
       style="color:#000000;font-style:normal;font-variant:normal;font-weight:normal;font-stretch:normal;font-size:medium;line-height:normal;font-family:sans-serif;font-variant-ligatures:normal;font-variant-position:normal;font-variant-caps:normal;font-variant-numeric:normal;font-variant-alternates:normal;font-feature-settings:normal;text-indent:0;text-align:start;text-decoration:none;text-decoration-line:none;text-decoration-style:solid;text-decoration-color:#000000;letter-spacing:normal;word-spacing:normal;text-transform:none;writing-mode:lr-tb;direction:ltr;text-orientation:mixed;dominant-baseline:auto;baseline-shift:baseline;text-anchor:start;white-space:normal;shape-padding:0;clip-rule:nonzero;display:inline;overflow:visible;visibility:visible;opacity:1;isolation:auto;mix-blend-mode:normal;color-interpolation:sRGB;color-interpolation-filters:linearRGB;solid-color:#000000;solid-opacity:1;vector-effect:none;fill:#000000;fill-opacity:1;fill-rule:evenodd;stroke:none;stroke-width:6;stroke-linecap:butt;stroke-linejoin:round;stroke-miterlimit:4;stroke-dasharray:none;stroke-dashoffset:0;stroke-opacity:1;color-rendering:auto;image-rendering:auto;shape-rendering:auto;text-rendering:auto;enable-background:accumulate"
       d="m 434.43359,53.781252 c 0.0131,0.0095 0.0879,0.0625 0.0879,0.0625 l 0.22461,0.287109 0.14258,0.228516 c 0,0 0.13005,0.330198 0.2168,0.550781 -0.0816,-0.137458 -0.591,-0.992751 -0.67188,-1.128906 z"
       id="path2754" />
    <path
       inkscape:connector-curvature="0"
       style="color:#000000;font-style:normal;font-variant:normal;font-weight:normal;font-stretch:normal;font-size:medium;line-height:normal;font-family:sans-serif;font-variant-ligatures:normal;font-variant-position:normal;font-variant-caps:normal;font-variant-numeric:normal;font-variant-alternates:normal;font-feature-settings:normal;text-indent:0;text-align:start;text-decoration:none;text-decoration-line:none;text-decoration-style:solid;text-decoration-color:#000000;letter-spacing:normal;word-spacing:normal;text-transform:none;writing-mode:lr-tb;direction:ltr;text-orientation:mixed;dominant-baseline:auto;baseline-shift:baseline;text-anchor:start;white-space:normal;shape-padding:0;clip-rule:nonzero;display:inline;overflow:visible;visibility:visible;opacity:1;isolation:auto;mix-blend-mode:normal;color-interpolation:sRGB;color-interpolation-filters:linearRGB;solid-color:#000000;solid-opacity:1;vector-effect:none;fill:#000000;fill-opacity:1;fill-rule:evenodd;stroke:none;stroke-width:6;stroke-linecap:butt;stroke-linejoin:round;stroke-miterlimit:4;stroke-dasharray:none;stroke-dashoffset:0;stroke-opacity:1;color-rendering:auto;image-rendering:auto;shape-rendering:auto;text-rendering:auto;enable-background:accumulate"
       d="m 435.1582,55.042971 c 0.006,0.01443 0.0312,0.07813 0.0312,0.07813 l 0.084,0.734375 -0.008,0.1875 c 0,0 -0.0509,-0.0038 -0.0527,-0.0039 -0.019,-0.349151 -0.0509,-0.926797 -0.0547,-0.996093 z"
       id="path2752" />
    <path
       inkscape:connector-curvature="0"
       style="color:#000000;font-style:normal;font-variant:normal;font-weight:normal;font-stretch:normal;font-size:medium;line-height:normal;font-family:sans-serif;font-variant-ligatures:normal;font-variant-position:normal;font-variant-caps:normal;font-variant-numeric:normal;font-variant-alternates:normal;font-feature-settings:normal;text-indent:0;text-align:start;text-decoration:none;text-decoration-line:none;text-decoration-style:solid;text-decoration-color:#000000;letter-spacing:normal;word-spacing:normal;text-transform:none;writing-mode:lr-tb;direction:ltr;text-orientation:mixed;dominant-baseline:auto;baseline-shift:baseline;text-anchor:start;white-space:normal;shape-padding:0;clip-rule:nonzero;display:inline;overflow:visible;visibility:visible;opacity:1;isolation:auto;mix-blend-mode:normal;color-interpolation:sRGB;color-interpolation-filters:linearRGB;solid-color:#000000;solid-opacity:1;vector-effect:none;fill:#000000;fill-opacity:1;fill-rule:evenodd;stroke:none;stroke-width:6;stroke-linecap:butt;stroke-linejoin:round;stroke-miterlimit:4;stroke-dasharray:none;stroke-dashoffset:0;stroke-opacity:1;color-rendering:auto;image-rendering:auto;shape-rendering:auto;text-rendering:auto;enable-background:accumulate"
       d="m 431.10742,55.439455 c 0.56418,0.188071 1.16602,0.388672 1.16602,0.388672 0,0 -0.64928,-0.04724 -1.26953,-0.0918 z"
       id="path2750" />
    <path
       inkscape:connector-curvature="0"
       style="color:#000000;font-style:normal;font-variant:normal;font-weight:normal;font-stretch:normal;font-size:medium;line-height:normal;font-family:sans-serif;font-variant-ligatures:normal;font-variant-position:normal;font-variant-caps:normal;font-variant-numeric:normal;font-variant-alternates:normal;font-feature-settings:normal;text-indent:0;text-align:start;text-decoration:none;text-decoration-line:none;text-decoration-style:solid;text-decoration-color:#000000;letter-spacing:normal;word-spacing:normal;text-transform:none;writing-mode:lr-tb;direction:ltr;text-orientation:mixed;dominant-baseline:auto;baseline-shift:baseline;text-anchor:start;white-space:normal;shape-padding:0;clip-rule:nonzero;display:inline;overflow:visible;visibility:visible;opacity:1;isolation:auto;mix-blend-mode:normal;color-interpolation:sRGB;color-interpolation-filters:linearRGB;solid-color:#000000;solid-opacity:1;vector-effect:none;fill:#000000;fill-opacity:1;fill-rule:evenodd;stroke:none;stroke-width:6;stroke-linecap:butt;stroke-linejoin:round;stroke-miterlimit:4;stroke-dasharray:none;stroke-dashoffset:0;stroke-opacity:1;color-rendering:auto;image-rendering:auto;shape-rendering:auto;text-rendering:auto;enable-background:accumulate"
       d="m 430.25781,57.902346 c 0.36747,0.300945 0.76303,0.624095 0.80469,0.658203 -0.0176,-0.0055 -0.0899,-0.0293 -0.0898,-0.0293 6e-5,3.1e-5 -0.64236,-0.454743 -0.74805,-0.529297 z"
       id="path2744" />
    <path
       inkscape:connector-curvature="0"
       style="color:#000000;font-style:normal;font-variant:normal;font-weight:normal;font-stretch:normal;font-size:medium;line-height:normal;font-family:sans-serif;font-variant-ligatures:normal;font-variant-position:normal;font-variant-caps:normal;font-variant-numeric:normal;font-variant-alternates:normal;font-feature-settings:normal;text-indent:0;text-align:start;text-decoration:none;text-decoration-line:none;text-decoration-style:solid;text-decoration-color:#000000;letter-spacing:normal;word-spacing:normal;text-transform:none;writing-mode:lr-tb;direction:ltr;text-orientation:mixed;dominant-baseline:auto;baseline-shift:baseline;text-anchor:start;white-space:normal;shape-padding:0;clip-rule:nonzero;display:inline;overflow:visible;visibility:visible;opacity:1;isolation:auto;mix-blend-mode:normal;color-interpolation:sRGB;color-interpolation-filters:linearRGB;solid-color:#000000;solid-opacity:1;vector-effect:none;fill:#000000;fill-opacity:1;fill-rule:evenodd;stroke:none;stroke-width:6;stroke-linecap:butt;stroke-linejoin:round;stroke-miterlimit:4;stroke-dasharray:none;stroke-dashoffset:0;stroke-opacity:1;color-rendering:auto;image-rendering:auto;shape-rendering:auto;text-rendering:auto;enable-background:accumulate"
       d="m 430.15234,57.941406 c 0.0137,0.013 0.0351,0.03193 0.0488,0.04492 -0.004,-0.0025 -0.0391,-0.02734 -0.0391,-0.02734 0,10e-7 -0.01,-0.01712 -0.01,-0.01758 z"
       id="path2742" />
    <path
       inkscape:connector-curvature="0"
       style="color:#000000;font-style:normal;font-variant:normal;font-weight:normal;font-stretch:normal;font-size:medium;line-height:normal;font-family:sans-serif;font-variant-ligatures:normal;font-variant-position:normal;font-variant-caps:normal;font-variant-numeric:normal;font-variant-alternates:normal;font-feature-settings:normal;text-indent:0;text-align:start;text-decoration:none;text-decoration-line:none;text-decoration-style:solid;text-decoration-color:#000000;letter-spacing:normal;word-spacing:normal;text-transform:none;writing-mode:lr-tb;direction:ltr;text-orientation:mixed;dominant-baseline:auto;baseline-shift:baseline;text-anchor:start;white-space:normal;shape-padding:0;clip-rule:nonzero;display:inline;overflow:visible;visibility:visible;opacity:1;isolation:auto;mix-blend-mode:normal;color-interpolation:sRGB;color-interpolation-filters:linearRGB;solid-color:#000000;solid-opacity:1;vector-effect:none;fill:#000000;fill-opacity:1;fill-rule:evenodd;stroke:none;stroke-width:6;stroke-linecap:butt;stroke-linejoin:round;stroke-miterlimit:4;stroke-dasharray:none;stroke-dashoffset:0;stroke-opacity:1;color-rendering:auto;image-rendering:auto;shape-rendering:auto;text-rendering:auto;enable-background:accumulate"
       d="m 432.35352,58.822266 c -0.022,0.003 -0.0725,0.0054 -0.1836,0.002 0.0114,7.58e-4 0.0334,0.0037 0.041,0.0039 0.14793,0.0031 0.0958,-0.0034 0.14258,-0.0059 z"
       id="path2740" />
    <path
       inkscape:connector-curvature="0"
       style="color:#000000;font-style:normal;font-variant:normal;font-weight:normal;font-stretch:normal;font-size:medium;line-height:normal;font-family:sans-serif;font-variant-ligatures:normal;font-variant-position:normal;font-variant-caps:normal;font-variant-numeric:normal;font-variant-alternates:normal;font-feature-settings:normal;text-indent:0;text-align:start;text-decoration:none;text-decoration-line:none;text-decoration-style:solid;text-decoration-color:#000000;letter-spacing:normal;word-spacing:normal;text-transform:none;writing-mode:lr-tb;direction:ltr;text-orientation:mixed;dominant-baseline:auto;baseline-shift:baseline;text-anchor:start;white-space:normal;shape-padding:0;clip-rule:nonzero;display:inline;overflow:visible;visibility:visible;opacity:1;isolation:auto;mix-blend-mode:normal;color-interpolation:sRGB;color-interpolation-filters:linearRGB;solid-color:#000000;solid-opacity:1;vector-effect:none;fill:#000000;fill-opacity:1;fill-rule:evenodd;stroke:none;stroke-width:6;stroke-linecap:butt;stroke-linejoin:round;stroke-miterlimit:4;stroke-dasharray:none;stroke-dashoffset:0;stroke-opacity:1;color-rendering:auto;image-rendering:auto;shape-rendering:auto;text-rendering:auto;enable-background:accumulate"
       d="m 430.81055,69.541016 c -0.005,0.110571 -0.003,0.178084 -0.002,0.30664 -0.005,-0.06838 -0.0195,-0.130509 -0.0176,-0.171875 0.004,-0.09304 0.0121,-0.06695 0.0195,-0.134765 z"
       id="path2738" />
    <path
       inkscape:connector-curvature="0"
       style="color:#000000;font-style:normal;font-variant:normal;font-weight:normal;font-stretch:normal;font-size:medium;line-height:normal;font-family:sans-serif;font-variant-ligatures:normal;font-variant-position:normal;font-variant-caps:normal;font-variant-numeric:normal;font-variant-alternates:normal;font-feature-settings:normal;text-indent:0;text-align:start;text-decoration:none;text-decoration-line:none;text-decoration-style:solid;text-decoration-color:#000000;letter-spacing:normal;word-spacing:normal;text-transform:none;writing-mode:lr-tb;direction:ltr;text-orientation:mixed;dominant-baseline:auto;baseline-shift:baseline;text-anchor:start;white-space:normal;shape-padding:0;clip-rule:nonzero;display:inline;overflow:visible;visibility:visible;opacity:1;isolation:auto;mix-blend-mode:normal;color-interpolation:sRGB;color-interpolation-filters:linearRGB;solid-color:#000000;solid-opacity:1;vector-effect:none;fill:#000000;fill-opacity:1;fill-rule:evenodd;stroke:none;stroke-width:6;stroke-linecap:butt;stroke-linejoin:round;stroke-miterlimit:4;stroke-dasharray:none;stroke-dashoffset:0;stroke-opacity:1;color-rendering:auto;image-rendering:auto;shape-rendering:auto;text-rendering:auto;enable-background:accumulate"
       d="m 436.76172,70.113281 c -0.002,0.03745 10e-4,0.08268 -0.002,0.105469 -0.0409,0.307988 -0.0743,0.376828 -0.0645,0.337891 0.007,-0.02861 0.0408,-0.233511 0.0664,-0.44336 z"
       id="path2736" />
    <path
       inkscape:connector-curvature="0"
       style="color:#000000;font-style:normal;font-variant:normal;font-weight:normal;font-stretch:normal;font-size:medium;line-height:normal;font-family:sans-serif;font-variant-ligatures:normal;font-variant-position:normal;font-variant-caps:normal;font-variant-numeric:normal;font-variant-alternates:normal;font-feature-settings:normal;text-indent:0;text-align:start;text-decoration:none;text-decoration-line:none;text-decoration-style:solid;text-decoration-color:#000000;letter-spacing:normal;word-spacing:normal;text-transform:none;writing-mode:lr-tb;direction:ltr;text-orientation:mixed;dominant-baseline:auto;baseline-shift:baseline;text-anchor:start;white-space:normal;shape-padding:0;clip-rule:nonzero;display:inline;overflow:visible;visibility:visible;opacity:1;isolation:auto;mix-blend-mode:normal;color-interpolation:sRGB;color-interpolation-filters:linearRGB;solid-color:#000000;solid-opacity:1;vector-effect:none;fill:#000000;fill-opacity:1;fill-rule:evenodd;stroke:none;stroke-width:6;stroke-linecap:butt;stroke-linejoin:round;stroke-miterlimit:4;stroke-dasharray:none;stroke-dashoffset:0;stroke-opacity:1;color-rendering:auto;image-rendering:auto;shape-rendering:auto;text-rendering:auto;enable-background:accumulate"
       d="m 430.84961,70.273438 c 0.0416,0.117671 0.12516,0.352502 0.23828,0.671874 -0.0953,-0.186971 -0.21295,-0.4143 -0.21289,-0.414062 5e-5,2.1e-4 -0.0138,-0.16976 -0.0254,-0.257812 z"
       id="path2734" />
    <path
       inkscape:connector-curvature="0"
       style="color:#000000;font-style:normal;font-variant:normal;font-weight:normal;font-stretch:normal;font-size:medium;line-height:normal;font-family:sans-serif;font-variant-ligatures:normal;font-variant-position:normal;font-variant-caps:normal;font-variant-numeric:normal;font-variant-alternates:normal;font-feature-settings:normal;text-indent:0;text-align:start;text-decoration:none;text-decoration-line:none;text-decoration-style:solid;text-decoration-color:#000000;letter-spacing:normal;word-spacing:normal;text-transform:none;writing-mode:lr-tb;direction:ltr;text-orientation:mixed;dominant-baseline:auto;baseline-shift:baseline;text-anchor:start;white-space:normal;shape-padding:0;clip-rule:nonzero;display:inline;overflow:visible;visibility:visible;opacity:1;isolation:auto;mix-blend-mode:normal;color-interpolation:sRGB;color-interpolation-filters:linearRGB;solid-color:#000000;solid-opacity:1;vector-effect:none;fill:#000000;fill-opacity:1;fill-rule:evenodd;stroke:none;stroke-width:6;stroke-linecap:butt;stroke-linejoin:round;stroke-miterlimit:4;stroke-dasharray:none;stroke-dashoffset:0;stroke-opacity:1;color-rendering:auto;image-rendering:auto;shape-rendering:auto;text-rendering:auto;enable-background:accumulate"
       d="m 427.14844,140.96094 c -4e-5,0 0.0387,0.005 0.043,0.006 -0.0234,-2.7e-4 -0.0469,-2.7e-4 -0.0703,0 10e-4,-2.9e-4 0.0274,-0.006 0.0274,-0.006 z"
       id="path2724" />
    <path
       inkscape:connector-curvature="0"
       style="color:#000000;font-style:normal;font-variant:normal;font-weight:normal;font-stretch:normal;font-size:medium;line-height:normal;font-family:sans-serif;font-variant-ligatures:normal;font-variant-position:normal;font-variant-caps:normal;font-variant-numeric:normal;font-variant-alternates:normal;font-feature-settings:normal;text-indent:0;text-align:start;text-decoration:none;text-decoration-line:none;text-decoration-style:solid;text-decoration-color:#000000;letter-spacing:normal;word-spacing:normal;text-transform:none;writing-mode:lr-tb;direction:ltr;text-orientation:mixed;dominant-baseline:auto;baseline-shift:baseline;text-anchor:start;white-space:normal;shape-padding:0;clip-rule:nonzero;display:inline;overflow:visible;visibility:visible;opacity:1;isolation:auto;mix-blend-mode:normal;color-interpolation:sRGB;color-interpolation-filters:linearRGB;solid-color:#000000;solid-opacity:1;vector-effect:none;fill:#000000;fill-opacity:1;fill-rule:evenodd;stroke:none;stroke-width:6;stroke-linecap:butt;stroke-linejoin:round;stroke-miterlimit:4;stroke-dasharray:none;stroke-dashoffset:0;stroke-opacity:1;color-rendering:auto;image-rendering:auto;shape-rendering:auto;text-rendering:auto;enable-background:accumulate"
       d="m 426.16406,141.1582 c -0.0255,0.0107 -0.0509,0.0218 -0.0762,0.0332 0.004,-0.002 0.041,-0.0254 0.041,-0.0254 -2e-5,0 0.0328,-0.007 0.0351,-0.008 z"
       id="path2722" />
    <path
       inkscape:connector-curvature="0"
       style="color:#000000;font-style:normal;font-variant:normal;font-weight:normal;font-stretch:normal;font-size:medium;line-height:normal;font-family:sans-serif;font-variant-ligatures:normal;font-variant-position:normal;font-variant-caps:normal;font-variant-numeric:normal;font-variant-alternates:normal;font-feature-settings:normal;text-indent:0;text-align:start;text-decoration:none;text-decoration-line:none;text-decoration-style:solid;text-decoration-color:#000000;letter-spacing:normal;word-spacing:normal;text-transform:none;writing-mode:lr-tb;direction:ltr;text-orientation:mixed;dominant-baseline:auto;baseline-shift:baseline;text-anchor:start;white-space:normal;shape-padding:0;clip-rule:nonzero;display:inline;overflow:visible;visibility:visible;opacity:1;isolation:auto;mix-blend-mode:normal;color-interpolation:sRGB;color-interpolation-filters:linearRGB;solid-color:#000000;solid-opacity:1;vector-effect:none;fill:#000000;fill-opacity:1;fill-rule:evenodd;stroke:none;stroke-width:6;stroke-linecap:butt;stroke-linejoin:round;stroke-miterlimit:4;stroke-dasharray:none;stroke-dashoffset:0;stroke-opacity:1;color-rendering:auto;image-rendering:auto;shape-rendering:auto;text-rendering:auto;enable-background:accumulate"
       d="m 425.27148,141.69336 c -0.0244,0.0198 -0.0485,0.04 -0.0723,0.0605 0.003,-0.004 0.0293,-0.0352 0.0293,-0.0352 -3e-5,2e-5 0.0392,-0.0231 0.043,-0.0254 z"
       id="path2720" />
    <path
       inkscape:connector-curvature="0"
       style="color:#000000;font-style:normal;font-variant:normal;font-weight:normal;font-stretch:normal;font-size:medium;line-height:normal;font-family:sans-serif;font-variant-ligatures:normal;font-variant-position:normal;font-variant-caps:normal;font-variant-numeric:normal;font-variant-alternates:normal;font-feature-settings:normal;text-indent:0;text-align:start;text-decoration:none;text-decoration-line:none;text-decoration-style:solid;text-decoration-color:#000000;letter-spacing:normal;word-spacing:normal;text-transform:none;writing-mode:lr-tb;direction:ltr;text-orientation:mixed;dominant-baseline:auto;baseline-shift:baseline;text-anchor:start;white-space:normal;shape-padding:0;clip-rule:nonzero;display:inline;overflow:visible;visibility:visible;opacity:1;isolation:auto;mix-blend-mode:normal;color-interpolation:sRGB;color-interpolation-filters:linearRGB;solid-color:#000000;solid-opacity:1;vector-effect:none;fill:#000000;fill-opacity:1;fill-rule:evenodd;stroke:none;stroke-width:6;stroke-linecap:butt;stroke-linejoin:round;stroke-miterlimit:4;stroke-dasharray:none;stroke-dashoffset:0;stroke-opacity:1;color-rendering:auto;image-rendering:auto;shape-rendering:auto;text-rendering:auto;enable-background:accumulate"
       d="m 424.72852,142.30859 c -0.0334,0.0498 -0.0653,0.10062 -0.0957,0.15235 0.0102,-0.0191 0.045,-0.0919 0.0449,-0.0918 -3e-5,6e-5 0.0422,-0.0504 0.0508,-0.0605 z"
       id="path2718" />
    <path
       inkscape:connector-curvature="0"
       style="color:#000000;font-style:normal;font-variant:normal;font-weight:normal;font-stretch:normal;font-size:medium;line-height:normal;font-family:sans-serif;font-variant-ligatures:normal;font-variant-position:normal;font-variant-caps:normal;font-variant-numeric:normal;font-variant-alternates:normal;font-feature-settings:normal;text-indent:0;text-align:start;text-decoration:none;text-decoration-line:none;text-decoration-style:solid;text-decoration-color:#000000;letter-spacing:normal;word-spacing:normal;text-transform:none;writing-mode:lr-tb;direction:ltr;text-orientation:mixed;dominant-baseline:auto;baseline-shift:baseline;text-anchor:start;white-space:normal;shape-padding:0;clip-rule:nonzero;display:inline;overflow:visible;visibility:visible;opacity:1;isolation:auto;mix-blend-mode:normal;color-interpolation:sRGB;color-interpolation-filters:linearRGB;solid-color:#000000;solid-opacity:1;vector-effect:none;fill:#000000;fill-opacity:1;fill-rule:evenodd;stroke:none;stroke-width:6;stroke-linecap:butt;stroke-linejoin:round;stroke-miterlimit:4;stroke-dasharray:none;stroke-dashoffset:0;stroke-opacity:1;color-rendering:auto;image-rendering:auto;shape-rendering:auto;text-rendering:auto;enable-background:accumulate"
       d="m 424.45703,142.82031 c -0.0277,0.0648 -0.0531,0.13064 -0.0762,0.19727 0.0124,-0.038 0.016,-0.0641 0.0312,-0.10547 0.01,-0.0264 0.0282,-0.0552 0.0449,-0.0918 z"
       id="path2716" />
    <path
       inkscape:connector-curvature="0"
       style="color:#000000;font-style:normal;font-variant:normal;font-weight:normal;font-stretch:normal;font-size:medium;line-height:normal;font-family:sans-serif;font-variant-ligatures:normal;font-variant-position:normal;font-variant-caps:normal;font-variant-numeric:normal;font-variant-alternates:normal;font-feature-settings:normal;text-indent:0;text-align:start;text-decoration:none;text-decoration-line:none;text-decoration-style:solid;text-decoration-color:#000000;letter-spacing:normal;word-spacing:normal;text-transform:none;writing-mode:lr-tb;direction:ltr;text-orientation:mixed;dominant-baseline:auto;baseline-shift:baseline;text-anchor:start;white-space:normal;shape-padding:0;clip-rule:nonzero;display:inline;overflow:visible;visibility:visible;opacity:1;isolation:auto;mix-blend-mode:normal;color-interpolation:sRGB;color-interpolation-filters:linearRGB;solid-color:#000000;solid-opacity:1;vector-effect:none;fill:#000000;fill-opacity:1;fill-rule:evenodd;stroke:none;stroke-width:6;stroke-linecap:butt;stroke-linejoin:round;stroke-miterlimit:4;stroke-dasharray:none;stroke-dashoffset:0;stroke-opacity:1;color-rendering:auto;image-rendering:auto;shape-rendering:auto;text-rendering:auto;enable-background:accumulate"
       d="m 424.37113,143.05078 c -0.0353,0.11215 -0.064,0.22628 -0.0859,0.3418 h -0.002 c 0.006,-0.0333 0.004,-0.045 0.0117,-0.082 0.0161,-0.0734 0.0479,-0.1688 0.0762,-0.25977 z"
       id="path2714" />
  </g>
</svg>
