<?xml version="1.0" encoding="UTF-8" standalone="no"?>
<!-- Created with Inkscape (http://www.inkscape.org/) -->

<svg
   xmlns:dc="http://purl.org/dc/elements/1.1/"
   xmlns:cc="http://creativecommons.org/ns#"
   xmlns:rdf="http://www.w3.org/1999/02/22-rdf-syntax-ns#"
   xmlns:svg="http://www.w3.org/2000/svg"
   xmlns="http://www.w3.org/2000/svg"
   xmlns:xlink="http://www.w3.org/1999/xlink"
   xmlns:sodipodi="http://sodipodi.sourceforge.net/DTD/sodipodi-0.dtd"
   xmlns:inkscape="http://www.inkscape.org/namespaces/inkscape"
   width="250"
   height="250"
   id="svg2397"
   sodipodi:version="0.32"
   inkscape:version="0.92.2 (5c3e80d, 2017-08-06)"
   version="1.0"
   sodipodi:docname="Fang-icon.svg"
   inkscape:output_extension="org.inkscape.output.svg.inkscape"
   inkscape:export-filename="C:\Users\Leann\Downloads\Fang-icon2.png"
   inkscape:export-xdpi="200"
   inkscape:export-ydpi="200">
  <defs
     id="defs2399">
    <inkscape:perspective
       sodipodi:type="inkscape:persp3d"
       inkscape:vp_x="0 : 526.18109 : 1"
       inkscape:vp_y="0 : 1000 : 0"
       inkscape:vp_z="744.09448 : 526.18109 : 1"
       inkscape:persp3d-origin="372.04724 : 350.78739 : 1"
       id="perspective2405" />
    <inkscape:perspective
       id="perspective2471"
       inkscape:persp3d-origin="372.04724 : 350.78739 : 1"
       inkscape:vp_z="744.09448 : 526.18109 : 1"
       inkscape:vp_y="0 : 1000 : 0"
       inkscape:vp_x="0 : 526.18109 : 1"
       sodipodi:type="inkscape:persp3d" />
    <inkscape:perspective
       id="perspective3279"
       inkscape:persp3d-origin="372.04724 : 350.78739 : 1"
       inkscape:vp_z="744.09448 : 526.18109 : 1"
       inkscape:vp_y="0 : 1000 : 0"
       inkscape:vp_x="0 : 526.18109 : 1"
       sodipodi:type="inkscape:persp3d" />
    <inkscape:perspective
       id="perspective2472"
       inkscape:persp3d-origin="372.04724 : 350.78739 : 1"
       inkscape:vp_z="744.09448 : 526.18109 : 1"
       inkscape:vp_y="0 : 1000 : 0"
       inkscape:vp_x="0 : 526.18109 : 1"
       sodipodi:type="inkscape:persp3d" />
  </defs>
  <sodipodi:namedview
     id="base"
     pagecolor="#ffffff"
     bordercolor="#666666"
     borderopacity="1.0"
     gridtolerance="10000"
     guidetolerance="10"
     objecttolerance="10"
     inkscape:pageopacity="0.0"
     inkscape:pageshadow="2"
     inkscape:zoom="2.024"
     inkscape:cx="125"
     inkscape:cy="125"
     inkscape:document-units="px"
     inkscape:current-layer="layer1"
     showgrid="false"
     inkscape:window-width="1366"
     inkscape:window-height="705"
     inkscape:window-x="-8"
     inkscape:window-y="-8"
     inkscape:snap-global="false"
     inkscape:window-maximized="1" />
  <metadata
     id="metadata2402">
    <rdf:RDF>
      <cc:Work
         rdf:about="">
        <dc:format>image/svg+xml</dc:format>
        <dc:type
           rdf:resource="http://purl.org/dc/dcmitype/StillImage" />
      </cc:Work>
    </rdf:RDF>
  </metadata>
  <g
     inkscape:label="Layer 1"
     inkscape:groupmode="layer"
     id="layer1">
    <path
       style="fill:#ff0000;fill-opacity:1;stroke:none;stroke-width:4.99998379;stroke-linecap:round;stroke-linejoin:miter;stroke-miterlimit:4;stroke-dasharray:none;stroke-opacity:1"
       d="M 233.5,168.6543 H 225 V 81.654297 h 8.5 v -65 h -65 V 25.154 h -87 v -8.49775 h -65 V 80.654 H 25 v 88.0003 h -8.5 v 64.9997 l 65,3e-4 v -8.5003 h 87 v 8.5 l 65,3e-4 z"
       id="path914"
       inkscape:connector-curvature="0"
       sodipodi:nodetypes="ccccccccccccccccccccc" />
    <path
       sodipodi:type="inkscape:offset"
       inkscape:radius="1.6492074"
       inkscape:original="M 168.5 16.654297 L 168.5 25.154297 L 81.5 25.154297 L 81.5 16.65625 L 16.5 16.65625 L 16.5 80.654297 L 25 80.654297 L 25 168.6543 L 16.5 168.6543 L 16.5 233.6543 L 81.5 233.6543 L 81.5 225.1543 L 168.5 225.1543 L 168.5 233.6543 L 233.5 233.6543 L 233.5 168.6543 L 225 168.6543 L 225 81.654297 L 233.5 81.654297 L 233.5 16.654297 L 168.5 16.654297 z "
       xlink:href="#path914"
       style="fill:#ffffff;fill-opacity:1;stroke:none;stroke-width:4.99998379;stroke-linecap:round;stroke-linejoin:miter;stroke-miterlimit:4;stroke-dasharray:none;stroke-opacity:1"
       id="path963"
       inkscape:href="#path914"
       d="m 168.5,15.005859 a 1.6493723,1.6493723 0 0 0 -1.64844,1.648438 v 6.851562 H 83.148438 V 16.65625 A 1.6493723,1.6493723 0 0 0 81.5,15.007812 h -65 A 1.6493723,1.6493723 0 0 0 14.851562,16.65625 V 80.654297 A 1.6493723,1.6493723 0 0 0 16.5,82.302734 h 6.851562 V 167.00586 H 16.5 a 1.6493723,1.6493723 0 0 0 -1.648438,1.64844 v 65 A 1.6493723,1.6493723 0 0 0 16.5,235.30273 h 65 a 1.6493723,1.6493723 0 0 0 1.648438,-1.64843 v -6.85157 h 83.703122 v 6.85157 a 1.6493723,1.6493723 0 0 0 1.64844,1.64843 h 65 a 1.6493723,1.6493723 0 0 0 1.64844,-1.64843 v -65 A 1.6493723,1.6493723 0 0 0 233.5,167.00586 h -6.85156 V 83.302734 H 233.5 a 1.6493723,1.6493723 0 0 0 1.64844,-1.648437 v -65 A 1.6493723,1.6493723 0 0 0 233.5,15.005859 Z" />
    <rect
       style="fill:#ffffff;fill-opacity:1;stroke:none;stroke-width:3;stroke-linecap:round;stroke-linejoin:miter;stroke-miterlimit:4;stroke-dasharray:none;stroke-opacity:1"
       id="rect2406"
       width="189.55461"
       height="194.06151"
       x="31.813362"
       y="27.510733" />
    <path
       inkscape:connector-curvature="0"
       style="fill:#000000;fill-opacity:1;stroke:#000000;stroke-width:4.99998379;stroke-linecap:round;stroke-linejoin:miter;stroke-miterlimit:4;stroke-dasharray:none;stroke-opacity:1"
       d="M 27.5,27.654696 V 222.6547 h 195 V 27.654696 Z m 42.5,42.5 H 180 V 180.1547 H 70 Z"
       id="rect3316" />
    <rect
       style="fill:#ffffff;fill-opacity:1;stroke:none;stroke-width:3;stroke-linecap:round;stroke-linejoin:miter;stroke-miterlimit:4;stroke-dasharray:none;stroke-opacity:1"
       id="rect3453"
       width="63"
       height="63"
       x="169.5"
       y="17.654696" />
    <path
       inkscape:connector-curvature="0"
       style="fill:#000000;fill-opacity:1;stroke:none;stroke-width:4.99994421;stroke-linecap:round;stroke-linejoin:miter;stroke-miterlimit:4;stroke-dasharray:none;stroke-opacity:1"
       d="m 168.5,16.654696 v 62.5 l 23.5625,-23.5625 C 190.75735,53.783711 190,51.553714 190,49.154696 c 0,-3.036001 1.22775,-5.79025 3.21875,-7.78125 L 173.5,21.654696 H 226 l -18.5625,18.5625 c -1.80848,-1.305148 -4.03848,-2.0625 -6.4375,-2.0625 -3.036,0 -5.79025,1.22775 -7.78125,3.21875 l 2.5,2.5 c 1.35587,-1.358 3.21394,-2.21875 5.28125,-2.21875 0.35816,0 0.71811,0.01448 1.0625,0.0625 0.15265,0.02157 0.28794,0.06312 0.4375,0.09375 0.0101,0.002 0.0212,-0.0021 0.0312,0 0.23472,0.04838 0.46142,0.117693 0.6875,0.1875 0.2348,0.07308 0.4632,0.155078 0.6875,0.25 0.2048,0.08589 0.39855,0.177905 0.59375,0.28125 0.13748,0.07279 0.2739,0.137663 0.40625,0.21875 1.01338,0.620886 1.87911,1.486621 2.5,2.5 0.0676,0.110413 0.1255,0.229669 0.1875,0.34375 0.0112,0.0207 0.0202,0.04169 0.0312,0.0625 0.10334,0.195197 0.19536,0.388953 0.28125,0.59375 0.0949,0.224297 0.17692,0.4527 0.25,0.6875 0.0698,0.22608 0.13912,0.452784 0.1875,0.6875 0.002,0.0099 -0.002,0.02132 0,0.03125 0.0298,0.147479 0.0728,0.286971 0.0937,0.4375 0.0488,0.34552 0.0625,0.703573 0.0625,1.0625 0,2.064875 -0.86385,3.924734 -2.21875,5.28125 l 2.5,2.5 c 1.991,-1.991 3.21875,-4.74525 3.21875,-7.78125 0,-2.399018 -0.75735,-4.629015 -2.0625,-6.4375 L 228.5,24.154696 v 52.5 l -19.71875,-19.71875 c -1.991,1.991 -4.74525,3.21875 -7.78125,3.21875 -2.39902,0 -4.62902,-0.757352 -6.4375,-2.0625 L 171,81.654696 h 62.5 v -62.5 -2.5 H 231 Z m 37.78125,37.78125 -10.5625,-10.5625 c -0.68059,0.681653 -1.24433,1.475478 -1.625,2.375 -0.0949,0.224297 -0.17692,0.4527 -0.25,0.6875 -0.14616,0.4696 -0.26126,0.933447 -0.3125,1.4375 -0.0256,0.252026 -0.0312,0.5225 -0.0312,0.78125 0,0.304328 0.0272,0.611376 0.0625,0.90625 0.0228,0.191953 0.0568,0.375362 0.0937,0.5625 0.004,0.02026 -0.004,0.0423 0,0.0625 0.0484,0.234716 0.11769,0.46142 0.1875,0.6875 0.0731,0.2348 0.15508,0.463203 0.25,0.6875 0.0859,0.204797 0.17791,0.398553 0.28125,0.59375 0.0719,0.135259 0.13899,0.276065 0.21875,0.40625 0.62089,1.013379 1.48662,1.879114 2.5,2.5 0.0923,0.05654 0.18646,0.103727 0.28125,0.15625 0.0405,0.02251 0.084,0.04073 0.125,0.0625 0.1952,0.103345 0.38895,0.195357 0.59375,0.28125 0.2243,0.09492 0.4527,0.176919 0.6875,0.25 0.22608,0.06981 0.45278,0.139124 0.6875,0.1875 0.15731,0.03242 0.30795,0.07133 0.46875,0.09375 0.34552,0.04883 0.70357,0.0625 1.0625,0.0625 0.5175,0 1.01191,-0.05629 1.5,-0.15625 0.73213,-0.149941 1.4249,-0.403491 2.0625,-0.75 0.64181,-0.348797 1.20604,-0.799176 1.71875,-1.3125 z"
       id="rect2387" />
    <rect
       y="169.65471"
       x="169.5"
       height="63"
       width="63"
       id="rect3465"
       style="fill:#ffffff;fill-opacity:1;stroke:none;stroke-width:3;stroke-linecap:round;stroke-linejoin:miter;stroke-miterlimit:4;stroke-dasharray:none;stroke-opacity:1" />
    <path
       inkscape:connector-curvature="0"
       id="path3467"
       d="m 168.5,168.6547 v 62.5 l 23.5625,-23.5625 C 190.75735,205.78372 190,203.55372 190,201.1547 c 0,-3.036 1.22775,-5.79025 3.21875,-7.78125 L 173.5,173.6547 H 226 l -18.5625,18.5625 c -1.80848,-1.30515 -4.03848,-2.0625 -6.4375,-2.0625 -3.036,0 -5.79025,1.22775 -7.78125,3.21875 l 2.5,2.5 c 1.35587,-1.358 3.21394,-2.21875 5.28125,-2.21875 0.35816,0 0.71811,0.0145 1.0625,0.0625 0.15265,0.0216 0.28794,0.0631 0.4375,0.0937 0.0101,0.002 0.0212,-0.002 0.0312,0 0.23472,0.0484 0.46142,0.11769 0.6875,0.1875 0.2348,0.0731 0.4632,0.15508 0.6875,0.25 0.2048,0.0859 0.39855,0.17791 0.59375,0.28125 0.13748,0.0728 0.2739,0.13766 0.40625,0.21875 1.01338,0.62089 1.87911,1.48662 2.5,2.5 0.0676,0.11041 0.1255,0.22967 0.1875,0.34375 0.0112,0.0207 0.0202,0.0417 0.0312,0.0625 0.10334,0.1952 0.19536,0.38895 0.28125,0.59375 0.0949,0.2243 0.17692,0.4527 0.25,0.6875 0.0698,0.22608 0.13912,0.45278 0.1875,0.6875 0.002,0.01 -0.002,0.0213 0,0.0312 0.0298,0.14748 0.0728,0.28697 0.0937,0.4375 0.0488,0.34552 0.0625,0.70357 0.0625,1.0625 0,2.06488 -0.86385,3.92473 -2.21875,5.28125 l 2.5,2.5 c 1.991,-1.991 3.21875,-4.74525 3.21875,-7.78125 0,-2.39902 -0.75735,-4.62902 -2.0625,-6.4375 L 228.5,176.1547 v 52.5 l -19.71875,-19.71875 c -1.991,1.991 -4.74525,3.21875 -7.78125,3.21875 -2.39902,0 -4.62902,-0.75735 -6.4375,-2.0625 L 171,233.6547 h 62.5 v -62.5 -2.5 H 231 Z m 37.78125,37.78125 -10.5625,-10.5625 c -0.68059,0.68165 -1.24433,1.47548 -1.625,2.375 -0.0949,0.2243 -0.17692,0.4527 -0.25,0.6875 -0.14616,0.4696 -0.26126,0.93345 -0.3125,1.4375 -0.0256,0.25203 -0.0312,0.5225 -0.0312,0.78125 0,0.30433 0.0272,0.61138 0.0625,0.90625 0.0228,0.19195 0.0568,0.37536 0.0937,0.5625 0.004,0.0203 -0.004,0.0423 0,0.0625 0.0484,0.23472 0.11769,0.46142 0.1875,0.6875 0.0731,0.2348 0.15508,0.4632 0.25,0.6875 0.0859,0.2048 0.17791,0.39855 0.28125,0.59375 0.0719,0.13526 0.13899,0.27607 0.21875,0.40625 0.62089,1.01338 1.48662,1.87911 2.5,2.5 0.0923,0.0565 0.18646,0.10373 0.28125,0.15625 0.0405,0.0225 0.084,0.0407 0.125,0.0625 0.1952,0.10334 0.38895,0.19536 0.59375,0.28125 0.2243,0.0949 0.4527,0.17692 0.6875,0.25 0.22608,0.0698 0.45278,0.13912 0.6875,0.1875 0.15731,0.0324 0.30795,0.0713 0.46875,0.0937 0.34552,0.0488 0.70357,0.0625 1.0625,0.0625 0.5175,0 1.01191,-0.0563 1.5,-0.15625 0.73213,-0.14994 1.4249,-0.40349 2.0625,-0.75 0.64181,-0.3488 1.20604,-0.79918 1.71875,-1.3125 z"
       style="fill:#000000;fill-opacity:1;stroke:none;stroke-width:4.99994421;stroke-linecap:round;stroke-linejoin:miter;stroke-miterlimit:4;stroke-dasharray:none;stroke-opacity:1" />
    <rect
       y="17.654696"
       x="17.5"
       height="63"
       width="63"
       id="rect3471"
       style="fill:#ffffff;fill-opacity:1;stroke:none;stroke-width:3;stroke-linecap:round;stroke-linejoin:miter;stroke-miterlimit:4;stroke-dasharray:none;stroke-opacity:1" />
    <path
       inkscape:connector-curvature="0"
       style="fill:#000000;fill-opacity:1;stroke:none;stroke-width:4.99994421;stroke-linecap:round;stroke-linejoin:miter;stroke-miterlimit:4;stroke-dasharray:none;stroke-opacity:1"
       d="m 16.5,16.65625 v 62.5 L 40.0625,55.59375 C 38.75735,53.785264 38,51.555268 38,49.15625 38,46.120248 39.22775,43.366 41.21875,41.375 L 21.5,21.65625 H 74 L 55.4375,40.21875 C 53.62902,38.913601 51.39902,38.15625 49,38.15625 45.964,38.156249 43.20975,39.384 41.21875,41.375 l 2.5,2.5 C 45.07462,42.516999 46.93269,41.65625 49,41.65625 c 0.35816,-10e-7 0.71811,0.01448 1.0625,0.0625 0.15265,0.02157 0.28794,0.06312 0.4375,0.09375 0.01006,0.002 0.0212,-0.0021 0.03125,0 0.23472,0.04838 0.46142,0.117693 0.6875,0.1875 0.2348,0.07308 0.4632,0.155078 0.6875,0.25 0.2048,0.08589 0.39855,0.177905 0.59375,0.28125 0.13748,0.07279 0.2739,0.137663 0.40625,0.21875 1.01338,0.620885 1.87911,1.486621 2.5,2.5 0.06765,0.110412 0.1255,0.229669 0.1875,0.34375 0.01121,0.0207 0.02023,0.04169 0.03125,0.0625 0.10334,0.195196 0.19536,0.388953 0.28125,0.59375 0.09492,0.224296 0.17692,0.4527 0.25,0.6875 0.06981,0.226079 0.13912,0.452784 0.1875,0.6875 0.0021,0.0099 -0.002,0.02132 0,0.03125 0.02976,0.147478 0.07276,0.286971 0.09375,0.4375 0.04883,0.345519 0.0625,0.703573 0.0625,1.0625 0,2.064874 -0.86385,3.924734 -2.21875,5.28125 l 2.5,2.5 C 58.77225,54.946499 60,52.19225 60,49.15625 60,46.757231 59.24265,44.527235 57.9375,42.71875 L 76.5,24.15625 v 52.5 L 56.78125,56.9375 C 54.79025,58.928499 52.036,60.15625 49,60.15625 c -2.39902,-10e-7 -4.62902,-0.757352 -6.4375,-2.0625 v 23.5625 H 81.5 v -62.5 -2.5 H 79 Z M 54.28125,54.4375 43.71875,43.875 c -0.68059,0.681652 -1.24433,1.475478 -1.625,2.375 -0.09492,0.224296 -0.17692,0.4527 -0.25,0.6875 -0.14616,0.469599 -0.26126,0.933447 -0.3125,1.4375 C 41.50563,48.627025 41.5,48.8975 41.5,49.15625 c 0,0.304327 0.02721,0.611376 0.0625,0.90625 0.0228,0.191952 0.05679,0.375362 0.09375,0.5625 0.0041,0.02026 -0.0042,0.0423 0,0.0625 0.04838,0.234715 0.11769,0.46142 0.1875,0.6875 0.07308,0.234799 0.15508,0.463203 0.25,0.6875 0.08589,0.204796 0.17791,0.398553 0.28125,0.59375 0.07188,0.135258 0.13899,0.276065 0.21875,0.40625 0.62089,1.013378 1.48662,1.879114 2.5,2.5 0.09228,0.05653 0.18646,0.103727 0.28125,0.15625 0.04052,0.02251 0.08403,0.04073 0.125,0.0625 0.1952,0.103344 0.38895,0.195357 0.59375,0.28125 0.2243,0.09492 0.4527,0.176919 0.6875,0.25 0.22608,0.06981 0.45278,0.139124 0.6875,0.1875 0.15731,0.03242 0.30795,0.07133 0.46875,0.09375 0.34552,0.04883 0.70357,0.0625 1.0625,0.0625 0.5175,-10e-7 1.01191,-0.05629 1.5,-0.15625 0.73213,-0.149942 1.4249,-0.403491 2.0625,-0.75 0.64181,-0.348798 1.20604,-0.799176 1.71875,-1.3125 z"
       id="path3473" />
    <rect
       style="fill:#ffffff;fill-opacity:1;stroke:none;stroke-width:3;stroke-linecap:round;stroke-linejoin:miter;stroke-miterlimit:4;stroke-dasharray:none;stroke-opacity:1"
       id="rect3477"
       width="63"
       height="63"
       x="17.5"
       y="169.65471" />
    <path
       inkscape:connector-curvature="0"
       style="fill:#000000;fill-opacity:1;stroke:none;stroke-width:4.99994421;stroke-linecap:round;stroke-linejoin:miter;stroke-miterlimit:4;stroke-dasharray:none;stroke-opacity:1"
       d="m 16.5,168.6547 v 62.5 L 40.0625,207.5922 C 38.75735,205.78372 38,203.55372 38,201.1547 c 0,-3.036 1.22775,-5.79025 3.21875,-7.78125 L 21.5,173.6547 H 74 l -18.5625,18.5625 c -1.80848,-1.30515 -4.03848,-2.0625 -6.4375,-2.0625 -3.036,0 -5.79025,1.22775 -7.78125,3.21875 l 2.5,2.5 c 1.35587,-1.358 3.21394,-2.21875 5.28125,-2.21875 0.35816,0 0.71811,0.0145 1.0625,0.0625 0.15265,0.0216 0.28794,0.0631 0.4375,0.0937 0.01006,0.002 0.0212,-0.002 0.03125,0 0.23472,0.0484 0.46142,0.11769 0.6875,0.1875 0.2348,0.0731 0.4632,0.15508 0.6875,0.25 0.2048,0.0859 0.39855,0.17791 0.59375,0.28125 0.13748,0.0728 0.2739,0.13766 0.40625,0.21875 1.01338,0.62089 1.87911,1.48662 2.5,2.5 0.06765,0.11041 0.1255,0.22967 0.1875,0.34375 0.01121,0.0207 0.02023,0.0417 0.03125,0.0625 0.10334,0.1952 0.19536,0.38895 0.28125,0.59375 0.09492,0.2243 0.17692,0.4527 0.25,0.6875 0.06981,0.22608 0.13912,0.45278 0.1875,0.6875 0.0021,0.01 -0.002,0.0213 0,0.0312 0.02976,0.14748 0.07276,0.28697 0.09375,0.4375 0.04883,0.34552 0.0625,0.70357 0.0625,1.0625 0,2.06488 -0.86385,3.92473 -2.21875,5.28125 l 2.5,2.5 C 58.77225,206.94495 60,204.1907 60,201.1547 c 0,-2.39902 -0.75735,-4.62902 -2.0625,-6.4375 L 76.5,176.1547 v 52.5 L 56.78125,208.93595 c -1.991,1.991 -4.74525,3.21875 -7.78125,3.21875 -2.39902,0 -4.62902,-0.75735 -6.4375,-2.0625 L 19,233.6547 h 62.5 v -62.5 -2.5 H 79 Z m 37.78125,37.78125 -10.5625,-10.5625 c -0.68059,0.68165 -1.24433,1.47548 -1.625,2.375 -0.09492,0.2243 -0.17692,0.4527 -0.25,0.6875 -0.14616,0.4696 -0.26126,0.93345 -0.3125,1.4375 -0.02562,0.25203 -0.03125,0.5225 -0.03125,0.78125 0,0.30433 0.02721,0.61138 0.0625,0.90625 0.0228,0.19195 0.05679,0.37536 0.09375,0.5625 0.0041,0.0203 -0.0042,0.0423 0,0.0625 0.04838,0.23472 0.11769,0.46142 0.1875,0.6875 0.07308,0.2348 0.15508,0.4632 0.25,0.6875 0.08589,0.2048 0.17791,0.39855 0.28125,0.59375 0.07188,0.13526 0.13899,0.27607 0.21875,0.40625 0.62089,1.01338 1.48662,1.87911 2.5,2.5 0.09228,0.0565 0.18646,0.10373 0.28125,0.15625 0.04052,0.0225 0.08403,0.0407 0.125,0.0625 0.1952,0.10334 0.38895,0.19536 0.59375,0.28125 0.2243,0.0949 0.4527,0.17692 0.6875,0.25 0.22608,0.0698 0.45278,0.13912 0.6875,0.1875 0.15731,0.0324 0.30795,0.0713 0.46875,0.0937 0.34552,0.0488 0.70357,0.0625 1.0625,0.0625 0.5175,0 1.01191,-0.0563 1.5,-0.15625 0.73213,-0.14994 1.4249,-0.40349 2.0625,-0.75 0.64181,-0.3488 1.20604,-0.79918 1.71875,-1.3125 z"
       id="path3479" />
    <path
       inkscape:connector-curvature="0"
       style="fill:#ffffff;fill-opacity:1;stroke:none;stroke-width:5.43102312;stroke-linecap:round;stroke-linejoin:miter;stroke-miterlimit:4;stroke-opacity:1"
       d="m 80.375509,14.342196 c -34.655015,0 -58.246954,27.410865 -58.514591,60.0625 -0.258936,31.590134 22.532613,60.062504 58.514591,60.062504 26.843961,0 49.537681,24.92461 49.537681,51.4375 0,24.85574 -19.51232,48.30172 -44.910516,51.21875 -2.732684,0.4718 -3.653819,2.35932 -3.311514,4.88619 0.308367,2.27634 1.364889,3.77612 4.651796,3.64506 59.329304,-3.23223 106.573294,-51.73643 106.573284,-115.5 C 192.91623,64.337729 142.19729,14.342194 80.375509,14.342196 Z"
       id="path3304"
       sodipodi:nodetypes="czsscscsc" />
    <path
       sodipodi:type="inkscape:offset"
       inkscape:radius="0"
       inkscape:original="M 79.65625 12.46875 C 50.453737 12.46875 26.74999 37.442196 26.75 68.21875 C 26.749998 98.995301 50.453739 123.96875 79.65625 123.96875 C 108.85869 123.96875 132.5625 148.9422 132.5625 179.71875 C 132.5625 208.57179 111.7284 232.3306 85.0625 235.1875 C 140.94174 232.1991 185.46876 183.59857 185.46875 123.96875 C 185.46874 62.415399 138.06135 12.468748 79.65625 12.46875 z "
       style="fill:#ffffff;fill-opacity:1;stroke:#000000;stroke-width:5.43100023;stroke-linecap:round;stroke-linejoin:round;stroke-miterlimit:4;stroke-dasharray:none;stroke-opacity:1"
       id="path3302"
       d="m 79.65625,12.46875 c -29.202513,0 -52.90626,24.973446 -52.90625,55.75 -2e-6,30.776551 23.703739,55.75 52.90625,55.75 29.20244,0 52.90625,24.97345 52.90625,55.75 0,28.85304 -20.8341,52.61185 -47.5,55.46875 55.87924,-2.9884 100.40626,-51.58893 100.40625,-111.21875 -1e-5,-61.553351 -47.4074,-111.500002 -105.8125,-111.5 z"
       transform="matrix(1.0211674,0,0,1,-0.9668567,6.1859463)" />
    <path
       inkscape:connector-curvature="0"
       style="fill:#000000;fill-rule:evenodd;stroke:#000000;stroke-width:1.01100004;stroke-linecap:butt;stroke-linejoin:round;stroke-miterlimit:4;stroke-dasharray:none;stroke-opacity:1"
       d="m 27.729788,87.310018 c 0,0 3.83388,-25.993262 12.93859,-37.380699 C 49.961392,38.306367 56.213432,33.018119 64.380574,28.301798 59.055773,33.281581 50.118255,43.439319 46.37601,54.701323 42.633764,65.963327 38.852406,84.373536 43.431726,98.974917 45.399702,80.865269 47.249379,70.598539 52.63631,60.268661 58.023242,49.938783 67.955368,40.044083 77.813555,32.962192 71.786069,39.944978 61.979812,53.84551 58.592217,64.775554 55.204622,75.705598 53.126973,83.491413 55.884987,102.95159 58.635272,82.854789 62.398976,72.990447 67.802413,63.184886 73.205851,53.379325 82.439848,44.890624 91.592372,38.264419 87.144148,44.317733 75.404832,59.632732 72.105923,70.07778 68.807014,80.522828 66.63487,87.368744 67.796802,106.13293 70.114177,91.08121 74.86951,78.787993 80.475892,69.017335 86.082273,59.246677 92.638857,52.909337 104.34441,44.36198 98.526131,51.105897 89.113244,62.963247 85.382578,73.259117 81.651911,83.554987 79.917919,91.345101 80.250063,107.19337 83.757465,93.100931 88.72766,81.916554 93.763769,73.78934 98.681728,65.852796 105.69794,59.297552 118.68151,50.989763 c -8.38218,8.413062 -16.08237,19.451483 -20.016667,28.632026 -3.934292,9.180543 -5.604325,17.687556 -5.724467,31.018031 3.796873,-12.028566 7.613494,-24.045631 14.398834,-32.078476 6.78533,-8.032845 11.00394,-13.068332 25.22774,-19.088018 -7.21098,4.955024 -16.34199,15.8022 -20.91301,24.125133 -4.57102,8.322933 -7.05849,19.175181 -7.83414,29.427361 5.42629,-12.91118 10.08175,-21.511572 16.2434,-28.101804 6.16164,-6.590232 16.10799,-13.507296 24.89529,-16.702015 -5.70378,4.266351 -16.15327,14.376285 -20.85129,22.269353 -4.69803,7.893068 -6.08385,10.652776 -9.74603,27.041356 6.07511,-9.4335 11.9414,-19.444901 18.39234,-25.185576 6.45094,-5.740679 15.25541,-8.570303 23.84045,-11.134677 -10.03293,5.53853 -14.61186,8.141864 -19.53694,14.581124 -4.92508,6.439269 -9.83978,14.560949 -12.94982,27.041359 6.35607,-7.5511 10.91799,-14.96297 17.08079,-19.08718 6.16281,-4.124196 16.14211,-6.068566 23.78744,-6.362666 -6.51215,1.636741 -15.83803,5.154416 -20.81958,10.339066 -4.98155,5.18464 -7.7463,11.64324 -11.92696,21.73857 5.50307,-5.3545 12.82237,-12.75964 18.17042,-14.58029 5.26189,-1.79132 11.77389,-3.3629 20.58226,-2.38683 -6.41674,0.66147 -13.95665,2.61233 -19.27324,6.62749 -5.3166,4.01516 -9.70242,11.03878 -13.52353,18.29297 6.08022,-4.14672 11.06272,-8.37652 16.81148,-10.33907 5.74877,-1.96255 13.26841,-1.78612 19.76419,-0.79561 -5.7717,1.16171 -13.5747,1.77381 -18.70262,5.3011 -5.12791,3.52729 -10.33595,7.7393 -13.54149,15.6427 4.4109,-3.07131 12.82063,-6.5579 18.13845,-7.42312 5.31782,-0.86522 7.48259,-0.89086 15.18293,1.06044 -6.2804,-0.23679 -11.31414,1.10792 -16.02877,3.71157 -4.71462,2.60365 -11.01844,7.28638 -13.50248,12.46023 4.04431,-3.24365 11.85298,-5.82316 16.50288,-5.83246 4.64287,-0.009 6.33415,-0.3138 12.49254,1.85579 -4.69459,0.46732 -10.87767,1.70829 -14.33184,3.18415 -3.4295,1.46531 -8.45788,4.12953 -11.95634,9.54119 4.07644,-2.52481 8.49688,-3.46925 12.26909,-3.44645 3.77222,0.0228 6.42696,0.52966 10.37135,2.52279 -5.80146,-0.16101 -7.30617,0.055 -11.03831,0.92647 -3.79569,0.88626 -8.00578,3.10162 -11.06069,7.95053 3.03822,-1.43758 8.29964,-2.06443 10.74508,-1.79161 2.43716,0.27188 4.60981,0.93817 7.16189,3.25113 -3.26496,-1.05399 -5.76005,-0.5427 -8.62702,0.0614 -2.85417,0.60136 -6.88704,3.73286 -9.50578,6.16736 3.14798,-0.33581 6.53478,-0.21738 8.44533,0.19531 1.89567,0.40948 3.62556,1.04952 5.31665,2.98602 -2.09228,-0.47459 -5.13717,-0.25577 -7.44348,0.2623 -2.30632,0.51807 -5.0901,2.10611 -7.42384,4.77482 2.08547,1.11621 3.84579,1.93254 5.0627,3.32093 1.18407,1.35092 1.80482,2.18242 2.55648,4.69377 -1.43325,2.33781 -7.69109,8.86451 -11.36197,12.52721 -3.67089,3.6627 -9.11896,8.85212 -13.06449,11.80168 -3.94553,2.94956 -9.04865,5.80665 -12.99471,7.95333 -3.94606,2.14668 -13.26542,6.36268 -13.26542,6.36268 l 11.64109,-8.21845 9.74602,-12.99046 5.95591,-14.0509 2.16578,-14.84624 -2.16578,-17.49734 -5.95591,-11.13468 -8.66313,-11.6649 -12.45326,-9.80912 L 89.183923,130.78828 73.481986,129.19761 57.238603,125.22094 42.619557,114.8816 31.249188,98.974917 Z"
       id="path3310"
       sodipodi:nodetypes="czczczczczczczczczczczczczczczczczczczczczczczczczczczczczczczczczczzzccccccccccccccc" />
  </g>
</svg>
