<?xml version="1.0" encoding="UTF-8" standalone="no"?>
<!-- Created with Inkscape (http://www.inkscape.org/) -->

<svg
   xmlns:dc="http://purl.org/dc/elements/1.1/"
   xmlns:cc="http://creativecommons.org/ns#"
   xmlns:rdf="http://www.w3.org/1999/02/22-rdf-syntax-ns#"
   xmlns:svg="http://www.w3.org/2000/svg"
   xmlns="http://www.w3.org/2000/svg"
   xmlns:sodipodi="http://sodipodi.sourceforge.net/DTD/sodipodi-0.dtd"
   xmlns:inkscape="http://www.inkscape.org/namespaces/inkscape"
   width="250"
   height="250"
   id="svg2"
   sodipodi:version="0.32"
   inkscape:version="0.92.2 (5c3e80d, 2017-08-06)"
   version="1.0"
   sodipodi:docname="Fish-icon.svg"
   inkscape:output_extension="org.inkscape.output.svg.inkscape">
  <defs
     id="defs4">
    <inkscape:perspective
       sodipodi:type="inkscape:persp3d"
       inkscape:vp_x="0 : 526.18109 : 1"
       inkscape:vp_y="0 : 1000 : 0"
       inkscape:vp_z="744.09448 : 526.18109 : 1"
       inkscape:persp3d-origin="372.04724 : 350.78739 : 1"
       id="perspective10" />
    <inkscape:perspective
       id="perspective3217"
       inkscape:persp3d-origin="372.04724 : 350.78739 : 1"
       inkscape:vp_z="744.09448 : 526.18109 : 1"
       inkscape:vp_y="0 : 1000 : 0"
       inkscape:vp_x="0 : 526.18109 : 1"
       sodipodi:type="inkscape:persp3d" />
    <inkscape:perspective
       sodipodi:type="inkscape:persp3d"
       inkscape:vp_x="0 : 526.18109 : 1"
       inkscape:vp_y="0 : 1000 : 0"
       inkscape:vp_z="744.09448 : 526.18109 : 1"
       inkscape:persp3d-origin="372.04724 : 350.78739 : 1"
       id="perspective3448" />
    <inkscape:perspective
       id="perspective3450"
       inkscape:persp3d-origin="372.04724 : 350.78739 : 1"
       inkscape:vp_z="744.09448 : 526.18109 : 1"
       inkscape:vp_y="0 : 1000 : 0"
       inkscape:vp_x="0 : 526.18109 : 1"
       sodipodi:type="inkscape:persp3d" />
    <inkscape:perspective
       sodipodi:type="inkscape:persp3d"
       inkscape:vp_x="0 : 526.18109 : 1"
       inkscape:vp_y="0 : 1000 : 0"
       inkscape:vp_z="744.09448 : 526.18109 : 1"
       inkscape:persp3d-origin="372.04724 : 350.78739 : 1"
       id="perspective3387" />
    <inkscape:perspective
       id="perspective3385"
       inkscape:persp3d-origin="372.04724 : 350.78739 : 1"
       inkscape:vp_z="744.09448 : 526.18109 : 1"
       inkscape:vp_y="0 : 1000 : 0"
       inkscape:vp_x="0 : 526.18109 : 1"
       sodipodi:type="inkscape:persp3d" />
    <inkscape:perspective
       sodipodi:type="inkscape:persp3d"
       inkscape:vp_x="0 : 526.18109 : 1"
       inkscape:vp_y="0 : 1000 : 0"
       inkscape:vp_z="744.09448 : 526.18109 : 1"
       inkscape:persp3d-origin="372.04724 : 350.78739 : 1"
       id="perspective2538" />
    <inkscape:perspective
       id="perspective2536"
       inkscape:persp3d-origin="372.04724 : 350.78739 : 1"
       inkscape:vp_z="744.09448 : 526.18109 : 1"
       inkscape:vp_y="0 : 1000 : 0"
       inkscape:vp_x="0 : 526.18109 : 1"
       sodipodi:type="inkscape:persp3d" />
    <inkscape:perspective
       id="perspective3395"
       inkscape:persp3d-origin="372.04724 : 350.78739 : 1"
       inkscape:vp_z="744.09448 : 526.18109 : 1"
       inkscape:vp_y="0 : 1000 : 0"
       inkscape:vp_x="0 : 526.18109 : 1"
       sodipodi:type="inkscape:persp3d" />
  </defs>
  <sodipodi:namedview
     id="base"
     pagecolor="#ffffff"
     bordercolor="#666666"
     borderopacity="1.0"
     gridtolerance="10000"
     guidetolerance="10"
     objecttolerance="10"
     inkscape:pageopacity="0.0"
     inkscape:pageshadow="2"
     inkscape:zoom="2.024"
     inkscape:cx="125"
     inkscape:cy="125"
     inkscape:document-units="px"
     inkscape:current-layer="layer1"
     showgrid="false"
     inkscape:window-width="1366"
     inkscape:window-height="705"
     inkscape:window-x="-8"
     inkscape:window-y="-8"
     inkscape:window-maximized="1" />
  <metadata
     id="metadata7">
    <rdf:RDF>
      <cc:Work
         rdf:about="">
        <dc:format>image/svg+xml</dc:format>
        <dc:type
           rdf:resource="http://purl.org/dc/dcmitype/StillImage" />
      </cc:Work>
    </rdf:RDF>
  </metadata>
  <g
     inkscape:label="Layer 1"
     inkscape:groupmode="layer"
     id="layer1">
    <path
       inkscape:connector-curvature="0"
       id="path99"
       d="M 22,22 V 228 H 228 V 22 Z"
       style="fill:#ffffff;fill-opacity:1;stroke:none;stroke-width:2.5;stroke-linecap:square;stroke-linejoin:round;stroke-miterlimit:4;stroke-dasharray:none;stroke-opacity:1"
       sodipodi:nodetypes="ccccc" />
    <g
       id="g258">
      <rect
         y="30.885475"
         x="30.090141"
         height="188.22905"
         width="189.81972"
         id="rect3230"
         style="fill:#ffffff;fill-opacity:1;stroke:none;stroke-width:2.5;stroke-linecap:square;stroke-linejoin:round;stroke-miterlimit:4;stroke-dasharray:none;stroke-opacity:1" />
      <path
         id="rect3223"
         d="M 25,25 V 225 H 225 V 25 Z m 17.5,17.5 h 165 v 165 h -165 z"
         style="fill:#000000;fill-opacity:1;stroke:none;stroke-width:2.5;stroke-linecap:square;stroke-linejoin:round;stroke-miterlimit:4;stroke-dasharray:none;stroke-opacity:1"
         inkscape:connector-curvature="0" />
      <path
         id="path3481"
         d="m 36.055143,99.151644 10.339343,16.171796 7.688229,-9.2789 -11.930011,-11.930012 z"
         style="fill:#000000;fill-rule:evenodd;stroke:#000000;stroke-width:1px;stroke-linecap:butt;stroke-linejoin:miter;stroke-opacity:1"
         inkscape:connector-curvature="0" />
      <rect
         y="47.5"
         x="47.5"
         height="155"
         width="155"
         id="rect3228"
         style="fill:#000000;fill-opacity:1;stroke:none;stroke-width:2.5;stroke-linecap:square;stroke-linejoin:round;stroke-miterlimit:4;stroke-dasharray:none;stroke-opacity:1" />
      <path
         style="fill:#ffffff;fill-rule:evenodd;stroke:#000000;stroke-width:3;stroke-linecap:butt;stroke-linejoin:miter;stroke-miterlimit:4;stroke-dasharray:none;stroke-opacity:1"
         d="m 194.38918,71.484387 c -1.92803,-3.88662 -15.16944,-27.939646 -19.15075,-34.548871 0.089,-8.562337 4.09475,-13.76079 8.75573,-14.553101 9.98884,1.710507 5.28957,29.909976 10.39502,49.101972 z"
         id="path2562"
         sodipodi:nodetypes="cccc"
         inkscape:connector-curvature="0" />
      <path
         style="fill:#ffffff;fill-rule:evenodd;stroke:#000000;stroke-width:3;stroke-linecap:butt;stroke-linejoin:miter;stroke-miterlimit:4;stroke-dasharray:none;stroke-opacity:1"
         d="m 196.90177,69.182291 c -5.53159,-4.185956 -14.36563,-27.959754 -13.664,-36.680883 0.70163,-8.721124 3.54525,-13.802054 9.26008,-16.651364 5.69957,-2.841699 12.55818,-3.108585 14.80421,2.099847 -17.27637,9.361313 -14.33204,42.173889 -10.40029,51.2324 z"
         id="path2564"
         sodipodi:nodetypes="czzcc"
         inkscape:connector-curvature="0" />
      <path
         style="fill:#ffffff;fill-rule:evenodd;stroke:#000000;stroke-width:3;stroke-linecap:butt;stroke-linejoin:miter;stroke-miterlimit:4;stroke-dasharray:none;stroke-opacity:1"
         d="m 196.90418,66.453425 c -4.80297,-6.284415 -7.61043,-19.878597 -6.41081,-27.970513 1.39399,-9.403067 6.6897,-18.25215 13.43637,-21.694367 6.98269,-3.562627 14.83458,-3.372057 16.99179,3.312182 -23.6483,10.985624 -22.05158,30.566746 -24.01735,46.352698 z"
         id="path2566"
         sodipodi:nodetypes="czzcc"
         inkscape:connector-curvature="0" />
      <path
         style="fill:#ffffff;fill-rule:evenodd;stroke:#000000;stroke-width:3;stroke-linecap:butt;stroke-linejoin:miter;stroke-miterlimit:4;stroke-dasharray:none;stroke-opacity:1"
         d="m 199.0668,67.072477 c -3.43626,-5.925742 -4.9911,-12.929645 -3.94619,-20.243173 1.0974,-7.681011 4.13705,-13.407467 8.6956,-18.763402 4.55855,-5.355926 14.09003,-9.578402 18.67825,-10.050406 4.58822,-0.472003 8.08282,7.290636 5.9401,8.528875 -2.34617,1.355819 -9.30831,-0.296405 -15.63354,3.512842 -6.32115,3.806796 -10.48936,9.603305 -12.73556,15.849801 -2.2462,6.246503 -2.59499,11.996989 -0.99866,21.165463 z"
         id="path2568"
         sodipodi:nodetypes="czzzzzzc"
         inkscape:connector-curvature="0" />
      <path
         sodipodi:nodetypes="cccc"
         id="path2570"
         d="M 194.38935,71.484295 C 192.115,67.789641 178.73376,43.814126 175.23859,36.935424 167.93014,32.473579 161.3989,33.11586 158.25703,36.648741 c -3.84268,9.377442 22.56205,20.335682 36.13232,34.835554 z"
         style="fill:#ffffff;fill-rule:evenodd;stroke:#000000;stroke-width:3;stroke-linecap:butt;stroke-linejoin:miter;stroke-miterlimit:4;stroke-dasharray:none;stroke-opacity:1"
         inkscape:connector-curvature="0" />
      <path
         sodipodi:nodetypes="czzcc"
         id="path2572"
         d="M 191.10559,72.395169 C 190.48699,65.485891 175.007,45.396006 167.23925,41.369532 159.47151,37.343054 153.65575,37.062099 148.211,40.39865 c -5.43021,3.32764 -9.29105,9.00264 -6.06426,13.667425 17.09392,-9.690448 43.3603,10.194504 48.95885,18.329094 z"
         style="fill:#ffffff;fill-rule:evenodd;stroke:#000000;stroke-width:3;stroke-linecap:butt;stroke-linejoin:miter;stroke-miterlimit:4;stroke-dasharray:none;stroke-opacity:1"
         inkscape:connector-curvature="0" />
      <path
         sodipodi:nodetypes="czzcc"
         id="path2574"
         d="m 188.7901,70.951136 c -2.7843,-7.403385 -12.82509,-16.988065 -20.32313,-20.258791 -8.71295,-3.800693 -19.0237,-3.998978 -25.51806,-0.101574 -6.72154,4.03375 -10.72079,10.793521 -6.19538,16.165041 21.84803,-14.233402 37.60762,-2.50289 52.03657,4.195324 z"
         style="fill:#ffffff;fill-rule:evenodd;stroke:#000000;stroke-width:3;stroke-linecap:butt;stroke-linejoin:miter;stroke-miterlimit:4;stroke-dasharray:none;stroke-opacity:1"
         inkscape:connector-curvature="0" />
      <path
         sodipodi:nodetypes="czzzzzzc"
         id="path2576"
         d="m 188.16908,73.113182 c -3.20438,-6.054275 -8.32009,-11.084353 -15.07603,-14.073806 -7.0954,-3.139662 -13.56248,-3.59645 -20.52023,-2.568799 -6.95775,1.027661 -15.58953,6.873247 -18.42119,10.514156 -2.83167,3.640908 1.89957,10.718065 4.08512,9.557108 2.39308,-1.271191 4.68128,-8.050966 11.26357,-11.396473 6.57805,-3.343352 13.70258,-3.806512 20.19021,-2.401257 6.48764,1.405261 11.54916,4.156762 18.47855,10.369071 z"
         style="fill:#ffffff;fill-rule:evenodd;stroke:#000000;stroke-width:3;stroke-linecap:butt;stroke-linejoin:miter;stroke-miterlimit:4;stroke-dasharray:none;stroke-opacity:1"
         inkscape:connector-curvature="0" />
      <path
         id="path3733"
         d="m 84.6875,170.53125 c -0.756204,0.72526 -1.517215,1.43097 -2.25,2.0625 -3.919394,3.37782 -10.361953,6.18955 -13.625,9.15625 0.103094,0.006 0.209946,0.0293 0.3125,0.0312 2.537557,0.0492 4.844885,-0.78466 7,-1.53125 2.155115,-0.74659 4.184093,-1.41245 5.8125,-1.5 1.628407,-0.0875 2.808814,0.18374 4.25,1.6875 1.426429,1.48836 1.35882,2.2044 0.90625,3.46875 -0.45257,1.26435 -1.729786,2.87549 -3.09375,4.4375 -1.363964,1.56201 -2.882861,2.88621 -3.4375,5.125 -0.277319,1.11939 0.0053,2.67626 0.90625,3.65625 0.900963,0.97999 2.07057,1.50923 3.5625,1.9375 3.311086,0.95048 6.393288,-0.36061 8.53125,-2.34375 2.137962,-1.98314 3.728248,-4.58524 5.21875,-7 1.023324,-1.65789 2.00277,-3.19584 2.90625,-4.375 -7.12284,-4.18137 -12.445188,-9.20456 -16.0625,-13.5625 -0.32504,-0.39159 -0.62209,-0.82488 -0.9375,-1.25 z"
         style="fill:#ffffff;fill-rule:evenodd;stroke:none;stroke-width:2;stroke-linecap:butt;stroke-linejoin:miter;stroke-miterlimit:4;stroke-opacity:1"
         inkscape:connector-curvature="0" />
      <path
         id="path3731"
         d="m 107.15625,188.21875 c -0.19349,0.79406 -0.45557,1.66693 -0.75,2.5625 -0.59579,1.81219 -1.34214,3.72426 -1.03125,5.9375 0.15544,1.10662 0.67665,2.27287 1.59375,3.15625 0.9171,0.88338 2.11198,1.46528 3.5625,1.84375 1.49151,0.38916 2.94413,0.42438 4.21875,0 1.27462,-0.42438 2.26996,-1.25961 3,-2.1875 1.46009,-1.85579 2.14509,-4.08701 3.03125,-6.1875 0.0905,-0.21442 0.18786,-0.41401 0.28125,-0.625 -5.15773,-1.03134 -9.77089,-2.60447 -13.90625,-4.5 z"
         style="fill:#ffffff;fill-rule:evenodd;stroke:none;stroke-width:2;stroke-linecap:butt;stroke-linejoin:miter;stroke-miterlimit:4;stroke-opacity:1"
         inkscape:connector-curvature="0" />
      <path
         id="path3715"
         d="m 156.1875,190.8125 c -4.09473,1.13756 -8.20186,2.03801 -12.1875,2.59375 1.11479,1.83873 2.04281,3.65356 3.25,5.125 0.65604,0.79964 1.45196,1.60644 2.65625,1.96875 1.20429,0.36231 2.61613,0.0535 3.6875,-0.625 1.72442,-1.09205 2.93877,-2.59359 3.28125,-4.28125 0.34248,-1.68766 -0.0828,-3.18678 -0.625,-4.625 -0.0193,-0.0511 -0.0428,-0.10508 -0.0625,-0.15625 z"
         style="fill:#ffffff;fill-rule:evenodd;stroke:none;stroke-width:2;stroke-linecap:butt;stroke-linejoin:miter;stroke-miterlimit:4;stroke-opacity:1"
         inkscape:connector-curvature="0" />
      <path
         sodipodi:nodetypes="czzzszzzzzzzzzz"
         id="path3232"
         d="m 137.59279,103.65854 c 11.94287,7.66274 19.45986,30.56428 34.72959,30.75291 15.2707,0.18864 26.43988,-18.31139 26.77624,-33.93425 0.33618,-15.614905 -9.82446,-26.37389 -9.2789,-30.487804 0.54556,-4.113914 1.5406,-4.097215 3.4631,-4.25456 1.92249,-0.157346 13.19927,7.512349 20.92715,20.956575 7.61362,13.24545 9.53801,20.508749 9.544,36.055139 0.006,15.54856 -3.567,26.65501 -17.49735,40.82715 -13.41033,13.64309 -46.58705,30.66023 -71.84517,30.48781 -25.25771,-0.17241 -40.937916,-12.82105 -48.780485,-22.26936 -7.842569,-9.44831 -12.939304,-29.0958 -13.520679,-38.97137 -0.581375,-9.87557 1.220689,-18.33811 5.302227,-24.12513 4.081538,-5.78702 9.682167,-8.28765 16.702015,-10.33934 7.019852,-2.05169 12.319182,-2.656459 19.353122,-2.120891 7.04907,0.53672 12.30128,-0.163269 24.12514,7.423121 z"
         style="fill:#ffffff;fill-rule:evenodd;stroke:#000000;stroke-width:3;stroke-linecap:butt;stroke-linejoin:miter;stroke-miterlimit:4;stroke-dasharray:none;stroke-opacity:1"
         inkscape:connector-curvature="0" />
      <path
         sodipodi:nodetypes="cccc"
         id="path3689"
         d="m 143.95546,114.5281 c 4.08204,-4.71913 13.80315,-6.04533 18.5578,-2.38599 -4.25914,3.39423 -6.01119,10.07889 -7.15801,15.37645 -5.65372,0.52556 -13.89116,-7.7411 -11.39979,-12.99046 z"
         style="fill:#ffffff;fill-rule:evenodd;stroke:#000000;stroke-width:2;stroke-linecap:butt;stroke-linejoin:round;stroke-miterlimit:4;stroke-dasharray:none;stroke-opacity:1"
         inkscape:connector-curvature="0" />
      <path
         id="path3157"
         d="m 196.4375,74.75 c -1.54447,0.111478 -2.70465,1.414533 -3.5,3.21875 1.41443,2.79344 3.02519,6.150225 4.25,10 1.03857,-1.12436 2.06142,-1.842414 2.96875,-1.8125 0.0288,9.5e-4 0.0647,-0.0021 0.0937,0 0.14201,-2.9361 0.64678,-5.265979 1.5,-5.8125 0.0748,-0.04794 0.16455,-0.08863 0.25,-0.125 -1.19771,-3.090501 -3.23845,-5.636496 -5.5625,-5.46875 z m 4.5,11.5625 c 0.20113,0.0691 0.38734,0.168731 0.59375,0.28125 -0.20647,-0.113209 -0.3922,-0.212031 -0.59375,-0.28125 z"
         style="fill:#ffffff;fill-rule:evenodd;stroke:#000000;stroke-width:3;stroke-linecap:butt;stroke-linejoin:miter;stroke-miterlimit:4;stroke-dasharray:none;stroke-opacity:1"
         inkscape:connector-curvature="0" />
      <path
         sodipodi:nodetypes="czzzz"
         id="path3163"
         d="m 120.36055,99.151644 c 5.91172,1.064986 12.01325,4.989076 10.60445,11.399786 -1.40879,6.41072 -14.32612,10.73284 -20.41357,8.74867 -6.08745,-1.98417 -6.37069,-8.69301 -4.772,-14.31601 1.59869,-5.622996 8.66941,-6.897429 14.58112,-5.832446 z"
         style="fill:#ffffff;fill-rule:evenodd;stroke:#000000;stroke-width:2;stroke-linecap:butt;stroke-linejoin:miter;stroke-miterlimit:4;stroke-dasharray:none;stroke-opacity:1"
         inkscape:connector-curvature="0" />
      <path
         sodipodi:nodetypes="cccc"
         id="path3691"
         d="m 155.35525,131.49523 c 2.54168,-5.03966 11.03678,-13.5102 16.1718,-11.39979 -2.02299,5.82197 -0.8011,13.50997 2.91622,16.96713 -4.23602,3.45715 -18.18326,0.003 -19.08802,-5.56734 z"
         style="fill:#ffffff;fill-rule:evenodd;stroke:#000000;stroke-width:3;stroke-linecap:butt;stroke-linejoin:round;stroke-miterlimit:4;stroke-dasharray:none;stroke-opacity:1"
         inkscape:connector-curvature="0" />
      <path
         id="path3165"
         d="m 121.78125,96.9375 c -0.69994,0.596731 -1.28827,1.324724 -1.78125,2.15625 0.12411,0.02014 0.25184,0.04031 0.375,0.0625 5.91172,1.06499 12.00255,4.99554 10.59375,11.40625 -0.19379,0.88182 -0.60593,1.70819 -1.1875,2.5 5.00587,1.43091 10.61312,1.82391 12.84375,-1.1875 0.71181,-0.96095 0.89678,-2.04456 0.71875,-3.1875 -0.005,-0.006 0.005,-0.0257 0,-0.0312 -1.82538,-1.98386 -3.73038,-3.70418 -5.75,-5 -6.99265,-4.486604 -11.6858,-6.058752 -15.8125,-6.71875 z"
         style="fill:#ffffff;fill-rule:evenodd;stroke:#000000;stroke-width:3;stroke-linecap:butt;stroke-linejoin:miter;stroke-miterlimit:4;stroke-dasharray:none;stroke-opacity:1"
         inkscape:connector-curvature="0" />
      <path
         sodipodi:nodetypes="cccc"
         id="path3693"
         d="m 174.70838,139.44857 c -1.12666,-8.68524 3.05475,-15.64119 6.8929,-21.20891 3.30792,6.89251 8.84845,9.05602 12.99045,10.07423 -1.16024,5.79023 -15.04513,15.31303 -19.88335,11.13468 z"
         style="fill:#ffffff;fill-rule:evenodd;stroke:#000000;stroke-width:3;stroke-linecap:butt;stroke-linejoin:round;stroke-miterlimit:4;stroke-dasharray:none;stroke-opacity:1"
         inkscape:connector-curvature="0" />
      <path
         id="path3173"
         d="m 129.78125,113.03125 c -2.62368,3.59374 -8.72421,6.15763 -13.90625,6.65625 -0.0487,1.86123 0.37204,3.75461 1.3125,5.4375 3.09545,5.5391 17.59082,7.12848 20.9375,1.0625 2.3354,-4.23302 -2.83362,-10.12967 -8.34375,-13.15625 z"
         style="fill:#ffffff;fill-rule:evenodd;stroke:#000000;stroke-width:3;stroke-linecap:butt;stroke-linejoin:miter;stroke-miterlimit:4;stroke-dasharray:none;stroke-opacity:1"
         inkscape:connector-curvature="0" />
      <path
         sodipodi:nodetypes="cccc"
         id="path3695"
         d="m 191.41039,124.86744 c -2.32152,-2.71525 -2.50247,-10.01957 -0.79533,-13.25556 3.0327,2.33135 8.9119,-1.40769 12.72534,-1.85579 0.89722,4.05879 -8.01783,16.76616 -11.93001,15.11135 z"
         style="fill:#ffffff;fill-rule:evenodd;stroke:#000000;stroke-width:3;stroke-linecap:butt;stroke-linejoin:round;stroke-miterlimit:4;stroke-dasharray:none;stroke-opacity:1"
         inkscape:connector-curvature="0" />
      <path
         id="path3178"
         d="m 143.34375,108.6875 c 0.17803,1.14294 -0.007,2.22655 -0.71875,3.1875 -2.039,2.7527 -6.88782,2.629 -11.53125,1.5 -0.0635,0.10274 -0.12682,0.20895 -0.1875,0.3125 4.75716,2.9769 8.86657,7.92314 7.53125,11.78125 4.98669,1.29795 10.65477,1.36184 12.15625,-0.59375 0.90454,-1.17811 1.1599,-3.41563 0.9375,-5.90625 -2.70627,-3.58211 -5.37613,-7.223 -8.1875,-10.28125 z"
         style="fill:#ffffff;fill-rule:evenodd;stroke:#000000;stroke-width:3;stroke-linecap:butt;stroke-linejoin:miter;stroke-miterlimit:4;stroke-dasharray:none;stroke-opacity:1"
         inkscape:connector-curvature="0" />
      <path
         id="path3189"
         d="m 150.78125,124.59375 c -0.0582,0.095 -0.12271,0.19686 -0.1875,0.28125 -1.24206,1.6177 -5.3311,1.82654 -9.53125,1.125 -1.82488,2.79473 -2.61759,6.7802 -1.875,9.46875 1.22805,4.44615 5.98929,6.27371 9.53125,5.3125 3.54197,-0.96121 6.58089,-4.58399 6.375,-8.5 -0.12928,-2.45893 -1.85507,-5.68306 -4.3125,-7.6875 z"
         style="fill:#ffffff;fill-rule:evenodd;stroke:#000000;stroke-width:3;stroke-linecap:butt;stroke-linejoin:miter;stroke-miterlimit:4;stroke-dasharray:none;stroke-opacity:1"
         inkscape:connector-curvature="0" />
      <path
         id="path3194"
         d="m 151.96875,119.5625 c -0.13611,0.008 -0.27165,0.024 -0.40625,0.0312 0.11603,2.04186 -0.10764,3.85037 -0.78125,4.96875 -0.004,0.008 0.005,0.0233 0,0.0312 2.45743,2.00444 4.18322,5.22857 4.3125,7.6875 0.17201,3.27164 -1.92869,6.33124 -4.6875,7.8125 6.5446,3.54908 15.17012,6.90764 17.6875,2.28125 1.33454,-2.45258 -0.71388,-6.44736 -4.125,-10.5 -0.005,-0.003 0.005,-0.0284 0,-0.0312 -4.48781,-2.7603 -8.30463,-7.41578 -12,-12.28125 z"
         style="fill:#ffffff;fill-rule:evenodd;stroke:#000000;stroke-width:3;stroke-linecap:butt;stroke-linejoin:miter;stroke-miterlimit:4;stroke-dasharray:none;stroke-opacity:1"
         inkscape:connector-curvature="0" />
      <path
         id="path3205"
         d="m 151.28125,173.90625 c -3.46353,0.004 -6.887,1.02385 -8.90625,2.65625 -4.03849,3.26478 -3.02011,7.37418 -0.28125,12.1875 0.78384,1.37754 1.84544,2.97497 3.09375,4.46875 5.5456,-0.85752 11.28456,-2.35236 16.9375,-4.25 5e-4,-0.002 0.0308,0.002 0.0312,0 0.96528,-4.31259 0.54087,-8.994 -1.75,-11.59375 -2.1542,-2.44466 -5.66147,-3.47299 -9.125,-3.46875 z"
         style="fill:#ffffff;fill-rule:evenodd;stroke:#000000;stroke-width:3;stroke-linecap:butt;stroke-linejoin:miter;stroke-miterlimit:4;stroke-dasharray:none;stroke-opacity:1"
         inkscape:connector-curvature="0" />
      <path
         id="path3210"
         d="m 157.59375,149.625 c -6.31701,-0.23552 -17.038,7.17207 -18.40625,12.625 -1.45947,5.81646 -0.034,11.06236 5.84375,12.71875 0.039,0.011 0.0853,0.0209 0.125,0.0312 1.80036,-0.69762 3.96029,-1.0911 6.125,-1.09375 1.00742,-0.001 2.01955,0.0983 3,0.28125 5.79685,-1.71519 11.76751,-5.23994 12.75,-9.03125 1.58305,-6.10883 -2.17391,-13.99324 -8.21875,-15.375 -0.3778,-0.0864 -0.79762,-0.14055 -1.21875,-0.15625 z"
         style="fill:#ffffff;fill-rule:evenodd;stroke:#000000;stroke-width:2;stroke-linecap:butt;stroke-linejoin:miter;stroke-miterlimit:4;stroke-dasharray:none;stroke-opacity:1"
         inkscape:connector-curvature="0" />
      <path
         id="path3217"
         d="m 166.03125,167.21875 c -2.15349,2.96431 -6.99845,5.56752 -11.71875,6.96875 2.37868,0.44895 4.57261,1.46125 6.09375,3.1875 0.99875,1.13342 1.60876,2.68457 1.9375,4.40625 4.54439,-0.69057 9.12443,-4.53331 9.4375,-8.40625 0.23483,-2.90493 -2.37082,-5.11016 -5.75,-6.15625 z"
         style="fill:#ffffff;fill-rule:evenodd;stroke:#000000;stroke-width:3;stroke-linecap:butt;stroke-linejoin:miter;stroke-miterlimit:4;stroke-dasharray:none;stroke-opacity:1"
         inkscape:connector-curvature="0" />
      <path
         id="path3396"
         d="m 168.46875,179.25 c -0.14493,0.001 -0.29297,0.0269 -0.4375,0.0312 -1.65191,1.2692 -3.67692,2.19447 -5.6875,2.5 0.4253,2.22739 0.35695,4.75508 -0.1875,7.1875 5.40219,-1.8149 10.71449,-4.02585 15.78125,-6.46875 -1.9283,-2.32232 -5.73408,-3.28274 -9.46875,-3.25 z"
         style="fill:#ffffff;fill-rule:evenodd;stroke:#000000;stroke-width:3;stroke-linecap:butt;stroke-linejoin:miter;stroke-miterlimit:4;stroke-dasharray:none;stroke-opacity:1"
         inkscape:connector-curvature="0" />
      <path
         id="path3236"
         d="m 168.1875,142.1875 c -0.0295,0.0641 -0.06,0.1254 -0.0937,0.1875 -1.74902,3.21432 -6.44418,2.56802 -11.34375,0.6875 -1.30446,1.87849 -1.96698,4.45565 -2.15625,6.9375 1.05883,-0.25781 2.08434,-0.40914 3,-0.375 0.42113,0.0157 0.84095,0.0699 1.21875,0.15625 5.34852,1.22259 8.91049,7.54886 8.5625,13.21875 5.17978,-1.71149 7.98111,-6.97371 7.875,-11.875 -0.0753,-3.48002 -3.34557,-6.90263 -7.0625,-8.9375 z"
         style="fill:#ffffff;fill-rule:evenodd;stroke:#000000;stroke-width:3;stroke-linecap:butt;stroke-linejoin:miter;stroke-miterlimit:4;stroke-dasharray:none;stroke-opacity:1"
         inkscape:connector-curvature="0" />
      <path
         id="path3250"
         d="m 163.96875,131.875 c 3.32475,3.95003 5.35379,7.84683 4.21875,10.3125 0.90367,0.49472 1.78238,1.04784 2.59375,1.6875 3.68689,-0.48301 7.26947,-2.09352 7.625,-4.96875 0.2226,-1.80022 -0.56761,-3.49598 -1.84375,-4.90625 -1.37246,0.30164 -2.79754,0.42419 -4.25,0.40625 -3.06019,-0.0378 -5.80829,-0.97446 -8.34375,-2.53125 z"
         style="fill:#ffffff;fill-rule:evenodd;stroke:#000000;stroke-width:3;stroke-linecap:butt;stroke-linejoin:miter;stroke-miterlimit:4;stroke-dasharray:none;stroke-opacity:1"
         inkscape:connector-curvature="0" />
      <path
         id="path3402"
         d="m 176.03125,170.90625 c -1.32355,1.17261 -2.81803,2.23151 -4.3125,3.03125 -0.36446,1.95737 -1.76727,3.88322 -3.65625,5.34375 0.13469,-0.007 0.27162,-0.0301 0.40625,-0.0312 3.73467,-0.0327 7.54045,0.92768 9.46875,3.25 2.99311,-1.4431 5.86634,-2.98744 8.625,-4.5625 -0.12451,-1.39167 -0.51469,-2.69711 -1.25,-3.75 -1.47796,-2.11628 -5.34629,-3.16394 -9.28125,-3.28125 z"
         style="fill:#ffffff;fill-rule:evenodd;stroke:#000000;stroke-width:2;stroke-linecap:butt;stroke-linejoin:miter;stroke-miterlimit:4;stroke-dasharray:none;stroke-opacity:1"
         inkscape:connector-curvature="0" />
      <path
         id="path3286"
         d="m 178.4375,138.1875 c 0.006,0.24203 -7.8e-4,0.47234 -0.0312,0.71875 -0.35553,2.87523 -3.93811,4.48574 -7.625,4.96875 2.52591,1.99136 4.41173,4.61605 4.46875,7.25 0.0337,1.55856 -0.24409,3.15245 -0.78125,4.65625 2.17339,1.32343 4.09963,3.27431 5.09375,5.375 4.75314,-2.39132 9.41588,-8.04153 9.1875,-12.6875 -0.23196,-4.71891 -5.44057,-8.89706 -10.3125,-10.28125 z"
         style="fill:#ffffff;fill-rule:evenodd;stroke:#000000;stroke-width:3;stroke-linecap:butt;stroke-linejoin:miter;stroke-miterlimit:4;stroke-dasharray:none;stroke-opacity:1"
         inkscape:connector-curvature="0" />
      <path
         id="path3297"
         d="m 182.3125,160.21875 c -0.42327,0.0115 -0.84092,0.0234 -1.25,0.0625 -0.49546,0.32114 -0.99682,0.62185 -1.5,0.875 0.45986,0.96403 0.73969,1.94415 0.71875,2.9375 -0.0458,2.17455 -1.85458,4.69025 -4.25,6.8125 3.90069,0.11629 7.74381,1.13934 9.25,3.21875 4.65197,-2.29419 8.8655,-6.34493 8.5,-9.21875 -0.38059,-2.99238 -6.25201,-4.82991 -11.46875,-4.6875 z"
         style="fill:#ffffff;fill-rule:evenodd;stroke:#000000;stroke-width:3;stroke-linecap:butt;stroke-linejoin:miter;stroke-miterlimit:4;stroke-dasharray:none;stroke-opacity:1"
         inkscape:connector-curvature="0" />
      <path
         id="path3406"
         d="m 183.4375,131.03125 c -2.13486,1.38178 -4.43692,2.4329 -6.875,2.96875 1.10146,1.21724 1.83634,2.6613 1.875,4.1875 0.6518,0.18519 1.31762,0.43894 1.96875,0.71875 1.85721,-0.97636 3.18266,-2.6792 3.3125,-4.5 0.0796,-1.11609 -0.004,-2.29243 -0.28125,-3.375 z"
         style="fill:#ffffff;fill-rule:evenodd;stroke:#000000;stroke-width:3;stroke-linecap:butt;stroke-linejoin:miter;stroke-miterlimit:4;stroke-dasharray:none;stroke-opacity:1"
         inkscape:connector-curvature="0" />
      <path
         id="path3319"
         d="m 197.09375,168.625 c -1.71403,-0.035 -3.53372,0.21768 -5.28125,0.65625 -1.60459,1.81674 -3.99885,3.59486 -6.53125,4.84375 0.0132,0.0183 0.0184,0.0441 0.0312,0.0625 0.73531,1.05289 1.12549,2.35833 1.25,3.75 5.03806,-2.87648 9.62353,-5.89487 13.46875,-8.90625 -0.90464,-0.25947 -1.89363,-0.38492 -2.9375,-0.40625 z"
         style="fill:#ffffff;fill-rule:evenodd;stroke:#000000;stroke-width:3;stroke-linecap:butt;stroke-linejoin:miter;stroke-miterlimit:4;stroke-dasharray:none;stroke-opacity:1"
         inkscape:connector-curvature="0" />
      <path
         id="path3330"
         d="m 188.6875,147.875 c 0.0273,0.19798 0.0527,0.39366 0.0625,0.59375 0.20384,4.14668 -3.48074,9.09694 -7.65625,11.8125 0.39929,-0.0368 0.80604,-0.0512 1.21875,-0.0625 4.82548,-0.13173 10.19933,1.42783 11.28125,4.03125 4.39617,-2.99592 8.23898,-7.83895 6.5625,-11.8125 -1.46847,-3.48055 -6.63159,-4.68179 -11.46875,-4.5625 z"
         style="fill:#ffffff;fill-rule:evenodd;stroke:#000000;stroke-width:3;stroke-linecap:butt;stroke-linejoin:miter;stroke-miterlimit:4;stroke-dasharray:none;stroke-opacity:1"
         inkscape:connector-curvature="0" />
      <path
         id="path3420"
         d="m 174.46875,155.78125 c -1.15047,3.23464 -3.55662,6.05002 -7.09375,7.21875 -0.008,0.13782 -0.0494,0.26927 -0.0625,0.40625 -0.0222,0.23167 -0.0268,0.45887 -0.0625,0.6875 -0.0562,0.3602 -0.12803,0.7124 -0.21875,1.0625 -0.0781,0.30158 -0.20507,0.60882 -0.34375,0.90625 -0.12796,0.27444 -0.26226,0.54287 -0.4375,0.8125 -0.0211,0.0322 -0.0408,0.0617 -0.0625,0.0937 -0.0131,0.0195 -0.0179,0.043 -0.0312,0.0625 -0.0433,0.0632 -0.0793,0.12459 -0.125,0.1875 3.37918,1.04609 5.98483,3.25132 5.75,6.15625 -0.0153,0.18897 -0.0274,0.37404 -0.0625,0.5625 4.19924,-2.24714 8.49136,-6.46769 8.5625,-9.84375 0.0664,-3.14932 -2.64182,-6.3818 -5.8125,-8.3125 z"
         style="fill:#ffffff;fill-rule:evenodd;stroke:#000000;stroke-width:3;stroke-linecap:butt;stroke-linejoin:miter;stroke-miterlimit:4;stroke-dasharray:none;stroke-opacity:1"
         inkscape:connector-curvature="0" />
      <path
         id="path3365"
         d="m 184.75,133.21875 c -0.33041,0.0131 -0.67429,0.0252 -1,0.0625 0.0109,0.37958 -0.005,0.7531 -0.0312,1.125 -0.12984,1.8208 -1.45529,3.52364 -3.3125,4.5 4.00325,1.72543 7.75091,5.12647 8.28125,8.96875 0.0521,-0.001 0.10407,9.8e-4 0.15625,0 3.86378,-2.149 6.87406,-6.27964 5.75,-9.75 -1.06312,-3.28224 -5.58109,-5.07486 -9.84375,-4.90625 z"
         style="fill:#ffffff;fill-rule:evenodd;stroke:#000000;stroke-width:3;stroke-linecap:butt;stroke-linejoin:miter;stroke-miterlimit:4;stroke-dasharray:none;stroke-opacity:1"
         inkscape:connector-curvature="0" />
      <path
         id="path3390"
         d="m 203.0625,160.9375 c -2.46943,0.16749 -6.19713,1.47865 -9.40625,3.40625 0.003,0.009 -0.003,0.0218 0,0.0312 0.0597,0.16886 0.10247,0.35413 0.125,0.53125 0.16653,1.30939 -0.62574,2.85442 -1.96875,4.375 1.74753,-0.43857 3.56722,-0.69127 5.28125,-0.65625 1.04387,0.0213 2.03286,0.14678 2.9375,0.40625 2.21381,-1.73375 4.19526,-3.44955 5.875,-5.125 0.22052,-1.05127 0.12552,-1.92322 -0.4375,-2.46875 -0.44418,-0.43038 -1.29918,-0.57509 -2.40625,-0.5 z"
         style="fill:#ffffff;fill-rule:evenodd;stroke:#000000;stroke-width:3;stroke-linecap:butt;stroke-linejoin:miter;stroke-miterlimit:4;stroke-dasharray:none;stroke-opacity:1"
         inkscape:connector-curvature="0" />
      <path
         id="path3422"
         d="m 209.84375,148.875 c -2.76915,-0.10678 -6.64474,1.58014 -9.5625,3.9375 0.96784,2.91519 -0.8522,6.2312 -3.625,8.9375 0.12533,0.28714 0.27087,0.56926 0.4375,0.84375 2.19799,-0.943 4.35115,-1.54654 5.96875,-1.65625 1.10707,-0.0751 1.96207,0.0696 2.40625,0.5 0.56302,0.54553 0.65802,1.41748 0.4375,2.46875 0.11239,-0.1121 0.23399,-0.23209 0.34375,-0.34375 3.39429,-3.4532 6.175,-6.70846 8.4375,-9.90625 -0.57567,-2.05141 -1.62452,-3.71356 -3.125,-4.40625 -0.49579,-0.22888 -1.07705,-0.35025 -1.71875,-0.375 z m -3.9375,15.03125 c -0.52413,0.52279 -1.07329,1.06139 -1.65625,1.59375 0.58217,-0.53324 1.12993,-1.06878 1.65625,-1.59375 z"
         style="fill:#ffffff;fill-rule:evenodd;stroke:#000000;stroke-width:3;stroke-linecap:butt;stroke-linejoin:miter;stroke-miterlimit:4;stroke-dasharray:none;stroke-opacity:1"
         inkscape:connector-curvature="0" />
      <path
         id="path3433"
         d="m 196.8125,136.25 c -0.97103,0.048 -1.90878,0.29151 -2.78125,0.75 0.2267,0.35611 0.43243,0.72343 0.5625,1.125 1.04979,3.24105 -1.51024,7.04045 -5,9.28125 0.009,0.16869 0.0158,0.33376 0.0312,0.5 4.22502,0.0482 8.50045,1.11021 10.1875,3.875 2.82447,-1.97513 4.86111,-5.23466 4.84375,-7.8125 -0.0279,-4.15177 -1.94003,-6.51643 -5.28125,-7.4375 -0.8353,-0.23027 -1.71933,-0.32294 -2.5625,-0.28125 z"
         style="fill:#ffffff;fill-rule:evenodd;stroke:#000000;stroke-width:3;stroke-linecap:butt;stroke-linejoin:miter;stroke-miterlimit:4;stroke-dasharray:none;stroke-opacity:1"
         inkscape:connector-curvature="0" />
      <path
         id="path3441"
         d="m 192.96875,120.875 c -2.54114,4.16573 -5.7719,7.72303 -9.53125,10.15625 0.18482,0.72184 0.29079,1.49044 0.3125,2.25 0.32571,-0.0373 0.66959,-0.0494 1,-0.0625 3.68368,-0.14571 7.54814,1.17704 9.21875,3.65625 2.97369,-3.35679 5.09287,-9.24016 3.28125,-12.8125 -0.85968,-1.69519 -2.43798,-2.71142 -4.28125,-3.1875 z m -9.875,15.5 c -0.0979,0.17283 -0.19447,0.3355 -0.3125,0.5 0.11564,-0.1614 0.21665,-0.33066 0.3125,-0.5 z"
         style="fill:#ffffff;fill-rule:evenodd;stroke:#000000;stroke-width:3;stroke-linecap:butt;stroke-linejoin:miter;stroke-miterlimit:4;stroke-dasharray:none;stroke-opacity:1"
         inkscape:connector-curvature="0" />
      <path
         id="path3470"
         d="m 215.1875,136.40625 c -3.04879,-0.12012 -7.55625,1.91914 -11.09375,4.21875 0.35614,0.9528 0.55385,2.05874 0.5625,3.34375 0.0174,2.57784 -2.01928,5.83737 -4.84375,7.8125 0.12898,0.21138 0.2462,0.42504 0.34375,0.65625 0.0512,0.1213 0.0843,0.25219 0.125,0.375 2.91776,-2.35736 6.79335,-4.04428 9.5625,-3.9375 0.6417,0.0248 1.22296,0.14612 1.71875,0.375 1.50048,0.69269 2.54933,2.35484 3.125,4.40625 2.31231,-3.26819 4.06902,-6.45671 5.40625,-9.6875 -0.24354,-2.86608 -1.11899,-5.37379 -2.4375,-6.65625 -0.60606,-0.58949 -1.45249,-0.86621 -2.46875,-0.90625 z"
         style="fill:#ffffff;fill-rule:evenodd;stroke:#000000;stroke-width:3;stroke-linecap:butt;stroke-linejoin:miter;stroke-miterlimit:4;stroke-dasharray:none;stroke-opacity:1"
         inkscape:connector-curvature="0" />
      <path
         id="path3492"
         d="m 199.9375,128.25 c -0.70524,0.0397 -1.42386,0.16109 -2.125,0.3125 -0.38824,2.96085 -1.93222,6.15471 -3.84375,8.3125 0.0267,0.0396 0.0368,0.0849 0.0625,0.125 0.87247,-0.45849 1.81022,-0.70199 2.78125,-0.75 0.84317,-0.0417 1.7272,0.051 2.5625,0.28125 2.30708,0.63599 3.92422,1.96812 4.71875,4.09375 1.2189,-0.79237 2.55638,-1.53464 3.90625,-2.1875 0.38247,-3.61597 -0.73395,-7.49755 -3.0625,-9.0625 -1.34832,-0.90616 -3.14118,-1.22962 -5,-1.125 z"
         style="fill:none;fill-rule:evenodd;stroke:#000000;stroke-width:2;stroke-linecap:butt;stroke-linejoin:miter;stroke-miterlimit:4;stroke-dasharray:none;stroke-opacity:1"
         inkscape:connector-curvature="0" />
      <path
         id="path3504"
         d="m 221.84375,127 c -1.90958,0.32679 -4.1141,4.94049 -5.40625,9.625 0.46399,0.14773 0.88713,0.36495 1.21875,0.6875 1.31851,1.28246 2.19396,3.79017 2.4375,6.65625 2.06818,-4.99677 3.09529,-10.10517 3.46875,-15.71875 -0.39933,-0.73732 -0.87055,-1.204 -1.40625,-1.25 -0.10377,-0.009 -0.20663,-0.0181 -0.3125,0 z"
         style="fill:#ffffff;fill-rule:evenodd;stroke:#000000;stroke-width:3;stroke-linecap:butt;stroke-linejoin:miter;stroke-miterlimit:4;stroke-dasharray:none;stroke-opacity:1"
         inkscape:connector-curvature="0" />
      <path
         id="path3526"
         d="m 213.4375,121.25 c -2.78816,0.0255 -6.7051,3.43027 -9.78125,7.5 0.45483,0.16828 0.89155,0.3631 1.28125,0.625 2.32195,1.56051 3.43541,5.42405 3.0625,9.03125 2.56365,-1.23851 5.19253,-2.0786 7.1875,-2 0.64321,0.0253 1.19824,0.17199 1.6875,0.40625 -0.14371,-0.066 -0.28284,-0.13826 -0.4375,-0.1875 0.28109,-1.01906 0.61373,-2.03104 0.96875,-3 0.7278,-5.35218 0.47133,-10.9614 -2.9375,-12.21875 -0.32173,-0.11867 -0.66572,-0.1596 -1.03125,-0.15625 z"
         style="fill:#ffffff;fill-rule:evenodd;stroke:#000000;stroke-width:3;stroke-linecap:butt;stroke-linejoin:miter;stroke-miterlimit:4;stroke-dasharray:none;stroke-opacity:1"
         inkscape:connector-curvature="0" />
      <path
         style="fill:#ffffff;fill-rule:evenodd;stroke:#000000;stroke-width:3;stroke-linecap:butt;stroke-linejoin:miter;stroke-miterlimit:4;stroke-dasharray:none;stroke-opacity:1"
         d="m 199.9375,128.25 c -0.70524,0.0397 -1.42386,0.16109 -2.125,0.3125 -0.38824,2.96085 -1.93222,6.15471 -3.84375,8.3125 0.0267,0.0396 0.0368,0.0849 0.0625,0.125 0.87247,-0.45849 1.81022,-0.70199 2.78125,-0.75 0.84317,-0.0417 1.7272,0.051 2.5625,0.28125 2.30708,0.63599 3.92422,1.96812 4.71875,4.09375 1.2189,-0.79237 2.55638,-1.53464 3.90625,-2.1875 0.38247,-3.61597 -0.73395,-7.49755 -3.0625,-9.0625 -1.34832,-0.90616 -3.14118,-1.22962 -5,-1.125 z"
         id="path3511"
         inkscape:connector-curvature="0" />
      <path
         id="path3546"
         d="m 201.59375,115.03125 c -0.25123,-0.01 -0.51321,0.007 -0.78125,0.0312 -1.8439,0.16528 -4.00266,1.08203 -6,2.40625 -0.56837,1.16417 -1.17618,2.30842 -1.84375,3.40625 1.84327,0.47608 3.42157,1.49231 4.28125,3.1875 0.64967,1.28108 0.78814,2.85032 0.5625,4.5 0.70114,-0.15141 1.41976,-0.27281 2.125,-0.3125 1.32158,-0.0744 2.59992,0.086 3.71875,0.5 0.80655,-1.06706 1.67585,-2.07329 2.5625,-3 0.44169,-4.20599 -0.27097,-8.7471 -2.625,-10.15625 -0.57376,-0.34346 -1.2463,-0.53393 -2,-0.5625 z"
         style="fill:#ffffff;fill-rule:evenodd;stroke:#000000;stroke-width:3;stroke-linecap:butt;stroke-linejoin:miter;stroke-miterlimit:4;stroke-dasharray:none;stroke-opacity:1"
         inkscape:connector-curvature="0" />
      <path
         id="path3548"
         d="m 212.15625,107.40625 c -3.02025,0.0917 -6.83762,4.06796 -8.71875,8.09375 0.055,0.0293 0.10297,0.0619 0.15625,0.0937 2.35403,1.40915 3.06669,5.95026 2.625,10.15625 2.495,-2.60771 5.16163,-4.48116 7.21875,-4.5 0.22846,-0.002 0.4448,0.0218 0.65625,0.0625 1.99063,-5.38276 2.18957,-12.48915 -0.6875,-13.6875 -0.40129,-0.16714 -0.80502,-0.23226 -1.25,-0.21875 z"
         style="fill:none;fill-rule:evenodd;stroke:#000000;stroke-width:2;stroke-linecap:butt;stroke-linejoin:miter;stroke-miterlimit:4;stroke-dasharray:none;stroke-opacity:1"
         inkscape:connector-curvature="0" />
      <path
         id="path3574"
         d="m 219.5,112.40625 c -1.22566,0.0269 -2.66672,1.04624 -4,2.5 -8.6e-4,0.0106 8.8e-4,0.0207 0,0.0312 -0.17485,2.10085 -0.65976,4.35647 -1.40625,6.375 0.12687,0.0244 0.25435,0.0493 0.375,0.0937 3.2093,1.18375 3.60097,6.22889 3.03125,11.28125 0.0719,0.0469 0.14648,0.0801 0.21875,0.125 1.23054,-3.10959 2.74908,-5.57704 4.125,-5.8125 0.10587,-0.0181 0.20873,-0.009 0.3125,0 0.5357,0.046 1.00692,0.51268 1.40625,1.25 0.11877,-1.77453 0.18823,-3.60528 0.1875,-5.5 -9.8e-4,-2.55088 -0.0666,-4.86336 -0.1875,-7.03125 -1.33973,-2.01485 -2.85368,-3.33899 -4.0625,-3.3125 z"
         style="fill:#ffffff;fill-rule:evenodd;stroke:#000000;stroke-width:3;stroke-linecap:butt;stroke-linejoin:miter;stroke-miterlimit:4;stroke-dasharray:none;stroke-opacity:1"
         inkscape:connector-curvature="0" />
      <path
         style="fill:#ffffff;fill-rule:evenodd;stroke:#000000;stroke-width:3;stroke-linecap:butt;stroke-linejoin:miter;stroke-miterlimit:4;stroke-dasharray:none;stroke-opacity:1"
         d="m 212.15625,107.40625 c -3.02025,0.0917 -6.83762,4.06796 -8.71875,8.09375 0.055,0.0293 0.10297,0.0619 0.15625,0.0937 2.35403,1.40915 3.06669,5.95026 2.625,10.15625 2.495,-2.60771 5.16163,-4.48116 7.21875,-4.5 0.22846,-0.002 0.4448,0.0218 0.65625,0.0625 1.99063,-5.38276 2.18957,-12.48915 -0.6875,-13.6875 -0.40129,-0.16714 -0.80502,-0.23226 -1.25,-0.21875 z"
         id="path3558"
         inkscape:connector-curvature="0" />
      <path
         id="path3576"
         d="m 199.65625,103.53125 c -0.24338,-0.0117 -0.49895,0.006 -0.75,0.0312 -0.55216,5.11353 -2.21033,10.36084 -4.6875,15.0625 0.20125,-0.38675 0.40223,-0.76397 0.59375,-1.15625 1.99734,-1.32422 4.1561,-2.24097 6,-2.40625 0.26804,-0.024 0.53002,-0.0408 0.78125,-0.0312 0.68371,0.0259 1.30676,0.18303 1.84375,0.46875 0.51257,-1.09694 1.16147,-2.1755 1.90625,-3.1875 -0.10346,-3.59315 -1.76812,-7.25896 -4.125,-8.375 -0.48523,-0.22977 -1.015,-0.37993 -1.5625,-0.40625 z"
         style="fill:#ffffff;fill-rule:evenodd;stroke:#000000;stroke-width:3;stroke-linecap:butt;stroke-linejoin:miter;stroke-miterlimit:4;stroke-dasharray:none;stroke-opacity:1"
         inkscape:connector-curvature="0" />
      <path
         id="path3588"
         d="m 216.65625,96.6875 c -0.11746,0.01067 -0.20507,0.0592 -0.3125,0.09375 -2.39716,0.770996 -5.35377,6.35909 -5.5625,10.9375 0.47463,-0.17234 0.92657,-0.29888 1.375,-0.3125 0.44498,-0.0135 0.84871,0.0516 1.25,0.21875 1.76559,0.7354 2.34819,3.70342 2.09375,7.125 0.0379,0.0176 0.0869,0.0139 0.125,0.0312 1.29783,-1.3815 2.68764,-2.34898 3.875,-2.375 1.20882,-0.0265 2.72277,1.29765 4.0625,3.3125 0.004,0.0702 -0.004,0.14828 0,0.21875 0.01,-0.002 0.0215,0.002 0.0312,0 -0.36547,-6.8415 -1.40758,-12.12274 -3.625,-17.71875 -1.22762,-1.009227 -2.42521,-1.611861 -3.3125,-1.53125 z"
         style="fill:#ffffff;fill-rule:evenodd;stroke:#000000;stroke-width:3;stroke-linecap:butt;stroke-linejoin:miter;stroke-miterlimit:4;stroke-dasharray:none;stroke-opacity:1"
         inkscape:connector-curvature="0" />
      <path
         id="path3660"
         d="m 202.3125,80.125 c -0.1998,0.02561 -0.39751,0.113066 -0.5625,0.21875 -0.85322,0.546521 -1.35799,2.8764 -1.5,5.8125 2.4212,0.177958 5.5099,4.305762 7.125,8.59375 0.18795,-3.032876 1.20819,-5.838481 2.90625,-6.78125 -1.86437,-3.954712 -5.81808,-8.119402 -7.96875,-7.84375 z"
         style="fill:#ffffff;fill-rule:evenodd;stroke:#000000;stroke-width:3;stroke-linecap:butt;stroke-linejoin:miter;stroke-miterlimit:4;stroke-dasharray:none;stroke-opacity:1"
         inkscape:connector-curvature="0" />
      <path
         id="path3599"
         d="m 206.34375,96.78125 c -2.76758,0.209747 -4.06604,3.96975 -4.25,7.71875 1.88077,1.50937 3.16,4.68682 3.25,7.8125 1.58522,-2.14656 3.58512,-3.92389 5.4375,-4.59375 4.6e-4,-0.0102 -4.9e-4,-0.0211 0,-0.0312 0.0573,-1.18763 0.31972,-2.43615 0.6875,-3.65625 -0.57169,-3.72195 -2.15048,-7.094868 -4.6875,-7.25 -0.15554,-0.0095 -0.29027,-0.01116 -0.4375,0 z m 5.375,10.6875 c -0.20615,0.0359 -0.41305,0.0888 -0.625,0.15625 0.20997,-0.0617 0.42022,-0.12568 0.625,-0.15625 z"
         style="fill:#ffffff;fill-rule:evenodd;stroke:#000000;stroke-width:3;stroke-linecap:butt;stroke-linejoin:miter;stroke-miterlimit:4;stroke-dasharray:none;stroke-opacity:1"
         inkscape:connector-curvature="0" />
      <path
         id="path3643"
         d="m 200.15625,86.15625 c -0.90733,-0.02991 -1.93018,0.68814 -2.96875,1.8125 1.18682,3.720142 2.0056,7.885556 1.90625,12.5 -0.028,1.30194 -0.13907,2.63366 -0.3125,3.96875 0.0383,-0.28991 0.0938,-0.58583 0.125,-0.875 0.25105,-0.0249 0.50662,-0.043 0.75,-0.0312 0.5475,0.0263 1.07727,0.17648 1.5625,0.40625 0.30143,0.14274 0.59979,0.33849 0.875,0.5625 0.18396,-3.749 1.48242,-7.509003 4.25,-7.71875 0.14723,-0.01116 0.28196,-0.0095 0.4375,0 0.20509,0.01254 0.40272,0.04145 0.59375,0.09375 -0.0491,-0.707318 -0.0427,-1.422361 0,-2.125 -1.63518,-4.341306 -4.78468,-8.513499 -7.21875,-8.59375 z"
         style="fill:#ffffff;fill-rule:evenodd;stroke:#000000;stroke-width:3;stroke-linecap:butt;stroke-linejoin:miter;stroke-miterlimit:4;stroke-dasharray:none;stroke-opacity:1"
         inkscape:connector-curvature="0" />
      <path
         style="fill:#ffffff;fill-rule:evenodd;stroke:#000000;stroke-width:3;stroke-linecap:butt;stroke-linejoin:miter;stroke-miterlimit:4;stroke-dasharray:none;stroke-opacity:1"
         d="m 211.125,87.65625 c -0.12525,0.01574 -0.25852,0.05568 -0.375,0.09375 -2.41151,0.788156 -3.66407,5.104008 -3.375,9.15625 2.18133,0.603313 3.56496,3.68591 4.09375,7.09375 1.05117,-3.4656 3.10963,-6.650955 4.875,-7.21875 0.10743,-0.03455 0.19504,-0.08308 0.3125,-0.09375 0.8739,-0.07939 2.04187,0.518158 3.25,1.5 -0.98232,-2.479922 -2.16655,-5.0313 -3.65625,-7.8125 -1.82946,-1.702407 -3.73135,-2.893927 -5.125,-2.71875 z"
         id="path3630"
         inkscape:connector-curvature="0" />
      <path
         id="path3685"
         d="m 201.90625,72.625 c -0.40698,-0.01209 -0.72419,0.08301 -0.9375,0.28125 -0.86047,0.799665 -0.13938,3.81778 1.34375,7.21875 0.002,0.0038 0.0296,-0.0038 0.0312,0 2.15702,-0.235045 6.08145,3.906693 7.9375,7.84375 0.15227,-0.08442 0.30667,-0.165778 0.46875,-0.21875 0.11648,-0.03807 0.24975,-0.07801 0.375,-0.09375 1.29044,-0.162204 3.01779,0.873073 4.71875,2.375 0.0417,-0.06153 0.0848,-0.124511 0.125,-0.1875 -0.55442,-1.022562 -1.11975,-2.059794 -1.75,-3.15625 -3.22311,-5.607252 -7.07211,-10.175638 -10.59375,-13.625 -0.66851,-0.247412 -1.24642,-0.423473 -1.71875,-0.4375 z"
         style="fill:#ffffff;fill-rule:evenodd;stroke:#000000;stroke-width:3;stroke-linecap:butt;stroke-linejoin:miter;stroke-miterlimit:4;stroke-dasharray:none;stroke-opacity:1"
         inkscape:connector-curvature="0" />
      <path
         sodipodi:nodetypes="czzzzzzzzzzzzz"
         id="path3705"
         d="m 63.626723,176.56416 c -6.667269,-8.90378 6.296074,-38.71213 14.846236,-48.25027 8.550162,-9.53814 17.792418,-12.42179 30.752911,-11.93001 12.96049,0.49178 39.09204,14.81949 47.18982,23.06469 8.60108,8.75765 12.4678,20.6223 6.09756,22.26935 -5.37105,1.38871 -1.78153,-7.34267 -6.09756,-5.83245 -4.22692,1.47904 -7.11592,16.72146 -5.74361,25.56881 1.37231,8.84735 7.43837,12.99228 1.76695,16.58389 -5.67143,3.59162 -5.55205,-15.28845 -21.20891,-14.84623 -15.92176,0.4497 -10.55582,18.9398 -20.14846,16.4369 -9.6542,-2.51896 4.06753,-13.26885 -4.24179,-18.02757 -8.421253,-4.82282 -10.964976,18.31707 -21.208905,15.37646 -10.317147,-2.96162 9.622707,-10.20007 2.12089,-18.02757 -7.37608,-7.69631 -17.457863,6.51778 -24.125132,-2.386 z"
         style="fill:#000000;fill-rule:evenodd;stroke:#000000;stroke-width:2;stroke-linecap:butt;stroke-linejoin:miter;stroke-miterlimit:4;stroke-dasharray:none;stroke-opacity:1"
         inkscape:connector-curvature="0" />
      <path
         sodipodi:nodetypes="cczz"
         id="path3707"
         d="m 82.979852,163.30859 c 1.708237,5.30459 6.96976,12.0399 9.278897,12.99046 3.104471,-8.85856 3.416217,-27.0457 -4.772005,-27.8367 -8.188221,-0.79099 -6.21513,9.54165 -4.506892,14.84624 z"
         style="fill:#ffffff;fill-rule:evenodd;stroke:none;stroke-width:1px;stroke-linecap:butt;stroke-linejoin:round;stroke-opacity:1"
         inkscape:connector-curvature="0" />
      <path
         sodipodi:nodetypes="cccc"
         id="path3709"
         d="m 89.077413,126.98834 c 8.192718,9.74479 13.703397,34.49229 10.869565,51.4316 5.384602,-2.94404 7.274352,-2.54951 11.399792,-0.53023 3.59522,-13.88741 -3.95094,-43.67905 -22.269357,-50.90137 z"
         style="fill:#ffffff;fill-rule:evenodd;stroke:none;stroke-width:1px;stroke-linecap:butt;stroke-linejoin:round;stroke-opacity:1"
         inkscape:connector-curvature="0" />
      <path
         sodipodi:nodetypes="ccccc"
         id="path3711"
         d="m 97.826087,125.39767 c 14.013633,12.76897 22.107103,30.57493 22.799583,56.20361 8.91093,-5.38935 11.15747,-5.17225 20.41356,-0.53023 -5.59015,-13.91578 -18.93276,-41.56072 -37.91092,-56.99894 -3.07146,-0.0617 -3.144064,0.75171 -5.302223,1.32556 z"
         style="fill:#ffffff;fill-rule:evenodd;stroke:none;stroke-width:1px;stroke-linecap:butt;stroke-linejoin:round;stroke-opacity:1"
         inkscape:connector-curvature="0" />
      <path
         sodipodi:nodetypes="cccc"
         id="path3713"
         d="m 105.2492,121.68611 c 16.89994,11.38579 32.99721,35.40859 40.03182,48.78048 0.40682,-8.63235 5.47245,-17.63525 9.54401,-20.67868 -2.82134,-10.99677 -32.80663,-28.61803 -49.57583,-28.1018 z"
         style="fill:#ffffff;fill-rule:evenodd;stroke:none;stroke-width:1px;stroke-linecap:butt;stroke-linejoin:round;stroke-opacity:1"
         inkscape:connector-curvature="0" />
      <ellipse
         transform="rotate(-13.257794)"
         id="path3739"
         style="fill:#ffffff;fill-opacity:1;stroke:#000000;stroke-width:3;stroke-linecap:round;stroke-linejoin:round;stroke-miterlimit:4;stroke-dasharray:none;stroke-opacity:1"
         cx="71.555122"
         cy="140.78786"
         rx="14.183457"
         ry="7.9533405" />
      <ellipse
         style="fill:#000000;fill-opacity:1;stroke:#000000;stroke-width:2.17862463;stroke-linecap:round;stroke-linejoin:round;stroke-miterlimit:4;stroke-dasharray:none;stroke-opacity:1"
         id="path3737"
         transform="matrix(0.97662987,-0.21492812,0.24458923,0.96962679,0,0)"
         cx="57.08799"
         cy="136.78496"
         rx="15.929027"
         ry="8.4032497" />
      <path
         sodipodi:nodetypes="czzczzzzz"
         id="path3697"
         d="m 64.156946,122.74655 c -6.797797,2.23632 -8.913847,9.39645 -10.869565,18.29269 -1.900163,8.64353 -1.695866,20.01399 -0.265112,28.1018 1.430754,8.08781 4.193669,19.1965 9.278897,24.65535 1.373669,-4.61538 2.992065,-8.55634 6.097561,-11.66489 3.105496,-3.10855 9.963554,-6.02144 14.050902,-9.54401 4.087348,-3.52257 8.973766,-8.51484 9.809119,-14.84624 0.835353,-6.3314 -2.665819,-15.15481 -6.627783,-20.9438 -3.961964,-5.78899 -14.750663,-16.26273 -21.474019,-14.0509 z"
         style="fill:#ffffff;fill-rule:evenodd;stroke:#000000;stroke-width:3;stroke-linecap:butt;stroke-linejoin:round;stroke-miterlimit:4;stroke-dasharray:none;stroke-opacity:1"
         inkscape:connector-curvature="0" />
      <path
         sodipodi:nodetypes="czzzzzzzzz"
         id="path3699"
         d="m 71.580064,128.84411 c -8.030608,0.11341 -11.912426,12.31684 -13.785791,20.67869 -1.873365,8.36185 0.03782,30.73552 3.711559,31.54825 3.926877,0.86873 4.300948,-16.70213 7.423118,-15.90668 3.482359,0.88722 -0.517954,7.34928 2.916226,7.95334 3.43418,0.60406 4.978328,-3.38002 5.615912,-7.54792 0.637584,-4.16789 -0.631904,-8.92098 1.011871,-9.1541 1.643775,-0.23312 2.260647,5.06155 4.772004,5.56735 2.447088,0.49285 4.147396,-4.726 3.181336,-10.33935 -0.96606,-5.61335 -6.815627,-22.91299 -14.846235,-22.79958 z"
         style="fill:#000000;fill-opacity:1;fill-rule:evenodd;stroke:none;stroke-width:1px;stroke-linecap:butt;stroke-linejoin:miter;stroke-opacity:1"
         inkscape:connector-curvature="0" />
      <path
         sodipodi:nodetypes="czzzzz"
         id="path3741"
         d="m 78.73807,71.049841 c -8.560691,0.165212 -6.41494,6.092561 -4.241782,9.80912 2.237633,3.826824 29.801282,26.010559 40.827142,25.980909 11.02339,-0.0297 16.61547,-9.707838 14.84624,-12.195119 -1.89221,-2.660168 -6.0532,0.646689 -12.72534,-0.530223 C 110.72192,92.928749 87.298761,70.884629 78.73807,71.049841 Z"
         style="fill:#ffffff;fill-rule:evenodd;stroke:#000000;stroke-width:3;stroke-linecap:butt;stroke-linejoin:miter;stroke-miterlimit:4;stroke-dasharray:none;stroke-opacity:1"
         inkscape:connector-curvature="0" />
      <path
         style="fill:#ffffff;fill-rule:evenodd;stroke:#000000;stroke-width:3;stroke-linecap:butt;stroke-linejoin:miter;stroke-miterlimit:4;stroke-dasharray:none;stroke-opacity:1"
         d="m 64.156946,71.049841 c -8.560691,0.165212 -5.887769,6.994134 -4.241782,9.80912 1.645987,2.814985 6.297452,5.242485 13.911706,13.667587 7.7452,8.569992 18.100429,14.518162 24.794552,16.289992 6.694128,1.77183 16.613858,1.46411 16.436908,-2.65111 -0.18833,-4.37986 -10.02988,-6.51132 -13.7858,-9.013785 C 97.634308,96.727595 72.717637,70.884629 64.156946,71.049841 Z"
         id="path3743"
         sodipodi:nodetypes="czzzzzz"
         inkscape:connector-curvature="0" />
      <path
         sodipodi:nodetypes="czzzzzzzzzzz"
         id="path3745"
         d="m 41.35737,70.254507 c -5.917121,-1.643152 -9.21859,5.003102 -8.483563,10.339342 0.729216,5.294056 3.935143,12.703029 8.218452,18.557794 4.408647,6.026087 22.84514,18.666937 17.497349,23.329787 -5.924373,5.16558 -7.040395,-5.98339 -9.278898,-10.33933 -2.185776,-4.25334 -6.265336,-8.79785 -9.611613,-14.80148 -3.285373,-5.894355 -11.562432,-16.202885 -15.573964,-11.709655 -4.091125,4.58238 12.140577,16.070375 15.376458,24.390235 3.146511,8.09008 3.32431,12.65451 6.627783,17.23225 3.567411,4.94349 10.353894,7.55439 14.581124,4.24178 3.770073,-2.95437 6.44149,-5.38645 5.567339,-14.84624 C 65.306482,106.13728 47.20102,71.877257 41.35737,70.254507 Z"
         style="fill:#ffffff;fill-rule:evenodd;stroke:#000000;stroke-width:3;stroke-linecap:butt;stroke-linejoin:miter;stroke-miterlimit:4;stroke-dasharray:none;stroke-opacity:1"
         inkscape:connector-curvature="0" />
      <path
         sodipodi:nodetypes="csscscsc"
         id="path2454"
         d="m 50.375,74.46875 c -0.371504,-0.01596 -0.728529,-0.0096 -1.0625,0.03125 -5.318034,0.649858 -10.207087,6.007734 -6.09375,15.625 3.948938,9.232889 16.874393,15.62772 24.4375,28.3125 -0.593305,-4.1756 4.64879,-8.85435 12.03125,-10.59375 3.309767,-0.77982 6.520348,-0.81095 9.15625,-0.28125 C 84.571111,99.887464 76.297147,91.49072 71.59375,86.96875 65.50363,81.113549 55.947566,74.708094 50.375,74.46875 Z"
         style="fill:#ffffff;fill-rule:evenodd;stroke:#000000;stroke-width:3;stroke-linecap:butt;stroke-linejoin:miter;stroke-miterlimit:4;stroke-dasharray:none;stroke-opacity:1"
         inkscape:connector-curvature="0" />
      <ellipse
         transform="rotate(-13.257794)"
         id="path3735"
         style="fill:#ffffff;fill-opacity:1;stroke:#000000;stroke-width:3;stroke-linecap:round;stroke-linejoin:round;stroke-miterlimit:4;stroke-dasharray:none;stroke-opacity:1"
         cx="52.840786"
         cy="131.20349"
         rx="14.183457"
         ry="7.9533405" />
      <ellipse
         transform="matrix(0.67502568,0.73779423,-0.79113002,0.61164801,0,0)"
         id="path2456"
         style="fill:#000000;fill-opacity:1;stroke:none;stroke-width:2.24827051;stroke-linecap:round;stroke-linejoin:round;stroke-miterlimit:4;stroke-dasharray:none;stroke-opacity:1"
         cx="110.41751"
         cy="19.917"
         rx="12.870922"
         ry="8.2547922" />
      <ellipse
         style="fill:#ffffff;fill-opacity:1;stroke:none;stroke-width:1.46404719;stroke-linecap:round;stroke-linejoin:round;stroke-miterlimit:4;stroke-dasharray:none;stroke-opacity:1"
         id="path3228"
         transform="matrix(0.66682185,0.74521717,-0.78448394,0.62014913,0,0)"
         cx="110.87344"
         cy="19.344788"
         rx="8.3972979"
         ry="5.3652406" />
      <ellipse
         transform="matrix(0.78641729,0.6176956,-0.62622796,0.77964001,0,0)"
         id="path3230"
         style="fill:#000000;fill-opacity:1;stroke:none;stroke-width:0.92815703;stroke-linecap:round;stroke-linejoin:round;stroke-miterlimit:4;stroke-dasharray:none;stroke-opacity:1"
         cx="104.79285"
         cy="37.70224"
         rx="4.7374616"
         ry="3.8222215" />
      <ellipse
         style="fill:#ffffff;fill-opacity:1;stroke:none;stroke-width:0.18614489;stroke-linecap:round;stroke-linejoin:round;stroke-miterlimit:4;stroke-dasharray:none;stroke-opacity:1"
         id="path3233"
         transform="matrix(0.83466436,0.55075894,-0.61703531,0.78693546,0,0)"
         cx="103.43733"
         cy="45.401215"
         rx="0.84634537"
         ry="0.86054432" />
      <path
         id="path3687"
         d="m 142.09375,98.71875 c -3.59721,0.06751 -7.05933,0.674741 -10.0625,1.71875 1.69139,0.86436 3.52302,1.91018 5.5625,3.21875 3.85123,2.47101 7.25461,6.53858 10.59375,10.90625 0.17496,-5.66692 3.46422,-10.74552 7.15625,-13.5625 -4.11383,-1.646123 -8.77024,-2.365327 -13.25,-2.28125 z"
         style="fill:#ffffff;fill-rule:evenodd;stroke:#000000;stroke-width:3;stroke-linecap:butt;stroke-linejoin:round;stroke-miterlimit:4;stroke-dasharray:none;stroke-opacity:1"
         inkscape:connector-curvature="0" />
    </g>
  </g>
</svg>
