<?xml version="1.0" encoding="UTF-8" standalone="no"?>
<!-- Created with Inkscape (http://www.inkscape.org/) -->

<svg
   xmlns:dc="http://purl.org/dc/elements/1.1/"
   xmlns:cc="http://creativecommons.org/ns#"
   xmlns:rdf="http://www.w3.org/1999/02/22-rdf-syntax-ns#"
   xmlns:svg="http://www.w3.org/2000/svg"
   xmlns="http://www.w3.org/2000/svg"
   xmlns:sodipodi="http://sodipodi.sourceforge.net/DTD/sodipodi-0.dtd"
   xmlns:inkscape="http://www.inkscape.org/namespaces/inkscape"
   width="300"
   height="350"
   id="svg2"
   sodipodi:version="0.32"
   inkscape:version="0.92.2 (5c3e80d, 2017-08-06)"
   version="1.0"
   sodipodi:docname="Hilt-icon.svg"
   inkscape:output_extension="org.inkscape.output.svg.inkscape">
  <defs
     id="defs4">
    <inkscape:perspective
       sodipodi:type="inkscape:persp3d"
       inkscape:vp_x="0 : 526.18109 : 1"
       inkscape:vp_y="0 : 1000 : 0"
       inkscape:vp_z="744.09448 : 526.18109 : 1"
       inkscape:persp3d-origin="372.04724 : 350.78739 : 1"
       id="perspective10" />
    <inkscape:perspective
       id="perspective3217"
       inkscape:persp3d-origin="372.04724 : 350.78739 : 1"
       inkscape:vp_z="744.09448 : 526.18109 : 1"
       inkscape:vp_y="0 : 1000 : 0"
       inkscape:vp_x="0 : 526.18109 : 1"
       sodipodi:type="inkscape:persp3d" />
  </defs>
  <sodipodi:namedview
     id="base"
     pagecolor="#ffffff"
     bordercolor="#666666"
     borderopacity="1.0"
     gridtolerance="10000"
     guidetolerance="10"
     objecttolerance="10"
     inkscape:pageopacity="0.0"
     inkscape:pageshadow="2"
     inkscape:zoom="1.4457143"
     inkscape:cx="150"
     inkscape:cy="175"
     inkscape:document-units="px"
     inkscape:current-layer="layer1"
     showgrid="false"
     inkscape:window-width="1366"
     inkscape:window-height="705"
     inkscape:window-x="-8"
     inkscape:window-y="-8"
     inkscape:snap-global="false"
     inkscape:window-maximized="1" />
  <metadata
     id="metadata7">
    <rdf:RDF>
      <cc:Work
         rdf:about="">
        <dc:format>image/svg+xml</dc:format>
        <dc:type
           rdf:resource="http://purl.org/dc/dcmitype/StillImage" />
      </cc:Work>
    </rdf:RDF>
  </metadata>
  <g
     inkscape:label="Layer 1"
     inkscape:groupmode="layer"
     id="layer1"
     transform="translate(22.88995,67.559485)">
    <path
       style="color:#000000;font-style:normal;font-variant:normal;font-weight:normal;font-stretch:normal;font-size:medium;line-height:normal;font-family:sans-serif;font-variant-ligatures:normal;font-variant-position:normal;font-variant-caps:normal;font-variant-numeric:normal;font-variant-alternates:normal;font-feature-settings:normal;text-indent:0;text-align:start;text-decoration:none;text-decoration-line:none;text-decoration-style:solid;text-decoration-color:#000000;letter-spacing:normal;word-spacing:normal;text-transform:none;writing-mode:lr-tb;direction:ltr;text-orientation:mixed;dominant-baseline:auto;baseline-shift:baseline;text-anchor:start;white-space:normal;shape-padding:0;clip-rule:nonzero;display:inline;overflow:visible;visibility:visible;opacity:1;isolation:auto;mix-blend-mode:normal;color-interpolation:sRGB;color-interpolation-filters:linearRGB;solid-color:#000000;solid-opacity:1;vector-effect:none;fill:#ffffff;fill-opacity:1;fill-rule:nonzero;stroke:none;stroke-width:10;stroke-linecap:square;stroke-linejoin:miter;stroke-miterlimit:4;stroke-dasharray:none;stroke-dashoffset:0;stroke-opacity:1;color-rendering:auto;image-rendering:auto;shape-rendering:auto;text-rendering:auto;enable-background:accumulate"
       d="m 149.98438,23.886719 c -14.03065,0 -25.48633,11.495204 -25.48633,25.517578 v 9.695312 l -2.69532,-1.232421 V 107.77734 H 47 v 97.21875 c -3.21771,1.38255 -5.827462,3.93712 -7.332031,7.1211 -9.320356,0.002 -16.970703,7.65378 -16.970703,16.97461 0,0.72565 0.05291,1.40411 0.126953,2.02539 l 0.492187,4.13867 H 47 v 78.52148 h 97.76758 l 0.75,8.24219 c 0.49057,5.46401 8.47427,5.46401 8.96484,0 l 0.75,-8.24219 H 253 v -78.52148 h 23.68359 l 0.49414,-4.13867 c 0.0741,-0.62185 0.12696,-1.30018 0.12696,-2.02539 0,-9.32083 -7.65232,-16.97242 -16.97266,-16.97461 -1.5045,-3.18354 -4.11473,-5.73841 -7.33203,-7.1211 V 107.77734 H 178.20117 V 57.867188 l -2.69726,1.232421 c 0.001,-3.26931 0.005,-6.415809 0,-9.695312 0,-14.030642 -11.48892,-25.517578 -25.51953,-25.517578 z"
       id="rect273"
       transform="translate(-22.88995,-67.559485)"
       inkscape:connector-curvature="0"
       sodipodi:nodetypes="ssccccccsccccccccccccscccccccs" />
    <g
       id="g55">
      <path
         id="rect3406"
         d="m 29.563175,141.00221 c -4.860729,0 -8.836327,3.56807 -9.46875,8.25 h -3.3125 c -6.79664,0 -12.28125,5.48461 -12.28125,12.28125 0,0.50091 0.03597,0.9839 0.09375,1.46875 H 249.62568 c 0.0578,-0.48485 0.0937,-0.96784 0.0937,-1.46875 0,-6.79664 -5.48461,-12.28124 -12.28125,-12.28125 h -3.3125 c -0.63242,-4.68194 -4.60804,-8.25 -9.46875,-8.25 z"
         style="fill:#000000;fill-opacity:1;stroke:#000000;stroke-width:3.38874149;stroke-linecap:butt;stroke-linejoin:miter;stroke-miterlimit:4;stroke-dasharray:none;stroke-opacity:1"
         inkscape:connector-curvature="0" />
      <rect
         ry="0"
         y="47.338432"
         x="30.565195"
         height="191.75902"
         width="193.08836"
         id="rect3417"
         style="fill:#ffffff;fill-opacity:1;stroke:none;stroke-width:3;stroke-linecap:butt;stroke-linejoin:miter;stroke-miterlimit:4;stroke-dasharray:none;stroke-opacity:1" />
      <path
         sodipodi:nodetypes="cccccc"
         id="path3253"
         d="m 127.09443,-39.091545 c -11.54752,0 -20.90625,9.389982 -20.90625,20.9375 l -1.3e-4,41.37456 h 41.844 c -0.0327,-13.4350578 0.0215,-27.3977271 -1.2e-4,-41.37456 0,-11.547517 -9.39,-20.9375 -20.9375,-20.9375 z"
         style="fill:#000000;fill-opacity:1;stroke:#000000;stroke-width:3.16117072;stroke-linecap:square;stroke-linejoin:miter;stroke-miterlimit:4;stroke-dasharray:none;stroke-opacity:1"
         inkscape:connector-curvature="0" />
      <path
         id="rect3228"
         d="m 39.609375,55.71794 v 175 h 68.005515 v -175 z m 107.026655,0 v 175 h 67.97335 v -175 z"
         style="fill:#000000;fill-opacity:1;stroke:none;stroke-width:5;stroke-linecap:square;stroke-linejoin:miter;stroke-miterlimit:4;stroke-dasharray:none;stroke-opacity:1"
         inkscape:connector-curvature="0" />
      <path
         id="rect3223"
         d="m 27.109375,43.21794 v 200 H 227.10938 v -200 z m 10,10 H 217.10938 v 180 H 37.109375 Z"
         style="fill:#000000;fill-opacity:1;stroke:none;stroke-width:5;stroke-linecap:square;stroke-linejoin:miter;stroke-miterlimit:4;stroke-dasharray:none;stroke-opacity:1"
         inkscape:connector-curvature="0" />
      <rect
         style="fill:#ffffff;fill-opacity:1;stroke:#000000;stroke-width:4.19443226;stroke-linecap:square;stroke-linejoin:miter;stroke-miterlimit:4;stroke-dasharray:none;stroke-opacity:1"
         id="rect3245"
         width="51.019066"
         height="22.171644"
         x="-165.27988"
         y="110.82061"
         transform="matrix(-0.90943908,0.41583719,0,1,0,0)" />
      <rect
         transform="matrix(0.90943908,0.41583719,0,1,0,0)"
         y="-5.422801"
         x="114.26082"
         height="22.171644"
         width="51.019066"
         id="rect3239"
         style="fill:#ffffff;fill-opacity:1;stroke:#000000;stroke-width:4.19443226;stroke-linecap:square;stroke-linejoin:miter;stroke-miterlimit:4;stroke-dasharray:none;stroke-opacity:1" />
      <rect
         transform="matrix(-0.90943908,0.41583719,0,1,0,0)"
         y="88.82061"
         x="-165.27988"
         height="22.171644"
         width="51.019066"
         id="rect3243"
         style="fill:#ffffff;fill-opacity:1;stroke:#000000;stroke-width:4.19443226;stroke-linecap:square;stroke-linejoin:miter;stroke-miterlimit:4;stroke-dasharray:none;stroke-opacity:1" />
      <rect
         style="fill:#ffffff;fill-opacity:1;stroke:#000000;stroke-width:4.19443226;stroke-linecap:square;stroke-linejoin:miter;stroke-miterlimit:4;stroke-dasharray:none;stroke-opacity:1"
         id="rect3237"
         width="51.019066"
         height="22.171644"
         x="114.26082"
         y="-27.422798"
         transform="matrix(0.90943908,0.41583719,0,1,0,0)" />
      <rect
         style="fill:#ffffff;fill-opacity:1;stroke:#000000;stroke-width:4.19443226;stroke-linecap:square;stroke-linejoin:miter;stroke-miterlimit:4;stroke-dasharray:none;stroke-opacity:1"
         id="rect3241"
         width="51.019066"
         height="22.171644"
         x="-165.27988"
         y="66.82061"
         transform="matrix(-0.90943908,0.41583719,0,1,0,0)" />
      <rect
         transform="matrix(0.90943908,0.41583719,0,1,0,0)"
         y="-49.422798"
         x="114.26082"
         height="22.171644"
         width="51.019066"
         id="rect3235"
         style="fill:#ffffff;fill-opacity:1;stroke:#000000;stroke-width:4.19443226;stroke-linecap:square;stroke-linejoin:miter;stroke-miterlimit:4;stroke-dasharray:none;stroke-opacity:1" />
      <path
         sodipodi:nodetypes="ccscc"
         id="rect3284"
         d="m 140.59443,228.22096 v -49 c -4.08126,1.97884 -8.66254,3.09375 -13.5,3.09375 -4.85238,0 -9.40927,-1.1347 -13.5,-3.125 v 49.03125"
         style="fill:none;fill-opacity:1;stroke:#000000;stroke-width:2.9996686;stroke-linecap:butt;stroke-linejoin:miter;stroke-miterlimit:4;stroke-dasharray:none;stroke-opacity:1"
         inkscape:connector-curvature="0" />
      <path
         id="path3357"
         d="m 127.09443,98.002205 c -24.01203,0 -43.500005,19.487955 -43.500005,43.500005 0,0.90045 0.03973,1.80054 0.09375,2.6875 h -52.96875 c -3.982951,0 -7.1875,3.20455 -7.1875,7.1875 0,0.0833 0.02847,0.16744 0.03125,0.25 h -7.21875 c -4.708899,0 -8.5,3.79111 -8.5,8.5 h 79.9375 12.09375 c -2.3999,-4.40132 -3.78125,-9.44964 -3.78125,-14.8125 0,-0.37755 0.01784,-0.75072 0.03125,-1.125 0.59421,-16.59017 14.234385,-29.875 30.968755,-29.875 16.73436,0 30.37453,13.28481 30.96875,29.875 0.0134,0.37428 0.0312,0.74745 0.0312,1.125 0,5.36286 -1.38135,10.41118 -3.78125,14.8125 h 12.09375 78.375 c 0,-4.7089 -3.79112,-8.49999 -8.5,-8.5 h -5.625 c 0.003,-0.0826 0.0312,-0.16675 0.0312,-0.25 0,-3.98295 -3.20456,-7.1875 -7.1875,-7.1875 h -53 c 0.054,-0.88696 0.0937,-1.78705 0.0937,-2.6875 0,-24.01204 -19.48797,-43.500015 -43.5,-43.500005 z"
         style="fill:#ffffff;fill-opacity:1;stroke:#000000;stroke-width:2.99987674;stroke-linecap:butt;stroke-linejoin:miter;stroke-miterlimit:4;stroke-dasharray:none;stroke-opacity:1"
         inkscape:connector-curvature="0" />
      <path
         sodipodi:nodetypes="ccccccssscccccc"
         id="path3403"
         d="m 127.09443,85.502205 c -28.068165,0 -51.331606,22.677915 -55.375005,49.625005 h -13.5625 c -4.4589,0 -8.07397,4.48742 -8.15625,8.92596 h 21.09375 12.09375 c 0.02357,-2.71941 0.30395,-6.33874 0.78125,-8.92596 3.93859,-21.3492 20.639305,-37.531255 43.125005,-37.531255 22.48569,0 39.2121,16.182055 43.15625,37.531255 0.47797,2.58722 0.75765,6.20654 0.78125,8.92596 h 12.0625 22.78125 c -0.0826,-4.43822 -3.69757,-8.92596 -8.15625,-8.92596 h -15.25 c -4.0434,-26.94709 -27.30684,-49.625005 -55.375,-49.625005 z"
         style="fill:#ffffff;fill-opacity:1;stroke:#000000;stroke-width:3;stroke-linecap:butt;stroke-linejoin:miter;stroke-miterlimit:4;stroke-dasharray:none;stroke-opacity:1"
         inkscape:connector-curvature="0" />
      <path
         sodipodi:nodetypes="cccc"
         id="path3433"
         d="m 117.10938,144.05317 10,109.99999 10,-109.99999 z"
         style="fill:#ffffff;fill-rule:evenodd;stroke:#000000;stroke-width:3;stroke-linecap:butt;stroke-linejoin:round;stroke-miterlimit:4;stroke-dasharray:none;stroke-opacity:1"
         inkscape:connector-curvature="0" />
      <path
         sodipodi:nodetypes="cczczzzcccc"
         id="path3466"
         d="m 123.05751,61.277036 c 0.28789,-5.671778 6.18962,-12.984573 9.12891,-18.140392 2.011,-3.917574 2.56679,-9.177152 2.09322,-12.88143 -0.45332,-3.545907 -3.86443,-8.533948 -3.86443,-8.533948 0,0 3.83172,3.57588 5.76118,6.923769 1.92948,3.347889 3.04351,8.514545 1.93222,15.13568 -1.13757,6.777793 -5.36252,11.92148 -8.01543,23.99166 -2.58546,11.76318 3.86443,25.44082 3.86443,25.44082 l -5.79664,10.466165 -7.24582,-38.966325 z"
         style="fill:#ffffff;fill-opacity:1;fill-rule:evenodd;stroke:#000000;stroke-width:3;stroke-linecap:butt;stroke-linejoin:round;stroke-miterlimit:4;stroke-dasharray:none;stroke-opacity:1"
         inkscape:connector-curvature="0" />
      <path
         id="path3198"
         d="m 117.11005,144.06552 2.03125,22.46875 c 0.57682,0.47484 1.18037,0.92186 1.78125,1.3125 3.79949,2.47011 9.31883,2.62063 12.71875,-0.5 0.49274,-0.45227 0.99415,-0.9431 1.5,-1.46875 l 1.96875,-21.8125 z"
         style="fill:#ffffff;fill-rule:evenodd;stroke:#000000;stroke-width:3;stroke-linecap:butt;stroke-linejoin:miter;stroke-miterlimit:4;stroke-dasharray:none;stroke-opacity:1"
         inkscape:connector-curvature="0" />
      <path
         sodipodi:nodetypes="cssssssssssssssssc"
         id="path3191"
         d="m 123.22002,29.389847 c 0,0 0.44143,2.355975 0.74941,4.393608 0.30797,2.037632 0.14401,5.089275 -0.8125,7.75 -0.95652,2.660723 -1.55345,5.889942 -3.11297,9.96875 -1.53995,4.02754 -2.52041,14.18086 -1.625,20.46875 0.8954,6.28789 2.02016,12.02912 2.01922,19.96875 -9.5e-4,7.93962 -5.71453,17.810655 -8.0625,27.687505 -2.33965,9.84181 -2.75611,22.10352 -0.8125,28.75 1.9436,6.64649 5.43178,10.92553 9.34375,13.46875 3.79949,2.47011 9.31883,2.62063 12.71875,-0.5 3.479,-3.19324 7.52713,-7.83937 8.71875,-19.25 1.17499,-11.25138 0.19737,-17.91292 -0.65625,-23.9375 -0.83126,-5.8668 -2.25948,-10.57321 -4.65625,-18.03125 -2.39678,-7.458055 -9.57059,-24.442625 -11.125,-31.375005 -1.55442,-6.93238 -1.29369,-10.42493 -0.8125,-14.34375 0.48118,-3.918823 1.4105,-8.289247 1.625,-10.625 0.22912,-2.495379 0.0504,-6.137839 -0.34375,-7.90625 -0.42839,-1.922112 -3.15566,-6.487358 -3.15566,-6.487358 z"
         style="fill:#ffffff;fill-opacity:1;fill-rule:evenodd;stroke:#000000;stroke-width:3;stroke-linecap:butt;stroke-linejoin:round;stroke-miterlimit:4;stroke-dasharray:none;stroke-opacity:1"
         inkscape:connector-curvature="0" />
    </g>
  </g>
</svg>
