<?xml version="1.0" encoding="UTF-8" standalone="no"?>
<!-- Created with Inkscape (http://www.inkscape.org/) -->

<svg
   xmlns:dc="http://purl.org/dc/elements/1.1/"
   xmlns:cc="http://creativecommons.org/ns#"
   xmlns:rdf="http://www.w3.org/1999/02/22-rdf-syntax-ns#"
   xmlns:svg="http://www.w3.org/2000/svg"
   xmlns="http://www.w3.org/2000/svg"
   xmlns:sodipodi="http://sodipodi.sourceforge.net/DTD/sodipodi-0.dtd"
   xmlns:inkscape="http://www.inkscape.org/namespaces/inkscape"
   width="250"
   height="250"
   id="svg2"
   sodipodi:version="0.32"
   inkscape:version="0.92.2 (5c3e80d, 2017-08-06)"
   version="1.0"
   sodipodi:docname="Lanfearrev-icon.svg"
   inkscape:output_extension="org.inkscape.output.svg.inkscape">
  <defs
     id="defs4">
    <inkscape:perspective
       sodipodi:type="inkscape:persp3d"
       inkscape:vp_x="0 : 526.18109 : 1"
       inkscape:vp_y="0 : 1000 : 0"
       inkscape:vp_z="744.09448 : 526.18109 : 1"
       inkscape:persp3d-origin="372.04724 : 350.78739 : 1"
       id="perspective10" />
    <inkscape:perspective
       id="perspective2447"
       inkscape:persp3d-origin="372.04724 : 350.78739 : 1"
       inkscape:vp_z="744.09448 : 526.18109 : 1"
       inkscape:vp_y="0 : 1000 : 0"
       inkscape:vp_x="0 : 526.18109 : 1"
       sodipodi:type="inkscape:persp3d" />
  </defs>
  <sodipodi:namedview
     id="base"
     pagecolor="#ffffff"
     bordercolor="#666666"
     borderopacity="1.0"
     gridtolerance="10000"
     guidetolerance="10"
     objecttolerance="10"
     inkscape:pageopacity="0.0"
     inkscape:pageshadow="2"
     inkscape:zoom="2.024"
     inkscape:cx="125"
     inkscape:cy="125"
     inkscape:document-units="px"
     inkscape:current-layer="layer1"
     showgrid="false"
     inkscape:window-width="1366"
     inkscape:window-height="705"
     inkscape:window-x="-8"
     inkscape:window-y="-8"
     inkscape:window-maximized="1" />
  <metadata
     id="metadata7">
    <rdf:RDF>
      <cc:Work
         rdf:about="">
        <dc:format>image/svg+xml</dc:format>
        <dc:type
           rdf:resource="http://purl.org/dc/dcmitype/StillImage" />
        <dc:title></dc:title>
      </cc:Work>
    </rdf:RDF>
  </metadata>
  <g
     inkscape:label="Layer 1"
     inkscape:groupmode="layer"
     id="layer1">
    <path
       inkscape:connector-curvature="0"
       id="path23"
       d="M 22,228 V 22 h 206 v 206 z"
       style="fill:#ffffff;fill-opacity:1;stroke:none;stroke-width:5;stroke-linecap:round;stroke-linejoin:miter;stroke-miterlimit:4;stroke-dasharray:none;stroke-opacity:1"
       sodipodi:nodetypes="ccccc" />
    <g
       id="g3239">
      <rect
         transform="scale(-1,1)"
         y="30.731558"
         x="-219.21443"
         height="187.02399"
         width="187.74704"
         id="rect3306"
         style="fill:#ffffff;fill-opacity:1;stroke:none;stroke-width:2;stroke-linecap:round;stroke-linejoin:miter;stroke-miterlimit:4;stroke-dasharray:none;stroke-opacity:1" />
      <path
         id="rect2453"
         d="M 225,225 V 25.000001 H 25 V 225 Z M 211.36364,211.36364 H 38.63636 V 38.636361 h 172.72728 z"
         style="fill:#000000;fill-opacity:1;stroke:none;stroke-width:5;stroke-linecap:round;stroke-linejoin:miter;stroke-miterlimit:4;stroke-dasharray:none;stroke-opacity:1"
         inkscape:connector-curvature="0" />
      <rect
         transform="scale(-1,1)"
         y="52.258602"
         x="-197.72595"
         height="145.45454"
         width="145.45454"
         id="rect2457"
         style="fill:#000000;fill-opacity:1;stroke:none;stroke-width:5;stroke-linecap:round;stroke-linejoin:miter;stroke-miterlimit:4;stroke-dasharray:none;stroke-opacity:1" />
      <path
         id="path3213"
         d="m 117.40625,44 c 26.87743,0 50.70094,13.135751 65.4375,33.3125 l -3.9375,1.9375 c -11.41873,-10.981755 -26.92153,-17.75 -44,-17.75 -35.05199,0 -63.5,28.448008 -63.5,63.5 0,35.05199 28.44801,63.5 63.5,63.5 17.03092,0 32.49661,-6.72853 43.90625,-17.65625 l 3.8125,2.125 C 167.87262,192.98308 144.15621,206 117.40625,206 c -44.712,0 -81,-36.28801 -81,-81 0,-44.71199 36.288,-81 81,-81 z m 64.71875,38.5625 1.75,0.6875 0.25,1.625 c -0.64601,-0.790824 -1.31734,-1.553971 -2,-2.3125 z m 6.28125,3.5 c 0.18453,0.335434 0.38261,0.661701 0.5625,1 v 4.625 c -0.73451,-1.187587 -1.50364,-2.334671 -2.3125,-3.46875 z m 0.5625,72.25 v 4.625 c -0.25224,0.47434 -0.51992,0.93756 -0.78125,1.40625 l -1.6875,-2.3125 c 0.87055,-1.20888 1.68312,-2.44852 2.46875,-3.71875 z m -5.65625,7.78125 -0.21875,1.09375 -1.0625,0.34375 c 0.43295,-0.47905 0.86285,-0.9454 1.28125,-1.4375 z"
         style="fill:#ffffff;fill-opacity:1;stroke:#000000;stroke-width:3;stroke-linecap:round;stroke-linejoin:round;stroke-miterlimit:4;stroke-dasharray:none;stroke-opacity:1"
         inkscape:connector-curvature="0" />
      <path
         d="m 208.48716,114.20452 0.78112,7.60931 6.97383,3.14286 -6.99551,3.09429 -0.834,7.60371 -5.10458,-5.69694 -7.48928,1.55649 3.84071,-6.61519 -3.79462,-6.64174 7.47827,1.60852 z"
         inkscape:randomized="0"
         inkscape:rounded="0"
         inkscape:flatsided="false"
         sodipodi:arg2="-0.62484244"
         sodipodi:arg1="-1.253161"
         sodipodi:r2="5.3056679"
         sodipodi:r1="11.277091"
         sodipodi:cy="124.91749"
         sodipodi:cx="204.96509"
         sodipodi:sides="5"
         id="path3233"
         style="opacity:1;fill:#ffffff;fill-opacity:1;stroke:#000000;stroke-width:3;stroke-linecap:butt;stroke-linejoin:miter;stroke-miterlimit:4;stroke-dasharray:none;stroke-opacity:1"
         sodipodi:type="star"
         transform="rotate(-39.999997,135.14967,127.40648)" />
      <path
         transform="matrix(0.7660445,0.6427876,0.6427876,-0.7660445,-50.276294,133.32002)"
         sodipodi:type="star"
         style="opacity:1;fill:#ffffff;fill-opacity:1;stroke:#000000;stroke-width:3;stroke-linecap:butt;stroke-linejoin:miter;stroke-miterlimit:4;stroke-dasharray:none;stroke-opacity:1"
         id="path3237"
         sodipodi:sides="5"
         sodipodi:cx="204.96509"
         sodipodi:cy="124.91749"
         sodipodi:r1="11.277091"
         sodipodi:r2="5.3056679"
         sodipodi:arg1="-1.253161"
         sodipodi:arg2="-0.62484244"
         inkscape:flatsided="false"
         inkscape:rounded="0"
         inkscape:randomized="0"
         d="m 208.48716,114.20452 0.78112,7.60931 6.97383,3.14286 -6.99551,3.09429 -0.834,7.60371 -5.10458,-5.69694 -7.48928,1.55649 3.84071,-6.61519 -3.79462,-6.64174 7.47827,1.60852 z" />
      <path
         sodipodi:nodetypes="ccccc"
         id="path3286"
         d="M 211.36364,211.36364 197.72727,197.72727 V 52.272728 l 13.63637,-13.636363 z"
         style="fill:#ffffff;fill-opacity:1;stroke:none;stroke-width:5;stroke-linecap:round;stroke-linejoin:miter;stroke-miterlimit:4;stroke-dasharray:none;stroke-opacity:1"
         inkscape:connector-curvature="0" />
      <path
         sodipodi:nodetypes="cccc"
         id="rect2390"
         d="m 196.13636,118.57955 3.75,6.875 -3.72159,6.05113 z"
         style="fill:#000000;fill-opacity:1;stroke:none;stroke-width:2;stroke-linecap:round;stroke-linejoin:round;stroke-miterlimit:4;stroke-dasharray:none;stroke-opacity:1"
         inkscape:connector-curvature="0" />
      <path
         d="m 208.48716,114.20452 0.78112,7.60931 6.97383,3.14286 -6.99551,3.09429 -0.834,7.60371 -5.10458,-5.69694 -7.48928,1.55649 3.84071,-6.61519 -3.79462,-6.64174 7.47827,1.60852 z"
         inkscape:randomized="0"
         inkscape:rounded="0"
         inkscape:flatsided="false"
         sodipodi:arg2="-0.62484244"
         sodipodi:arg1="-1.253161"
         sodipodi:r2="5.3056679"
         sodipodi:r1="11.277091"
         sodipodi:cy="124.91749"
         sodipodi:cx="204.96509"
         sodipodi:sides="5"
         id="path3227"
         style="opacity:1;fill:#ffffff;fill-opacity:1;stroke:#000000;stroke-width:3;stroke-linecap:butt;stroke-linejoin:miter;stroke-miterlimit:4;stroke-dasharray:none;stroke-opacity:1"
         sodipodi:type="star" />
      <path
         transform="rotate(-20.000001,129.9269,125.82229)"
         sodipodi:type="star"
         style="opacity:1;fill:#ffffff;fill-opacity:1;stroke:#000000;stroke-width:3;stroke-linecap:butt;stroke-linejoin:miter;stroke-miterlimit:4;stroke-dasharray:none;stroke-opacity:1"
         id="path3229"
         sodipodi:sides="5"
         sodipodi:cx="204.96509"
         sodipodi:cy="124.91749"
         sodipodi:r1="11.277091"
         sodipodi:r2="5.3056679"
         sodipodi:arg1="-1.253161"
         sodipodi:arg2="-0.62484244"
         inkscape:flatsided="false"
         inkscape:rounded="0"
         inkscape:randomized="0"
         d="m 208.48716,114.20452 0.78112,7.60931 6.97383,3.14286 -6.99551,3.09429 -0.834,7.60371 -5.10458,-5.69694 -7.48928,1.55649 3.84071,-6.61519 -3.79462,-6.64174 7.47827,1.60852 z" />
      <path
         d="m 208.48716,114.20452 0.78112,7.60931 6.97383,3.14286 -6.99551,3.09429 -0.834,7.60371 -5.10458,-5.69694 -7.48928,1.55649 3.84071,-6.61519 -3.79462,-6.64174 7.47827,1.60852 z"
         inkscape:randomized="0"
         inkscape:rounded="0"
         inkscape:flatsided="false"
         sodipodi:arg2="-0.62484244"
         sodipodi:arg1="-1.253161"
         sodipodi:r2="5.3056679"
         sodipodi:r1="11.277091"
         sodipodi:cy="124.91749"
         sodipodi:cx="204.96509"
         sodipodi:sides="5"
         id="path3235"
         style="opacity:1;fill:#ffffff;fill-opacity:1;stroke:#000000;stroke-width:3;stroke-linecap:butt;stroke-linejoin:miter;stroke-miterlimit:4;stroke-dasharray:none;stroke-opacity:1"
         sodipodi:type="star"
         transform="matrix(0.9396927,0.3420202,0.3420202,-0.9396927,-35.198223,197.97437)" />
    </g>
  </g>
</svg>
