<?xml version="1.0" encoding="UTF-8" standalone="no"?>
<!-- Created with Inkscape (http://www.inkscape.org/) -->

<svg
   xmlns:dc="http://purl.org/dc/elements/1.1/"
   xmlns:cc="http://creativecommons.org/ns#"
   xmlns:rdf="http://www.w3.org/1999/02/22-rdf-syntax-ns#"
   xmlns:svg="http://www.w3.org/2000/svg"
   xmlns="http://www.w3.org/2000/svg"
   xmlns:sodipodi="http://sodipodi.sourceforge.net/DTD/sodipodi-0.dtd"
   xmlns:inkscape="http://www.inkscape.org/namespaces/inkscape"
   width="300"
   height="300"
   id="svg2"
   sodipodi:version="0.32"
   inkscape:version="0.92.2 (5c3e80d, 2017-08-06)"
   version="1.0"
   sodipodi:docname="Leaves-icon.svg"
   inkscape:output_extension="org.inkscape.output.svg.inkscape">
  <defs
     id="defs4">
    <inkscape:perspective
       sodipodi:type="inkscape:persp3d"
       inkscape:vp_x="0 : 526.18109 : 1"
       inkscape:vp_y="0 : 1000 : 0"
       inkscape:vp_z="744.09448 : 526.18109 : 1"
       inkscape:persp3d-origin="372.04724 : 350.78739 : 1"
       id="perspective10" />
    <inkscape:perspective
       id="perspective3810"
       inkscape:persp3d-origin="372.04724 : 350.78739 : 1"
       inkscape:vp_z="744.09448 : 526.18109 : 1"
       inkscape:vp_y="0 : 1000 : 0"
       inkscape:vp_x="0 : 526.18109 : 1"
       sodipodi:type="inkscape:persp3d" />
  </defs>
  <sodipodi:namedview
     id="base"
     pagecolor="#ffffff"
     bordercolor="#666666"
     borderopacity="1.0"
     gridtolerance="10000"
     guidetolerance="10"
     objecttolerance="10"
     inkscape:pageopacity="0.0"
     inkscape:pageshadow="2"
     inkscape:zoom="1.6866667"
     inkscape:cx="150"
     inkscape:cy="150"
     inkscape:document-units="px"
     inkscape:current-layer="layer1"
     showgrid="false"
     inkscape:window-width="1366"
     inkscape:window-height="705"
     inkscape:window-x="-8"
     inkscape:window-y="-8"
     inkscape:snap-global="false"
     inkscape:window-maximized="1" />
  <metadata
     id="metadata7">
    <rdf:RDF>
      <cc:Work
         rdf:about="">
        <dc:format>image/svg+xml</dc:format>
        <dc:type
           rdf:resource="http://purl.org/dc/dcmitype/StillImage" />
      </cc:Work>
    </rdf:RDF>
  </metadata>
  <g
     inkscape:label="Layer 1"
     inkscape:groupmode="layer"
     id="layer1">
    <path
       style="color:#000000;font-style:normal;font-variant:normal;font-weight:normal;font-stretch:normal;font-size:medium;line-height:normal;font-family:sans-serif;font-variant-ligatures:normal;font-variant-position:normal;font-variant-caps:normal;font-variant-numeric:normal;font-variant-alternates:normal;font-feature-settings:normal;text-indent:0;text-align:start;text-decoration:none;text-decoration-line:none;text-decoration-style:solid;text-decoration-color:#000000;letter-spacing:normal;word-spacing:normal;text-transform:none;writing-mode:lr-tb;direction:ltr;text-orientation:mixed;dominant-baseline:auto;baseline-shift:baseline;text-anchor:start;white-space:normal;shape-padding:0;clip-rule:nonzero;display:inline;overflow:visible;visibility:visible;opacity:1;isolation:auto;mix-blend-mode:normal;color-interpolation:sRGB;color-interpolation-filters:linearRGB;solid-color:#000000;solid-opacity:1;vector-effect:none;fill:#ffffff;fill-opacity:1;fill-rule:evenodd;stroke:none;stroke-width:6;stroke-linecap:round;stroke-linejoin:round;stroke-miterlimit:4;stroke-dasharray:none;stroke-dashoffset:0;stroke-opacity:1;color-rendering:auto;image-rendering:auto;shape-rendering:auto;text-rendering:auto;enable-background:accumulate"
       d="m 132.38086,26.535156 v 0.002 c -3.20825,0.157055 -5.93218,2.496604 -6.57031,5.644532 -0.4648,2.247846 -0.50532,4.249523 -0.64258,5.841797 -0.0653,0.757027 -0.17205,1.498492 -0.27539,2.058593 -0.0773,0.419186 -0.11455,0.524015 -0.10156,0.529297 -0.045,0.06957 -0.0675,0.117836 -0.13086,0.189453 -0.24897,0.2814 -0.65338,0.701833 -1.18555,1.203125 C 122.4515,42.967654 120.65774,44.543089 119.23438,47 H 47 v 81.05273 c -5.085993,2.29007 -10.067249,4.7877 -13.806641,5.91993 h -0.002 c -1.974897,0.5994 -3.592381,2.03815 -4.417968,3.92968 -0.825588,1.89154 -0.780301,4.05451 0.123046,5.91016 1.998328,4.11347 5.038061,6.52569 7.013672,7.93945 1.890052,1.35254 2.475248,1.72431 3.058594,2.64063 0.105865,0.16629 0.71801,2.27306 1.291016,5.69726 0.388301,2.32044 1.150428,5.17671 2.166015,8.22461 -0.601878,0.44045 -1.053017,0.73671 -1.921875,1.43555 -2.721678,2.17372 -3.445782,6.07245 -1.685547,9.07812 l 0.002,0.004 c 1.89995,3.23543 4.731786,4.7296 6.246094,5.625 0.774231,0.4578 1.408905,0.85258 1.933594,1.21289 v 22.72461 c -0.514978,1.48937 -0.518451,3.11135 0,4.60938 V 253 h 11.226562 c -0.0083,0.0905 -0.02226,0.17844 -0.0293,0.26953 -0.139002,1.80004 -0.169244,3.35808 -0.166016,4.48438 0.0012,0.41083 0.0074,0.6904 0.01367,0.97461 -0.252009,0.48071 -0.513317,0.87886 -0.785156,1.6621 -0.670888,1.93237 -0.46886,4.06575 0.552734,5.8379 0.782801,1.35792 2.060944,2.26142 3.486328,2.85156 0.276751,0.74931 0.551989,1.7707 0.734375,2.16015 0.135139,0.28857 0.281081,0.68772 0.4375,1.08008 0.0391,0.0981 0.06882,0.18606 0.169922,0.38867 0.0075,0.015 0.0412,0.062 0.04883,0.0781 0.343167,1.67577 0.977492,3.80171 2.96875,5.73828 l 0.0039,0.004 c 2.490998,2.41349 6.429261,2.64585 9.1875,0.54297 v 0.002 c 0.881018,-0.67146 1.324881,-1.16031 1.664063,-1.50391 0.219739,-0.0163 0.521193,-0.10094 0.80664,-0.13867 1.032472,0.74791 2.181854,1.31398 3.476563,1.42188 1.987905,0.16566 3.956999,-0.52029 5.412109,-1.88477 l 0.002,-0.002 c 1.317295,-1.23857 1.551599,-1.58736 1.488281,-1.61914 0.474822,-0.15464 0.988579,-0.34361 1.642578,-0.64454 1.477645,-0.67986 3.440776,-1.78066 5.408203,-3.44335 0.92744,-0.7838 1.325679,-1.44973 1.890625,-2.17579 1.5964,0.25298 3.35261,0.29268 5.218755,-0.52343 0.002,-6.5e-4 0.004,-0.001 0.006,-0.002 0.16887,-0.0743 0.26079,-0.24553 0.42188,-0.33203 1.09911,1.81654 2.9747,3.10417 5.15625,3.375 2.18863,0.27301 3.93592,-0.43095 5.44726,-1.34179 1.34661,0.72076 2.6804,1.30236 3.89063,1.67187 2.21017,0.67481 4.29308,1.26074 5.02344,1.58789 l 0.004,0.002 c 1.8759,0.83711 4.02897,0.81425 5.88672,-0.0625 1.85775,-0.87668 3.24463,-2.52371 3.79102,-4.5039 0.001,-0.007 0.003,-0.013 0.004,-0.0195 0.67771,-2.51701 0.3425,-4.63151 0.0606,-5.88672 0.081,-0.1384 0.1088,-0.1977 0.2207,-0.37891 0.17396,-0.28167 0.38903,-0.71229 0.58399,-1.05859 2.52999,-0.71355 4.56269,-2.75395 5.0625,-5.4375 0.0372,-0.1998 -0.0282,-0.33255 -0.006,-0.52735 2.4478,2.90136 5.79426,4.44288 8.85351,5.19922 0.63651,0.16211 1.29158,0.23409 1.94727,0.21485 0.0111,6e-5 0.0221,6e-5 0.0332,0 5.72921,-0.23116 9.95179,-3.8185 13.11719,-8.06055 h 1.20117 c -0.14138,0.89894 -0.20264,1.9916 0.0176,3.17383 0.49979,2.68344 2.53269,4.72385 5.0625,5.4375 0.19496,0.3463 0.41003,0.77692 0.58399,1.05859 0.1119,0.1812 0.13967,0.24052 0.2207,0.37891 -0.282,1.25521 -0.61722,3.36971 0.0606,5.88672 0.002,0.007 0.004,0.013 0.006,0.0195 0.5464,1.98019 1.93132,3.62722 3.78907,4.5039 1.85773,0.87669 4.01084,0.89955 5.88672,0.0625 l 0.004,-0.002 c 0.73033,-0.32714 2.81522,-0.91308 5.02539,-1.58789 1.20971,-0.36935 2.54266,-0.94966 3.88868,-1.66992 1.51166,0.9108 3.26213,1.61341 5.45117,1.33984 2.17997,-0.27185 4.05387,-1.55947 5.15234,-3.375 0.16281,0.0873 0.25702,0.25916 0.42773,0.33399 h 0.002 c 1.86564,0.81594 3.62062,0.7762 5.2168,0.52343 0.56498,0.72617 0.96496,1.39185 1.89257,2.17579 1.96743,1.6627 3.93056,2.76347 5.40821,3.44335 0.65486,0.30132 1.16731,0.49181 1.64257,0.64649 -0.0623,0.0328 0.17005,0.37955 1.48633,1.61719 l 0.004,0.002 c 1.45511,1.36448 3.4242,2.05043 5.41211,1.88477 1.29428,-0.10786 2.4443,-0.67246 3.47656,-1.41993 0.28519,0.0377 0.58718,0.12045 0.80664,0.13672 0.3392,0.34362 0.78119,0.83253 1.66211,1.50391 v -0.002 c 2.75824,2.10288 6.6965,1.87052 9.1875,-0.54297 l 0.004,-0.004 c 1.99124,-1.93655 2.62558,-4.06249 2.96875,-5.73828 0.008,-0.0162 0.0413,-0.0631 0.0488,-0.0781 0.1011,-0.2026 0.13277,-0.29058 0.17187,-0.38867 0.15642,-0.39235 0.3004,-0.7915 0.43555,-1.08008 0.18237,-0.38944 0.45762,-1.41084 0.73437,-2.16015 1.42539,-0.59014 2.70353,-1.49365 3.48633,-2.85156 1.02159,-1.77214 1.22363,-3.90552 0.55273,-5.8379 -0.27201,-0.78368 -0.53292,-1.18118 -0.78515,-1.6621 0.006,-0.28421 0.0125,-0.56378 0.0137,-0.97461 0.003,-1.1263 -0.0251,-2.68433 -0.16406,-4.48438 -0.007,-0.0911 -0.021,-0.17906 -0.0293,-0.26953 H 253 v -39.99609 c 0.51935,-1.49999 0.51658,-3.12428 0,-4.61524 V 195.4375 c 1.86055,-1.05996 3.62911,-2.31905 5.23828,-3.87109 6.22065,-5.99981 8.69954,-11.73275 10.93945,-13.28711 v -0.002 c 1.78048,-1.23355 2.8982,-3.22238 3.02539,-5.38476 0.12708,-2.16044 -0.74829,-4.2655 -2.36914,-5.69922 -0.62608,-0.55807 -1.28862,-0.97571 -1.94726,-1.4043 2.39376,-3.04448 4.35321,-6.1829 5.61133,-9.05468 1.88194,-4.29578 2.56591,-8.38632 3.49414,-12.07422 0.92822,-3.68791 2.03528,-6.95867 4.58789,-10.2168 h 0.002 c 1.31632,-1.68128 1.79999,-3.87574 1.31445,-5.95508 -0.48552,-2.07932 -1.89162,-3.83138 -3.8164,-4.75586 -0.004,-0.001 -0.008,-0.003 -0.0117,-0.004 -6.43002,-3.05552 -14.06329,-3.39154 -20.75,-3.19532 -0.66632,0.0196 -1.11039,0.10508 -1.69922,0.1543 -0.0145,-1.47218 -0.23651,-3.02115 -0.85937,-4.59961 v -0.002 C 255.21031,114.69218 254.23152,113.53653 253,112.74609 V 47 h -80.04102 c -0.22541,-0.378151 -0.28279,-0.64551 -0.44921,-1.556641 -0.17841,-0.976712 -0.45241,-2.503079 -1.22266,-4.427734 -0.75255,-1.897104 -2.29304,-3.380035 -4.21875,-4.056641 -1.92798,-0.677395 -4.06093,-0.483276 -5.83594,0.529297 -0.002,0.0013 -0.004,0.0026 -0.006,0.0039 -1.23661,0.709614 -2.22209,1.567632 -3.08203,2.460937 -0.36798,-0.405347 -0.65555,-0.883327 -1.05469,-1.259766 -2.73204,-2.576716 -5.76546,-3.71136 -8.08789,-4.746093 -1.14098,-0.508355 -2.29913,-1.076136 -3.16406,-1.515625 -0.43247,-0.219745 -0.7916,-0.407933 -1.03906,-0.539063 -0.0578,-0.0306 -0.0843,-0.04643 -0.12891,-0.07031 0.0867,0.07413 0.18109,0.151221 0.26563,0.224609 4.6e-4,4.05e-4 -0.32298,-0.244071 -0.36328,-0.269531 -0.0303,-0.01912 -0.0388,-0.0261 -0.0508,-0.0332 0.0305,0.01664 0.0975,0.05084 0.14844,0.07813 -2.73377,-2.338993 -6.51034,-5.002168 -11.5625,-5.28711 -0.007,-2.1e-5 -0.013,-2.1e-5 -0.0195,0 -0.12954,-0.0065 -0.25902,-6.47e-4 -0.38867,0 -0.10425,5.21e-4 -0.20835,-0.0051 -0.3125,0 -0.002,9.7e-5 -0.004,-9.8e-5 -0.006,0 z M 143.13867,253 h 10.07227 c -1.58187,1.24744 -3.28902,1.9827 -5.19727,2.0625 -0.0917,8.1e-4 -0.18334,-0.009 -0.27148,-0.0312 -0.008,-0.002 -0.0169,-0.004 -0.0254,-0.006 -1.74666,-0.43069 -3.32107,-1.068 -4.57813,-2.02539 z m -82.039061,3.50391 c -4.9e-4,-1e-5 0.355459,0.0235 0.458985,0.041 0.103525,0.0175 0.166406,0.0326 0.208984,0.043 0.08516,0.0208 0.08693,0.0222 0.05469,0.0137 -0.107482,-0.0286 -0.635796,-0.0742 -1.113282,-0.0449 0.19354,-0.0259 0.390847,-0.0527 0.390625,-0.0527 z m 177.802731,0 c -2.2e-4,0 0.19664,0.0268 0.39063,0.0527 -0.47818,-0.0298 -1.00555,0.0163 -1.11328,0.0449 -0.0323,0.009 -0.0324,0.007 0.0527,-0.0137 0.0426,-0.0104 0.10744,-0.0255 0.21094,-0.043 0.10349,-0.0175 0.45947,-0.041 0.45898,-0.041 z m -178.550778,0.0996 c -0.15887,0.0366 -0.252773,0.11157 -0.388671,0.16406 0.09763,-0.0534 0.271575,-0.14847 0.271484,-0.14844 -5.2e-5,2e-5 0.08977,-0.012 0.117187,-0.0156 z m 179.296878,0 c 0.0275,0.004 0.11724,0.0156 0.11718,0.0156 -9e-5,-3e-5 0.17388,0.0951 0.27149,0.14844 -0.13587,-0.0525 -0.22983,-0.12745 -0.38867,-0.16406 z m -178.027346,5.81836 c -0.03221,0.007 -0.04085,0.0254 -0.07422,0.0312 -0.04824,0.009 -0.06594,-0.009 -0.115234,-0.004 0.09459,-0.0127 0.108861,-0.0167 0.189453,-0.0273 z m 176.759766,0 c 0.0801,0.0107 0.0939,0.0148 0.1875,0.0273 -0.0493,-0.005 -0.067,0.0125 -0.11524,0.004 -0.0327,-0.006 -0.0407,-0.0247 -0.0723,-0.0312 z m -175.804688,7.20898 c 0.01022,0.002 -3.08e-4,-0.002 0.0098,0 l 0.002,0.002 z m 148.214848,3.12891 c 6e-4,0.01 0.001,0.0195 0.002,0.0293 -9e-5,-5.8e-4 -0.004,-0.0195 -0.004,-0.0195 0,1e-5 0.002,-0.01 0.002,-0.01 z m 0.17773,0.89062 c 0.009,0.0229 0.018,0.0457 0.0273,0.0684 -0.007,-0.018 -0.0125,-0.0164 -0.0195,-0.0352 -0.003,-0.009 -0.005,-0.0234 -0.008,-0.0332 z m -121.939453,0.006 c -0.0025,0.007 -0.0034,0.0187 -0.0059,0.0254 -0.0065,0.0172 -0.01304,0.0147 -0.01953,0.0312 0.0087,-0.0188 0.01712,-0.0377 0.02539,-0.0566 z m 122.437503,0.85742 c 0.0229,0.0297 0.0463,0.059 0.0703,0.0879 -0.0212,-0.0238 -0.02,-0.012 -0.043,-0.0391 -0.008,-0.009 -0.0192,-0.0392 -0.0273,-0.0488 z m -122.93555,0.008 c -0.0066,0.008 -0.01705,0.0316 -0.02344,0.0391 -0.02185,0.0257 -0.02076,0.0143 -0.04102,0.0371 0.02191,-0.025 0.04339,-0.0504 0.06445,-0.0762 z m -12.966797,3.21485 c 0.04413,-0.005 0.06373,-0.007 -0.05859,0.0117 l 0.0059,-0.006 h 0.002 c 0.01974,-0.003 0.02589,-0.003 0.05078,-0.006 z m 148.925777,0.006 c 0.005,2.1e-4 0.0304,0.006 0.0352,0.006 -0.0497,-0.007 -0.23742,-0.0312 -0.0273,0 z"
       id="path324"
       inkscape:connector-curvature="0"
       sodipodi:nodetypes="cccccccscccccccccsccccccccccccccsccccccccccccccccccccccccccccccccccccccccccccccccscccccccccccccccccccccccccccccccccscccccccccccccccccccccccccccccccccccccccccccccccccccsccccsccccccccccccccccccccccccccccccccccccccccccccccccc" />
    <g
       id="g2459">
      <path
         id="path4280"
         d="M 132.53165,29.531256 C 130.67554,29.620445 129.11746,30.959617 128.7504,32.781256 C 128.35175,34.704002 128.30534,36.556402 128.15665,38.281256 C 128.00796,40.00611 127.6891,41.572509 127.5004,42.000006 C 127.37249,42.289788 126.70372,43.083444 125.53165,44.187506 C 124.35958,45.291568 122.7452,46.706959 121.5629,48.968756 C 120.76001,50.504716 120.30704,52.110489 119.90665,53.750006 C 118.16412,52.895997 116.39856,52.258999 115.03165,51.875006 C 113.87889,51.553493 112.64298,51.757497 111.6547,52.432422 C 110.66642,53.107346 110.02666,54.184283 109.90665,55.375006 C 109.58641,58.533491 110.01071,61.222457 109.2504,64.281256 C 108.76984,66.214607 104.1212,72.398923 102.5629,82.437506 C 101.54,89.027048 102.28595,93.632472 103.15665,97.406256 C 101.74288,97.573668 100.33013,97.792334 99.03165,98.250006 C 95.999901,99.318598 93.196563,101.17029 91.71915,104.28126 C 90.835058,106.11708 91.450283,108.32387 93.15665,109.43751 C 94.535487,110.33185 94.927058,110.67099 95.4379,111.18751 C 95.948742,111.70402 96.684274,112.58865 98.09415,113.90626 C 98.566967,114.34813 99.919774,116.36682 101.4379,118.84376 C 102.27584,120.21091 103.266,121.73689 104.3754,123.28126 C 101.34506,122.18695 98.344789,121.301 95.46915,120.81251 C 86.442137,119.27905 78.990884,117.07529 74.84415,113.96876 C 73.466509,112.93654 71.587345,112.88643 70.15665,113.84376 C 67.120686,115.88008 65.807378,119.43701 65.8754,122.18751 C 65.927418,124.29089 66.518898,125.97224 67.09415,127.40626 C 66.266936,127.17552 65.403704,126.97552 64.4379,126.84376 C 58.959118,126.09631 53.794486,128.2964 48.65665,130.59376 C 43.518814,132.89112 38.355954,135.5439 34.0629,136.84376 C 32.926668,137.18862 31.99863,138.01408 31.523639,139.10235 C 31.048648,140.19062 31.074418,141.43238 31.59415,142.50001 C 33.277155,145.96524 35.804653,147.98721 37.65665,149.31251 C 39.508647,150.63781 40.584033,151.34184 41.5004,152.78126 C 42.254757,153.96619 42.644026,156.15689 43.21915,159.59376 C 43.666132,162.26487 44.531865,165.69181 45.9379,169.43751 C 44.874716,170.18582 43.997972,170.78816 42.3754,172.09376 C 40.800978,173.3512 40.3884,175.5738 41.40665,177.31251 C 42.865863,179.79741 44.979582,180.92033 46.59415,181.87501 C 48.208718,182.82969 49.501866,183.62448 50.46915,184.65626 C 53.055152,187.41469 55.717319,192.27164 60.4379,195.18751 C 62.128839,196.23199 64.051154,196.91279 66.03165,197.43751 C 64.268228,197.95797 63.075508,199.59956 63.1254,201.43751 C 62.082435,201.73742 61.117623,202.10202 60.34415,202.46876 C 56.55916,204.26337 55.449852,206.22074 52.8754,206.71876 C 51.670893,206.95583 50.638578,207.7257 50.067822,208.81256 C 49.497066,209.89943 49.449295,211.18632 49.9379,212.31251 C 51.135,215.05144 53.124349,216.91434 55.0629,218.53126 C 54.943568,218.77433 54.75436,218.91052 54.65665,219.18751 C 54.224008,220.41137 54.403308,221.76837 55.138969,222.83786 C 55.874629,223.90735 57.077759,224.5601 58.3754,224.59376 C 58.744463,224.60234 57.706012,224.02932 58.65665,224.96876 C 59.082473,225.38957 60.572121,227.96949 63.09415,230.12501 C 63.901106,230.8147 64.796183,231.29464 65.6879,231.81251 C 65.491732,233.01605 65.847488,234.24398 66.65665,235.15626 C 65.235646,236.49921 63.933024,237.90771 62.96915,239.68751 C 62.097058,241.28088 62.390702,243.25978 63.6879,244.53126 C 63.778529,244.62012 63.93174,244.63328 64.03165,244.71876 C 62.463885,247.2479 61.445741,250.16103 61.1879,253.50001 C 60.925395,256.8994 61.074816,259.4214 61.0629,259.50001 C 61.057095,259.53831 60.857994,259.17415 60.09415,261.37501 C 59.708174,262.48674 59.8241,263.7113 60.411839,264.73084 C 60.999578,265.75039 62.001172,266.46439 63.15665,266.68751 C 63.346571,266.72486 63.451901,266.69585 63.6254,266.71876 C 63.881917,268.22061 64.368829,269.15398 64.7504,269.96876 C 65.185485,270.89782 65.468645,271.97247 65.34415,271.09376 C 65.565055,272.65296 65.905406,274.58069 67.7504,276.37501 C 69.191241,277.77102 71.436232,277.90386 73.03165,276.68751 C 73.889567,276.03366 74.362911,275.49622 74.78165,275.09376 C 75.076488,274.81039 75.05597,274.80254 75.0629,274.78126 C 75.145109,274.76897 75.176509,274.75731 75.34415,274.75001 C 75.886492,274.7264 76.922783,274.69404 78.15665,274.28126 C 78.85227,275.19394 79.901961,275.76922 81.045545,275.86452 C 82.18913,275.95982 83.319561,275.56621 84.15665,274.78126 C 85.527188,273.49263 85.754693,272.94172 86.2504,272.59376 C 85.816998,272.89798 89.395093,271.85719 92.8129,268.96876 C 94.055209,267.91887 94.773689,266.86136 95.5004,265.84376 C 96.998284,266.37672 98.755289,266.64408 100.65665,265.81251 C 101.92475,265.25458 102.82033,264.08796 103.03165,262.71876 C 103.73623,263.85941 104.21079,264.82001 104.34415,265.43751 C 104.70161,267.13143 106.09486,268.41172 107.8129,268.62501 C 109.77286,268.86996 111.65446,267.86822 112.8129,266.78126 C 114.41231,267.90255 116.09642,268.58614 117.65665,269.06251 C 119.7886,269.71344 121.81888,270.23802 123.03165,270.78126 C 124.11091,271.26287 125.34655,271.24977 126.41535,270.74539 C 127.48416,270.24101 128.2798,269.29552 128.59415,268.15626 C 129.1108,266.23743 128.8153,264.39611 128.59415,263.46876 C 128.373,262.54141 128.36553,262.53483 128.3754,262.46876 C 128.34054,262.70219 128.50491,262.25027 129.21915,261.09376 C 129.56642,260.53146 129.98779,259.79091 130.40665,258.93751 C 132.38828,258.97428 134.10625,257.57348 134.46915,255.62501 C 134.81626,253.76162 134.26411,252.48013 134.03165,251.78126 C 133.79919,251.08239 133.75319,250.82348 133.7504,250.75001 C 133.71209,249.74227 134.35046,247.65111 133.40665,244.62501 C 133.27212,244.19367 132.98546,243.96263 132.8129,243.59376 C 132.81294,243.58334 132.81294,243.57293 132.8129,243.56251 C 132.88904,243.37984 132.95171,243.19183 133.0004,243.00001 C 133.5888,240.78113 133.25469,238.13747 132.09415,236.15626 C 130.50323,233.44032 128.3818,231.69349 124.8129,230.81251 C 122.54493,230.25265 119.90068,229.60137 118.6879,228.75001 C 117.10171,227.63651 114.21862,224.07352 114.0004,223.12501 C 113.88546,222.62544 113.9273,221.02109 114.2504,219.56251 C 114.5735,218.10393 115.23229,216.63326 115.34415,216.46876 C 116.03428,215.45388 115.93075,215.68819 116.84415,215.50001 C 116.64378,215.54129 117.33137,215.48413 117.84415,215.53126 C 118.11848,215.55647 118.15484,215.57073 118.3129,215.59376 C 118.33358,215.59677 118.35739,215.59104 118.3754,215.59376 C 119.42508,215.89451 120.55168,215.75932 121.5004,215.21876 C 123.29886,214.18823 124.97491,212.45046 125.3754,210.18751 C 125.77589,207.92456 124.86228,206.03042 123.9379,204.71876 C 123.71657,204.41288 123.45361,204.13941 123.15665,203.90626 C 120.46061,201.74909 117.7817,202.18792 115.28165,202.90626 C 112.7816,203.6246 110.2446,205.07676 108.21915,207.40626 C 106.31758,209.59329 105.46959,211.63774 104.78165,212.71876 C 104.09371,213.79978 103.91088,214.08496 102.40665,214.59376 C 99.911571,215.43771 98.75726,214.71438 96.5629,212.84376 C 95.969143,212.3376 95.677865,211.80942 95.2504,210.59376 C 95.028429,209.9625 94.559654,208.8665 94.2504,207.96876 C 94.534544,207.84124 94.846617,207.83022 95.1254,207.68751 C 100.22577,205.07658 107.28399,201.16463 113.40665,200.53126 C 119.97037,199.85227 132.25102,201.27909 137.1879,204.87501 C 139.67817,206.68886 142.64332,210.55531 144.84415,214.62501 C 147.04498,218.69471 148.53121,223.10545 148.78165,225.21876 C 149.38216,230.28606 148.04274,232.16633 146.1879,234.59376 C 145.65335,235.29332 144.09475,236.68036 142.7504,237.65626 C 141.70436,238.41561 141.18769,238.69266 140.84415,238.90626 C 139.67234,239.31341 138.7513,240.23445 138.34415,241.40626 C 136.91547,245.50602 136.87241,249.47829 138.7504,252.56251 C 140.62839,255.64673 143.8312,257.15605 147.0004,257.93751 C 147.36771,258.03156 147.7464,258.07363 148.1254,258.06251 C 153.38016,257.8505 157.21388,254.04945 160.28165,249.31251 C 163.34942,244.57557 165.52796,238.39922 165.53165,231.68751 C 165.53523,225.16013 163.87366,220.16605 163.2504,216.03126 C 162.62714,211.89647 162.64874,208.73857 165.53165,203.81251 C 170.39711,195.49881 177.36191,193.86147 186.0629,193.78126 C 189.75342,193.74724 192.6901,194.98868 196.0629,196.90626 C 199.4357,198.82384 203.07219,201.43855 207.78165,203.25001 C 207.8648,203.28199 207.97862,203.31202 208.0629,203.34376 C 207.56776,204.07586 207.03232,204.82434 206.65665,205.53126 C 205.57642,207.56402 205.17786,209.3781 204.7504,210.59376 C 204.32294,211.80942 204.03165,212.33761 203.4379,212.84376 C 201.24354,214.71438 200.08923,215.43771 197.59415,214.59376 C 196.08992,214.08496 195.90709,213.79978 195.21915,212.71876 C 194.53121,211.63774 193.68321,209.59329 191.78165,207.40626 C 189.7562,205.07676 187.2192,203.6246 184.71915,202.90626 C 182.2191,202.18792 179.54019,201.74908 176.84415,203.90626 C 176.54719,204.13941 176.28423,204.41288 176.0629,204.71876 C 175.13852,206.03042 174.22491,207.92456 174.6254,210.18751 C 175.02589,212.45046 176.70194,214.18823 178.5004,215.21876 C 179.42767,215.75288 180.52845,215.8989 181.5629,215.62501 C 181.59428,215.61497 181.62553,215.60456 181.65665,215.59376 C 181.81436,215.57034 181.86437,215.55812 182.15665,215.53126 C 182.66943,215.48413 183.35702,215.54129 183.15665,215.50001 C 184.07006,215.68819 183.96652,215.45388 184.65665,216.46876 C 184.76852,216.63327 185.42729,218.10393 185.7504,219.56251 C 186.07351,221.02109 186.11534,222.62545 186.0004,223.12501 C 185.78218,224.0735 182.89909,227.63651 181.3129,228.75001 C 180.10009,229.60139 177.45587,230.25266 175.1879,230.81251 C 171.619,231.69349 169.49757,233.44032 167.90665,236.15626 C 166.74611,238.13747 166.412,240.78113 167.0004,243.00001 C 167.04909,243.19183 167.11176,243.37984 167.1879,243.56251 C 167.01056,243.93861 166.73177,244.18378 166.59415,244.62501 C 165.65037,247.65108 166.28871,249.74226 166.2504,250.75001 C 166.24761,250.82348 166.20161,251.08239 165.96915,251.78126 C 165.73669,252.48013 165.18454,253.76162 165.53165,255.62501 C 165.89455,257.57348 167.61252,258.97428 169.59415,258.93751 C 170.01301,259.79091 170.43438,260.53146 170.78165,261.09376 C 171.49589,262.25027 171.66026,262.70218 171.6254,262.46876 C 171.63527,262.53483 171.6278,262.54141 171.40665,263.46876 C 171.1855,264.39611 170.89,266.23744 171.40665,268.15626 C 171.721,269.29552 172.51664,270.24101 173.58545,270.74539 C 174.65425,271.24977 175.88989,271.26287 176.96915,270.78126 C 178.18191,270.23802 180.2122,269.71344 182.34415,269.06251 C 183.90438,268.58614 185.58849,267.90255 187.1879,266.78126 C 188.34635,267.86822 190.22795,268.86995 192.1879,268.62501 C 193.90594,268.41172 195.29919,267.13143 195.65665,265.43751 C 195.78927,264.8234 196.2713,263.88231 196.96915,262.75001 C 197.19033,264.10751 198.08442,265.26041 199.34415,265.81251 C 201.2455,266.64407 203.00251,266.37672 204.5004,265.84376 C 205.22711,266.86136 205.94559,267.91887 207.1879,268.96876 C 210.60571,271.8572 214.18382,272.89799 213.7504,272.59376 C 214.24611,272.94172 214.47363,273.49263 215.84415,274.78126 C 216.68124,275.56621 217.81167,275.95982 218.95525,275.86452 C 220.09884,275.76922 221.14853,275.19394 221.84415,274.28126 C 223.07802,274.69404 224.11431,274.7264 224.65665,274.75001 C 224.82429,274.75731 224.85569,274.76897 224.9379,274.78126 C 224.94483,274.80254 224.92431,274.81038 225.21915,275.09376 C 225.63789,275.49622 226.11123,276.03366 226.96915,276.68751 C 228.56457,277.90386 230.80956,277.77102 232.2504,276.37501 C 234.09538,274.5807 234.43575,272.65298 234.65665,271.09376 C 234.53215,271.97244 234.81531,270.89782 235.2504,269.96876 C 235.63197,269.15397 236.11889,268.22061 236.3754,266.71876 C 236.5489,266.69585 236.65423,266.72486 236.84415,266.68751 C 237.99963,266.46439 239.00122,265.75039 239.58896,264.73084 C 240.1767,263.7113 240.29263,262.48674 239.90665,261.37501 C 239.14279,259.17424 238.9437,259.5383 238.9379,259.50001 C 238.92599,259.42142 239.07541,256.89941 238.8129,253.50001 C 238.55506,250.16103 237.53691,247.2479 235.96915,244.71876 C 236.06906,244.63328 236.22227,244.62012 236.3129,244.53126 C 237.6101,243.25978 237.90374,241.28088 237.03165,239.68751 C 236.06778,237.90773 234.76516,236.49922 233.34415,235.15626 C 234.15331,234.24398 234.50907,233.01605 234.3129,231.81251 C 235.20462,231.29464 236.09969,230.8147 236.90665,230.12501 C 239.42865,227.9695 240.91831,225.38958 241.34415,224.96876 C 242.2948,224.02931 241.25633,224.60234 241.6254,224.59376 C 242.92304,224.5601 244.12617,223.90735 244.86183,222.83786 C 245.59749,221.76837 245.77679,220.41137 245.34415,219.18751 C 245.24644,218.91052 245.05723,218.77433 244.9379,218.53126 C 246.87645,216.91434 248.8658,215.05144 250.0629,212.31251 C 250.5515,211.18632 250.50373,209.89943 249.93298,208.81256 C 249.36222,207.7257 248.32991,206.95583 247.1254,206.71876 C 246.45794,206.58964 245.88696,206.35908 245.34415,206.06251 C 246.37259,204.8685 246.6163,203.18686 245.96915,201.75001 C 245.03727,199.67967 243.93242,198.06353 242.78165,196.62501 C 247.66862,195.2826 252.40607,193.02368 256.15665,189.40626 C 261.90526,183.86173 263.91888,178.27443 267.46915,175.81251 C 268.49413,175.1027 269.1357,173.96093 269.20891,172.71632 C 269.28212,171.47171 268.77884,170.26259 267.84415,169.43751 C 266.43658,168.18121 264.90228,167.3574 263.3129,166.75001 C 266.79782,163.21116 269.17778,159.12093 270.7504,155.53126 C 274.15564,147.75839 273.41109,140.00715 279.21915,132.59376 C 279.97657,131.62634 280.25462,130.36772 279.97524,129.17126 C 279.69586,127.97479 278.88918,126.96946 277.78165,126.43751 C 272.14196,123.75756 264.89975,123.34072 258.40665,123.53126 C 256.50534,123.58705 254.96751,123.82058 253.28165,124.00001 C 253.72348,121.81713 253.89079,119.52195 252.96915,117.18751 C 252.49147,115.97499 251.46024,115.06587 250.1974,114.74398 C 248.93457,114.42208 247.59398,114.72661 246.59415,115.56251 C 244.94915,116.92542 244.89119,117.0873 240.6254,116.81251 C 237.21474,116.5928 230.3764,114.16267 223.3129,114.21876 C 219.91162,114.24577 216.38713,114.78627 213.21915,115.65626 C 212.3254,115.9017 211.54684,116.24075 210.71915,116.53126 C 210.43895,115.59507 210.16155,114.73357 209.84415,113.37501 C 209.51714,112.00531 208.50306,110.90326 207.16524,110.46369 C 205.82741,110.02411 204.35732,110.30994 203.28165,111.21876 C 202.35349,112.01428 200.63705,112.83255 198.84415,113.68751 C 199.21751,112.24662 199.6305,110.78518 199.8754,109.37501 C 201.13463,102.1241 201.64282,95.996214 200.21915,89.593756 C 199.83346,87.818235 198.31402,86.515853 196.5004,86.406256 C 194.44885,86.282204 192.46769,86.724255 191.03165,87.531256 C 190.44598,87.860381 190.29986,88.088913 189.90665,88.406256 C 190.07757,87.270815 190.30451,86.17733 190.2504,84.812506 C 189.94232,77.041829 186.67736,69.09442 180.90665,61.312506 C 175.88203,54.53672 171.64559,50.544531 170.46915,48.687506 C 169.32807,46.886301 169.83833,45.46421 168.5004,42.125006 C 168.06801,41.03173 167.18249,40.179876 166.07329,39.790155 C 164.96408,39.400435 163.74035,39.511202 162.71915,40.093756 C 160.70344,41.250445 159.4242,42.885035 158.1879,44.656256 C 157.20806,43.237955 156.17127,41.949828 155.03165,40.875006 C 152.79828,38.768615 150.2011,37.765467 147.78165,36.687506 C 145.3622,35.609545 142.99903,34.338445 142.96915,34.312506 C 140.38728,32.071174 137.14796,29.768704 132.9379,29.531256 C 132.80257,29.52447 132.66698,29.52447 132.53165,29.531256 L 132.53165,29.531256 z"
         style="fill:#000000;fill-rule:evenodd;stroke:none;stroke-width:2;stroke-linecap:round;stroke-linejoin:round;stroke-miterlimit:4;stroke-opacity:1" />
      <rect
         y="55.000008"
         x="55.000401"
         height="190"
         width="190"
         id="rect4282"
         style="fill:#ffffff;fill-opacity:1;stroke:none;stroke-width:2;stroke-linecap:round;stroke-linejoin:round;stroke-miterlimit:4;stroke-dasharray:none;stroke-opacity:1" />
      <path
         id="rect3816"
         d="M 50.0004,50.000006 L 50.0004,250.00001 L 250.0004,250.00001 L 250.0004,50.000006 L 50.0004,50.000006 z M 62.5004,62.500006 L 237.5004,62.500006 L 237.5004,237.50001 L 62.5004,237.50001 L 62.5004,62.500006 z"
         style="fill:#000000;fill-opacity:1;stroke:none;stroke-width:2;stroke-linecap:round;stroke-linejoin:round;stroke-miterlimit:4;stroke-dasharray:none;stroke-opacity:1" />
      <rect
         y="67.500008"
         x="67.500397"
         height="165"
         width="165"
         id="rect3821"
         style="fill:#000000;fill-opacity:1;stroke:none;stroke-width:2;stroke-linecap:round;stroke-linejoin:round;stroke-miterlimit:4;stroke-dasharray:none;stroke-opacity:1" />
      <rect
         y="190.88792"
         x="232.74931"
         height="8.1820726"
         width="9.4347029"
         id="rect4558"
         style="fill:#000000;fill-opacity:1;stroke:none;stroke-width:2;stroke-linecap:round;stroke-linejoin:round;stroke-miterlimit:4;stroke-dasharray:none;stroke-opacity:1" />
      <path
         sodipodi:nodetypes="cssssccssccsscssccsssssscscscszssccsscccsccsccssssccczzzzzzcczzcczczzzzczzzzz"
         d="M 146.13946,175.03126 C 147.33639,174.12092 147.24366,172.30027 146.55645,168.78771 C 145.3254,162.49541 138.01022,149.42207 130.81075,139.97521 C 123.5202,130.40882 114.77948,128.91311 110.33985,124.2252 C 105.90023,119.5373 103.42231,113.33236 100.86895,110.9461 C 98.315592,108.55984 98.436358,108.02502 95.362507,106.03126 C 97.029875,102.5203 102.76538,100.52775 108.2504,101.46876 C 107.28736,97.099596 105.19495,91.874826 106.5629,83.062506 C 107.96426,74.034896 112.21662,69.123005 113.1793,65.250006 C 114.14199,61.377008 113.70585,58.002092 113.93145,55.776958 C 116.81214,56.586205 120.52084,57.907642 122.8711,61.268363 C 123.13523,57.043134 123.63596,53.736265 125.1502,50.839458 C 126.66444,47.942652 130.04491,46.268496 131.2127,43.622857 C 132.38049,40.977217 132.1486,36.309853 132.71485,33.578715 C 135.32895,33.72615 138.09444,35.445136 140.31505,37.372857 C 142.53566,39.300578 149.63909,41.349666 152.2504,43.812506 C 154.86171,46.275346 156.96486,49.293684 157.7504,53.875006 C 159.10487,50.111784 162.32308,45.031667 164.76114,43.63262 C 165.49236,45.457602 165.22819,47.975729 167.04239,50.839458 C 168.85659,53.703188 172.86101,57.243054 177.6631,63.718756 C 183.07938,71.022718 185.92043,78.222414 186.1879,84.968756 C 186.44786,91.52575 183.19397,93.516621 183.34415,95.781256 C 183.49464,98.050532 185.27861,98.714704 186.96915,98.437506 C 188.65969,98.160311 189.47488,94.012251 190.9379,92.750006 C 192.40092,91.487763 193.2807,90.289185 196.2504,90.468756 C 197.51328,96.148137 197.10026,101.63449 195.8754,108.68751 C 195.14715,112.88092 193.77431,117.35634 191.8129,121.65626 C 188.44795,123.46938 185.19005,125.77248 182.65665,129.18751 C 180.69645,131.82987 179.49712,135.09093 178.65665,138.46876 C 174.00375,142.638 169.23335,146.62619 167.8129,149.06251 C 165.39563,153.20858 164.71527,157.94368 166.50056,159.42111 C 168.28585,160.89854 170.11758,162.39737 174.01303,157.6619 C 177.90848,152.92643 176.26579,137.81084 182.65816,129.19391 C 189.14163,120.45418 200.41315,119.03111 205.90345,114.32537 C 206.84218,118.34346 207.63158,119.39151 207.78244,122.58244 C 210.39564,120.19265 217.35539,118.32923 223.33523,118.28175 C 229.31357,118.23427 235.82467,120.59562 240.37459,120.88872 C 245.11336,121.19399 247.04927,120.45658 249.20061,118.67417 C 250.59336,122.20191 248.55322,127.74212 245.83505,129.71475 C 248.2374,127.70476 267.18536,125.888 276.02738,130.08967 C 269.31819,138.65326 269.79477,147.56682 267.02045,153.89954 C 264.31565,160.07354 260.06997,167.06702 250.7178,169.84474 C 255.20999,169.39843 261.53831,169.24112 265.1502,172.46484 C 260.22789,175.8782 258.2667,181.74255 253.32915,186.50481 C 248.48537,191.17663 241.10186,193.57734 234.39768,194.02516 C 237.36558,196.55911 240.15455,198.69604 242.27108,203.39827 C 233.76727,205.44542 217.31589,202.56059 209.26464,199.46375 C 201.04794,196.30326 195.35839,189.63846 186.0281,189.72447 C 176.69799,189.81048 167.70445,192.0573 162.03296,201.74827 C 155.36094,213.14885 161.48789,220.06606 161.48151,231.69847 C 161.47512,243.32944 153.75221,253.77119 147.97549,254.00426 C 142.76772,252.72014 139.79035,249.60366 142.17948,242.74779 L 142.39298,242.75972 C 142.39298,242.75972 147.33026,239.79199 149.40998,237.07026 C 151.48971,234.34852 153.55023,230.87407 152.82367,224.74309 C 152.0971,218.61211 146.22019,206.46563 139.54825,201.60594 C 132.87631,196.74624 120.38637,195.72106 112.99742,196.48542 C 105.60847,197.24979 98.185483,201.55711 93.273952,204.07137 C 88.512069,206.50903 81.204602,206.57505 77.722755,205.39891 C 74.240908,204.22277 71.780137,202.11232 70.136804,198.76121 C 72.096797,197.49623 73.305305,195.9334 75.446969,194.20964 C 72.088819,194.95131 65.798441,193.75021 62.550854,191.74421 C 59.303267,189.7382 56.488715,185.12624 53.447714,181.88247 C 50.493909,178.7317 46.494031,177.93622 44.913519,175.24476 C 47.315631,173.3119 48.78742,172.57881 50.792631,170.88284 C 46.349784,161.60093 47.725283,155.00711 44.913519,150.59043 C 42.101755,146.17375 37.865712,146.13197 35.241432,140.72869 C 44.944322,137.79083 56.148694,129.81242 63.878395,130.86696 C 71.421955,131.8961 70.261127,135.41619 71.843643,136.36677 C 73.884201,137.59248 74.918184,136.24741 75.25732,134.28064 C 75.596457,132.31386 72.263065,129.25645 71.274696,127.07398 C 70.039604,124.34669 68.571767,119.7884 72.412589,117.21224 C 77.580952,121.08414 85.540401,123.22673 94.791142,124.79819 C 104.01241,126.36466 116.32771,132.58919 122.66951,138.64255 C 129.01131,144.69591 134.43978,154.79769 136.32422,160.26251 C 138.20867,165.72734 136.88486,172.56678 139.16895,174.67582 C 141.45305,176.78486 144.82588,176.03033 146.13946,175.03126 z"
         style="fill:#ffffff;fill-rule:evenodd;stroke:#000000;stroke-width:2;stroke-linecap:round;stroke-linejoin:round;stroke-miterlimit:4;stroke-dasharray:none;stroke-opacity:1"
         id="path3827" />
      <path
         sodipodi:nodetypes="cssssccssccsscssccsssssscscscszssccsscccsccsccsssscczzzzzzcczzcczczzzzczzzzz"
         d="M 198.35594,229.96491 C 198.92069,229.9282 199.34364,230.4684 200.01519,231.63604 C 201.2182,233.72772 202.36588,239.24758 202.6515,243.70846 C 202.94074,248.22578 200.82627,250.80778 200.72167,253.23539 C 200.61707,255.663 201.44424,258.03756 201.30761,259.3457 C 201.17097,260.65384 201.33727,260.776 200.95588,262.10106 C 202.29607,262.68719 204.41747,261.83796 205.74375,260.217 C 206.54832,261.69611 207.24315,263.69702 209.80651,265.86336 C 212.4325,268.08263 214.8529,268.4289 216.0822,269.2918 C 217.31151,270.1547 218.02044,271.22128 218.63365,271.79785 C 219.25246,270.85702 219.98015,269.56633 219.8186,268.03143 C 220.93633,269.1668 221.89467,269.98284 223.03979,270.43225 C 224.18491,270.88166 225.55858,270.52313 226.54327,270.98668 C 227.52797,271.45022 228.61388,272.83362 229.44876,273.46991 C 230.15514,272.78292 230.51672,271.61203 230.67196,270.51629 C 230.8272,269.42055 232.33989,267.08537 232.47409,265.74117 C 232.60829,264.39697 232.46102,263.02033 231.55366,261.52475 C 232.86719,262.25977 235.03527,262.90905 236.07327,262.70491 C 235.83067,262.00592 235.13419,261.35561 234.94298,260.09421 C 234.75176,258.83281 235.01601,256.8388 234.78241,253.81376 C 234.51893,250.40181 233.54946,247.65499 231.96062,245.67209 C 230.41637,243.74484 229.00051,243.98215 228.48432,243.30161 C 227.96708,242.61969 228.31007,241.99073 228.85882,241.6523 C 229.40758,241.31388 230.66285,242.29133 231.39004,242.28894 C 232.11724,242.28656 232.663,242.41001 233.46249,241.62613 C 232.41978,239.70075 230.94852,238.24379 228.85996,236.54203 C 227.6182,235.53023 226.12369,234.59738 224.50526,233.85964 C 223.10171,234.17485 221.60766,234.32443 220.04508,233.97927 C 218.83603,233.71221 217.6905,233.08158 216.61812,232.32922 C 214.26718,232.29281 211.92753,232.33684 210.9227,231.99512 C 209.2127,231.41359 207.85087,230.23606 207.99355,229.3757 C 208.13622,228.51533 208.28681,227.63743 210.56226,228.02165 C 212.83771,228.40587 216.10115,233.10617 220.04393,233.97708 C 224.0429,234.8604 227.59675,232.48319 230.31802,232.4654 C 229.59318,231.09205 229.55884,230.59945 228.81426,229.65555 C 230.14652,229.68971 232.5839,228.50167 234.29472,227.03947 C 236.00511,225.57764 237.27244,223.2999 238.49292,222.0938 C 239.76405,220.83765 240.49609,220.56943 241.54723,220.54498 C 241.0724,219.19892 239.12552,218.12819 237.86638,218.23847 C 239.045,218.21674 244.87718,214.05703 246.35266,210.68117 C 242.33303,209.9036 240.26878,207.2533 237.91771,206.13857 C 235.62557,205.05178 232.69338,204.1124 229.35059,205.63105 C 230.73714,204.64929 232.57408,203.1323 232.80481,201.32499 C 230.56385,201.56984 228.55942,200.38753 225.98125,200.25286 C 223.45205,200.12075 220.76167,201.2607 218.74624,202.78789 C 218.96421,201.33549 219.22932,200.04005 218.67031,198.18166 C 215.74886,199.69853 211.7863,204.57805 210.26286,207.44484 C 208.70811,210.37055 208.73621,213.66833 206.06389,215.94639 C 203.39162,218.22441 201.23615,219.80541 197.23315,218.45142 C 192.52397,216.85858 191.55818,212.9956 188.58395,209.78332 C 185.32553,206.26411 181.05728,205.44505 179.24181,206.19001 C 177.34352,206.58976 176.05841,210.74422 177.43501,212.74773 C 178.57865,214.14201 180.34228,213.5673 181.55246,213.78918 C 182.77458,214.01325 184.77429,214.54868 186.24541,216.07324 C 187.75547,217.63816 190.12984,220.43955 189.43334,224.2045 C 188.7394,227.95563 185.93273,230.44141 183.64462,232.04765 C 181.3565,233.65389 178.1844,234.26184 176.16838,234.7595 C 174.21379,235.24199 172.12116,237.02654 171.42208,238.21997 C 170.723,239.4134 170.54461,240.62032 170.90465,241.97804 C 171.77373,241.85379 172.50278,241.99961 173.5367,241.96089 C 172.39949,242.57886 170.90856,244.47246 170.48083,245.84388 C 170.0531,247.21529 170.3915,249.22029 170.32793,250.89242 C 170.26618,252.51661 169.32596,253.72972 169.54107,254.8845 C 170.70059,254.84091 171.29969,254.68601 172.28797,254.67306 C 173.31615,258.4068 175.33419,259.94091 175.6252,261.88974 C 175.9162,263.83857 174.72289,264.8958 175.31064,267.07869 C 178.7926,265.519 183.94508,265.02099 185.88115,262.81384 C 187.7706,260.65984 186.57208,259.94612 186.78716,259.28549 C 187.06448,258.43366 187.69021,258.56068 188.27192,259.03582 C 188.85364,259.51097 188.661,261.2023 188.91875,262.06633 C 189.24084,263.14605 189.94865,264.80347 191.67572,264.58763 C 192.18875,262.21204 193.92159,259.63904 196.16228,256.90965 C 198.39584,254.18896 200.35901,249.38119 200.66713,246.09619 C 200.97525,242.81119 200.0248,238.60126 199.21165,236.58346 C 198.3985,234.56565 196.33453,232.94899 196.46307,231.78606 C 196.59161,230.62314 197.73616,230.00519 198.35594,229.96491 z"
         style="fill:#ffffff;fill-rule:evenodd;stroke:#000000;stroke-width:2;stroke-linecap:round;stroke-linejoin:round;stroke-miterlimit:4;stroke-dasharray:none;stroke-opacity:1"
         id="path2451" />
      <path
         sodipodi:nodetypes="czczzzz"
         id="path3855"
         d="M 67.153104,153.3139 C 78.906374,166.21599 92.780534,175.1414 109.83603,176.37859 C 126.87444,177.61454 143.59355,188.88301 151.98874,203.68506 C 151.10503,187.46908 152.51022,176.08181 154.37474,165.24391 C 156.23926,154.40601 161.3348,143.73513 162.8583,132.3701 C 164.38181,121.00508 165.10452,104.07531 162.59319,90.482508 C 160.09016,76.934648 148.57133,57.005708 141.11917,49.655362"
         style="fill:none;fill-rule:evenodd;stroke:#000000;stroke-width:2;stroke-linecap:round;stroke-linejoin:round;stroke-miterlimit:4;stroke-dasharray:none;stroke-opacity:1" />
      <path
         sodipodi:nodetypes="cc"
         id="path3857"
         d="M 61.245872,178.29172 C 70.284866,171.16792 83.351136,170.48776 94.215828,172.92202"
         style="fill:none;fill-rule:evenodd;stroke:#000000;stroke-width:2;stroke-linecap:round;stroke-linejoin:round;stroke-miterlimit:4;stroke-dasharray:none;stroke-opacity:1" />
      <path
         sodipodi:nodetypes="cc"
         id="path3859"
         d="M 91.692069,187.5813 C 97.75983,179.74154 105.33111,175.28469 118.80905,177.96954"
         style="fill:none;fill-rule:evenodd;stroke:#000000;stroke-width:2;stroke-linecap:round;stroke-linejoin:round;stroke-miterlimit:4;stroke-dasharray:none;stroke-opacity:1" />
      <path
         sodipodi:nodetypes="cc"
         id="path3861"
         d="M 114.2985,176.9493 C 106.26185,176.05435 95.271868,163.88303 93.893646,152.94674"
         style="fill:none;fill-rule:evenodd;stroke:#000000;stroke-width:2;stroke-linecap:round;stroke-linejoin:round;stroke-miterlimit:4;stroke-dasharray:none;stroke-opacity:1" />
      <path
         sodipodi:nodetypes="cc"
         id="path3869"
         d="M 128.47648,87.631789 C 142.68622,90.030442 162.36126,103.45076 164.00084,118.05521"
         style="fill:none;fill-rule:evenodd;stroke:#000000;stroke-width:2;stroke-linecap:round;stroke-linejoin:round;stroke-miterlimit:4;stroke-dasharray:none;stroke-opacity:1" />
      <path
         sodipodi:nodetypes="cc"
         id="path3871"
         d="M 171.74333,74.879455 C 168.88923,79.008782 163.02923,90.78951 164.18301,105.39397"
         style="fill:none;fill-rule:evenodd;stroke:#000000;stroke-width:2;stroke-linecap:round;stroke-linejoin:round;stroke-miterlimit:4;stroke-dasharray:none;stroke-opacity:1" />
      <path
         sodipodi:nodetypes="cc"
         id="path3873"
         d="M 184.2224,104.57417 C 172.65421,109.91801 163.81867,121.7291 162.81669,132.99367"
         style="fill:none;fill-rule:evenodd;stroke:#000000;stroke-width:2;stroke-linecap:round;stroke-linejoin:round;stroke-miterlimit:4;stroke-dasharray:none;stroke-opacity:1" />
      <path
         sodipodi:nodetypes="cc"
         id="path3875"
         d="M 125.65275,115.41366 C 142.10933,117.20505 162.11835,138.76258 158.62664,149.20735"
         style="fill:none;fill-rule:evenodd;stroke:#000000;stroke-width:2;stroke-linecap:round;stroke-linejoin:round;stroke-miterlimit:4;stroke-dasharray:none;stroke-opacity:1" />
      <path
         sodipodi:nodetypes="czzzz"
         id="path3891"
         d="M 248.22415,147.48145 C 245.76262,151.95754 232.22803,160.77208 223.5688,162.59279 C 214.85249,164.42551 205.9021,164.89073 193.84399,167.18533 C 181.77207,169.48256 169.84019,175.04016 162.93932,180.12604 C 156.03418,185.21508 153.36135,190.29506 151.76413,195.3543"
         style="fill:none;fill-rule:evenodd;stroke:#000000;stroke-width:2;stroke-linecap:round;stroke-linejoin:round;stroke-miterlimit:4;stroke-dasharray:none;stroke-opacity:1" />
      <path
         sodipodi:nodetypes="cc"
         id="path3914"
         d="M 205.16595,143.35233 C 205.87907,153.10683 191.99863,165.61197 181.63287,170.55289"
         style="fill:none;fill-rule:evenodd;stroke:#000000;stroke-width:2;stroke-linecap:round;stroke-linejoin:round;stroke-miterlimit:4;stroke-dasharray:none;stroke-opacity:1" />
      <path
         sodipodi:nodetypes="cc"
         id="path3916"
         d="M 199.5119,166.19775 C 215.55718,163.29432 233.97104,175.21366 233.97104,175.21366"
         style="fill:none;fill-rule:evenodd;stroke:#000000;stroke-width:2;stroke-linecap:round;stroke-linejoin:round;stroke-miterlimit:4;stroke-dasharray:none;stroke-opacity:1" />
      <path
         sodipodi:nodetypes="cc"
         id="path3918"
         d="M 215.32796,182.16662 C 195.25863,173.22711 166.02056,175.44288 159.24589,183.2363"
         style="fill:none;fill-rule:evenodd;stroke:#000000;stroke-width:2;stroke-linecap:round;stroke-linejoin:round;stroke-miterlimit:4;stroke-dasharray:none;stroke-opacity:1" />
      <path
         id="path3961"
         style="fill:#ffffff;fill-rule:evenodd;stroke:#000000;stroke-width:2;stroke-linecap:round;stroke-linejoin:round;stroke-miterlimit:4;stroke-dasharray:none;stroke-opacity:1"
         d="M 101.64486,229.96491 C 101.08011,229.9282 100.65716,230.4684 99.985607,231.63604 C 98.7826,233.72772 97.634922,239.24758 97.349299,243.70846 C 97.060059,248.22578 99.174526,250.80778 99.279127,253.23539 C 99.383729,255.663 98.556561,258.03756 98.693195,259.3457 C 98.829829,260.65384 98.663534,260.776 99.044916,262.10106 C 97.704729,262.68719 95.583334,261.83796 94.257049,260.217 C 93.452477,261.69611 92.757655,263.69702 90.19429,265.86336 C 87.5683,268.08263 85.147899,268.4289 83.918596,269.2918 C 82.689293,270.1547 81.980365,271.22128 81.367149,271.79785 C 80.748338,270.85702 80.020654,269.56633 80.182204,268.03143 C 79.064466,269.1668 78.106129,269.98284 76.961009,270.43225 C 75.815889,270.88166 74.442224,270.52313 73.457526,270.98668 C 72.472829,271.45022 71.386919,272.83362 70.552042,273.46991 C 69.84566,272.78292 69.484084,271.61203 69.328841,270.51629 C 69.173598,269.42055 67.660908,267.08537 67.526707,265.74117 C 67.392506,264.39697 67.539777,263.02033 68.447141,261.52475 C 67.133606,262.25977 64.965532,262.90905 63.927532,262.70491 C 64.170128,262.00592 64.866606,261.35561 65.057825,260.09421 C 65.249044,258.83281 64.984792,256.8388 65.218389,253.81376 C 65.481867,250.40181 66.451336,247.65499 68.040181,245.67209 C 69.584433,243.74484 71.00029,243.98215 71.516478,243.30161 C 72.033724,242.61969 71.690732,241.99073 71.141978,241.6523 C 70.593225,241.31388 69.337952,242.29133 68.610758,242.28894 C 67.883565,242.28656 67.337804,242.41001 66.538312,241.62613 C 67.581021,239.70075 69.052281,238.24379 71.140836,236.54203 C 72.382599,235.53023 73.877107,234.59738 75.49554,233.85964 C 76.899089,234.17485 78.393136,234.32443 79.955724,233.97927 C 81.164767,233.71221 82.310298,233.08158 83.382679,232.32922 C 85.73362,232.29281 88.073269,232.33684 89.078102,231.99512 C 90.788097,231.41359 92.149928,230.23606 92.007254,229.3757 C 91.864581,228.51533 91.713993,227.63743 89.43854,228.02165 C 87.163086,228.40587 83.899655,233.10617 79.956874,233.97708 C 75.957905,234.8604 72.404053,232.48319 69.682776,232.4654 C 70.40762,231.09205 70.441957,230.59945 71.18654,229.65555 C 69.854284,229.68971 67.416902,228.50167 65.706081,227.03947 C 63.995689,225.57764 62.728362,223.2999 61.507885,222.0938 C 60.23675,220.83765 59.504709,220.56943 58.453571,220.54498 C 58.928404,219.19892 60.875282,218.12819 62.134419,218.23847 C 60.955799,218.21674 55.123619,214.05703 53.648137,210.68117 C 57.667775,209.9036 59.732024,207.2533 62.083086,206.13857 C 64.375226,205.05178 67.307419,204.1124 70.650208,205.63105 C 69.263665,204.64929 67.426725,203.1323 67.195989,201.32499 C 69.436946,201.56984 71.441384,200.38753 74.019549,200.25286 C 76.548752,200.12075 79.239132,201.2607 81.254559,202.78789 C 81.036586,201.33549 80.771477,200.04005 81.330493,198.18166 C 84.251943,199.69853 88.214503,204.57805 89.737944,207.44484 C 91.292687,210.37055 91.264587,213.66833 93.936907,215.94639 C 96.609176,218.22441 98.76465,219.80541 102.76765,218.45142 C 107.47683,216.85858 108.44262,212.9956 111.41685,209.78332 C 114.67527,206.26411 118.94352,205.44505 120.75899,206.19001 C 122.65728,206.58976 123.94239,210.74422 122.56579,212.74773 C 121.42215,214.14201 119.65852,213.5673 118.44834,213.78918 C 117.22622,214.01325 115.22651,214.54868 113.75539,216.07324 C 112.24533,217.63816 109.87096,220.43955 110.56746,224.2045 C 111.2614,227.95563 114.06807,230.44141 116.35618,232.04765 C 118.6443,233.65389 121.8164,234.26184 123.83242,234.7595 C 125.78701,235.24199 127.87964,237.02654 128.57872,238.21997 C 129.2778,239.4134 129.45619,240.62032 129.09615,241.97804 C 128.22707,241.85379 127.49802,241.99961 126.4641,241.96089 C 127.60131,242.57886 129.09224,244.47246 129.51997,245.84388 C 129.9477,247.21529 129.6093,249.22029 129.67287,250.89242 C 129.73462,252.51661 130.67484,253.72972 130.45973,254.8845 C 129.30021,254.84091 128.70111,254.68601 127.71283,254.67306 C 126.68465,258.4068 124.66661,259.94091 124.3756,261.88974 C 124.0846,263.83857 125.27791,264.8958 124.69016,267.07869 C 121.2082,265.519 116.05572,265.02099 114.11965,262.81384 C 112.2302,260.65984 113.42872,259.94612 113.21364,259.28549 C 112.93632,258.43366 112.31059,258.56068 111.72888,259.03582 C 111.14716,259.51097 111.3398,261.2023 111.08205,262.06633 C 110.75996,263.14605 110.05215,264.80347 108.32508,264.58763 C 107.81205,262.21204 106.07921,259.63904 103.83852,256.90965 C 101.60496,254.18896 99.641786,249.38119 99.333668,246.09619 C 99.02555,242.81119 99.976002,238.60126 100.78915,236.58346 C 101.6023,234.56565 103.66627,232.94899 103.53773,231.78606 C 103.40919,230.62314 102.26464,230.00519 101.64486,229.96491 z"
         sodipodi:nodetypes="cssssccssccsscssccsssssscscscszssccsscccsccsccsssscczzzzzzcczzcczczzzzczzzzz" />
      <path
         style="fill:none;fill-rule:evenodd;stroke:#000000;stroke-width:2;stroke-linecap:round;stroke-linejoin:round;stroke-miterlimit:4;stroke-dasharray:none;stroke-opacity:1"
         d="M 118.72857,255.62768 C 118.57296,249.06126 116.83336,243.10138 112.29255,238.54094 C 107.75628,233.98507 105.78654,226.65736 107.05396,220.37979 C 103.30332,225.20545 100.09393,228.09425 96.889601,230.71359 C 93.685273,233.33293 89.604104,235.10748 86.366588,237.96076 C 83.129072,240.81403 78.745842,245.44608 76.105015,249.92806 C 73.472919,254.39522 71.827854,262.90038 72.131402,266.82792"
         id="path3965"
         sodipodi:nodetypes="czczzzz" />
      <path
         style="fill:none;fill-rule:evenodd;stroke:#000000;stroke-width:2;stroke-linecap:round;stroke-linejoin:round;stroke-miterlimit:4;stroke-dasharray:none;stroke-opacity:1"
         d="M 120.21252,239.83533 C 116.55376,240.56553 113.30262,239.96347 110.13558,235.87455"
         id="path3969"
         sodipodi:nodetypes="cc" />
      <path
         style="fill:none;fill-rule:evenodd;stroke:#000000;stroke-width:2;stroke-linecap:round;stroke-linejoin:round;stroke-miterlimit:4;stroke-dasharray:none;stroke-opacity:1"
         d="M 85.095393,259.15728 C 81.649792,254.96909 79.371182,246.30051 82.509362,241.74621"
         id="path3973"
         sodipodi:nodetypes="cc" />
      <path
         style="fill:none;fill-rule:evenodd;stroke:#000000;stroke-width:2;stroke-linecap:round;stroke-linejoin:round;stroke-miterlimit:4;stroke-dasharray:none;stroke-opacity:1"
         d="M 69.65463,252.10344 C 71.484613,251.63446 76.05688,249.73322 79.333094,245.29881"
         id="path3975"
         sodipodi:nodetypes="cc" />
      <path
         style="fill:none;fill-rule:evenodd;stroke:#000000;stroke-width:2;stroke-linecap:round;stroke-linejoin:round;stroke-miterlimit:4;stroke-dasharray:none;stroke-opacity:1"
         d="M 65.84,212.6007 C 67.644013,211.93632 73.664938,212.77179 76.574669,214.39136 C 79.503581,216.0216 82.161538,218.09817 86.153966,220.42185 C 90.150967,222.74819 94.912762,224.11358 98.128645,224.37146 C 101.34652,224.6295 103.3596,223.84568 105.06193,222.80231"
         id="path3981"
         sodipodi:nodetypes="czzzz" />
      <path
         style="fill:none;fill-rule:evenodd;stroke:#000000;stroke-width:2;stroke-linecap:round;stroke-linejoin:round;stroke-miterlimit:4;stroke-dasharray:none;stroke-opacity:1"
         d="M 77.05552,224.39972 C 79.260083,221.45211 86.290034,221.32429 90.454652,222.47842"
         id="path3983"
         sodipodi:nodetypes="cc" />
      <path
         style="fill:none;fill-rule:evenodd;stroke:#000000;stroke-width:2;stroke-linecap:round;stroke-linejoin:round;stroke-miterlimit:4;stroke-dasharray:none;stroke-opacity:1"
         d="M 84.299782,219.30375 C 79.0242,216.16911 76.733535,208.23825 76.733535,208.23825"
         id="path3985"
         sodipodi:nodetypes="cc" />
      <path
         sodipodi:nodetypes="czczzzz"
         id="path4031"
         d="M 181.27223,255.62768 C 181.42784,249.06126 183.16744,243.10138 187.70825,238.54094 C 192.24452,233.98507 194.21426,226.65736 192.94684,220.37979 C 196.69748,225.20545 199.90687,228.09425 203.1112,230.71359 C 206.31553,233.33293 210.3967,235.10748 213.63421,237.96076 C 216.87173,240.81403 221.25496,245.44608 223.89579,249.92806 C 226.52788,254.39522 228.17295,262.90038 227.8694,266.82792"
         style="fill:none;fill-rule:evenodd;stroke:#000000;stroke-width:2;stroke-linecap:round;stroke-linejoin:round;stroke-miterlimit:4;stroke-dasharray:none;stroke-opacity:1" />
      <path
         sodipodi:nodetypes="cc"
         id="path4033"
         d="M 179.78828,239.83533 C 183.44704,240.56553 186.69818,239.96347 189.86522,235.87455"
         style="fill:none;fill-rule:evenodd;stroke:#000000;stroke-width:2;stroke-linecap:round;stroke-linejoin:round;stroke-miterlimit:4;stroke-dasharray:none;stroke-opacity:1" />
      <path
         sodipodi:nodetypes="cc"
         id="path4035"
         d="M 214.90541,259.15728 C 218.35101,254.96909 220.62962,246.30051 217.49144,241.74621"
         style="fill:none;fill-rule:evenodd;stroke:#000000;stroke-width:2;stroke-linecap:round;stroke-linejoin:round;stroke-miterlimit:4;stroke-dasharray:none;stroke-opacity:1" />
      <path
         sodipodi:nodetypes="cc"
         id="path4037"
         d="M 230.34617,252.10344 C 228.51619,251.63446 223.94392,249.73322 220.66771,245.29881"
         style="fill:none;fill-rule:evenodd;stroke:#000000;stroke-width:2;stroke-linecap:round;stroke-linejoin:round;stroke-miterlimit:4;stroke-dasharray:none;stroke-opacity:1" />
      <path
         sodipodi:nodetypes="czzzz"
         id="path4039"
         d="M 234.1608,212.6007 C 232.35679,211.93632 226.33586,212.77179 223.42613,214.39136 C 220.49722,216.0216 217.83926,218.09817 213.84683,220.42185 C 209.84983,222.74819 205.08804,224.11358 201.87216,224.37146 C 198.65428,224.6295 196.6412,223.84568 194.93887,222.80231"
         style="fill:none;fill-rule:evenodd;stroke:#000000;stroke-width:2;stroke-linecap:round;stroke-linejoin:round;stroke-miterlimit:4;stroke-dasharray:none;stroke-opacity:1" />
      <path
         sodipodi:nodetypes="cc"
         id="path4041"
         d="M 222.94528,224.39972 C 220.74072,221.45211 213.71077,221.32429 209.54615,222.47842"
         style="fill:none;fill-rule:evenodd;stroke:#000000;stroke-width:2;stroke-linecap:round;stroke-linejoin:round;stroke-miterlimit:4;stroke-dasharray:none;stroke-opacity:1" />
      <path
         sodipodi:nodetypes="cc"
         id="path4043"
         d="M 215.70102,219.30375 C 220.9766,216.16911 223.26726,208.23825 223.26726,208.23825"
         style="fill:none;fill-rule:evenodd;stroke:#000000;stroke-width:2;stroke-linecap:round;stroke-linejoin:round;stroke-miterlimit:4;stroke-dasharray:none;stroke-opacity:1" />
    </g>
  </g>
</svg>
