<?xml version="1.0" encoding="UTF-8" standalone="no"?>
<!-- Created with Inkscape (http://www.inkscape.org/) -->

<svg
   xmlns:dc="http://purl.org/dc/elements/1.1/"
   xmlns:cc="http://creativecommons.org/ns#"
   xmlns:rdf="http://www.w3.org/1999/02/22-rdf-syntax-ns#"
   xmlns:svg="http://www.w3.org/2000/svg"
   xmlns="http://www.w3.org/2000/svg"
   xmlns:sodipodi="http://sodipodi.sourceforge.net/DTD/sodipodi-0.dtd"
   xmlns:inkscape="http://www.inkscape.org/namespaces/inkscape"
   width="250"
   height="250"
   id="svg2"
   sodipodi:version="0.32"
   inkscape:version="0.92.2 (5c3e80d, 2017-08-06)"
   version="1.0"
   sodipodi:docname="Portal-icon.svg"
   inkscape:output_extension="org.inkscape.output.svg.inkscape">
  <defs
     id="defs4">
    <inkscape:perspective
       sodipodi:type="inkscape:persp3d"
       inkscape:vp_x="0 : 526.18109 : 1"
       inkscape:vp_y="0 : 1000 : 0"
       inkscape:vp_z="744.09448 : 526.18109 : 1"
       inkscape:persp3d-origin="372.04724 : 350.78739 : 1"
       id="perspective10" />
    <inkscape:perspective
       id="perspective3217"
       inkscape:persp3d-origin="372.04724 : 350.78739 : 1"
       inkscape:vp_z="744.09448 : 526.18109 : 1"
       inkscape:vp_y="0 : 1000 : 0"
       inkscape:vp_x="0 : 526.18109 : 1"
       sodipodi:type="inkscape:persp3d" />
    <clipPath
       clipPathUnits="userSpaceOnUse"
       id="clipPath3227">
      <rect
         style="opacity:1;fill:#000000;fill-opacity:1;stroke:none;stroke-width:3;stroke-linecap:round;stroke-linejoin:round;stroke-miterlimit:4;stroke-dasharray:none;stroke-opacity:1"
         id="rect3229"
         width="187.69884"
         height="187.96394"
         x="51.431602"
         y="36.585365"
         transform="matrix(0.9999025,1.3962179e-2,-1.3962179e-2,0.9999025,0,0)" />
    </clipPath>
  </defs>
  <sodipodi:namedview
     id="base"
     pagecolor="#ffffff"
     bordercolor="#666666"
     borderopacity="1.0"
     gridtolerance="10000"
     guidetolerance="10"
     objecttolerance="10"
     inkscape:pageopacity="0.0"
     inkscape:pageshadow="2"
     inkscape:zoom="2.024"
     inkscape:cx="125"
     inkscape:cy="125"
     inkscape:document-units="px"
     inkscape:current-layer="layer1"
     showgrid="false"
     inkscape:window-width="1366"
     inkscape:window-height="705"
     inkscape:window-x="-8"
     inkscape:window-y="-8"
     inkscape:window-maximized="1" />
  <metadata
     id="metadata7">
    <rdf:RDF>
      <cc:Work
         rdf:about="">
        <dc:format>image/svg+xml</dc:format>
        <dc:type
           rdf:resource="http://purl.org/dc/dcmitype/StillImage" />
      </cc:Work>
    </rdf:RDF>
  </metadata>
  <g
     inkscape:label="Layer 1"
     inkscape:groupmode="layer"
     id="layer1">
    <path
       id="path46"
       d="M 22,22 V 228 H 228 V 22 Z"
       style="fill:#ffffff;fill-opacity:1;stroke:none;stroke-width:3;stroke-linecap:round;stroke-linejoin:round;stroke-miterlimit:4;stroke-dasharray:none;stroke-opacity:1"
       inkscape:connector-curvature="0"
       sodipodi:nodetypes="ccccc" />
    <g
       id="g75">
      <rect
         y="32.5"
         x="32.5"
         height="185"
         width="185"
         id="rect3412"
         style="fill:#ffffff;fill-opacity:1;stroke:none;stroke-width:2;stroke-linecap:round;stroke-linejoin:round;stroke-miterlimit:4;stroke-dasharray:none;stroke-opacity:1" />
      <path
         id="rect3231"
         d="M 25,25 V 225 H 225 V 25 Z M 39,39 H 211 V 211 H 39 Z"
         style="fill:#000000;fill-opacity:1;stroke:none;stroke-width:3;stroke-linecap:round;stroke-linejoin:round;stroke-miterlimit:4;stroke-dasharray:none;stroke-opacity:1"
         inkscape:connector-curvature="0" />
      <rect
         y="42.5"
         x="42.5"
         height="165"
         width="165"
         id="rect3236"
         style="fill:#000000;fill-opacity:1;stroke:none;stroke-width:3;stroke-linecap:round;stroke-linejoin:round;stroke-miterlimit:4;stroke-dasharray:none;stroke-opacity:1" />
      <path
         id="path3284"
         d="m 196.40625,221.2 v -15.66875 l -1.5625,-3.25 1.5625,-2.5625 v -2.40625 l -1.8125,-2.1875 1.8125,-1.71875 V 189 l -2.625,-1.84375 2.625,-2.59375 V 182 l -2.34375,-2 2.34375,-0.875 v -14 l -1.8125,-3.6875 1.8125,-5.4375 v -17.28125 l -1.8125,-4.3125 V 127.25 l 1.8125,-0.96875 v -3.96875 l -1.28125,-0.90625 v -3.96875 l 1.28125,-0.59375 V 114.25 l -2.09375,-1.5625 2.09375,-6.09375 V 66.8125 c 0,-19.15498 -32.0348,-34.71875 -71.53125,-34.71875 -0.2301,0 -0.45791,-0.0011 -0.6875,0 l -2.25,2.375 8.75,4.5 -1.59375,2.375 14.0625,12.46875 -17.75,-5.8125 -4.5,2.90625 -2.9375,-4.5 -5.5625,3.15625 -10.0625,-1.3125 1.3125,-6.90625 -6.375,-2.625 -0.09375,-3.9375 C 71.424155,40.038585 53.312501,52.417445 53.3125,66.8125 v 19.40625 l 1.84375,2.84375 -1.84375,3.28125 V 106.75 l 2.09375,5.65625 -2.09375,2.625 v 31.5 l 2.09375,1.65625 -1.59375,1.875 2.65625,2.65625 -3.15625,2.90625 v 8.4375 l 1.5625,1.625 -1.5625,1.75 V 188.5 l 2.09375,6.34375 -2.09375,2.71875 v 1.25 l 2.09375,1.875 -2.09375,5.65625 V 221.2 m 88.53125,-140.35625 11.375,3.71875 6.125,-0.15625 -1.09375,4.375 11.25,4.8125 -0.0625,5.0625 4.75,3.15625 -5.84375,9.53125 -1.0625,11.65625 -4.5,-13.25 3.6875,-4.375 -1.84375,-1.1875 0.5625,-2.40625 L 162.5,101 l -1.0625,-4.78125 -8.5625,-3.5 -0.4375,-3.90625 z"
         style="fill:#000000;fill-opacity:1;stroke:#ffffff;stroke-width:2.5;stroke-linecap:round;stroke-linejoin:round;stroke-miterlimit:4;stroke-dasharray:none;stroke-opacity:1"
         inkscape:connector-curvature="0"
         sodipodi:nodetypes="cccccccccccccccccccccccccccsscccccccccccccsccccccccccccccccccccccccccccccccccccccc" />
      <path
         id="path3238"
         d="m 124.1875,32.09375 -2.25,2.375 8.75,4.5 -1.59375,2.375 14.0625,12.46875 -17.75,-5.8125 -4.5,2.90625 -2.9375,-4.5 -5.5625,3.15625 -10.0625,-1.3125 1.3125,-6.90625 -6.375,-2.625 -0.09375,-3.90625 c -25.760264,5.252367 -43.874999,17.604945 -43.875,32 0,19.154978 32.066059,34.6875 71.5625,34.6875 13.3967,0 25.93536,-1.797041 36.65625,-4.90625 l -0.0937,-0.375 -8.5625,-3.5 -0.4375,-3.90625 -10.59375,-7.96875 11.375,3.71875 6.125,-0.15625 -1.09375,4.375 11.25,4.8125 v 0.3125 c 16.38941,-6.35683 26.90625,-16.127091 26.90625,-27.09375 0,-19.154979 -32.03481,-34.71875 -71.53125,-34.71875 -0.23005,0 -0.45796,-0.0011 -0.6875,0 z"
         style="fill:#000000;fill-opacity:1;stroke:#ffffff;stroke-width:2.5;stroke-linecap:round;stroke-linejoin:round;stroke-miterlimit:4;stroke-dasharray:none;stroke-opacity:1"
         inkscape:connector-curvature="0" />
      <path
         id="rect3244"
         d="m 186.90625,152.09375 c -8.73533,7.35678 -22.87465,13.00162 -39.78125,15.6875 v 42 c 16.91309,-2.68246 31.04646,-8.33043 39.78125,-15.6875 z"
         style="fill:none;fill-opacity:1;stroke:#ffffff;stroke-width:2.5;stroke-linecap:round;stroke-linejoin:round;stroke-miterlimit:4;stroke-dasharray:none;stroke-opacity:1"
         inkscape:connector-curvature="0" />
      <path
         id="path3268"
         d="M 103.125,221.2 V 197.875 C 86.148671,195.24922 71.939796,189.6417 63.09375,182.3125 V 221.2"
         style="fill:#000000;fill-opacity:1;stroke:#ffffff;stroke-width:2.5;stroke-linecap:round;stroke-linejoin:round;stroke-miterlimit:4;stroke-dasharray:none;stroke-opacity:1"
         inkscape:connector-curvature="0"
         sodipodi:nodetypes="cccc" />
      <path
         sodipodi:nodetypes="czzcccc"
         id="path3357"
         d="m 62.494588,99.98943 c 0,0 1.301425,-3.746932 4.342709,-3.754011 3.041924,-0.0071 4.398954,2.149135 4.421991,5.975831 0.02337,3.88236 -5.776785,8.8704 -5.776785,8.8704 l 2.052012,2.1209 -2.651114,3.39078 3.308692,3.04358"
         style="fill:none;fill-rule:evenodd;stroke:#ffffff;stroke-width:2.5;stroke-linecap:round;stroke-linejoin:round;stroke-miterlimit:4;stroke-dasharray:none;stroke-opacity:1"
         inkscape:connector-curvature="0" />
      <path
         sodipodi:nodetypes="czzzzzzzzccc"
         id="path3359"
         d="m 79.155557,111.50561 c 0,0 5.323708,0.67365 7.125113,-0.50098 1.801405,-1.17464 3.135433,-3.86698 2.170934,-4.84286 -0.992711,-1.00443 -2.959954,-0.86955 -4.620192,1.50296 -1.633988,2.335 -2.373768,11.52584 -2.616252,13.19259 -0.243767,1.67557 -0.962424,2.2467 -2.337928,2.28226 -1.372939,0.0355 -2.892831,-1.33173 -2.894577,-3.45123 -0.0017,-2.06383 1.906764,-3.45869 4.453196,-3.45122 2.54566,0.007 4.016743,0.77807 4.564526,2.33793 0.547783,1.55986 -1.725614,5.2325 -1.725614,5.2325 l 2.671918,0.0557 -2.449258,6.06748"
         style="fill:none;fill-rule:evenodd;stroke:#ffffff;stroke-width:2.5;stroke-linecap:round;stroke-linejoin:round;stroke-miterlimit:4;stroke-dasharray:none;stroke-opacity:1"
         inkscape:connector-curvature="0" />
      <path
         sodipodi:nodetypes="ccczzzz"
         id="path3361"
         d="m 95.465387,132.37996 6.067483,-4.67585 -5.733493,-3.45123 c 0,0 7.474543,-5.07362 7.514763,-9.90836 0.0402,-4.8346 -2.60741,-6.64543 -4.842846,-6.56846 -2.235438,0.077 -4.49836,2.13359 -4.453195,6.3458 0.04695,4.37919 5.981541,8.65369 11.466981,8.29408"
         style="fill:none;fill-rule:evenodd;stroke:#ffffff;stroke-width:2.5;stroke-linecap:round;stroke-linejoin:round;stroke-miterlimit:4;stroke-dasharray:none;stroke-opacity:1"
         inkscape:connector-curvature="0" />
      <path
         sodipodi:nodetypes="ccccczzzz"
         id="path3363"
         d="m 114.83679,112.28492 2.56059,3.39556 -2.2266,3.06157 4.11921,0.27833 c 0,0 0.0795,6.59441 0.11133,9.6857 -0.80316,-2.6422 -1.87512,-5.25101 -4.2862,-5.17684 -2.41109,0.0742 -4.04683,3.80884 -4.11922,7.4591 -0.0735,3.7066 1.54094,8.40812 4.23054,8.40541 2.6896,-0.003 3.77163,-3.98387 3.95222,-6.87322"
         style="fill:none;fill-rule:evenodd;stroke:#ffffff;stroke-width:2.5;stroke-linecap:round;stroke-linejoin:round;stroke-miterlimit:4;stroke-dasharray:none;stroke-opacity:1"
         inkscape:connector-curvature="0" />
      <path
         sodipodi:nodetypes="cccczzzz"
         id="path3365"
         d="m 129.03135,135.10755 4.11921,-3.95222 -2.56059,-4.06354 5.62216,-3.0059 c 0,0 -6.99828,-3.90796 -6.90245,-7.68177 0.0972,-3.82942 2.34857,-4.88553 4.39753,-4.84285 2.04896,0.0427 4.3819,0.87422 4.45319,4.34187 0.0724,3.52329 -6.42234,6.97175 -10.29801,6.79112"
         style="fill:none;fill-rule:evenodd;stroke:#ffffff;stroke-width:2.5;stroke-linecap:round;stroke-linejoin:round;stroke-miterlimit:4;stroke-dasharray:none;stroke-opacity:1"
         inkscape:connector-curvature="0" />
      <path
         sodipodi:nodetypes="czzzccc"
         id="path3367"
         d="m 145.67517,122.3046 c 5.99737,-0.42789 10.7246,-5.69779 10.63201,-9.18471 -0.0941,-3.54255 -1.65248,-5.71733 -4.56453,-5.73349 -2.91121,-0.0162 -5.15766,2.76455 -4.67585,7.51477 0.48739,4.80533 7.62609,8.96206 7.62609,8.96206 l -5.78915,4.06354 5.51083,3.33989"
         style="fill:none;fill-rule:evenodd;stroke:#ffffff;stroke-width:2.5;stroke-linecap:round;stroke-linejoin:round;stroke-miterlimit:4;stroke-dasharray:none;stroke-opacity:1"
         inkscape:connector-curvature="0" />
      <path
         sodipodi:nodetypes="czzcccc"
         id="path3369"
         d="m 188.14753,100.03863 c -0.7604,-1.363034 -2.1999,-4.291653 -4.73152,-4.230538 -2.53089,0.0611 -4.19655,2.063405 -4.11921,6.345798 0.0773,4.28176 5.95615,8.85073 5.95615,8.85073 l -2.56059,2.2266 3.00591,2.95024 -3.89655,3.67389"
         style="fill:none;fill-rule:evenodd;stroke:#ffffff;stroke-width:2.5;stroke-linecap:round;stroke-linejoin:round;stroke-miterlimit:4;stroke-dasharray:none;stroke-opacity:1"
         inkscape:connector-curvature="0" />
      <path
         sodipodi:nodetypes="ccczzzzzz"
         id="path3371"
         d="m 64.67255,143.98357 3.592919,1.21452 -1.062695,-6.42678 c 0,0 2.009768,0.68251 2.935061,0.50605 0.913963,-0.1743 1.707671,-0.55973 1.669949,-2.53023 -0.03772,-1.97049 -2.51612,-3.16432 -4.60501,-3.28929 -2.088889,-0.12497 -5.043757,-1.21748 -5.161659,-4.90864 -0.116286,-3.64061 2.303325,-5.82026 5.111054,-5.76891 2.80726,0.0513 3.820724,1.81416 4.706219,3.23869"
         style="fill:none;fill-rule:evenodd;stroke:#ffffff;stroke-width:2.5;stroke-linecap:round;stroke-linejoin:round;stroke-miterlimit:4;stroke-dasharray:none;stroke-opacity:1"
         inkscape:connector-curvature="0" />
      <path
         sodipodi:nodetypes="cccczzzzzz"
         id="path3373"
         d="m 81.068407,156.93833 v 0 l 3.390502,-3.18809 -2.074785,-3.69413 c 0,0 5.113957,-2.92278 5.111055,-8.50155 -0.0029,-5.52816 -1.802238,-7.97174 -4.908637,-7.99552 -3.105599,-0.0238 -4.566583,2.55341 -4.554405,6.02194 0.01218,3.46833 1.740553,5.01182 3.694128,4.90864 2.004038,-0.10584 2.809575,-1.92092 2.783248,-3.79534 -0.02704,-1.92501 -1.30874,-3.65543 -2.277202,-3.54231"
         style="fill:none;fill-rule:evenodd;stroke:#ffffff;stroke-width:2.5;stroke-linecap:round;stroke-linejoin:round;stroke-miterlimit:4;stroke-dasharray:none;stroke-opacity:1"
         inkscape:connector-curvature="0" />
      <path
         sodipodi:nodetypes="czzzcczzzzz"
         id="path3375"
         d="m 98.071519,165.38928 c -1.616886,-0.003 -4.155169,-1.43713 -4.149569,-3.3399 0.0055,-1.85217 1.236396,-3.27834 2.884456,-3.3399 1.597527,-0.0597 1.570145,0.65936 3.036269,0.55666 1.415775,-0.0992 1.763385,-2.34184 2.175995,-4.09897 l -7.08463,0.60725 c 2.247215,-3.54813 8.91321,-7.69121 8.85579,-12.04386 -0.0581,-4.40326 -2.27868,-7.29738 -4.402594,-7.33766 -2.124269,-0.0403 -3.313778,0.80565 -3.339898,2.58083 -0.02686,1.82577 1.536111,2.34137 1.518136,4.30138 -0.01751,1.90941 -1.652277,4.50878 -2.884457,4.95924"
         style="fill:none;fill-rule:evenodd;stroke:#ffffff;stroke-width:2.5;stroke-linecap:round;stroke-linejoin:round;stroke-miterlimit:4;stroke-dasharray:none;stroke-opacity:1"
         inkscape:connector-curvature="0" />
      <path
         sodipodi:nodetypes="ccczzzzzz"
         id="path3377"
         d="m 113.25287,144.74264 3.79534,-1.31571 -1.36633,6.17374 c 0,0 2.2842,-1.01249 3.13748,-0.60725 0.85328,0.40524 1.47322,1.05499 1.46753,2.73264 -0.006,1.67671 -1.06687,2.87252 -4.09896,3.23869 -3.0377,0.36684 -5.34304,2.40889 -5.41469,5.81952 -0.0706,3.36005 1.94976,5.34815 4.85804,5.26286 2.95885,-0.0868 3.98722,-2.49287 4.75682,-3.99775"
         style="fill:none;fill-rule:evenodd;stroke:#ffffff;stroke-width:2.5;stroke-linecap:round;stroke-linejoin:round;stroke-miterlimit:4;stroke-dasharray:none;stroke-opacity:1"
         inkscape:connector-curvature="0" />
      <path
         sodipodi:nodetypes="czzczzz"
         id="path3379"
         d="m 135.0128,164.42779 -3.89654,-3.49171 2.73264,-2.88445 -2.47962,-2.32781 c 0,0 5.29103,-4.15017 6.02193,-8.55216 0.73231,-4.41044 -1.40692,-6.70948 -4.04836,-6.7304 -2.69203,-0.0213 -4.07858,1.96882 -4.30137,3.3905"
         style="fill:none;fill-rule:evenodd;stroke:#ffffff;stroke-width:2.5;stroke-linecap:round;stroke-linejoin:round;stroke-miterlimit:4;stroke-dasharray:none;stroke-opacity:1"
         inkscape:connector-curvature="0" />
      <path
         sodipodi:nodetypes="ccccczzzz"
         id="path3381"
         d="m 150.8014,162.30241 2.63144,-3.2387 -2.07478,-3.33989 4.30137,-0.0506 -0.1012,-10.07029 c 0,0 -1.52956,5.64562 -4.30138,5.6171 -2.82242,-0.029 -4.11897,-4.65053 -4.04836,-7.59068 0.0718,-2.99072 1.31207,-7.27107 4.04836,-7.33765 2.68745,-0.0654 3.71777,3.91705 3.69413,5.46529"
         style="fill:none;fill-rule:evenodd;stroke:#ffffff;stroke-width:2.5;stroke-linecap:round;stroke-linejoin:round;stroke-miterlimit:4;stroke-dasharray:none;stroke-opacity:1"
         inkscape:connector-curvature="0" />
      <path
         sodipodi:nodetypes="ccczzzzzz"
         id="path3383"
         d="m 169.32265,156.73591 -3.64352,-3.18808 2.47962,-4.30139 c 0,0 -6.31557,-2.46072 -6.42677,-8.04611 -0.11019,-5.53481 2.42956,-8.1362 5.81951,-8.14732 3.39017,-0.0111 4.95267,2.61422 5.00985,5.36407 0.0561,2.69927 -1.54099,5.0917 -3.74473,5.11105 -2.20477,0.0194 -3.22539,-1.35871 -3.23869,-3.54232 -0.013,-2.133 1.25519,-3.52484 2.88445,-3.54231"
         style="fill:none;fill-rule:evenodd;stroke:#ffffff;stroke-width:2.5;stroke-linecap:round;stroke-linejoin:round;stroke-miterlimit:4;stroke-dasharray:none;stroke-opacity:1"
         inkscape:connector-curvature="0" />
      <path
         sodipodi:nodetypes="ccczzzzzz"
         id="path3385"
         d="m 185.71851,145.19808 -3.54231,1.0627 0.96149,-6.27496 c 0,0 -1.35709,0.44395 -2.32782,0.45544 -0.97144,0.0115 -1.95279,-0.75049 -1.97357,-2.53023 -0.0208,-1.77961 1.34509,-3.07823 4.70622,-3.13748 3.36164,-0.0592 4.54233,-2.99912 4.5038,-5.76891 -0.0385,-2.76861 -1.79314,-5.22076 -4.65562,-5.21226 -2.91248,0.009 -4.47379,2.19497 -5.11105,3.84595"
         style="fill:none;fill-rule:evenodd;stroke:#ffffff;stroke-width:2.5;stroke-linecap:round;stroke-linejoin:round;stroke-miterlimit:4;stroke-dasharray:none;stroke-opacity:1"
         inkscape:connector-curvature="0" />
      <path
         sodipodi:nodetypes="ccccczzzz"
         id="path3387"
         d="m 66.494311,177.53435 2.327807,-3.3905 -2.125389,-3.08687 4.453196,-1.21451 -0.0506,-9.31122 c 0,0 -1.277368,5.40597 -4.402592,5.41468 -3.07462,0.009 -4.16593,-3.07384 -4.149568,-7.33765 0.01656,-4.31441 1.302461,-7.83071 4.200173,-7.7931 2.847116,0.0369 3.705785,2.94445 3.896546,6.12315"
         style="fill:none;fill-rule:evenodd;stroke:#ffffff;stroke-width:2.5;stroke-linecap:round;stroke-linejoin:round;stroke-miterlimit:4;stroke-dasharray:none;stroke-opacity:1"
         inkscape:connector-curvature="0" />
      <path
         sodipodi:nodetypes="czzzcccc"
         id="path3389"
         d="m 78.28516,172.97995 c 4.428032,-0.50635 10.365604,-3.99789 10.272713,-7.13523 -0.09439,-3.1879 -2.573056,-4.40567 -4.655614,-4.35198 -2.082558,0.0537 -4.588473,1.36844 -4.149569,5.06044 0.444836,3.7419 6.426772,7.59068 6.426772,7.59068 l -4.858032,3.33989 2.530225,3.64353 -3.845942,3.13748"
         style="fill:none;fill-rule:evenodd;stroke:#ffffff;stroke-width:2.5;stroke-linecap:round;stroke-linejoin:round;stroke-miterlimit:4;stroke-dasharray:none;stroke-opacity:1"
         inkscape:connector-curvature="0" />
      <path
         sodipodi:nodetypes="czzzzzcccc"
         id="path3391"
         d="m 103.89104,172.06907 c -0.73863,-1.24669 -1.87814,-2.3617 -4.605013,-2.37841 -2.929434,-0.018 -5.058316,1.63175 -4.959241,3.59292 0.09917,1.96307 2.784617,3.17466 5.06045,3.18808 2.225504,0.0131 4.110714,0.75822 4.149564,2.32781 0.0401,1.62016 -1.08002,2.67205 -3.896546,2.63143 -2.816252,-0.0406 -4.402587,-1.2145 -4.402587,-1.2145 l 2.631434,5.51589 4.807429,-1.82177 -4.25078,7.99552"
         style="fill:none;fill-rule:evenodd;stroke:#ffffff;stroke-width:2.5;stroke-linecap:round;stroke-linejoin:round;stroke-miterlimit:4;stroke-dasharray:none;stroke-opacity:1"
         inkscape:connector-curvature="0" />
      <path
         sodipodi:nodetypes="czzczzz"
         id="path3393"
         d="m 116.59276,169.43764 -3.23868,3.23869 2.68204,3.18808 -2.2266,2.07478 c 0,0 5.83519,4.63179 6.07254,8.60277 0.23433,3.92055 -1.79852,6.74436 -4.4532,6.8316 -2.65681,0.0873 -3.99789,-2.17651 -4.04836,-3.84594"
         style="fill:none;fill-rule:evenodd;stroke:#ffffff;stroke-width:2.5;stroke-linecap:round;stroke-linejoin:round;stroke-miterlimit:4;stroke-dasharray:none;stroke-opacity:1"
         inkscape:connector-curvature="0" />
      <path
         sodipodi:nodetypes="czzzzzzzzzzz"
         id="path3395"
         d="m 134.10192,195.49895 2.12539,-5.36407 -2.83385,-0.96149 1.72055,-4.80743 c 0,0 -2.75226,-2.69335 -5.21226,-2.78324 -2.46132,-0.0899 -3.91908,1.80768 -3.94715,3.4411 -0.0281,1.63342 0.30639,3.47945 3.03627,3.3905 2.72776,-0.0889 2.62587,-5.49307 3.08687,-9.31122 0.46024,-3.8118 1.79475,-6.83508 3.59292,-7.64129 1.8404,-0.82513 3.2718,0.57348 3.28929,1.97359 0.0181,1.4507 -1.6572,3.13307 -3.4411,3.64352 -1.79667,0.5141 -4.21236,-0.0869 -5.71831,-0.30363"
         style="fill:none;fill-rule:evenodd;stroke:#ffffff;stroke-width:2.5;stroke-linecap:round;stroke-linejoin:round;stroke-miterlimit:4;stroke-dasharray:none;stroke-opacity:1"
         inkscape:connector-curvature="0" />
      <path
         sodipodi:nodetypes="czzzzzccc"
         id="path3397"
         d="m 114.80896,203.69688 c 1.03987,0.12271 2.30047,1.66465 2.46696,3.11218 0.15674,1.36273 -0.34531,3.65902 -2.58082,3.68148 -2.23557,0.0224 -4.25218,-2.67567 -4.25078,-5.88278 10e-4,-3.20687 1.64656,-5.53453 4.74417,-5.54119 3.13556,-0.007 6.45625,3.65296 5.54119,9.56425 -0.92079,5.94836 -5.95868,8.23588 -5.95868,8.23588 l 2.61879,4.02306 -3.75739,2.73264"
         style="fill:none;fill-rule:evenodd;stroke:#ffffff;stroke-width:2.5;stroke-linecap:round;stroke-linejoin:round;stroke-miterlimit:4;stroke-dasharray:none;stroke-opacity:1"
         inkscape:connector-curvature="0" />
      <path
         sodipodi:nodetypes="czzzzzccc"
         id="path3399"
         d="m 138.18823,204.87343 c 0.0155,-1.48155 -1.61062,-3.71244 -4.59235,-3.68147 -2.94378,0.0306 -4.92053,2.23521 -4.89599,5.38938 0.0242,3.11621 2.95611,4.61731 4.85803,4.63031 1.90204,0.013 3.78665,0.39822 4.25078,1.74585 0.45246,1.31375 -0.3098,2.86684 -1.55609,3.15014 -1.23861,0.28155 -2.92241,-0.41749 -2.92241,-0.41749 l 1.632,6.03459 -3.64353,-1.36633"
         style="fill:none;fill-rule:evenodd;stroke:#ffffff;stroke-width:2.5;stroke-linecap:round;stroke-linejoin:round;stroke-miterlimit:4;stroke-dasharray:none;stroke-opacity:1"
         inkscape:connector-curvature="0" />
      <path
         sodipodi:nodetypes="cszzsc"
         id="path3401"
         d="m 148.62499,223.68373 c 1.16626,-1.45954 2.37429,-3.35774 2.42944,-4.99526 0.0898,-2.66767 -1.39138,-3.20657 -1.36632,-4.93394 0.0251,-1.72833 2.29538,-2.30201 4.25077,-1.93562 1.95539,0.36639 3.36578,3.01174 3.37786,6.18639 0.007,1.77797 -0.79788,3.9755 -1.69729,5.74823"
         style="fill:none;fill-rule:evenodd;stroke:#ffffff;stroke-width:2.5;stroke-linecap:round;stroke-linejoin:round;stroke-miterlimit:4;stroke-dasharray:none;stroke-opacity:1"
         inkscape:connector-curvature="0" />
      <path
         sodipodi:nodetypes="ccczzsc"
         id="path3403"
         d="m 166.57736,210.33872 3.71943,-1.36632 -0.68316,6.30026 c 0,0 0.78848,-0.7828 1.78381,-0.79701 0.99659,-0.0142 2.17235,0.70503 2.20129,2.50491 0.0283,1.76194 -1.0239,2.71768 -4.02306,3.3399 -2.6268,0.54497 -4.22029,1.61984 -4.58752,3.42709"
         style="fill:none;fill-rule:evenodd;stroke:#ffffff;stroke-width:2.5;stroke-linecap:round;stroke-linejoin:round;stroke-miterlimit:4;stroke-dasharray:none;stroke-opacity:1"
         inkscape:connector-curvature="0" />
      <path
         sodipodi:nodetypes="czzccc"
         id="path3405"
         d="m 179.55741,206.96087 c -0.0179,-1.50161 1.88263,-4.05428 4.32669,-4.061 2.44366,-0.007 4.3349,2.00267 4.02305,6.49002 -0.31201,4.48982 -5.57914,8.50156 -5.57914,8.50156 l 1.97357,1.97357 -2.58082,3.45376"
         style="fill:none;fill-rule:evenodd;stroke:#ffffff;stroke-width:2.5;stroke-linecap:round;stroke-linejoin:round;stroke-miterlimit:4;stroke-dasharray:none;stroke-opacity:1"
         inkscape:connector-curvature="0" />
    </g>
  </g>
</svg>
