<?xml version="1.0" encoding="UTF-8" standalone="no"?>
<!-- Created with Inkscape (http://www.inkscape.org/) -->

<svg
   xmlns:dc="http://purl.org/dc/elements/1.1/"
   xmlns:cc="http://creativecommons.org/ns#"
   xmlns:rdf="http://www.w3.org/1999/02/22-rdf-syntax-ns#"
   xmlns:svg="http://www.w3.org/2000/svg"
   xmlns="http://www.w3.org/2000/svg"
   xmlns:sodipodi="http://sodipodi.sourceforge.net/DTD/sodipodi-0.dtd"
   xmlns:inkscape="http://www.inkscape.org/namespaces/inkscape"
   width="250"
   height="250"
   id="svg2"
   sodipodi:version="0.32"
   inkscape:version="0.92.2 (5c3e80d, 2017-08-06)"
   version="1.0"
   sodipodi:docname="Star-icon.svg"
   inkscape:output_extension="org.inkscape.output.svg.inkscape">
  <defs
     id="defs4">
    <inkscape:perspective
       sodipodi:type="inkscape:persp3d"
       inkscape:vp_x="0 : 526.18109 : 1"
       inkscape:vp_y="0 : 1000 : 0"
       inkscape:vp_z="744.09448 : 526.18109 : 1"
       inkscape:persp3d-origin="372.04724 : 350.78739 : 1"
       id="perspective10" />
    <inkscape:perspective
       id="perspective3217"
       inkscape:persp3d-origin="372.04724 : 350.78739 : 1"
       inkscape:vp_z="744.09448 : 526.18109 : 1"
       inkscape:vp_y="0 : 1000 : 0"
       inkscape:vp_x="0 : 526.18109 : 1"
       sodipodi:type="inkscape:persp3d" />
    <clipPath
       clipPathUnits="userSpaceOnUse"
       id="clipPath3225">
      <rect
         style="opacity:1;fill:none;fill-opacity:1;stroke:#000000;stroke-width:2;stroke-linecap:round;stroke-linejoin:round;stroke-miterlimit:4;stroke-dasharray:none;stroke-opacity:1"
         id="rect3227"
         width="164.63417"
         height="162.77841"
         x="46.394485"
         y="53.022266"
         ry="0" />
    </clipPath>
  </defs>
  <sodipodi:namedview
     id="base"
     pagecolor="#ffffff"
     bordercolor="#666666"
     borderopacity="1.0"
     gridtolerance="10000"
     guidetolerance="10"
     objecttolerance="10"
     inkscape:pageopacity="0.0"
     inkscape:pageshadow="2"
     inkscape:zoom="2.024"
     inkscape:cx="125"
     inkscape:cy="125"
     inkscape:document-units="px"
     inkscape:current-layer="layer1"
     showgrid="false"
     inkscape:window-width="1366"
     inkscape:window-height="705"
     inkscape:window-x="-8"
     inkscape:window-y="-8"
     inkscape:snap-global="false"
     inkscape:window-maximized="1" />
  <metadata
     id="metadata7">
    <rdf:RDF>
      <cc:Work
         rdf:about="">
        <dc:format>image/svg+xml</dc:format>
        <dc:type
           rdf:resource="http://purl.org/dc/dcmitype/StillImage" />
      </cc:Work>
    </rdf:RDF>
  </metadata>
  <g
     inkscape:label="Layer 1"
     inkscape:groupmode="layer"
     id="layer1">
    <path
       inkscape:connector-curvature="0"
       id="path775"
       d="M 22,22 V 228 H 228 V 22 Z"
       style="fill:#ffffff;fill-opacity:1;stroke:none;stroke-width:2;stroke-linecap:round;stroke-linejoin:round;stroke-miterlimit:4;stroke-dasharray:none;stroke-opacity:1"
       sodipodi:nodetypes="ccccc" />
    <rect
       style="fill:#ffffff;fill-opacity:1;stroke:none;stroke-width:2;stroke-linecap:round;stroke-linejoin:round;stroke-miterlimit:4;stroke-dasharray:none;stroke-opacity:1"
       id="rect3515"
       width="180"
       height="180"
       x="35"
       y="35" />
    <path
       style="fill:#000000;fill-opacity:1;stroke:none;stroke-width:2;stroke-linecap:round;stroke-linejoin:round;stroke-miterlimit:4;stroke-dasharray:none;stroke-opacity:1"
       d="M 25,25 V 225 H 225 V 25 Z M 45,45 H 205 V 205 H 45 Z"
       id="rect3229"
       inkscape:connector-curvature="0" />
    <path
       style="fill:#000000;fill-opacity:1;stroke:none;stroke-width:2;stroke-linecap:round;stroke-linejoin:round;stroke-miterlimit:4;stroke-dasharray:none;stroke-opacity:1"
       d="m 57.5,57.5 v 135 h 135 V 57.5 Z M 60,60 H 190 V 190 H 60 Z"
       id="rect3234"
       inkscape:connector-curvature="0" />
    <path
       style="fill:none;fill-rule:evenodd;stroke:#000000;stroke-width:2;stroke-linecap:butt;stroke-linejoin:miter;stroke-miterlimit:4;stroke-dasharray:none;stroke-opacity:1"
       d="m 70.40625,171.53125 c 3.698897,-1.66828 3.593047,-3.76233 5.15625,-7.0625 1.563204,-3.30017 3.018192,-10.30898 -0.03125,-13.25 -3.04944,-2.94102 -7.375034,-0.27022 -10.970456,-1.32551 -2.142551,-0.62886 -3.83232,-3.70894 -5.75,-5.96875"
       id="path3517"
       sodipodi:nodetypes="csssc"
       inkscape:connector-curvature="0" />
    <path
       style="fill:none;fill-rule:evenodd;stroke:#000000;stroke-width:2;stroke-linecap:butt;stroke-linejoin:miter;stroke-miterlimit:4;stroke-dasharray:none;stroke-opacity:1"
       d="m 162.33767,190.75316 c -0.0395,-0.14215 -0.19683,-1.0672 -0.24392,-1.19066 -0.75341,-1.97533 -1.22111,-2.30964 -3.09375,-3.21875 -1.87263,-0.90911 -5.82692,-0.99936 -7.9375,-2 -2.11058,-1.00062 -3.25165,-3.85249 -4.96875,-4.34375 -1.7171,-0.49126 -3.25912,0.14036 -4.78125,-0.3125 -1.52215,-0.45285 -2.12286,-1.86049 -4.1875,-2.75 -2.06462,-0.88952 -6.8831,0.40261 -9.53125,-0.40625 -2.64815,-0.80887 -3.2151,-4.39418 -7.59375,-4.65625 -4.64303,-0.27788 -8.48619,5.51609 -11.25,6.40625 -2.76382,0.89016 -4.20357,0.60471 -6.09375,-0.0937 -1.89017,-0.69848 -3.70304,-3.95899 -5.25,-4.0625 -1.546965,-0.10352 -1.32902,1.11753 -2.90625,1.03125 -1.577227,-0.0863 -2.136642,-2.76779 -4.5,-2.75 -2.36336,0.0178 -2.067046,3.32343 -6.40625,4.125 -2.736864,0.50557 -7.545871,-2.92594 -12.125,-5.53125 -0.318227,0.19165 -0.630945,0.35071 -1.03125,0.53125 -1.974393,0.8905 -7.015576,1.32632 -11.230304,1.0625"
       id="path3519"
       sodipodi:nodetypes="csssssssssssssscsc"
       inkscape:connector-curvature="0" />
    <path
       style="fill:none;fill-rule:evenodd;stroke:#000000;stroke-width:2;stroke-linecap:butt;stroke-linejoin:miter;stroke-miterlimit:4;stroke-dasharray:none;stroke-opacity:1"
       d="m 96.53125,174.28125 c 0.204474,-4.37935 -1.358931,-8.98904 -0.75,-12.375 0.89616,-4.98311 9.16979,-11.11216 7.125,-14.46875 -2.04479,-3.35659 -4.966536,1.40457 -10.0625,-0.1875 -5.095967,-1.59206 -15.054289,-13.47677 -21.21875,-14.125 -0.385279,-0.0405 -0.766766,-0.0792 -1.125,-0.0625 -4.781321,0.22325 -8.09772,5.59825 -11.332444,6.4589"
       id="path3301"
       inkscape:connector-curvature="0" />
    <path
       style="fill:none;fill-rule:evenodd;stroke:#000000;stroke-width:2;stroke-linecap:butt;stroke-linejoin:miter;stroke-miterlimit:4;stroke-dasharray:none;stroke-opacity:1"
       d="m 78.46875,175.0625 c 0.78351,4.23744 2.781337,8.93497 2,11.5 -0.443773,1.45685 -2.435084,3.58098 -3.522255,4.50779"
       id="path3296"
       inkscape:connector-curvature="0" />
    <path
       style="fill:none;fill-rule:evenodd;stroke:#000000;stroke-width:2;stroke-linecap:butt;stroke-linejoin:miter;stroke-miterlimit:4;stroke-dasharray:none;stroke-opacity:1"
       d="m 103.50608,190.7928 c 0.26313,-1.82293 0.44662,-4.46517 0.36892,-6.19905 -0.0841,-1.87697 -0.99208,-4.44584 -2.28125,-7.03125"
       id="path3536"
       inkscape:connector-curvature="0" />
    <path
       style="fill:none;fill-rule:evenodd;stroke:#000000;stroke-width:2;stroke-linecap:butt;stroke-linejoin:miter;stroke-miterlimit:4;stroke-dasharray:none;stroke-opacity:1"
       d="m 127.59375,176.53125 c -0.1797,-0.0549 -0.33752,-0.14013 -0.5,-0.21875 -0.21722,1.46641 -0.38507,2.90418 -0.625,4.15625 -0.49454,2.58078 -1.56394,7.32402 -1.61053,10.60154"
       id="path3292"
       inkscape:connector-curvature="0" />
    <path
       style="fill:none;fill-rule:evenodd;stroke:#000000;stroke-width:2;stroke-linecap:butt;stroke-linejoin:miter;stroke-miterlimit:4;stroke-dasharray:none;stroke-opacity:1"
       d="m 147.3643,191.30813 c 0.27767,-0.96804 0.67685,-3.15645 0.72945,-3.80813 0.16006,-1.98285 -1.11869,-5.32244 -2.0625,-7.5"
       id="path3541"
       inkscape:connector-curvature="0" />
    <path
       style="fill:none;fill-rule:evenodd;stroke:#000000;stroke-width:2;stroke-linecap:butt;stroke-linejoin:miter;stroke-miterlimit:4;stroke-dasharray:none;stroke-opacity:1"
       d="m 161.7286,58.771154 c 0.47042,1.783758 1.20653,4.577743 1.24015,5.666346 0.12848,4.160294 -1.84778,9.454144 -4.1875,11.59375 -2.33973,2.139603 -4.84264,1.572461 -6.40625,3.34375 -1.56362,1.771287 0.30515,3.416319 -2,7.375 -2.30514,3.958683 -13.11283,13.40915 -18.8125,14.28125 -5.69967,0.8721 -9.51367,-1.044415 -13.96875,-5.03125 -4.45508,-3.986832 -5.5293,-18.538048 -10.21875,-21.125 -4.68946,-2.586951 -7.999836,0.304776 -11.40625,-0.1875 -3.406418,-0.492277 -6.965051,-3.834382 -10.5625,-3.125 -3.597447,0.70938 -8.807968,4.452976 -9.15625,8.0625 -0.348279,3.609528 5.183729,6.759509 7.5625,8.375 2.491713,1.692192 8.878414,1.680033 12.84375,-0.59375 3.54225,-2.031174 11.4991,8.86823 10.03125,11.59375 -1.46787,2.72553 -29.473473,-0.416447 -32.625,0.75 -3.15153,1.16646 -4.816167,2.36457 -6.40625,2.8125 -1.590085,0.44793 -2.076784,-1.46138 -4.78125,-0.625 -0.762649,0.23586 -2.844785,1.36044 -3.945285,2.14032"
       id="path3273"
       inkscape:connector-curvature="0" />
    <path
       style="fill:none;fill-rule:evenodd;stroke:#000000;stroke-width:2;stroke-linecap:butt;stroke-linejoin:miter;stroke-miterlimit:4;stroke-dasharray:none;stroke-opacity:1"
       d="m 190.71352,104.20428 c -2.39954,-0.18574 -5.47223,-0.42492 -6.68227,-1.20428 -2.473,-1.5928 -2.65073,-4.778547 -3.875,-5.90625 -1.22426,-1.127703 -2.61884,0.504078 -3.6875,-1.125 -1.06867,-1.629077 -0.29022,-6.206588 -0.65625,-8.21875 -0.36602,-2.012163 -2.47621,-1.974445 -2.5625,-5.34375 -0.0863,-3.369306 4.24663,-12.777138 6.375,-15.28125 2.12836,-2.504112 3.35857,-3.733493 5.15625,-6 0.24855,-0.313373 0.95044,-1.696895 1.05496,-2.116005"
       id="path3271"
       inkscape:connector-curvature="0" />
    <path
       style="fill:none;fill-rule:evenodd;stroke:#000000;stroke-width:2;stroke-linecap:butt;stroke-linejoin:miter;stroke-miterlimit:4;stroke-dasharray:none;stroke-opacity:1"
       d="m 59.008995,122.1464 c 1.539285,-0.61668 3.930502,-1.48415 4.866005,-1.36515 3.135685,0.39886 3.578678,1.52674 7.40625,1.1875 3.82757,-0.33924 10.960192,-10.06586 19.28125,-11.3125 8.321056,-1.24666 21.81013,4.37212 29.5,12.15625 7.68987,7.78414 8.63015,24.74841 13.75,31.8125 5.11986,7.06409 10.05359,14.61312 15.09375,15.90625 5.04015,1.29313 9.17985,-2.98576 13.5625,-1.09375 4.38265,1.89203 3.72653,10.91704 9.34375,11.84375 5.35859,0.88404 8.87732,-1.97361 9.34375,-4.09375 0.46641,-2.12015 -1.20491,-2.68252 -1.25,-4 -0.0451,-1.31748 1.62561,-2.41089 1.375,-3.9375 -0.2506,-1.52661 -3.17914,-2.10026 -3.625,-4.0625 -0.44585,-1.96224 2.63991,-4.60899 2.25,-7.65625 -0.3899,-3.04726 -5.10264,-7.46171 -5.125,-10.15625 -0.0224,-2.69454 1.30143,-3.41547 1.40625,-5.28125 0.10481,-1.86576 -3.31562,-2.15047 -2.8125,-4.8125 0.50313,-2.66202 5.29794,-6.96137 6.53125,-9.96875 1.23332,-3.00737 -1.01772,-5.41779 1.46875,-9 1.17447,-1.69203 5.74076,-2.08773 9.49708,-2.41464"
       id="path3546"
       inkscape:connector-curvature="0" />
    <path
       style="fill:none;fill-rule:evenodd;stroke:#000000;stroke-width:2;stroke-linecap:butt;stroke-linejoin:miter;stroke-miterlimit:4;stroke-dasharray:none;stroke-opacity:1"
       d="m 69.696702,122.04392 c 0.175023,3.87385 1.060997,7.6435 2.555423,11.1713"
       id="path3286"
       sodipodi:nodetypes="cc"
       inkscape:connector-curvature="0" />
    <path
       style="fill:none;fill-rule:evenodd;stroke:#000000;stroke-width:2;stroke-linecap:butt;stroke-linejoin:miter;stroke-miterlimit:4;stroke-dasharray:none;stroke-opacity:1"
       d="m 142.69883,179.85804 c 2.437,-2.75086 4.14143,-5.98727 5.23189,-9.66017"
       id="path3548"
       inkscape:connector-curvature="0" />
    <path
       style="fill:none;fill-rule:evenodd;stroke:#000000;stroke-width:2;stroke-linecap:butt;stroke-linejoin:miter;stroke-miterlimit:4;stroke-dasharray:none;stroke-opacity:1"
       d="m 96.649455,87.384029 c 0.04928,-0.02826 0.106367,-0.03646 0.157317,-0.05976 0.766412,-2.251996 1.094402,-4.583741 0.631521,-5.739853 -0.723155,-1.80619 -2.087943,-1.279746 -2.605125,-2.952168 -0.303665,-0.981968 0.612193,-2.343455 1.100357,-3.950148"
       id="path3559"
       sodipodi:nodetypes="ccssc"
       inkscape:connector-curvature="0" />
    <path
       style="fill:none;fill-rule:evenodd;stroke:#000000;stroke-width:2;stroke-linecap:butt;stroke-linejoin:miter;stroke-miterlimit:4;stroke-dasharray:none;stroke-opacity:1"
       d="m 168.15625,178.6875 c -2.81181,2.94007 -5.9902,5.58213 -10.4375,7.21875"
       id="path3282"
       inkscape:connector-curvature="0" />
    <path
       style="fill:none;fill-rule:evenodd;stroke:#000000;stroke-width:2;stroke-linecap:butt;stroke-linejoin:miter;stroke-miterlimit:4;stroke-dasharray:none;stroke-opacity:1"
       d="m 180.70428,190.5946 c -0.20982,-2.15531 -0.86646,-4.58718 -1.76678,-5.2821 -0.93047,-0.71819 -1.50352,-2.44058 -2.28125,-4.28125"
       id="path3603"
       inkscape:connector-curvature="0" />
    <path
       style="fill:none;fill-rule:evenodd;stroke:#000000;stroke-width:2;stroke-linecap:butt;stroke-linejoin:miter;stroke-miterlimit:4;stroke-dasharray:none;stroke-opacity:1"
       d="m 180.5625,171.4375 c 1.81909,1.06828 3.48983,1.90847 4.5,2.21875 3.15663,0.96956 2.01461,-1.03179 4.21875,-0.28125 0.23684,0.0806 1.50481,0.73159 1.74939,0.94443"
       id="path3278"
       inkscape:connector-curvature="0" />
    <path
       style="fill:none;fill-rule:evenodd;stroke:#000000;stroke-width:2;stroke-linecap:butt;stroke-linejoin:miter;stroke-miterlimit:4;stroke-dasharray:none;stroke-opacity:1"
       d="m 190.95136,156.83682 c -2.15616,1.38287 -5.20481,3.08613 -6.95136,2.75693 -1.35219,-0.25487 -2.77745,-1.29511 -4.1875,-2.5 0.0383,0.15401 0.0748,0.28962 0.0937,0.4375"
       id="path3611"
       inkscape:connector-curvature="0" />
    <path
       style="fill:none;fill-rule:evenodd;stroke:#000000;stroke-width:2;stroke-linecap:butt;stroke-linejoin:miter;stroke-miterlimit:4;stroke-dasharray:none;stroke-opacity:1"
       d="m 176.1875,142.09375 c 0.50195,-0.37821 1.49006,-0.59888 2.21875,-0.78125 3.01306,0.0391 4.02507,1.50582 6.65625,1.3125 2.63118,-0.19332 4.55079,-3.39186 6.16635,-6.21061"
       id="path3267"
       inkscape:connector-curvature="0" />
    <path
       style="fill:none;fill-rule:evenodd;stroke:#000000;stroke-width:2;stroke-linecap:butt;stroke-linejoin:miter;stroke-miterlimit:4;stroke-dasharray:none;stroke-opacity:1"
       d="m 190.75316,132.67449 c -0.31345,0.13746 -1.39033,0.60861 -1.72191,0.66926 -2.18604,0.39983 -3.60407,-0.28084 -4.78125,-1.3125 -1.1807,-1.03475 -2.57042,-3.0556 -4.125,-5.375 -0.0565,0.21596 -0.12777,0.43439 -0.21875,0.65625"
       id="path3616"
       inkscape:connector-curvature="0" />
    <path
       style="fill:none;fill-rule:evenodd;stroke:#000000;stroke-width:2;stroke-linecap:butt;stroke-linejoin:miter;stroke-miterlimit:4;stroke-dasharray:none;stroke-opacity:1"
       d="m 176.15625,73.25 c 1.25176,3.8179 3.03947,7.468056 5.71875,9.1875 2.20859,1.417378 5.82686,1.403254 8.83852,0.747689"
       id="path3621"
       sodipodi:nodetypes="csc"
       inkscape:connector-curvature="0" />
    <path
       style="fill:none;fill-rule:evenodd;stroke:#000000;stroke-width:2;stroke-linecap:butt;stroke-linejoin:miter;stroke-miterlimit:4;stroke-dasharray:none;stroke-opacity:1"
       d="m 178.09375,69.46875 c -3.38212,0.717853 -6.73735,1.492832 -8.9375,1.0625 -2.3698,-0.463512 -4.38324,-3.152249 -6.1875,-5.6875"
       id="path3255"
       inkscape:connector-curvature="0" />
    <path
       style="fill:none;fill-rule:evenodd;stroke:#000000;stroke-width:2;stroke-linecap:butt;stroke-linejoin:miter;stroke-miterlimit:4;stroke-dasharray:none;stroke-opacity:1"
       d="m 158.78125,76.03125 c 0.20709,1.665115 0.54509,3.137164 1.09375,4.03125 1.52062,2.477951 3.11596,3.45216 7.15625,3.1875 1.56343,-0.102414 3.86682,-0.843461 6.3125,-1.9375"
       id="path3626"
       inkscape:connector-curvature="0" />
    <path
       style="fill:none;fill-rule:evenodd;stroke:#000000;stroke-width:2;stroke-linecap:butt;stroke-linejoin:miter;stroke-miterlimit:4;stroke-dasharray:none;stroke-opacity:1"
       d="m 74.0625,99.75 c 1.715994,-0.635126 10.74866,0.0061 18.90625,0.28125 C 90.645415,96.898843 84.883514,94.994445 83.5,90.65625 83.145882,89.545864 83.044824,88.498265 83.0625,87.5"
       id="path3263"
       inkscape:connector-curvature="0" />
    <path
       style="fill:none;fill-rule:evenodd;stroke:#000000;stroke-width:2;stroke-linecap:butt;stroke-linejoin:miter;stroke-miterlimit:4;stroke-dasharray:none;stroke-opacity:1"
       d="m 76.46875,78.71875 c -1.985445,1.247842 -3.869389,2.53304 -5.15625,2.40625 -2.891585,-0.284895 -4.057027,-1.073981 -7.15625,-1.3125 -0.99674,-0.07671 -3.655666,0.174856 -5.305816,0.493921"
       id="path3631"
       inkscape:connector-curvature="0" />
    <path
       style="fill:none;fill-rule:evenodd;stroke:#000000;stroke-width:2;stroke-linecap:butt;stroke-linejoin:miter;stroke-miterlimit:4;stroke-dasharray:none;stroke-opacity:1"
       d="m 107.375,74.875 c 0.0463,0.02555 0.0794,0.06589 0.125,0.09375 0.25106,-1.781805 0.20775,-3.497129 0.125,-4.71875 -0.21294,-3.143648 0.17925,-5.409502 0.53125,-8.75 0.0497,-0.471541 0.70609,-2.162684 0.97568,-2.689206"
       id="path3259"
       inkscape:connector-curvature="0" />
    <path
       style="fill:none;fill-rule:evenodd;stroke:#000000;stroke-width:2;stroke-linecap:butt;stroke-linejoin:miter;stroke-miterlimit:4;stroke-dasharray:none;stroke-opacity:1"
       d="m 82.71875,58.969355 c -0.0023,0.06836 0.0023,1.148824 0,1.218145 -0.240313,3.864162 1.264443,8.786689 2.6875,11.375"
       id="path3636"
       inkscape:connector-curvature="0" />
    <path
       style="fill:none;fill-rule:evenodd;stroke:#000000;stroke-width:2;stroke-linecap:butt;stroke-linejoin:miter;stroke-miterlimit:4;stroke-dasharray:none;stroke-opacity:1"
       d="m 180.75,119.4375 c -4.69516,-3.216 -12.47275,-5.53969 -16.90625,-5.71875 -2.23438,-0.0902 -4.61041,-0.281 -6.8125,-0.1875 -3.67015,0.15583 -6.84757,1.13384 -8.03125,4.71875 -1.89389,5.73585 1.62273,10.89427 7.40625,14.03125 4.14544,2.24849 11.89023,4.09947 17.5,3.625"
       id="path3641"
       sodipodi:nodetypes="cscssc"
       inkscape:connector-curvature="0" />
    <path
       style="fill:none;fill-rule:evenodd;stroke:#000000;stroke-width:2;stroke-linecap:butt;stroke-linejoin:miter;stroke-miterlimit:4;stroke-dasharray:none;stroke-opacity:1"
       d="m 177.8125,163.8125 c -2.17489,0.35934 -4.17042,0.78776 -5.5,0.8125 -3.85788,0.0718 -4.84096,-0.67612 -7.15625,1.0625 -1.06125,0.79692 -2.59384,1.9909 -3.90625,3.40625"
       id="path3646"
       sodipodi:nodetypes="cssc"
       inkscape:connector-curvature="0" />
    <path
       style="fill:none;fill-rule:evenodd;stroke:#000000;stroke-width:2;stroke-linecap:butt;stroke-linejoin:miter;stroke-miterlimit:4;stroke-dasharray:none;stroke-opacity:1"
       d="m 107.59375,67.75 c 3.21248,-0.04138 6.77529,-0.326097 8.78125,0.375 3.40557,1.190273 4.13357,4.623141 7.4375,5.84375 3.30393,1.220611 10.17429,0.261135 13.5,-1.84375 3.32571,-2.10489 4.28583,-6.268597 5.0625,-10.34375 0.0996,-0.522641 0.30265,-2.250363 0.42303,-2.851535"
       id="path3651"
       sodipodi:nodetypes="cssssc"
       inkscape:connector-curvature="0" />
    <path
       style="fill:none;fill-rule:evenodd;stroke:#000000;stroke-width:2;stroke-linecap:butt;stroke-linejoin:miter;stroke-miterlimit:4;stroke-dasharray:none;stroke-opacity:1"
       d="m 139.71875,69.75 c 1.0085,1.826455 2.26463,3.582065 3.71875,5 1.97519,1.926039 5.7334,3.530343 9.21875,4.3125"
       id="path3656"
       sodipodi:nodetypes="css"
       inkscape:connector-curvature="0" />
    <path
       id="path3283"
       style="fill:#000000;fill-opacity:1;stroke:none;stroke-width:2;stroke-linecap:round;stroke-linejoin:round;stroke-miterlimit:4;stroke-opacity:1"
       d="M 124.96882,62.291832 106.72965,93.715275 125.0325,124.93267 Z"
       sodipodi:nodetypes="cccc"
       inkscape:connector-curvature="0" />
    <path
       sodipodi:nodetypes="cccc"
       d="m 125.04205,125.06183 54.28039,31.26529 -18.09392,-31.5073 z"
       style="fill:#000000;fill-opacity:1;stroke:none;stroke-width:2;stroke-linecap:round;stroke-linejoin:round;stroke-miterlimit:4;stroke-opacity:1"
       id="path3308"
       inkscape:connector-curvature="0" />
    <path
       id="path3312"
       style="fill:#000000;fill-opacity:1;stroke:none;stroke-width:2;stroke-linecap:round;stroke-linejoin:round;stroke-miterlimit:4;stroke-opacity:1"
       d="m 179.2913,93.618948 -36.33308,-0.08385 -17.88365,31.459412 z"
       sodipodi:nodetypes="cccc"
       inkscape:connector-curvature="0" />
    <path
       sodipodi:nodetypes="cccc"
       d="M 124.92543,124.9945 70.708703,93.618948 107.04178,93.535098 Z"
       style="fill:#000000;fill-opacity:1;stroke:none;stroke-width:2;stroke-linecap:round;stroke-linejoin:round;stroke-miterlimit:4;stroke-opacity:1"
       id="path3316"
       inkscape:connector-curvature="0" />
    <path
       sodipodi:nodetypes="cccc"
       d="m 124.96882,187.70817 -18.23916,-31.42344 18.30284,-31.2174 z"
       style="fill:#000000;fill-opacity:1;stroke:none;stroke-width:2;stroke-linecap:round;stroke-linejoin:round;stroke-miterlimit:4;stroke-opacity:1"
       id="path3324"
       inkscape:connector-curvature="0" />
    <path
       id="path3348"
       style="fill:#ffffff;fill-opacity:1;stroke:none;stroke-width:2;stroke-linecap:round;stroke-linejoin:round;stroke-miterlimit:4;stroke-opacity:1"
       d="m 125.07457,125.0055 54.21673,31.37556 -36.33308,0.0839 v 0 l -17.88365,-31.45941 z"
       sodipodi:nodetypes="cccccc"
       inkscape:connector-curvature="0" />
    <path
       sodipodi:nodetypes="ccccc"
       d="m 125.04205,124.93817 54.28039,-31.265283 -18.09392,31.507293 v 0 z"
       style="fill:#ffffff;fill-opacity:1;stroke:none;stroke-width:2;stroke-linecap:round;stroke-linejoin:round;stroke-miterlimit:4;stroke-opacity:1"
       id="path3352"
       inkscape:connector-curvature="0" />
    <path
       id="path3356"
       style="fill:#ffffff;fill-opacity:1;stroke:none;stroke-width:2;stroke-linecap:round;stroke-linejoin:round;stroke-miterlimit:4;stroke-opacity:1"
       d="m 124.96748,124.93267 0.0637,-62.640838 18.23916,31.423441 v 0 l -18.30282,31.217397 z"
       sodipodi:nodetypes="cccccc"
       inkscape:connector-curvature="0" />
    <path
       sodipodi:nodetypes="ccccc"
       d="M 124.95795,124.93817 70.677569,93.672878 88.771484,125.18018 v 0 z"
       style="fill:#ffffff;fill-opacity:1;stroke:none;stroke-width:2;stroke-linecap:round;stroke-linejoin:round;stroke-miterlimit:4;stroke-opacity:1"
       id="path3360"
       inkscape:connector-curvature="0" />
    <path
       id="path3364"
       style="fill:#ffffff;fill-opacity:1;stroke:none;stroke-width:2;stroke-linecap:round;stroke-linejoin:round;stroke-miterlimit:4;stroke-opacity:1"
       d="m 124.92543,125.0055 -54.216729,31.37555 36.333079,0.0839 v 0 l 17.88365,-31.45941 z"
       sodipodi:nodetypes="cccccc"
       inkscape:connector-curvature="0" />
    <path
       sodipodi:nodetypes="cccccc"
       d="m 124.96748,125.06733 0.0637,62.64084 18.23916,-31.42344 v 0 l -18.30282,-31.2174 z"
       style="fill:#ffffff;fill-opacity:1;stroke:none;stroke-width:2;stroke-linecap:round;stroke-linejoin:round;stroke-miterlimit:4;stroke-opacity:1"
       id="path3368"
       inkscape:connector-curvature="0" />
    <path
       id="path3320"
       style="fill:#000000;fill-opacity:1;stroke:none;stroke-width:2;stroke-linecap:round;stroke-linejoin:round;stroke-miterlimit:4;stroke-opacity:1"
       d="m 124.95795,125.06183 c -17.99544,10.4189 -36.60791,20.77433 -54.280386,31.26529 0.154579,0.27136 18.094389,-31.87038 18.093919,-31.5073 0,0 4.7e-4,-0.36308 0,0 -2.3e-4,0.18154 18.072207,0.15221 36.186467,0.24201 z"
       sodipodi:nodetypes="ccccc"
       inkscape:connector-curvature="0" />
    <path
       style="fill:#ffffff;fill-opacity:1;fill-rule:evenodd;stroke:none;stroke-width:1px;stroke-linecap:butt;stroke-linejoin:miter;stroke-opacity:1"
       d="m 91.745314,124.74535 c 37.246496,1.16333 -9.863635,21.88916 -9.863635,21.88916 0,0 15.584754,-13.32397 9.863635,-21.88916 z"
       id="path3497"
       sodipodi:nodetypes="csc"
       inkscape:connector-curvature="0" />
    <path
       style="fill:#ffffff;fill-opacity:1;fill-rule:evenodd;stroke:none;stroke-width:1px;stroke-linecap:butt;stroke-linejoin:miter;stroke-opacity:1"
       d="m 103.23036,96.910985 5.40474,6.891035 c -3.25548,0.56485 -6.94019,4.29523 -6.89103,7.56662 l -5.539852,-6.62079 c 0.446964,-2.97003 3.306009,-6.702396 7.026142,-7.836865 z"
       id="path3499"
       sodipodi:nodetypes="ccccc"
       inkscape:connector-curvature="0" />
    <path
       style="fill:#ffffff;fill-opacity:1;fill-rule:evenodd;stroke:none;stroke-width:1px;stroke-linecap:butt;stroke-linejoin:miter;stroke-opacity:1"
       d="m 106.33809,113.93589 4.86426,2.83748 c 1.45079,-0.82651 3.48594,-0.52132 6.35056,0.40536 l -1.75654,-2.56725 c -1.63831,-0.94027 -7.4378,-1.49042 -9.45828,-0.67559 z"
       id="path3501"
       sodipodi:nodetypes="ccccc"
       inkscape:connector-curvature="0" />
    <path
       style="fill:#ffffff;fill-opacity:1;fill-rule:evenodd;stroke:none;stroke-width:1px;stroke-linecap:butt;stroke-linejoin:miter;stroke-opacity:1"
       d="m 117.14755,86.101522 c -1.93039,5.107637 0.58163,9.623984 2.02679,11.349936 1.51269,1.806612 3.90753,2.283139 5.40472,2.297011 l -0.27024,-6.891033 c -1.37694,-0.564292 -4.82552,-1.324325 -7.16127,-6.755914 z"
       id="path3503"
       sodipodi:nodetypes="czccc"
       inkscape:connector-curvature="0" />
    <path
       style="fill:#ffffff;fill-opacity:1;fill-rule:evenodd;stroke:none;stroke-width:1px;stroke-linecap:butt;stroke-linejoin:miter;stroke-opacity:1"
       d="m 117.95826,142.17561 c -0.5683,5.35701 3.1055,11.95298 6.79045,12.6044 l -0.13469,-7.67022 c -1.69814,0.37118 -3.79776,-0.25691 -6.65576,-4.93418 z"
       id="path3505"
       sodipodi:nodetypes="cccc"
       inkscape:connector-curvature="0" />
    <path
       style="fill:#ffffff;fill-opacity:1;fill-rule:evenodd;stroke:none;stroke-width:1px;stroke-linecap:butt;stroke-linejoin:miter;stroke-opacity:1"
       d="m 116.87732,152.71484 c -0.59304,6.10946 1.7831,9.99502 3.35242,11.03414 1.55601,1.0303 3.23424,1.67032 4.61955,1.12779 l -0.27023,-6.6208 c -1.09431,0.45011 -2.50232,0.29219 -3.63282,-0.12102 -1.11362,-0.40704 -2.59698,-0.92516 -4.06892,-5.42011 z"
       id="path3507"
       sodipodi:nodetypes="czcczc"
       inkscape:connector-curvature="0" />
    <path
       style="fill:#ffffff;fill-opacity:1;fill-rule:evenodd;stroke:none;stroke-width:1px;stroke-linecap:butt;stroke-linejoin:miter;stroke-opacity:1"
       d="m 157.7896,132.33217 2.98146,12.80603 10.67642,6.13326 z"
       id="path3509"
       sodipodi:nodetypes="cccc"
       inkscape:connector-curvature="0" />
    <path
       style="fill:#ffffff;fill-opacity:1;fill-rule:evenodd;stroke:none;stroke-width:1px;stroke-linecap:butt;stroke-linejoin:miter;stroke-opacity:1"
       d="m 137.78283,106.683 3.78466,-5.92691 c 4.13843,-2.956654 7.26202,-0.947667 6.96234,3.21339 l -3.10627,5.46275 c -1.70616,-2.55844 -3.80474,-3.60714 -7.64073,-2.74923 z"
       id="path3511"
       sodipodi:nodetypes="ccccc"
       inkscape:connector-curvature="0" />
    <path
       style="fill:#ffffff;fill-opacity:1;fill-rule:evenodd;stroke:none;stroke-width:1px;stroke-linecap:butt;stroke-linejoin:miter;stroke-opacity:1"
       d="m 154.77808,93.579526 c 0.6686,4.481539 0.5166,6.249423 -0.0357,9.033184 3.05382,-1.28653 5.85848,-6.851339 5.10572,-8.961775 z"
       id="path3513"
       sodipodi:nodetypes="cccc"
       inkscape:connector-curvature="0" />
    <path
       style="fill:none;fill-opacity:1;stroke:#000000;stroke-width:2;stroke-linecap:round;stroke-linejoin:round;stroke-miterlimit:4;stroke-opacity:1"
       d="m 70.652175,93.716858 36.077525,-0.0016 18.18838,-31.423443 18.04014,31.243259 36.30769,0.03988 -18.03739,31.244846 18.11931,31.46332 -36.07753,0.002 -18.18838,31.42344 -18.04013,-31.24326 -36.307698,-0.0399 18.03739,-31.24485 -18.119307,-31.463322 z"
       id="path3270"
       inkscape:connector-curvature="0"
       sodipodi:nodetypes="cccccccccccccc" />
    <path
       sodipodi:nodetypes="cc"
       style="fill:none;fill-opacity:1;stroke:#000000;stroke-width:2;stroke-linecap:round;stroke-linejoin:round;stroke-miterlimit:4;stroke-opacity:1"
       d="M 70.733979,156.42444 179.26579,93.574386"
       id="path3277"
       inkscape:connector-curvature="0" />
    <path
       id="path3281"
       d="M 179.34772,156.28373 70.652058,93.717445"
       style="fill:none;fill-opacity:1;stroke:#000000;stroke-width:2;stroke-linecap:round;stroke-linejoin:round;stroke-miterlimit:4;stroke-opacity:1"
       sodipodi:nodetypes="cc"
       inkscape:connector-curvature="0" />
    <path
       sodipodi:nodetypes="cc"
       style="fill:none;fill-opacity:1;stroke:#000000;stroke-width:2;stroke-linecap:round;stroke-linejoin:round;stroke-miterlimit:4;stroke-opacity:1"
       d="m 161.22852,124.81982 -72.457036,0.36036"
       id="path3287"
       inkscape:connector-curvature="0" />
    <path
       id="path3291"
       d="M 142.95822,93.535094 107.04178,156.46491"
       style="fill:none;fill-opacity:1;stroke:#000000;stroke-width:2;stroke-linecap:round;stroke-linejoin:round;stroke-miterlimit:4;stroke-opacity:1"
       sodipodi:nodetypes="cc"
       inkscape:connector-curvature="0" />
    <path
       sodipodi:nodetypes="cc"
       style="fill:none;fill-opacity:1;stroke:#000000;stroke-width:2;stroke-linecap:round;stroke-linejoin:round;stroke-miterlimit:4;stroke-opacity:1"
       d="m 124.91865,62.291628 0.16383,125.416352"
       id="path3300"
       inkscape:connector-curvature="0" />
    <path
       id="path3302"
       d="m 106.7297,93.715275 36.5406,62.569455"
       style="fill:none;fill-opacity:1;stroke:#000000;stroke-width:2;stroke-linecap:round;stroke-linejoin:round;stroke-miterlimit:4;stroke-opacity:1"
       sodipodi:nodetypes="cc"
       inkscape:connector-curvature="0" />
  </g>
</svg>
