<?xml version="1.0" encoding="UTF-8" standalone="no"?>
<!-- Created with Inkscape (http://www.inkscape.org/) -->

<svg
   xmlns:dc="http://purl.org/dc/elements/1.1/"
   xmlns:cc="http://creativecommons.org/ns#"
   xmlns:rdf="http://www.w3.org/1999/02/22-rdf-syntax-ns#"
   xmlns:svg="http://www.w3.org/2000/svg"
   xmlns="http://www.w3.org/2000/svg"
   xmlns:sodipodi="http://sodipodi.sourceforge.net/DTD/sodipodi-0.dtd"
   xmlns:inkscape="http://www.inkscape.org/namespaces/inkscape"
   version="1.0"
   width="250"
   height="250"
   id="svg2572"
   sodipodi:version="0.32"
   inkscape:version="0.92.2 (5c3e80d, 2017-08-06)"
   sodipodi:docname="Waves-icon.svg"
   inkscape:output_extension="org.inkscape.output.svg.inkscape">
  <metadata
     id="metadata10">
    <rdf:RDF>
      <cc:Work
         rdf:about="">
        <dc:format>image/svg+xml</dc:format>
        <dc:type
           rdf:resource="http://purl.org/dc/dcmitype/StillImage" />
      </cc:Work>
    </rdf:RDF>
  </metadata>
  <sodipodi:namedview
     inkscape:window-height="705"
     inkscape:window-width="1366"
     inkscape:pageshadow="2"
     inkscape:pageopacity="0.0"
     guidetolerance="10.0"
     gridtolerance="10.0"
     objecttolerance="10.0"
     borderopacity="1.0"
     bordercolor="#666666"
     pagecolor="#ffffff"
     id="base"
     showgrid="false"
     inkscape:zoom="2.024"
     inkscape:cx="125"
     inkscape:cy="125"
     inkscape:window-x="-8"
     inkscape:window-y="-8"
     inkscape:current-layer="svg2572"
     inkscape:window-maximized="1"
     inkscape:snap-global="false" />
  <defs
     id="defs2574">
    <inkscape:perspective
       sodipodi:type="inkscape:persp3d"
       inkscape:vp_x="0 : 34.913399 : 1"
       inkscape:vp_y="0 : 1000 : 0"
       inkscape:vp_z="69.069183 : 34.913399 : 1"
       inkscape:persp3d-origin="34.534592 : 23.275599 : 1"
       id="perspective12" />
    <inkscape:perspective
       id="perspective3294"
       inkscape:persp3d-origin="372.04724 : 350.78739 : 1"
       inkscape:vp_z="744.09448 : 526.18109 : 1"
       inkscape:vp_y="0 : 1000 : 0"
       inkscape:vp_x="0 : 526.18109 : 1"
       sodipodi:type="inkscape:persp3d" />
  </defs>
  <path
     id="path16"
     d="M 22,22.000001 V 228 H 228 V 22.000001 Z"
     style="fill:#ffffff;fill-opacity:1;fill-rule:evenodd;stroke:#ffffff;stroke-width:0;stroke-linecap:butt;stroke-miterlimit:4;stroke-dasharray:none;stroke-dashoffset:0;stroke-opacity:1"
     inkscape:connector-curvature="0"
     sodipodi:nodetypes="ccccc" />
  <g
     id="g27">
    <path
       id="path29"
       d="m 42.5,42.5 h 165 v 165 H 43.03125 Z"
       style="fill:#ffffff;fill-opacity:1;fill-rule:evenodd;stroke:#ffffff;stroke-width:0;stroke-linecap:butt;stroke-miterlimit:4;stroke-dasharray:none;stroke-dashoffset:0;stroke-opacity:1" />
    <path
       id="rect2682"
       d="M 25,25 V 225 H 225 V 25 Z m 17.5,17.5 h 165 v 165 H 43.03125 Z"
       style="fill:#000000;fill-opacity:1;fill-rule:evenodd;stroke:#ffffff;stroke-width:0;stroke-linecap:butt;stroke-miterlimit:4;stroke-dasharray:none;stroke-dashoffset:0;stroke-opacity:1"
       inkscape:connector-curvature="0" />
    <path
       sodipodi:nodetypes="ccccc"
       d="M 203.59824,46.401759 H 46.401761 L 46.903982,203.59824 H 203.59824 Z"
       id="path2680"
       style="fill:#000000;stroke:none"
       inkscape:connector-curvature="0" />
    <path
       id="path3609"
       d="m 43.75,43.75 0.09375,24.78125 c 6.289607,-5.426646 11.921769,-6.366573 16,-6.28125 6.28953,0.131585 10.09271,3.440436 10.125,9.3125 0.0323,5.871473 -4.16288,9.132959 -10.125,9.3125 -5.96213,0.179541 -10.1573,3.441032 -10.125,9.3125 0.0323,5.87207 3.83547,9.18092 10.125,9.3125 6.16701,0.12902 15.902124,-2.011868 26.0625,-18.625 10.160375,-16.613132 19.89549,-18.754023 26.0625,-18.625 6.28953,0.131585 10.0927,3.440436 10.125,9.3125 0.0323,5.871473 -4.16288,9.132959 -10.125,9.3125 -5.96213,0.179541 -10.1573,3.441032 -10.125,9.3125 0.0323,5.87207 3.83547,9.18092 10.125,9.3125 6.16701,0.12902 15.90174,-2.011868 26.0625,-18.625 10.16075,-16.613132 19.89549,-18.754023 26.0625,-18.625 6.28953,0.131585 10.0927,3.440436 10.125,9.3125 0.0323,5.871473 -4.16288,9.132959 -10.125,9.3125 -5.96213,0.179541 -10.1573,3.441032 -10.125,9.3125 0.0323,5.87207 3.83547,9.18092 10.125,9.3125 6.16701,0.12902 15.90193,-2.011868 26.0625,-18.625 5.67732,-9.282755 11.23087,-14.033684 16.09375,-16.40625 V 43.75 Z"
       style="fill:#ffffff;stroke:none;stroke-width:1;stroke-opacity:1"
       inkscape:connector-curvature="0" />
    <path
       id="path3614"
       d="m 84.71875,107.25 c -6.187986,0.18891 -15.349648,3.05018 -24.875,18.625 -5.558797,9.08913 -10.992241,13.82842 -15.78125,16.25 l 0.0625,16.15625 c 6.173777,-5.20863 11.70278,-6.11527 15.71875,-6.03125 6.28953,0.13159 10.09271,3.44044 10.125,9.3125 0.0323,5.87147 -4.16288,9.13295 -10.125,9.3125 -5.96213,0.17954 -10.1573,3.44103 -10.125,9.3125 0.0323,5.87207 3.83547,9.18092 10.125,9.3125 6.16701,0.12902 15.902124,-2.01187 26.0625,-18.625 10.160375,-16.61314 19.89549,-18.75402 26.0625,-18.625 6.28953,0.13159 10.0927,3.44044 10.125,9.3125 0.0323,5.87147 -4.16288,9.13295 -10.125,9.3125 -5.96213,0.17954 -10.1573,3.44103 -10.125,9.3125 0.0323,5.87207 3.83547,9.18092 10.125,9.3125 6.16701,0.12902 15.90174,-2.01187 26.0625,-18.625 10.16075,-16.61314 19.89549,-18.75402 26.0625,-18.625 6.28953,0.13159 10.0927,3.44044 10.125,9.3125 0.0323,5.87147 -4.16288,9.13295 -10.125,9.3125 -5.96213,0.17954 -10.1573,3.44103 -10.125,9.3125 0.0323,5.87207 3.83547,9.18092 10.125,9.3125 6.16701,0.12902 15.90193,-2.01187 26.0625,-18.625 5.67732,-9.28276 11.23087,-14.03368 16.09375,-16.40625 v -16.3125 c -6.32412,5.49267 -11.99699,6.42946 -16.09375,6.34375 -6.28953,-0.13158 -10.0927,-3.44043 -10.125,-9.3125 -0.0323,-5.87147 4.16287,-9.13296 10.125,-9.3125 5.96212,-0.17954 10.1573,-3.44103 10.125,-9.3125 -0.0323,-5.87206 -3.83547,-9.18091 -10.125,-9.3125 -6.16701,-0.12902 -15.90194,2.01186 -26.0625,18.625 -10.16057,16.61313 -19.89549,18.75402 -26.0625,18.625 -6.28953,-0.13158 -10.0927,-3.44043 -10.125,-9.3125 -0.0323,-5.87147 4.16287,-9.13296 10.125,-9.3125 5.96212,-0.17954 10.1573,-3.44103 10.125,-9.3125 -0.0323,-5.87206 -3.83547,-9.18091 -10.125,-9.3125 -6.16701,-0.12902 -15.90175,2.01186 -26.0625,18.625 -10.16076,16.61313 -19.89549,18.75402 -26.0625,18.625 -6.28953,-0.13158 -10.0927,-3.44043 -10.125,-9.3125 -0.0323,-5.87147 4.16287,-9.13296 10.125,-9.3125 5.96212,-0.17954 10.1573,-3.44103 10.125,-9.3125 -0.0323,-5.87206 -3.83547,-9.18091 -10.125,-9.3125 -0.385438,-0.008 -0.774968,-0.0126 -1.1875,0 z"
       style="fill:#ffffff;stroke:none;stroke-width:1;stroke-opacity:1"
       inkscape:connector-curvature="0" />
  </g>
</svg>
